<svg xmlns="http://www.w3.org/2000/svg" xmlns:xlink="http://www.w3.org/1999/xlink" xmlns:lucid="lucid" width="1375.13" height="938.95"><g transform="translate(-558.2054579502758 -190.63867233636807)" lucid:page-tab-id="cJxgGCVkUsp2"><path d="M500 0h1500v1500H500z" fill="#fff"/><path d="M1037.14 269.47c0 30.56-37 55.33-82.67 55.33-45.65 0-82.66-24.77-82.66-55.33s37.02-55.33 82.67-55.33c45.66 0 82.67 24.77 82.67 55.33z" stroke="#3a414a" fill="#fcfcca"/><use xlink:href="#a" transform="matrix(1,0,0,1,876.8072769911396,219.13867233636807) translate(55.31364197530864 43.02777777777778)"/><use xlink:href="#b" transform="matrix(1,0,0,1,876.8072769911396,219.13867233636807) translate(39.264259259259255 69.69444444444446)"/><path d="M744.04 272.47c0 30.56-37 55.33-82.67 55.33-45.65 0-82.66-24.77-82.66-55.33s37.02-55.33 82.67-55.33c45.66 0 82.67 24.77 82.67 55.33z" stroke="#3a414a" fill="#fcfcca"/><use xlink:href="#c" transform="matrix(1,0,0,1,583.7054579502758,222.1386723363682) translate(35.56055555555555 43.02777777777778)"/><use xlink:href="#d" transform="matrix(1,0,0,1,583.7054579502758,222.1386723363682) translate(15.869197530864193 69.69444444444446)"/><path d="M774.37 272.95h-29.33V272h29.33zm96.03-3h-28.92V269h28.92z" stroke="#3a414a" stroke-width=".05" fill="#3a414a"/><path d="M745.05 272.95h-.52V272h.52z" fill="#3a414a"/><path stroke="#3a414a" stroke-width=".05" fill="#3a414a"/><path d="M871.26 269.47l-18.04 10.4-.47-.8 16.6-9.6-16.6-9.6.47-.8z" stroke="#3a414a" stroke-width=".05" fill="#3a414a"/><use xlink:href="#e" transform="matrix(1,0,0,1,774.3674784249278,249.6386723363681) translate(0.005000000000002558 14.222222222222223)"/><use xlink:href="#f" transform="matrix(1,0,0,1,774.3674784249278,249.6386723363681) translate(2.9679629629629645 35.55555555555556)"/><path d="M1163.5 272v.95h-28.92V272zm-125.36-2.05V269h29.33v.95z" stroke="#3a414a" stroke-width=".05" fill="#3a414a"/><path d="M1038.15 269.95h-.52V269h.52z" fill="#3a414a"/><path stroke="#3a414a" stroke-width=".05" fill="#3a414a"/><path d="M1164.36 272.47l-18.03 10.4-.48-.8 16.6-9.6-16.6-9.6.48-.8z" stroke="#3a414a" stroke-width=".05" fill="#3a414a"/><use xlink:href="#e" transform="matrix(1,0,0,1,1067.4692974905292,249.63867233636816) translate(0.005000000000002558 14.222222222222223)"/><use xlink:href="#f" transform="matrix(1,0,0,1,1067.4692974905292,249.63867233636816) translate(2.9679629629629645 35.55555555555556)"/><path d="M1330.24 272.47c0 32.22-37 58.33-82.66 58.33s-82.67-26.1-82.67-58.33c0-32.22 37.02-58.33 82.68-58.33 45.65 0 82.66 26.12 82.66 58.33z" stroke="#3a414a" fill="#fcfcca"/><use xlink:href="#g" transform="matrix(1,0,0,1,1169.9090960320034,219.1386723363682) translate(54.07907407407407 31.15277777777778)"/><use xlink:href="#h" transform="matrix(1,0,0,1,1169.9090960320034,219.1386723363682) translate(21.33333333333333 57.81944444444445)"/><use xlink:href="#i" transform="matrix(1,0,0,1,1169.9090960320034,219.1386723363682) translate(41.76425925925926 84.48611111111111)"/><path d="M1623.34 269.47c0 32.22-37 58.33-82.66 58.33S1458 301.7 1458 269.48c0-32.22 37.02-58.33 82.68-58.33 45.65 0 82.66 26.12 82.66 58.33z" stroke="#3a414a" fill="#fcfcca"/><use xlink:href="#j" transform="matrix(1,0,0,1,1463.0109150728674,216.13867233636807) translate(54.69635802469136 44.52777777777778)"/><use xlink:href="#k" transform="matrix(1,0,0,1,1463.0109150728674,216.13867233636807) translate(20.15932098765431 71.19444444444446)"/><path d="M1360.57 272.95h-29.33V272h29.33zm96.03-3h-28.92V269h28.92z" stroke="#3a414a" stroke-width=".05" fill="#3a414a"/><path d="M1331.26 272.95h-.53V272h.53z" fill="#3a414a"/><path stroke="#3a414a" stroke-width=".05" fill="#3a414a"/><path d="M1457.46 269.47l-18.03 10.4-.48-.8 16.6-9.6-16.6-9.6.48-.8z" stroke="#3a414a" stroke-width=".05" fill="#3a414a"/><use xlink:href="#e" transform="matrix(1,0,0,1,1360.5711165067414,249.63867233636816) translate(0.005000000000002558 14.222222222222223)"/><use xlink:href="#l" transform="matrix(1,0,0,1,1360.5711165067414,249.63867233636816) translate(11.338333333333335 35.55555555555556)"/><path d="M809.28 791.5a6 6 0 0 1 6-6h600a6 6 0 0 1 6 6v40a6 6 0 0 1-6 6h-600a6 6 0 0 1-6-6z" stroke="#282c33" stroke-width="2" fill="#fff"/><use xlink:href="#m" transform="matrix(1,0,0,1,814.2762815969195,790.5053153791235) translate(0 25.65277777777778)"/><use xlink:href="#n" transform="matrix(1,0,0,1,814.2762815969195,790.5053153791235) translate(24.691358024691358 25.65277777777778)"/><use xlink:href="#o" transform="matrix(1,0,0,1,814.2762815969195,790.5053153791235) translate(96.23456790123456 25.65277777777778)"/><use xlink:href="#p" transform="matrix(1,0,0,1,814.2762815969195,790.5053153791235) translate(181.35802469135803 25.65277777777778)"/><use xlink:href="#q" transform="matrix(1,0,0,1,814.2762815969195,790.5053153791235) translate(208.5185185185185 25.65277777777778)"/><use xlink:href="#r" transform="matrix(1,0,0,1,814.2762815969195,790.5053153791235) translate(282.59259259259255 25.65277777777778)"/><use xlink:href="#s" transform="matrix(1,0,0,1,814.2762815969195,790.5053153791235) translate(356.66666666666663 25.65277777777778)"/><use xlink:href="#t" transform="matrix(1,0,0,1,814.2762815969195,790.5053153791235) translate(369.0123456790123 25.65277777777778)"/><use xlink:href="#u" transform="matrix(1,0,0,1,814.2762815969195,790.5053153791235) translate(458.9506172839506 25.65277777777778)"/><path d="M809.28 843.5a6 6 0 0 1 6-6h600a6 6 0 0 1 6 6v40a6 6 0 0 1-6 6h-600a6 6 0 0 1-6-6z" stroke="#282c33" stroke-width="2" fill="#fff"/><use xlink:href="#v" transform="matrix(1,0,0,1,814.2762815969195,842.5053153791235) translate(0 25.65277777777778)"/><use xlink:href="#w" transform="matrix(1,0,0,1,814.2762815969195,842.5053153791235) translate(24.691358024691358 25.65277777777778)"/><use xlink:href="#o" transform="matrix(1,0,0,1,814.2762815969195,842.5053153791235) translate(96.23456790123456 25.65277777777778)"/><use xlink:href="#x" transform="matrix(1,0,0,1,814.2762815969195,842.5053153791235) translate(181.35802469135803 25.65277777777778)"/><use xlink:href="#y" transform="matrix(1,0,0,1,814.2762815969195,842.5053153791235) translate(208.5185185185185 25.65277777777778)"/><use xlink:href="#z" transform="matrix(1,0,0,1,814.2762815969195,842.5053153791235) translate(282.59259259259255 25.65277777777778)"/><use xlink:href="#s" transform="matrix(1,0,0,1,814.2762815969195,842.5053153791235) translate(356.66666666666663 25.65277777777778)"/><use xlink:href="#t" transform="matrix(1,0,0,1,814.2762815969195,842.5053153791235) translate(369.0123456790123 25.65277777777778)"/><use xlink:href="#A" transform="matrix(1,0,0,1,814.2762815969195,842.5053153791235) translate(458.9506172839506 25.65277777777778)"/><path d="M809.28 895.5a6 6 0 0 1 6-6h600a6 6 0 0 1 6 6v40a6 6 0 0 1-6 6h-600a6 6 0 0 1-6-6z" stroke="#282c33" stroke-width="2" fill="#fff"/><use xlink:href="#B" transform="matrix(1,0,0,1,814.2762815969195,894.5053153791235) translate(0 25.65277777777778)"/><use xlink:href="#C" transform="matrix(1,0,0,1,814.2762815969195,894.5053153791235) translate(24.691358024691358 25.65277777777778)"/><use xlink:href="#o" transform="matrix(1,0,0,1,814.2762815969195,894.5053153791235) translate(96.23456790123456 25.65277777777778)"/><use xlink:href="#p" transform="matrix(1,0,0,1,814.2762815969195,894.5053153791235) translate(181.35802469135803 25.65277777777778)"/><use xlink:href="#D" transform="matrix(1,0,0,1,814.2762815969195,894.5053153791235) translate(208.5185185185185 25.65277777777778)"/><use xlink:href="#E" transform="matrix(1,0,0,1,814.2762815969195,894.5053153791235) translate(282.59259259259255 25.65277777777778)"/><use xlink:href="#s" transform="matrix(1,0,0,1,814.2762815969195,894.5053153791235) translate(356.66666666666663 25.65277777777778)"/><use xlink:href="#t" transform="matrix(1,0,0,1,814.2762815969195,894.5053153791235) translate(369.0123456790123 25.65277777777778)"/><use xlink:href="#F" transform="matrix(1,0,0,1,814.2762815969195,894.5053153791235) translate(458.9506172839506 25.65277777777778)"/><path d="M809.28 979.5a6 6 0 0 1 6-6h600a6 6 0 0 1 6 6v40a6 6 0 0 1-6 6h-600a6 6 0 0 1-6-6z" stroke="#282c33" stroke-width="2" fill="#fff"/><use xlink:href="#G" transform="matrix(1,0,0,1,814.2762815969195,978.5053153791235) translate(0 25.65277777777778)"/><use xlink:href="#H" transform="matrix(1,0,0,1,814.2762815969195,978.5053153791235) translate(28.333333333333332 25.65277777777778)"/><use xlink:href="#o" transform="matrix(1,0,0,1,814.2762815969195,978.5053153791235) translate(103.5185185185185 25.65277777777778)"/><use xlink:href="#I" transform="matrix(1,0,0,1,814.2762815969195,978.5053153791235) translate(188.64197530864197 25.65277777777778)"/><use xlink:href="#J" transform="matrix(1,0,0,1,814.2762815969195,978.5053153791235) translate(214.50617283950618 25.65277777777778)"/><use xlink:href="#K" transform="matrix(1,0,0,1,814.2762815969195,978.5053153791235) translate(292.22222222222223 25.65277777777778)"/><use xlink:href="#s" transform="matrix(1,0,0,1,814.2762815969195,978.5053153791235) translate(369.9382716049383 25.65277777777778)"/><use xlink:href="#t" transform="matrix(1,0,0,1,814.2762815969195,978.5053153791235) translate(382.28395061728395 25.65277777777778)"/><use xlink:href="#L" transform="matrix(1,0,0,1,814.2762815969195,978.5053153791235) translate(472.22222222222223 25.65277777777778)"/><path d="M809.28 947.5a6 6 0 0 1 6-6h225.33a6 6 0 0 1 6 6v20a6 6 0 0 1-6 6H815.3a6 6 0 0 1-6-6z" fill="none"/><use xlink:href="#M" transform="matrix(1,0,0,1,809.2762815969195,941.5053153791235) translate(109.74074074074073 20.444444444444443)"/><path d="M809.28 1055.6a6 6 0 0 1 6-6h228a6 6 0 0 1 6 6v48a6 6 0 0 1-6 6h-228a6 6 0 0 1-6-6z" fill="none"/><use xlink:href="#N" transform="matrix(1,0,0,1,809.2762815969195,1049.588353413681) translate(4.814814814814824 34.44444444444444)"/><use xlink:href="#O" transform="matrix(1,0,0,1,809.2762815969195,1049.588353413681) translate(87.28395061728395 34.44444444444444)"/><use xlink:href="#P" transform="matrix(1,0,0,1,809.2762815969195,1049.588353413681) translate(161.23456790123458 34.44444444444444)"/><path d="M1037.14 563c0 30.56-37 55.33-82.67 55.33-45.65 0-82.66-24.77-82.66-55.33s37.02-55.33 82.67-55.33c45.66 0 82.67 24.77 82.67 55.33z" stroke="#3a414a" fill="#fcfcca"/><use xlink:href="#Q" transform="matrix(1,0,0,1,876.8072769911396,512.6666666666276) translate(18.154320987654323 55.65277777777778)"/><use xlink:href="#R" transform="matrix(1,0,0,1,876.8072769911396,512.6666666666276) translate(100.80864197530863 55.65277777777778)"/><path d="M744.04 566c0 30.56-37 55.33-82.67 55.33-45.65 0-82.66-24.77-82.66-55.33s37.02-55.33 82.67-55.33c45.66 0 82.67 24.77 82.67 55.33z" stroke="#3a414a" fill="#fcfcca"/><use xlink:href="#S" transform="matrix(1,0,0,1,583.7054579502758,515.6666666666279) translate(54.60493827160494 55.65277777777778)"/><path d="M774.37 566.48h-29.33v-.96h29.33zm96.03-3h-28.92v-.96h28.92z" stroke="#3a414a" stroke-width=".05" fill="#3a414a"/><path d="M745.05 566.48h-.52v-.96h.52z" fill="#3a414a"/><path stroke="#3a414a" stroke-width=".05" fill="#3a414a"/><path d="M871.26 563l-18.04 10.4-.47-.8 16.6-9.6-16.6-9.6.47-.8z" stroke="#3a414a" stroke-width=".05" fill="#3a414a"/><use xlink:href="#e" transform="matrix(1,0,0,1,774.3674784249278,543.1666666666276) translate(0.005000000000002558 14.222222222222223)"/><use xlink:href="#f" transform="matrix(1,0,0,1,774.3674784249278,543.1666666666276) translate(2.9679629629629645 35.55555555555556)"/><path d="M1163.5 565.52v.96h-28.92v-.96zm-125.36-2.04v-.96h29.33v.96z" stroke="#3a414a" stroke-width=".05" fill="#3a414a"/><path d="M1038.15 563.48h-.52v-.96h.52z" fill="#3a414a"/><path stroke="#3a414a" stroke-width=".05" fill="#3a414a"/><path d="M1164.36 566l-18.03 10.4-.48-.8 16.6-9.6-16.6-9.6.48-.8z" stroke="#3a414a" stroke-width=".05" fill="#3a414a"/><use xlink:href="#e" transform="matrix(1,0,0,1,1067.4692974905292,543.1666666666277) translate(0.005000000000002558 14.222222222222223)"/><use xlink:href="#f" transform="matrix(1,0,0,1,1067.4692974905292,543.1666666666277) translate(2.9679629629629645 35.55555555555556)"/><path d="M1330.24 566c0 32.22-37 58.33-82.66 58.33s-82.67-26.1-82.67-58.33c0-32.22 37.02-58.33 82.68-58.33 45.65 0 82.66 26.1 82.66 58.33z" stroke="#3a414a" fill="#fcfcca"/><use xlink:href="#T" transform="matrix(1,0,0,1,1169.9090960320034,512.6666666666279) translate(33 57.90277777777778)"/><use xlink:href="#U" transform="matrix(1,0,0,1,1169.9090960320034,512.6666666666279) translate(110.65432098765432 57.90277777777778)"/><path d="M1623.34 563c0 32.22-37 58.33-82.66 58.33S1458 595.23 1458 563c0-32.22 37.02-58.33 82.68-58.33 45.65 0 82.66 26.1 82.66 58.33z" stroke="#3a414a" fill="#fcfcca"/><use xlink:href="#V" transform="matrix(1,0,0,1,1463.0109150728674,509.6666666666278) translate(4.049382716049379 57.90277777777778)"/><use xlink:href="#W" transform="matrix(1,0,0,1,1463.0109150728674,509.6666666666278) translate(124.91358024691358 57.90277777777778)"/><path d="M1360.57 566.48h-29.33v-.96h29.33zm96.03-3h-28.92v-.96h28.92z" stroke="#3a414a" stroke-width=".05" fill="#3a414a"/><path d="M1331.26 566.48h-.53v-.96h.53z" fill="#3a414a"/><path stroke="#3a414a" stroke-width=".05" fill="#3a414a"/><path d="M1457.46 563l-18.03 10.4-.48-.8 16.6-9.6-16.6-9.6.48-.8z" stroke="#3a414a" stroke-width=".05" fill="#3a414a"/><use xlink:href="#e" transform="matrix(1,0,0,1,1360.5711165067414,543.1666666666277) translate(0.005000000000002558 14.222222222222223)"/><use xlink:href="#l" transform="matrix(1,0,0,1,1360.5711165067414,543.1666666666277) translate(11.338333333333335 35.55555555555556)"/><path d="M661.37 509.67v-1.97m0-3.92v-3.92m0-3.92V492m0-3.9v-3.93m0-3.93v-3.92m0-3.92v-3.92m0-3.93v-3.92m0-3.92v-3.9m0-3.94v-3.92m0-3.92v-3.93m0-3.93v-3.92m0-3.93v-3.92m0-3.92v-3.92m0-3.93v-3.92m0-3.9v-3.94m0-3.92v-3.92m0-3.92v-3.93m0-3.92v-3.92m0-3.93v-3.92m0-3.92v-3.92m0-3.93v-3.9m0-3.93v-3.93m0-3.92v-3.92m0-3.92v-1.97" stroke="#3a414a" fill="none"/><path d="M661.85 510.18h-.95v-.53h.95z" stroke="#3a414a" stroke-width=".05" fill="#3a414a"/><path d="M651.37 346.63l10-17.32 10 17.33M954.47 506.67v-1.97m0-3.92v-3.92m0-3.92V489m0-3.9v-3.93m0-3.93v-3.92m0-3.92v-3.92m0-3.93v-3.92m0-3.92v-3.9m0-3.94v-3.92m0-3.92v-3.93m0-3.93v-3.92m0-3.93v-3.92m0-3.92v-3.92m0-3.93v-3.92m0-3.9v-3.94m0-3.92v-3.92m0-3.92v-3.93m0-3.92v-3.92m0-3.93v-3.92m0-3.92v-3.92m0-3.93v-3.9m0-3.93v-3.93m0-3.92v-3.92m0-3.92v-1.97" stroke="#3a414a" fill="none"/><path d="M954.95 507.18H954v-.53h.95z" stroke="#3a414a" stroke-width=".05" fill="#3a414a"/><path d="M944.47 343.63l10-17.32 10 17.33M1247.58 506.67v-2m0-3.95v-3.97m0-3.96v-3.98m0-3.96v-3.97m0-3.97v-3.96m0-3.97v-3.96m0-3.97v-3.96m0-3.96v-3.96m0-3.97v-3.95m0-3.97v-3.96m0-3.97v-3.96m0-3.98v-3.96m0-3.97v-3.97m0-3.97v-3.96m0-3.97v-3.96m0-3.97v-3.96m0-3.97v-3.96m0-3.95v-3.97m0-3.96v-3.97m0-3.96V354m0-3.96v-3.97m0-3.97v-3.97m0-3.96v-2" stroke="#3a414a" fill="none"/><path d="M1248.05 507.18h-.95v-.53h.95z" stroke="#3a414a" stroke-width=".05" fill="#3a414a"/><path d="M1237.58 349.63l10-17.32 10 17.33M1540.68 503.67v-2m0-3.95v-3.97m0-3.96v-3.98m0-3.96v-3.97m0-3.97v-3.96m0-3.97v-3.96m0-3.97v-3.96m0-3.96v-3.96m0-3.97v-3.95m0-3.97v-3.96m0-3.97v-3.96m0-3.98v-3.96m0-3.97v-3.97m0-3.97v-3.96m0-3.97v-3.96m0-3.97v-3.96m0-3.97v-3.96m0-3.95v-3.97m0-3.96v-3.97m0-3.96V351m0-3.96v-3.97m0-3.97v-3.97m0-3.96v-2" stroke="#3a414a" fill="none"/><path d="M1541.15 504.18h-.95v-.53h.95z" stroke="#3a414a" stroke-width=".05" fill="#3a414a"/><path d="M1530.68 346.63l10-17.32 10 17.33" stroke="#3a414a" fill="none"/><path d="M1158.97 604.33l-10.73 6.62-14.32 8.02-17.13 8.68-21.33 9.7-28.63 11.58-118.9 40.34-42.9 15.2-22.22 8.98-15.53 7.06-11.88 6.02-9.5 5.33-7.86 4.84-6.62 4.47-5.68 4.2-4.9 3.96-4.32 3.78-3.8 3.65-3.4 3.5-3 3.43-2.73 3.34-2.44 3.28-2.2 3.24-2 3.2-1.82 3.2-1.63 3.2-1.47 3.2-1.33 3.25-1.18 3.26-1.05 3.33-.92 3.4-.8 3.48-.64 3.6-.5 3.7-.37 3.86-.22 4.03-.04 4.22.13 4.44.33 4.7.57 5.04.85 5.4 1.16 5.8 1.55 6.32 2 6.9 2.56 7.64 3.26 8.5 4.12 9.56 4.8 10-1.74.84-4.83-10.03-4.15-9.62-3.28-8.58-2.58-7.7-2.03-7-1.56-6.4-1.17-5.9-.86-5.46-.58-5.1-.36-4.8-.13-4.53.06-4.3.22-4.1.38-3.94.53-3.8.65-3.67.8-3.57.95-3.48 1.07-3.4 1.22-3.37 1.34-3.3 1.5-3.3 1.7-3.26 1.84-3.27 2.04-3.28 2.25-3.3 2.5-3.35 2.77-3.4 3.08-3.48 3.44-3.58 3.86-3.7 4.37-3.82 4.97-4.02 5.74-4.24 6.7-4.53 7.92-4.88 9.58-5.37 11.95-6.05 15.6-7.1 22.3-9 42.96-15.22 118.86-40.33 28.54-11.55 21.25-9.66 17.06-8.65 14.25-7.98 10.7-6.6z" stroke="#ff80df" stroke-width=".05" fill="#ff80df"/><path d="M806.46 897.13l-1.2 2-.73-1.5 1.75-.86z" fill="#ff80df"/><path stroke="#ff80df" stroke-width=".05" fill="#ff80df"/><path d="M1161.9 606.77l-5.22-7.67 14.4-4.18z" fill="#ff80df"/><path d="M1161.84 608.43l-6.72-9.9 18.58-5.38zm-3.6-8.76l3.7 5.44 6.54-8.4z" stroke="#ff80df" stroke-width=".05" fill="#ff80df"/><path d="M1574.88 688.94a6 6 0 0 1 6-6h166.66a6 6 0 0 1 6 6v41.33a6 6 0 0 1-6 6h-166.66a6 6 0 0 1-6-6z" stroke="#282c33" stroke-width="2" fill="#fff"/><g><use xlink:href="#X" transform="matrix(1,0,0,1,1579.876326184573,687.9416662403829) translate(8.635802469135811 26.02777777777778)"/></g><path d="M1361.88 687.48a6 6 0 0 1 6-6h166.67a6 6 0 0 1 6 6v41.33a6 6 0 0 1-6 6h-166.67a6 6 0 0 1-6-6z" stroke="#282c33" stroke-width="2" fill="#fff"/><g><use xlink:href="#Y" transform="matrix(1,0,0,1,1366.8792844934042,686.4761571451785) translate(1.6604938271605079 26.02777777777778)"/><use xlink:href="#Z" transform="matrix(1,0,0,1,1366.8792844934042,686.4761571451785) translate(57.216049382716065 26.02777777777778)"/></g><path d="M1666.98 680.98l-.64.7-10.66-9.75h1.4zm-56.57-51.7h-1.4l-19.58-17.9.64-.7z" stroke="#3a414a" stroke-width=".05" fill="#3a414a"/><path d="M1667.3 681.9l-20.34-4.47.2-.93 18.74 4.13-2.76-8.7h1z" stroke="#3a414a" stroke-width=".05" fill="#3a414a"/><path d="M1590.07 610.68l-.64.7-.52-.48.93-.44z" fill="#3a414a"/><path stroke="#3a414a" stroke-width=".05" fill="#3a414a"/><g><use xlink:href="#e" transform="matrix(1,0,0,1,1599.4895251319692,629.2665558679723) translate(0.005000000000002558 14.222222222222223)"/><use xlink:href="#aa" transform="matrix(1,0,0,1,1599.4895251319692,629.2665558679723) translate(7.930925925925926 35.55555555555556)"/></g><path d="M1452.05 679.9l-.84-.45 4.78-9.2h1.07zm36.6-70.5l-9.45 18.2h-1.07l9.67-18.62z" stroke="#3a414a" stroke-width=".05" fill="#3a414a"/><path d="M1451.24 680.43l-.46-10.17h.95l.38 8.5 13.3-8.5h1.76z" stroke="#3a414a" stroke-width=".05" fill="#3a414a"/><path d="M1488.86 609l-.22.43-.85-.44.24-.48z" fill="#3a414a"/><path stroke="#3a414a" stroke-width=".05" fill="#3a414a"/><g><use xlink:href="#e" transform="matrix(1,0,0,1,1433.096667537819,627.5965806412258) translate(0.9432716049382819 14.222222222222223)"/><use xlink:href="#ab" transform="matrix(1,0,0,1,1433.096667537819,627.5965806412258) translate(0.005000000000002558 35.55555555555556)"/></g><path d="M1133.7 897.97l4-1.97 5.26-2.32 5.73-2.25 6.25-2.16 6.93-2.06 7.74-1.95 8.8-1.84 10.15-1.67 12.05-1.48 14.9-1.2 19.87-.74 32.8.2 29.82.97 118.07 1.46 71.24-.36 23.15-.53 17.53-1.15 14.02-1.5 11.6-1.76 9.85-1.9 8.5-2.02 7.48-2.1 6.64-2.2 5.96-2.22 5.4-2.3 4.92-2.32 4.53-2.4 4.2-2.42 3.9-2.5 3.64-2.54 3.42-2.62 3.22-2.7 3.06-2.76 2.9-2.86 2.77-2.96 2.63-3.08 2.53-3.2 2.43-3.36 2.33-3.53 2.23-3.72 2.14-3.93 2.06-4.18 1.97-4.47 1.9-4.8 1.77-5.2 1.68-5.62 1.56-6.16 1.42-6.78 1.24-7.54 1.04-8.43.57-7.07" stroke="#ff80df" stroke-width="2" stroke-linejoin="round" fill="none"/><path d="M1134.15 898.84l-.22.1h-.02l-2.24-1.05 1.63-.8z" stroke="#ff80df" stroke-width=".05" fill="#ff80df"/><path d="M1664.1 740.5l4.12 14.43-9.27-.33z" stroke="#ff80df" stroke-width="2" fill="#ff80df"/><path d="M886.12 891.32l2.68-6.54 3.3-7.14 3.5-6.85 3.75-6.6 3.97-6.35 4.18-6.13 4.43-5.92 4.66-5.72 4.9-5.55 5.2-5.37 5.45-5.2 5.75-5.05 6.08-4.88 6.4-4.74 6.8-4.57 7.15-4.4 7.58-4.25 8.04-4.06 8.5-3.88 9.05-3.65 9.58-3.42 10.2-3.16 10.8-2.88 11.5-2.53 12.2-2.17 12.96-1.73 13.73-1.26 14.5-.72 15.3-.1 16.1.55 16.25 1.23 53.9 4.28 23.05.8 15.82-.13 12.74-.65 11.32-1.05 10.82-1.46 11.07-2 12.22-2.72 15.03-4 22.57-7.1 34-12.2" stroke="#ff80df" stroke-width="2" stroke-linejoin="round" fill="none"/><path d="M887.03 891.66l-.38.94-1.82-.7.4-.98z" stroke="#ff80df" stroke-width=".05" fill="#ff80df"/><path d="M1377.52 736.9l-11.86 9.2-3.13-8.74z" stroke="#ff80df" stroke-width="2" fill="#ff80df"/><path d="M839.4 912.95c0 12.6-8.26 22.84-18.45 22.84-10.2 0-18.45-10.24-18.45-22.85 0-12.62 8.26-22.85 18.45-22.85 10.18 0 18.44 10.23 18.44 22.85z" stroke="#ff80df" stroke-width="2" fill-opacity="0"/><path d="M902.45 912.95c0 12.6-15.07 22.84-33.65 22.84s-33.65-10.24-33.65-22.85c0-12.62 15.07-22.85 33.65-22.85s33.65 10.23 33.65 22.85zM1144.85 912.95c0 12.6-28.14 22.84-62.85 22.84-34.7 0-62.85-10.24-62.85-22.85 0-12.62 28.14-22.85 62.85-22.85 34.7 0 62.85 10.23 62.85 22.85z" stroke="#ff80df" stroke-width="2" fill-opacity="0"/><path d="M1673.33 427.3a6 6 0 0 1 6-6h228a6 6 0 0 1 6 6v48a6 6 0 0 1-6 6h-228a6 6 0 0 1-6-6z" fill="none"/><g><use xlink:href="#ac" transform="matrix(1,0,0,1,1673.3339665150327,421.29100108187157) translate(7.191358024691354 21.111111111111114)"/><use xlink:href="#ad" transform="matrix(1,0,0,1,1673.3339665150327,421.29100108187157) translate(108.17901234567901 21.111111111111114)"/><use xlink:href="#ae" transform="matrix(1,0,0,1,1673.3339665150327,421.29100108187157) translate(132.87037037037038 21.111111111111114)"/><use xlink:href="#af" transform="matrix(1,0,0,1,1673.3339665150327,421.29100108187157) translate(217.99382716049382 21.111111111111114)"/><use xlink:href="#ag" transform="matrix(1,0,0,1,1673.3339665150327,421.29100108187157) translate(26.29629629629629 47.777777777777786)"/><use xlink:href="#ah" transform="matrix(1,0,0,1,1673.3339665150327,421.29100108187157) translate(58.33333333333333 47.777777777777786)"/><use xlink:href="#ai" transform="matrix(1,0,0,1,1673.3339665150327,421.29100108187157) translate(99.01234567901234 47.777777777777786)"/></g><path d="M1611.66 531.6l.9-.4m3.6-1.6l1.78-.78m3.6-1.6l1.78-.78m3.6-1.58l1.78-.8m3.6-1.58l1.78-.8m3.6-1.58l1.78-.8m3.6-1.58l1.78-.8m3.6-1.57l1.78-.8m3.6-1.58l1.78-.8m3.6-1.58l1.78-.8m3.6-1.6l1.78-.78m3.6-1.6l1.78-.78m3.6-1.58l1.78-.8m3.6-1.58l1.78-.8m3.6-1.58l1.78-.8m3.6-1.58l1.78-.8m3.6-1.58l1.8-.8m3.57-1.57l1.8-.8m3.58-1.58l1.8-.8m3.6-1.6l1.8-.78m3.57-1.6l1.8-.78m3.58-1.58l.9-.4" stroke="#3a414a" fill="none"/><path d="M1611.87 532.02l-.35.15-.28-.34-.38-.4.62-.28z" stroke="#3a414a" stroke-width=".05" fill="#3a414a"/><path d="M1704.68 479.55l19.9 2.14-11.8 16.14" stroke="#3a414a" fill="none"/><path d="M1025.15 912.95c0 12.6-28.14 22.84-62.85 22.84-34.7 0-62.85-10.24-62.85-22.85 0-12.62 28.14-22.85 62.85-22.85 34.7 0 62.85 10.23 62.85 22.85z" stroke="#ff80df" stroke-width="2" fill-opacity="0"/><path d="M1809.83 577.62l-1.75 40.92-2.7 31.6-3.37 26.36-3.86 22.7-4.27 19.92-4.58 17.72-4.85 15.92-5.05 14.43-5.24 13.14-5.4 12.07-5.55 11.15-5.68 10.3-5.84 9.6-5.98 8.97-6.13 8.4-6.3 7.9-6.44 7.46-6.64 7.04-6.85 6.67-7.05 6.3-7.3 6.02-7.56 5.72-7.86 5.44-8.18 5.17-8.56 4.9-8.96 4.68-9.43 4.4-9.95 4.16-6.38 2.44-16.08 5.6-19.07 5.74-22.85 5.86-27.72 5.88-34.08 5.75-42.45 5.34-53.6 4.48-68.4 2.82-87.22-.05-107.53-4.55-114.1-9.5-71.2-8.75.22-1.94 71.17 8.75 114.04 9.5 107.45 4.55 87.13.05 68.3-2.82 53.53-4.46 42.38-5.33 34-5.74 27.64-5.86 22.77-5.84 19-5.73 16-5.57 6.33-2.42 9.88-4.13 9.35-4.37 8.9-4.63 8.5-4.87 8.1-5.13 7.8-5.4 7.5-5.66 7.23-5.97 7-6.27 6.77-6.6 6.58-7 6.4-7.38 6.24-7.83 6.08-8.34 5.94-8.9 5.8-9.52 5.65-10.24 5.5-11.06 5.37-12 5.2-13.07 5.03-14.34 4.8-15.85 4.57-17.63 4.25-19.84 3.87-22.62 3.34-26.26 2.7-31.52 1.74-40.84-.1-77.8h1.96z" stroke="#ff80df" stroke-width=".05" fill="#ff80df"/><path d="M967.83 937.75l-4-.5.07-.5 4.07-.13z" fill="#ff80df"/><path stroke="#ff80df" stroke-width=".05" fill="#ff80df"/><path d="M1813.4 498.8h-9.27l4.62-14.27z" fill="#ff80df"/><path d="M1814.74 499.76h-11.95l5.94-18.4zm-9.27-1.94h6.6l-3.32-10.14z" stroke="#ff80df" stroke-width=".05" fill="#ff80df"/><path d="M1342.15 912.95c0 12.6-38.24 22.84-85.4 22.84-47.18 0-85.42-10.24-85.42-22.85 0-12.62 38.24-22.85 85.4-22.85 47.18 0 85.42 10.23 85.42 22.85z" stroke="#ff80df" stroke-width="2" fill-opacity="0"/><path d="M1155.85 683.8a6 6 0 0 1 6-6h166.66a6 6 0 0 1 6 6v41.32a6 6 0 0 1-6 6h-166.65a6 6 0 0 1-6-6z" stroke="#282c33" stroke-width="2" fill="#fff"/><g><use xlink:href="#Y" transform="matrix(1,0,0,1,1160.8471733310846,682.7875789245116) translate(1.6604938271605079 26.02777777777778)"/><use xlink:href="#Z" transform="matrix(1,0,0,1,1160.8471733310846,682.7875789245116) translate(57.216049382716065 26.02777777777778)"/></g><path d="M1246.15 675.9l-.95-.03.2-11.28h.94zm.88-50.6l-.32 17.96h-.94l.32-17.97z" stroke="#3a414a" stroke-width=".05" fill="#3a414a"/><path d="M1245.66 676.74l-6.74-12.15h1.1l5.67 10.24 6.15-10.25h1.1z" stroke="#3a414a" stroke-width=".05" fill="#3a414a"/><path d="M1247.03 624.82v.5h-.95v-.53z" fill="#3a414a"/><path stroke="#3a414a" stroke-width=".05" fill="#3a414a"/><g><use xlink:href="#aj" transform="matrix(1,0,0,1,1161.7090122915931,643.2566258177009) translate(0.0049999999999954525 14.222222222222223)"/></g><path d="M1261.67 887.5l-.37-18.54-.9-14.62-1.28-12.16-1.72-11.66-9.65-52.07-1.28-12.16-.9-14.63-.02-1.05" stroke="#ff80df" stroke-width="2" stroke-linejoin="round" fill="none"/><path d="M1262.67 888.5h-1.95l-.02-1 1.95-.04z" stroke="#ff80df" stroke-width=".05" fill="#ff80df"/><path d="M1245.24 735.36l4.92 14.17-9.27.18z" stroke="#ff80df" stroke-width="2" fill="#ff80df"/><defs><path fill="#3a414a" d="M59-47c-2 24 18 29 38 22v24C64 9 27 4 27-40v-127H5v-23h24l9-43h21v43h35v23H59v120" id="ak"/><path fill="#3a414a" d="M100-194c63 0 86 42 84 106H49c0 40 14 67 53 68 26 1 43-12 49-29l28 8c-11 28-37 45-77 45C44 4 14-33 15-96c1-61 26-98 85-98zm52 81c6-60-76-77-97-28-3 7-6 17-6 28h103" id="al"/><path fill="#3a414a" d="M114-163C36-179 61-72 57 0H25l-1-190h30c1 12-1 29 2 39 6-27 23-49 58-41v29" id="am"/><path fill="#3a414a" d="M117-194c89-4 53 116 60 194h-32v-121c0-31-8-49-39-48C34-167 62-67 57 0H25l-1-190h30c1 10-1 24 2 32 11-22 29-35 61-36" id="an"/><path fill="#3a414a" d="M33-154v-36h34v36H33zM33 0v-36h34V0H33" id="ao"/><g id="a"><use transform="matrix(0.06172839506172839,0,0,0.06172839506172839,0,0)" xlink:href="#ak"/><use transform="matrix(0.06172839506172839,0,0,0.06172839506172839,6.172839506172839,0)" xlink:href="#al"/><use transform="matrix(0.06172839506172839,0,0,0.06172839506172839,18.51851851851852,0)" xlink:href="#am"/><use transform="matrix(0.06172839506172839,0,0,0.06172839506172839,25.864197530864196,0)" xlink:href="#an"/><use transform="matrix(0.06172839506172839,0,0,0.06172839506172839,38.20987654320987,0)" xlink:href="#ao"/></g><path fill="#3a414a" d="M30-248c118-7 216 8 213 122C240-48 200 0 122 0H30v-248zM63-27c89 8 146-16 146-99s-60-101-146-95v194" id="ap"/><path fill="#3a414a" d="M141-36C126-15 110 5 73 4 37 3 15-17 15-53c-1-64 63-63 125-63 3-35-9-54-41-54-24 1-41 7-42 31l-33-3c5-37 33-52 76-52 45 0 72 20 72 64v82c-1 20 7 32 28 27v20c-31 9-61-2-59-35zM48-53c0 20 12 33 32 33 41-3 63-29 60-74-43 2-92-5-92 41" id="aq"/><path fill="#3a414a" d="M135-143c-3-34-86-38-87 0 15 53 115 12 119 90S17 21 10-45l28-5c4 36 97 45 98 0-10-56-113-15-118-90-4-57 82-63 122-42 12 7 21 19 24 35" id="ar"/><g id="b"><use transform="matrix(0.06172839506172839,0,0,0.06172839506172839,0,0)" xlink:href="#ap"/><use transform="matrix(0.06172839506172839,0,0,0.06172839506172839,15.987654320987653,0)" xlink:href="#aq"/><use transform="matrix(0.06172839506172839,0,0,0.06172839506172839,28.333333333333332,0)" xlink:href="#ak"/><use transform="matrix(0.06172839506172839,0,0,0.06172839506172839,34.50617283950617,0)" xlink:href="#aq"/><use transform="matrix(0.06172839506172839,0,0,0.06172839506172839,46.85185185185185,0)" xlink:href="#ar"/><use transform="matrix(0.06172839506172839,0,0,0.06172839506172839,57.96296296296296,0)" xlink:href="#al"/><use transform="matrix(0.06172839506172839,0,0,0.06172839506172839,70.30864197530865,0)" xlink:href="#ak"/></g><path fill="#3a414a" d="M96-169c-40 0-48 33-48 73s9 75 48 75c24 0 41-14 43-38l32 2c-6 37-31 61-74 61-59 0-76-41-82-99-10-93 101-131 147-64 4 7 5 14 7 22l-32 3c-4-21-16-35-41-35" id="as"/><path fill="#3a414a" d="M106-169C34-169 62-67 57 0H25v-261h32l-1 103c12-21 28-36 61-36 89 0 53 116 60 194h-32v-121c2-32-8-49-39-48" id="at"/><path fill="#3a414a" d="M210-169c-67 3-38 105-44 169h-31v-121c0-29-5-50-35-48C34-165 62-65 56 0H25l-1-190h30c1 10-1 24 2 32 10-44 99-50 107 0 11-21 27-35 58-36 85-2 47 119 55 194h-31v-121c0-29-5-49-35-48" id="au"/><g id="c"><use transform="matrix(0.06172839506172839,0,0,0.06172839506172839,0,0)" xlink:href="#ar"/><use transform="matrix(0.06172839506172839,0,0,0.06172839506172839,11.11111111111111,0)" xlink:href="#as"/><use transform="matrix(0.06172839506172839,0,0,0.06172839506172839,22.22222222222222,0)" xlink:href="#at"/><use transform="matrix(0.06172839506172839,0,0,0.06172839506172839,34.5679012345679,0)" xlink:href="#al"/><use transform="matrix(0.06172839506172839,0,0,0.06172839506172839,46.913580246913575,0)" xlink:href="#au"/><use transform="matrix(0.06172839506172839,0,0,0.06172839506172839,65.37037037037037,0)" xlink:href="#aq"/><use transform="matrix(0.06172839506172839,0,0,0.06172839506172839,77.71604938271605,0)" xlink:href="#ao"/></g><path fill="#3a414a" d="M212-179c-10-28-35-45-73-45-59 0-87 40-87 99 0 60 29 101 89 101 43 0 62-24 78-52l27 14C228-24 195 4 139 4 59 4 22-46 18-125c-6-104 99-153 187-111 19 9 31 26 39 46" id="av"/><path fill="#3a414a" d="M24 0v-261h32V0H24" id="aw"/><path fill="#3a414a" d="M100-194c62-1 85 37 85 99 1 63-27 99-86 99S16-35 15-95c0-66 28-99 85-99zM99-20c44 1 53-31 53-75 0-43-8-75-51-75s-53 32-53 75 10 74 51 75" id="ax"/><path fill="#3a414a" d="M177-190C167-65 218 103 67 71c-23-6-38-20-44-43l32-5c15 47 100 32 89-28v-30C133-14 115 1 83 1 29 1 15-40 15-95c0-56 16-97 71-98 29-1 48 16 59 35 1-10 0-23 2-32h30zM94-22c36 0 50-32 50-73 0-42-14-75-50-75-39 0-46 34-46 75s6 73 46 73" id="ay"/><g id="d"><use transform="matrix(0.06172839506172839,0,0,0.06172839506172839,0,0)" xlink:href="#ap"/><use transform="matrix(0.06172839506172839,0,0,0.06172839506172839,15.987654320987653,0)" xlink:href="#aq"/><use transform="matrix(0.06172839506172839,0,0,0.06172839506172839,28.333333333333332,0)" xlink:href="#ak"/><use transform="matrix(0.06172839506172839,0,0,0.06172839506172839,34.50617283950617,0)" xlink:href="#aq"/><use transform="matrix(0.06172839506172839,0,0,0.06172839506172839,46.85185185185185,0)" xlink:href="#av"/><use transform="matrix(0.06172839506172839,0,0,0.06172839506172839,62.8395061728395,0)" xlink:href="#aq"/><use transform="matrix(0.06172839506172839,0,0,0.06172839506172839,75.18518518518518,0)" xlink:href="#ak"/><use transform="matrix(0.06172839506172839,0,0,0.06172839506172839,81.35802469135801,0)" xlink:href="#aq"/><use transform="matrix(0.06172839506172839,0,0,0.06172839506172839,93.7037037037037,0)" xlink:href="#aw"/><use transform="matrix(0.06172839506172839,0,0,0.06172839506172839,98.58024691358024,0)" xlink:href="#ax"/><use transform="matrix(0.06172839506172839,0,0,0.06172839506172839,110.92592592592592,0)" xlink:href="#ay"/></g><path fill="#333" d="M135-143c-3-34-86-38-87 0 15 53 115 12 119 90S17 21 10-45l28-5c4 36 97 45 98 0-10-56-113-15-118-90-4-57 82-63 122-42 12 7 21 19 24 35" id="az"/><path fill="#333" d="M96-169c-40 0-48 33-48 73s9 75 48 75c24 0 41-14 43-38l32 2c-6 37-31 61-74 61-59 0-76-41-82-99-10-93 101-131 147-64 4 7 5 14 7 22l-32 3c-4-21-16-35-41-35" id="aA"/><path fill="#333" d="M106-169C34-169 62-67 57 0H25v-261h32l-1 103c12-21 28-36 61-36 89 0 53 116 60 194h-32v-121c2-32-8-49-39-48" id="aB"/><path fill="#333" d="M100-194c63 0 86 42 84 106H49c0 40 14 67 53 68 26 1 43-12 49-29l28 8c-11 28-37 45-77 45C44 4 14-33 15-96c1-61 26-98 85-98zm52 81c6-60-76-77-97-28-3 7-6 17-6 28h103" id="aC"/><path fill="#333" d="M210-169c-67 3-38 105-44 169h-31v-121c0-29-5-50-35-48C34-165 62-65 56 0H25l-1-190h30c1 10-1 24 2 32 10-44 99-50 107 0 11-21 27-35 58-36 85-2 47 119 55 194h-31v-121c0-29-5-49-35-48" id="aD"/><path fill="#333" d="M141-36C126-15 110 5 73 4 37 3 15-17 15-53c-1-64 63-63 125-63 3-35-9-54-41-54-24 1-41 7-42 31l-33-3c5-37 33-52 76-52 45 0 72 20 72 64v82c-1 20 7 32 28 27v20c-31 9-61-2-59-35zM48-53c0 20 12 33 32 33 41-3 63-29 60-74-43 2-92-5-92 41" id="aE"/><path fill="#333" d="M33-154v-36h34v36H33zM33 0v-36h34V0H33" id="aF"/><g id="e"><use transform="matrix(0.04938271604938272,0,0,0.04938271604938272,0,0)" xlink:href="#az"/><use transform="matrix(0.04938271604938272,0,0,0.04938271604938272,8.88888888888889,0)" xlink:href="#aA"/><use transform="matrix(0.04938271604938272,0,0,0.04938271604938272,17.77777777777778,0)" xlink:href="#aB"/><use transform="matrix(0.04938271604938272,0,0,0.04938271604938272,27.654320987654323,0)" xlink:href="#aC"/><use transform="matrix(0.04938271604938272,0,0,0.04938271604938272,37.53086419753087,0)" xlink:href="#aD"/><use transform="matrix(0.04938271604938272,0,0,0.04938271604938272,52.2962962962963,0)" xlink:href="#aE"/><use transform="matrix(0.04938271604938272,0,0,0.04938271604938272,62.17283950617284,0)" xlink:href="#aF"/></g><path fill="#333" d="M30-248c87 1 191-15 191 75 0 78-77 80-158 76V0H30v-248zm33 125c57 0 124 11 124-50 0-59-68-47-124-48v98" id="aG"/><path fill="#333" d="M114-163C36-179 61-72 57 0H25l-1-190h30c1 12-1 29 2 39 6-27 23-49 58-41v29" id="aH"/><path fill="#333" d="M59-47c-2 24 18 29 38 22v24C64 9 27 4 27-40v-127H5v-23h24l9-43h21v43h35v23H59v120" id="aI"/><g id="f"><use transform="matrix(0.04938271604938272,0,0,0.04938271604938272,0,0)" xlink:href="#aB"/><use transform="matrix(0.04938271604938272,0,0,0.04938271604938272,9.876543209876544,0)" xlink:href="#aE"/><use transform="matrix(0.04938271604938272,0,0,0.04938271604938272,19.75308641975309,0)" xlink:href="#az"/><use transform="matrix(0.04938271604938272,0,0,0.04938271604938272,28.641975308641978,0)" xlink:href="#aG"/><use transform="matrix(0.04938271604938272,0,0,0.04938271604938272,40.49382716049383,0)" xlink:href="#aE"/><use transform="matrix(0.04938271604938272,0,0,0.04938271604938272,50.370370370370374,0)" xlink:href="#aH"/><use transform="matrix(0.04938271604938272,0,0,0.04938271604938272,56.24691358024692,0)" xlink:href="#aI"/></g><path fill="#3a414a" d="M115-194c53 0 69 39 70 98 0 66-23 100-70 100C84 3 66-7 56-30L54 0H23l1-261h32v101c10-23 28-34 59-34zm-8 174c40 0 45-34 45-75 0-40-5-75-45-74-42 0-51 32-51 76 0 43 10 73 51 73" id="aJ"/><path fill="#3a414a" d="M24-231v-30h32v30H24zM24 0v-190h32V0H24" id="aK"/><g id="g"><use transform="matrix(0.06172839506172839,0,0,0.06172839506172839,0,0)" xlink:href="#aq"/><use transform="matrix(0.06172839506172839,0,0,0.06172839506172839,12.345679012345679,0)" xlink:href="#aJ"/><use transform="matrix(0.06172839506172839,0,0,0.06172839506172839,24.691358024691358,0)" xlink:href="#aK"/><use transform="matrix(0.06172839506172839,0,0,0.06172839506172839,29.5679012345679,0)" xlink:href="#ar"/><use transform="matrix(0.06172839506172839,0,0,0.06172839506172839,40.67901234567901,0)" xlink:href="#ao"/></g><path fill="#3a414a" d="M160-131c35 5 61 23 61 61C221 17 115-2 30 0v-248c76 3 177-17 177 60 0 33-19 50-47 57zm-97-11c50-1 110 9 110-42 0-47-63-36-110-37v79zm0 115c55-2 124 14 124-45 0-56-70-42-124-44v89" id="aL"/><path fill="#3a414a" d="M85-194c31 0 48 13 60 33l-1-100h32l1 261h-30c-2-10 0-23-3-31C134-8 116 4 85 4 32 4 16-35 15-94c0-66 23-100 70-100zm9 24c-40 0-46 34-46 75 0 40 6 74 45 74 42 0 51-32 51-76 0-42-9-74-50-73" id="aM"/><path fill="#3a414a" d="M108 0H70L1-190h34L89-25l56-165h34" id="aN"/><path fill="#3a414a" d="M179-190L93 31C79 59 56 82 12 73V49c39 6 53-20 64-50L1-190h34L92-34l54-156h33" id="aO"/><g id="h"><use transform="matrix(0.06172839506172839,0,0,0.06172839506172839,0,0)" xlink:href="#aL"/><use transform="matrix(0.06172839506172839,0,0,0.06172839506172839,14.814814814814813,0)" xlink:href="#aK"/><use transform="matrix(0.06172839506172839,0,0,0.06172839506172839,19.691358024691354,0)" xlink:href="#ax"/><use transform="matrix(0.06172839506172839,0,0,0.06172839506172839,32.03703703703703,0)" xlink:href="#aM"/><use transform="matrix(0.06172839506172839,0,0,0.06172839506172839,44.38271604938271,0)" xlink:href="#aK"/><use transform="matrix(0.06172839506172839,0,0,0.06172839506172839,49.25925925925925,0)" xlink:href="#aN"/><use transform="matrix(0.06172839506172839,0,0,0.06172839506172839,60.37037037037037,0)" xlink:href="#al"/><use transform="matrix(0.06172839506172839,0,0,0.06172839506172839,72.71604938271605,0)" xlink:href="#am"/><use transform="matrix(0.06172839506172839,0,0,0.06172839506172839,80.06172839506173,0)" xlink:href="#ar"/><use transform="matrix(0.06172839506172839,0,0,0.06172839506172839,91.17283950617285,0)" xlink:href="#aK"/><use transform="matrix(0.06172839506172839,0,0,0.06172839506172839,96.0493827160494,0)" xlink:href="#ak"/><use transform="matrix(0.06172839506172839,0,0,0.06172839506172839,102.22222222222223,0)" xlink:href="#aO"/></g><path fill="#3a414a" d="M233-177c-1 41-23 64-60 70L243 0h-38l-65-103H63V0H30v-248c88 3 205-21 203 71zM63-129c60-2 137 13 137-47 0-61-80-42-137-45v92" id="aP"/><g id="i"><use transform="matrix(0.06172839506172839,0,0,0.06172839506172839,0,0)" xlink:href="#aP"/><use transform="matrix(0.06172839506172839,0,0,0.06172839506172839,15.987654320987653,0)" xlink:href="#al"/><use transform="matrix(0.06172839506172839,0,0,0.06172839506172839,28.333333333333332,0)" xlink:href="#as"/><use transform="matrix(0.06172839506172839,0,0,0.06172839506172839,39.44444444444444,0)" xlink:href="#ax"/><use transform="matrix(0.06172839506172839,0,0,0.06172839506172839,51.79012345679012,0)" xlink:href="#am"/><use transform="matrix(0.06172839506172839,0,0,0.06172839506172839,59.1358024691358,0)" xlink:href="#aM"/></g><path fill="#3a414a" d="M206 0h-36l-40-164L89 0H53L-1-190h32L70-26l43-164h34l41 164 42-164h31" id="aQ"/><g id="j"><use transform="matrix(0.06172839506172839,0,0,0.06172839506172839,0,0)" xlink:href="#aM"/><use transform="matrix(0.06172839506172839,0,0,0.06172839506172839,12.345679012345679,0)" xlink:href="#aQ"/><use transform="matrix(0.06172839506172839,0,0,0.06172839506172839,28.333333333333332,0)" xlink:href="#as"/><use transform="matrix(0.06172839506172839,0,0,0.06172839506172839,39.44444444444444,0)" xlink:href="#ao"/></g><path fill="#3a414a" d="M140-251c81 0 123 46 123 126C263-46 219 4 140 4 59 4 17-45 17-125s42-126 123-126zm0 227c63 0 89-41 89-101s-29-99-89-99c-61 0-89 39-89 99S79-25 140-24" id="aR"/><path fill="#3a414a" d="M84 4C-5 8 30-112 23-190h32v120c0 31 7 50 39 49 72-2 45-101 50-169h31l1 190h-30c-1-10 1-25-2-33-11 22-28 36-60 37" id="aS"/><g id="k"><use transform="matrix(0.06172839506172839,0,0,0.06172839506172839,0,0)" xlink:href="#aR"/><use transform="matrix(0.06172839506172839,0,0,0.06172839506172839,17.28395061728395,0)" xlink:href="#as"/><use transform="matrix(0.06172839506172839,0,0,0.06172839506172839,28.39506172839506,0)" xlink:href="#as"/><use transform="matrix(0.06172839506172839,0,0,0.06172839506172839,39.50617283950617,0)" xlink:href="#aS"/><use transform="matrix(0.06172839506172839,0,0,0.06172839506172839,51.85185185185185,0)" xlink:href="#am"/><use transform="matrix(0.06172839506172839,0,0,0.06172839506172839,59.197530864197525,0)" xlink:href="#am"/><use transform="matrix(0.06172839506172839,0,0,0.06172839506172839,66.5432098765432,0)" xlink:href="#al"/><use transform="matrix(0.06172839506172839,0,0,0.06172839506172839,78.88888888888889,0)" xlink:href="#an"/><use transform="matrix(0.06172839506172839,0,0,0.06172839506172839,91.23456790123457,0)" xlink:href="#as"/><use transform="matrix(0.06172839506172839,0,0,0.06172839506172839,102.34567901234568,0)" xlink:href="#al"/></g><path fill="#333" d="M115-194c53 0 69 39 70 98 0 66-23 100-70 100C84 3 66-7 56-30L54 0H23l1-261h32v101c10-23 28-34 59-34zm-8 174c40 0 45-34 45-75 0-40-5-75-45-74-42 0-51 32-51 76 0 43 10 73 51 73" id="aT"/><path fill="#333" d="M100-194c62-1 85 37 85 99 1 63-27 99-86 99S16-35 15-95c0-66 28-99 85-99zM99-20c44 1 53-31 53-75 0-43-8-75-51-75s-53 32-53 75 10 74 51 75" id="aU"/><path fill="#333" d="M84 4C-5 8 30-112 23-190h32v120c0 31 7 50 39 49 72-2 45-101 50-169h31l1 190h-30c-1-10 1-25-2-33-11 22-28 36-60 37" id="aV"/><g id="l"><use transform="matrix(0.04938271604938272,0,0,0.04938271604938272,0,0)" xlink:href="#aE"/><use transform="matrix(0.04938271604938272,0,0,0.04938271604938272,9.876543209876544,0)" xlink:href="#aT"/><use transform="matrix(0.04938271604938272,0,0,0.04938271604938272,19.75308641975309,0)" xlink:href="#aU"/><use transform="matrix(0.04938271604938272,0,0,0.04938271604938272,29.629629629629633,0)" xlink:href="#aV"/><use transform="matrix(0.04938271604938272,0,0,0.04938271604938272,39.50617283950618,0)" xlink:href="#aI"/></g><path fill="#3a414a" d="M27 0v-27h64v-190l-56 39v-29l58-41h29v221h61V0H27" id="aW"/><path fill="#3a414a" d="M68-38c1 34 0 65-14 84H32c9-13 17-26 17-46H33v-38h35" id="aX"/><g id="m"><use transform="matrix(0.06172839506172839,0,0,0.06172839506172839,0,0)" xlink:href="#aW"/><use transform="matrix(0.06172839506172839,0,0,0.06172839506172839,12.345679012345679,0)" xlink:href="#aX"/></g><g id="n"><use transform="matrix(0.06172839506172839,0,0,0.06172839506172839,0,0)" xlink:href="#ap"/><use transform="matrix(0.06172839506172839,0,0,0.06172839506172839,15.987654320987653,0)" xlink:href="#aq"/><use transform="matrix(0.06172839506172839,0,0,0.06172839506172839,28.333333333333332,0)" xlink:href="#ak"/><use transform="matrix(0.06172839506172839,0,0,0.06172839506172839,34.50617283950617,0)" xlink:href="#al"/><use transform="matrix(0.06172839506172839,0,0,0.06172839506172839,46.85185185185185,0)" xlink:href="#aW"/><use transform="matrix(0.06172839506172839,0,0,0.06172839506172839,59.197530864197525,0)" xlink:href="#aX"/></g><path fill="#3a414a" d="M194-120c59 52 2 134-86 124-53-6-90-18-98-63l31-7c8 30 29 43 70 43 46 0 84-17 71-62-32-43-135-20-137-98-3-89 178-90 191-16l-30 9c-8-48-127-53-127 5 0 53 81 35 115 65" id="aY"/><path fill="#3a414a" d="M67-162c32-53 139-36 121 50C175-51 163 2 97 4 68 4 52-11 42-31 38 6 28 39 22 75H-9l50-265h29c-1 10 0 20-3 28zm89 36c0-26-10-43-35-43-54 0-67 50-69 103-1 29 14 45 42 46 53 0 62-58 62-106" id="aZ"/><path fill="#3a414a" d="M111-194c62-3 86 47 72 106H45c-7 38 6 69 45 68 27-1 43-14 53-32l24 11C152-15 129 4 87 4 38 3 12-23 12-71c0-70 32-119 99-123zm44 81c14-66-71-72-95-28-4 8-8 17-11 28h106" id="ba"/><path fill="#3a414a" d="M44-68c0 29 11 47 38 47 30 0 42-19 51-41l28 9C148-21 126 4 82 4 31 4 10-29 12-85c3-77 74-140 146-93 12 8 15 23 18 40l-31 5c-1-22-13-36-36-36-52 0-65 49-65 101" id="bb"/><path fill="#3a414a" d="M50-231l6-30h32l-6 30H50zM6 0l37-190h31L37 0H6" id="bc"/><path fill="#3a414a" d="M55-144c13 50 104 24 104 88C159 21 15 23 1-39l26-10c6 40 102 42 102-4-13-50-104-23-104-87 0-71 143-71 148-8l-29 4c-5-35-85-37-89 0" id="bd"/><g id="o"><use transform="matrix(0.06172839506172839,0,0,0.06172839506172839,0,0)" xlink:href="#aY"/><use transform="matrix(0.06172839506172839,0,0,0.06172839506172839,14.814814814814813,0)" xlink:href="#aZ"/><use transform="matrix(0.06172839506172839,0,0,0.06172839506172839,27.160493827160494,0)" xlink:href="#ba"/><use transform="matrix(0.06172839506172839,0,0,0.06172839506172839,39.50617283950617,0)" xlink:href="#bb"/><use transform="matrix(0.06172839506172839,0,0,0.06172839506172839,50.61728395061728,0)" xlink:href="#bc"/><use transform="matrix(0.06172839506172839,0,0,0.06172839506172839,55.49382716049382,0)" xlink:href="#ba"/><use transform="matrix(0.06172839506172839,0,0,0.06172839506172839,67.8395061728395,0)" xlink:href="#bd"/></g><path fill="#3a414a" d="M176 0l-54-107L30 0H-7l115-131-60-117h35l48 97 83-97h37L146-129 211 0h-35" id="be"/><g id="p"><use transform="matrix(0.06172839506172839,0,0,0.06172839506172839,0,0)" xlink:href="#be"/><use transform="matrix(0.06172839506172839,0,0,0.06172839506172839,14.814814814814813,0)" xlink:href="#aX"/></g><path fill="#3a414a" d="M30 0v-248h33v221h125V0H30" id="bf"/><g id="q"><use transform="matrix(0.06172839506172839,0,0,0.06172839506172839,0,0)" xlink:href="#bf"/><use transform="matrix(0.06172839506172839,0,0,0.06172839506172839,12.345679012345679,0)" xlink:href="#ax"/><use transform="matrix(0.06172839506172839,0,0,0.06172839506172839,24.691358024691358,0)" xlink:href="#an"/><use transform="matrix(0.06172839506172839,0,0,0.06172839506172839,37.03703703703704,0)" xlink:href="#ay"/><use transform="matrix(0.06172839506172839,0,0,0.06172839506172839,49.382716049382715,0)" xlink:href="#aW"/><use transform="matrix(0.06172839506172839,0,0,0.06172839506172839,61.72839506172839,0)" xlink:href="#aX"/></g><path fill="#3a414a" d="M33 0v-38h34V0H33" id="bg"/><g id="r"><use transform="matrix(0.06172839506172839,0,0,0.06172839506172839,0,0)" xlink:href="#bf"/><use transform="matrix(0.06172839506172839,0,0,0.06172839506172839,12.345679012345679,0)" xlink:href="#aq"/><use transform="matrix(0.06172839506172839,0,0,0.06172839506172839,24.691358024691358,0)" xlink:href="#ak"/><use transform="matrix(0.06172839506172839,0,0,0.06172839506172839,30.864197530864196,0)" xlink:href="#aW"/><use transform="matrix(0.06172839506172839,0,0,0.06172839506172839,43.20987654320987,0)" xlink:href="#aX"/><use transform="matrix(0.06172839506172839,0,0,0.06172839506172839,49.382716049382715,0)" xlink:href="#bg"/><use transform="matrix(0.06172839506172839,0,0,0.06172839506172839,55.55555555555556,0)" xlink:href="#bg"/><use transform="matrix(0.06172839506172839,0,0,0.06172839506172839,61.7283950617284,0)" xlink:href="#bg"/></g><use transform="matrix(0.06172839506172839,0,0,0.06172839506172839,0,0)" xlink:href="#aX" id="s"/><path fill="#3a414a" d="M240 0l2-218c-23 76-54 145-80 218h-23L58-218 59 0H30v-248h44l77 211c21-75 51-140 76-211h43V0h-30" id="bh"/><path fill="#3a414a" d="M101-234c-31-9-42 10-38 44h38v23H63V0H32v-167H5v-23h27c-7-52 17-82 69-68v24" id="bi"/><g id="t"><use transform="matrix(0.06172839506172839,0,0,0.06172839506172839,0,0)" xlink:href="#bh"/><use transform="matrix(0.06172839506172839,0,0,0.06172839506172839,18.456790123456788,0)" xlink:href="#ax"/><use transform="matrix(0.06172839506172839,0,0,0.06172839506172839,30.80246913580247,0)" xlink:href="#aM"/><use transform="matrix(0.06172839506172839,0,0,0.06172839506172839,43.148148148148145,0)" xlink:href="#aK"/><use transform="matrix(0.06172839506172839,0,0,0.06172839506172839,48.02469135802469,0)" xlink:href="#bi"/><use transform="matrix(0.06172839506172839,0,0,0.06172839506172839,54.19753086419753,0)" xlink:href="#aK"/><use transform="matrix(0.06172839506172839,0,0,0.06172839506172839,59.074074074074076,0)" xlink:href="#al"/><use transform="matrix(0.06172839506172839,0,0,0.06172839506172839,71.41975308641976,0)" xlink:href="#aM"/></g><g id="u"><use transform="matrix(0.06172839506172839,0,0,0.06172839506172839,0,0)" xlink:href="#ap"/><use transform="matrix(0.06172839506172839,0,0,0.06172839506172839,15.987654320987653,0)" xlink:href="#aq"/><use transform="matrix(0.06172839506172839,0,0,0.06172839506172839,28.333333333333332,0)" xlink:href="#ak"/><use transform="matrix(0.06172839506172839,0,0,0.06172839506172839,34.50617283950617,0)" xlink:href="#al"/><use transform="matrix(0.06172839506172839,0,0,0.06172839506172839,46.85185185185185,0)" xlink:href="#aW"/></g><path fill="#3a414a" d="M101-251c82-7 93 87 43 132L82-64C71-53 59-42 53-27h129V0H18c2-99 128-94 128-182 0-28-16-43-45-43s-46 15-49 41l-32-3c6-41 34-60 81-64" id="bj"/><g id="v"><use transform="matrix(0.06172839506172839,0,0,0.06172839506172839,0,0)" xlink:href="#bj"/><use transform="matrix(0.06172839506172839,0,0,0.06172839506172839,12.345679012345679,0)" xlink:href="#aX"/></g><g id="w"><use transform="matrix(0.06172839506172839,0,0,0.06172839506172839,0,0)" xlink:href="#ap"/><use transform="matrix(0.06172839506172839,0,0,0.06172839506172839,15.987654320987653,0)" xlink:href="#aq"/><use transform="matrix(0.06172839506172839,0,0,0.06172839506172839,28.333333333333332,0)" xlink:href="#ak"/><use transform="matrix(0.06172839506172839,0,0,0.06172839506172839,34.50617283950617,0)" xlink:href="#al"/><use transform="matrix(0.06172839506172839,0,0,0.06172839506172839,46.85185185185185,0)" xlink:href="#bj"/><use transform="matrix(0.06172839506172839,0,0,0.06172839506172839,59.197530864197525,0)" xlink:href="#aX"/></g><path fill="#3a414a" d="M138-103L118 0H85l20-103-68-145h35l54 119 98-119h38" id="bk"/><g id="x"><use transform="matrix(0.06172839506172839,0,0,0.06172839506172839,0,0)" xlink:href="#bk"/><use transform="matrix(0.06172839506172839,0,0,0.06172839506172839,14.814814814814813,0)" xlink:href="#aX"/></g><g id="y"><use transform="matrix(0.06172839506172839,0,0,0.06172839506172839,0,0)" xlink:href="#bf"/><use transform="matrix(0.06172839506172839,0,0,0.06172839506172839,12.345679012345679,0)" xlink:href="#ax"/><use transform="matrix(0.06172839506172839,0,0,0.06172839506172839,24.691358024691358,0)" xlink:href="#an"/><use transform="matrix(0.06172839506172839,0,0,0.06172839506172839,37.03703703703704,0)" xlink:href="#ay"/><use transform="matrix(0.06172839506172839,0,0,0.06172839506172839,49.382716049382715,0)" xlink:href="#bj"/><use transform="matrix(0.06172839506172839,0,0,0.06172839506172839,61.72839506172839,0)" xlink:href="#aX"/></g><g id="z"><use transform="matrix(0.06172839506172839,0,0,0.06172839506172839,0,0)" xlink:href="#bf"/><use transform="matrix(0.06172839506172839,0,0,0.06172839506172839,12.345679012345679,0)" xlink:href="#aq"/><use transform="matrix(0.06172839506172839,0,0,0.06172839506172839,24.691358024691358,0)" xlink:href="#ak"/><use transform="matrix(0.06172839506172839,0,0,0.06172839506172839,30.864197530864196,0)" xlink:href="#bj"/><use transform="matrix(0.06172839506172839,0,0,0.06172839506172839,43.20987654320987,0)" xlink:href="#aX"/><use transform="matrix(0.06172839506172839,0,0,0.06172839506172839,49.382716049382715,0)" xlink:href="#bg"/><use transform="matrix(0.06172839506172839,0,0,0.06172839506172839,55.55555555555556,0)" xlink:href="#bg"/><use transform="matrix(0.06172839506172839,0,0,0.06172839506172839,61.7283950617284,0)" xlink:href="#bg"/></g><g id="A"><use transform="matrix(0.06172839506172839,0,0,0.06172839506172839,0,0)" xlink:href="#ap"/><use transform="matrix(0.06172839506172839,0,0,0.06172839506172839,15.987654320987653,0)" xlink:href="#aq"/><use transform="matrix(0.06172839506172839,0,0,0.06172839506172839,28.333333333333332,0)" xlink:href="#ak"/><use transform="matrix(0.06172839506172839,0,0,0.06172839506172839,34.50617283950617,0)" xlink:href="#al"/><use transform="matrix(0.06172839506172839,0,0,0.06172839506172839,46.85185185185185,0)" xlink:href="#bj"/></g><path fill="#3a414a" d="M126-127c33 6 58 20 58 59 0 88-139 92-164 29-3-8-5-16-6-25l32-3c6 27 21 44 54 44 32 0 52-15 52-46 0-38-36-46-79-43v-28c39 1 72-4 72-42 0-27-17-43-46-43-28 0-47 15-49 41l-32-3c6-42 35-63 81-64 48-1 79 21 79 65 0 36-21 52-52 59" id="bl"/><g id="B"><use transform="matrix(0.06172839506172839,0,0,0.06172839506172839,0,0)" xlink:href="#bl"/><use transform="matrix(0.06172839506172839,0,0,0.06172839506172839,12.345679012345679,0)" xlink:href="#aX"/></g><g id="C"><use transform="matrix(0.06172839506172839,0,0,0.06172839506172839,0,0)" xlink:href="#ap"/><use transform="matrix(0.06172839506172839,0,0,0.06172839506172839,15.987654320987653,0)" xlink:href="#aq"/><use transform="matrix(0.06172839506172839,0,0,0.06172839506172839,28.333333333333332,0)" xlink:href="#ak"/><use transform="matrix(0.06172839506172839,0,0,0.06172839506172839,34.50617283950617,0)" xlink:href="#al"/><use transform="matrix(0.06172839506172839,0,0,0.06172839506172839,46.85185185185185,0)" xlink:href="#bl"/><use transform="matrix(0.06172839506172839,0,0,0.06172839506172839,59.197530864197525,0)" xlink:href="#aX"/></g><g id="D"><use transform="matrix(0.06172839506172839,0,0,0.06172839506172839,0,0)" xlink:href="#bf"/><use transform="matrix(0.06172839506172839,0,0,0.06172839506172839,12.345679012345679,0)" xlink:href="#ax"/><use transform="matrix(0.06172839506172839,0,0,0.06172839506172839,24.691358024691358,0)" xlink:href="#an"/><use transform="matrix(0.06172839506172839,0,0,0.06172839506172839,37.03703703703704,0)" xlink:href="#ay"/><use transform="matrix(0.06172839506172839,0,0,0.06172839506172839,49.382716049382715,0)" xlink:href="#bl"/><use transform="matrix(0.06172839506172839,0,0,0.06172839506172839,61.72839506172839,0)" xlink:href="#aX"/></g><g id="E"><use transform="matrix(0.06172839506172839,0,0,0.06172839506172839,0,0)" xlink:href="#bf"/><use transform="matrix(0.06172839506172839,0,0,0.06172839506172839,12.345679012345679,0)" xlink:href="#aq"/><use transform="matrix(0.06172839506172839,0,0,0.06172839506172839,24.691358024691358,0)" xlink:href="#ak"/><use transform="matrix(0.06172839506172839,0,0,0.06172839506172839,30.864197530864196,0)" xlink:href="#bl"/><use transform="matrix(0.06172839506172839,0,0,0.06172839506172839,43.20987654320987,0)" xlink:href="#aX"/><use transform="matrix(0.06172839506172839,0,0,0.06172839506172839,49.382716049382715,0)" xlink:href="#bg"/><use transform="matrix(0.06172839506172839,0,0,0.06172839506172839,55.55555555555556,0)" xlink:href="#bg"/><use transform="matrix(0.06172839506172839,0,0,0.06172839506172839,61.7283950617284,0)" xlink:href="#bg"/></g><g id="F"><use transform="matrix(0.06172839506172839,0,0,0.06172839506172839,0,0)" xlink:href="#ap"/><use transform="matrix(0.06172839506172839,0,0,0.06172839506172839,15.987654320987653,0)" xlink:href="#aq"/><use transform="matrix(0.06172839506172839,0,0,0.06172839506172839,28.333333333333332,0)" xlink:href="#ak"/><use transform="matrix(0.06172839506172839,0,0,0.06172839506172839,34.50617283950617,0)" xlink:href="#al"/><use transform="matrix(0.06172839506172839,0,0,0.06172839506172839,46.85185185185185,0)" xlink:href="#bl"/></g><path fill="#3a414a" d="M190 0L58-211 59 0H30v-248h39L202-35l-2-213h31V0h-41" id="bm"/><g id="G"><use transform="matrix(0.06172839506172839,0,0,0.06172839506172839,0,0)" xlink:href="#bm"/><use transform="matrix(0.06172839506172839,0,0,0.06172839506172839,15.987654320987653,0)" xlink:href="#aX"/></g><g id="H"><use transform="matrix(0.06172839506172839,0,0,0.06172839506172839,0,0)" xlink:href="#ap"/><use transform="matrix(0.06172839506172839,0,0,0.06172839506172839,15.987654320987653,0)" xlink:href="#aq"/><use transform="matrix(0.06172839506172839,0,0,0.06172839506172839,28.333333333333332,0)" xlink:href="#ak"/><use transform="matrix(0.06172839506172839,0,0,0.06172839506172839,34.50617283950617,0)" xlink:href="#al"/><use transform="matrix(0.06172839506172839,0,0,0.06172839506172839,46.85185185185185,0)" xlink:href="#bm"/><use transform="matrix(0.06172839506172839,0,0,0.06172839506172839,62.8395061728395,0)" xlink:href="#aX"/></g><path fill="#3a414a" d="M190 0H-7l5-25 185-195H49l5-28h176l-5 25L40-27h155" id="bn"/><g id="I"><use transform="matrix(0.06172839506172839,0,0,0.06172839506172839,0,0)" xlink:href="#bn"/><use transform="matrix(0.06172839506172839,0,0,0.06172839506172839,13.518518518518517,0)" xlink:href="#aX"/></g><g id="J"><use transform="matrix(0.06172839506172839,0,0,0.06172839506172839,0,0)" xlink:href="#bf"/><use transform="matrix(0.06172839506172839,0,0,0.06172839506172839,12.345679012345679,0)" xlink:href="#ax"/><use transform="matrix(0.06172839506172839,0,0,0.06172839506172839,24.691358024691358,0)" xlink:href="#an"/><use transform="matrix(0.06172839506172839,0,0,0.06172839506172839,37.03703703703704,0)" xlink:href="#ay"/><use transform="matrix(0.06172839506172839,0,0,0.06172839506172839,49.382716049382715,0)" xlink:href="#bm"/><use transform="matrix(0.06172839506172839,0,0,0.06172839506172839,65.37037037037037,0)" xlink:href="#aX"/></g><g id="K"><use transform="matrix(0.06172839506172839,0,0,0.06172839506172839,0,0)" xlink:href="#bf"/><use transform="matrix(0.06172839506172839,0,0,0.06172839506172839,12.345679012345679,0)" xlink:href="#aq"/><use transform="matrix(0.06172839506172839,0,0,0.06172839506172839,24.691358024691358,0)" xlink:href="#ak"/><use transform="matrix(0.06172839506172839,0,0,0.06172839506172839,30.864197530864196,0)" xlink:href="#bm"/><use transform="matrix(0.06172839506172839,0,0,0.06172839506172839,46.85185185185185,0)" xlink:href="#aX"/><use transform="matrix(0.06172839506172839,0,0,0.06172839506172839,53.02469135802469,0)" xlink:href="#bg"/><use transform="matrix(0.06172839506172839,0,0,0.06172839506172839,59.19753086419753,0)" xlink:href="#bg"/><use transform="matrix(0.06172839506172839,0,0,0.06172839506172839,65.37037037037037,0)" xlink:href="#bg"/></g><g id="L"><use transform="matrix(0.06172839506172839,0,0,0.06172839506172839,0,0)" xlink:href="#ap"/><use transform="matrix(0.06172839506172839,0,0,0.06172839506172839,15.987654320987653,0)" xlink:href="#aq"/><use transform="matrix(0.06172839506172839,0,0,0.06172839506172839,28.333333333333332,0)" xlink:href="#ak"/><use transform="matrix(0.06172839506172839,0,0,0.06172839506172839,34.50617283950617,0)" xlink:href="#al"/><use transform="matrix(0.06172839506172839,0,0,0.06172839506172839,46.85185185185185,0)" xlink:href="#bm"/></g><g id="M"><use transform="matrix(0.06172839506172839,0,0,0.06172839506172839,0,0)" xlink:href="#bg"/><use transform="matrix(0.06172839506172839,0,0,0.06172839506172839,6.172839506172839,0)" xlink:href="#bg"/><use transform="matrix(0.06172839506172839,0,0,0.06172839506172839,12.345679012345679,0)" xlink:href="#bg"/></g><g id="N"><use transform="matrix(0.06172839506172839,0,0,0.06172839506172839,0,0)" xlink:href="#aR"/><use transform="matrix(0.06172839506172839,0,0,0.06172839506172839,17.28395061728395,0)" xlink:href="#am"/><use transform="matrix(0.06172839506172839,0,0,0.06172839506172839,24.629629629629626,0)" xlink:href="#aK"/><use transform="matrix(0.06172839506172839,0,0,0.06172839506172839,29.50617283950617,0)" xlink:href="#ay"/><use transform="matrix(0.06172839506172839,0,0,0.06172839506172839,41.85185185185185,0)" xlink:href="#aK"/><use transform="matrix(0.06172839506172839,0,0,0.06172839506172839,46.72839506172839,0)" xlink:href="#an"/><use transform="matrix(0.06172839506172839,0,0,0.06172839506172839,59.07407407407407,0)" xlink:href="#aq"/><use transform="matrix(0.06172839506172839,0,0,0.06172839506172839,71.41975308641975,0)" xlink:href="#aw"/></g><g id="O"><use transform="matrix(0.06172839506172839,0,0,0.06172839506172839,0,0)" xlink:href="#ak"/><use transform="matrix(0.06172839506172839,0,0,0.06172839506172839,6.172839506172839,0)" xlink:href="#aq"/><use transform="matrix(0.06172839506172839,0,0,0.06172839506172839,18.51851851851852,0)" xlink:href="#aJ"/><use transform="matrix(0.06172839506172839,0,0,0.06172839506172839,30.864197530864196,0)" xlink:href="#aS"/><use transform="matrix(0.06172839506172839,0,0,0.06172839506172839,43.20987654320987,0)" xlink:href="#aw"/><use transform="matrix(0.06172839506172839,0,0,0.06172839506172839,48.08641975308642,0)" xlink:href="#aq"/><use transform="matrix(0.06172839506172839,0,0,0.06172839506172839,60.432098765432094,0)" xlink:href="#am"/></g><g id="P"><use transform="matrix(0.06172839506172839,0,0,0.06172839506172839,0,0)" xlink:href="#am"/><use transform="matrix(0.06172839506172839,0,0,0.06172839506172839,7.345679012345679,0)" xlink:href="#al"/><use transform="matrix(0.06172839506172839,0,0,0.06172839506172839,19.691358024691358,0)" xlink:href="#as"/><use transform="matrix(0.06172839506172839,0,0,0.06172839506172839,30.80246913580247,0)" xlink:href="#ax"/><use transform="matrix(0.06172839506172839,0,0,0.06172839506172839,43.148148148148145,0)" xlink:href="#am"/><use transform="matrix(0.06172839506172839,0,0,0.06172839506172839,50.49382716049382,0)" xlink:href="#aM"/><use transform="matrix(0.06172839506172839,0,0,0.06172839506172839,62.8395061728395,0)" xlink:href="#ar"/></g><g id="Q"><use transform="matrix(0.06172839506172839,0,0,0.06172839506172839,0,0)" xlink:href="#ap"/><use transform="matrix(0.06172839506172839,0,0,0.06172839506172839,15.987654320987653,0)" xlink:href="#aq"/><use transform="matrix(0.06172839506172839,0,0,0.06172839506172839,28.333333333333332,0)" xlink:href="#ak"/><use transform="matrix(0.06172839506172839,0,0,0.06172839506172839,34.50617283950617,0)" xlink:href="#aq"/><use transform="matrix(0.06172839506172839,0,0,0.06172839506172839,46.85185185185185,0)" xlink:href="#ar"/><use transform="matrix(0.06172839506172839,0,0,0.06172839506172839,57.96296296296296,0)" xlink:href="#al"/><use transform="matrix(0.06172839506172839,0,0,0.06172839506172839,70.30864197530865,0)" xlink:href="#ak"/></g><g id="R"><use transform="matrix(0.06172839506172839,0,0,0.06172839506172839,0,0)" xlink:href="#aW"/><use transform="matrix(0.06172839506172839,0,0,0.06172839506172839,12.345679012345679,0)" xlink:href="#bj"/><use transform="matrix(0.06172839506172839,0,0,0.06172839506172839,24.691358024691358,0)" xlink:href="#bl"/></g><g id="S"><use transform="matrix(0.06172839506172839,0,0,0.06172839506172839,0,0)" xlink:href="#aL"/><use transform="matrix(0.06172839506172839,0,0,0.06172839506172839,14.814814814814813,0)" xlink:href="#ap"/><use transform="matrix(0.06172839506172839,0,0,0.06172839506172839,30.80246913580247,0)" xlink:href="#aP"/></g><g id="T"><use transform="matrix(0.06172839506172839,0,0,0.06172839506172839,0,0)" xlink:href="#aP"/><use transform="matrix(0.06172839506172839,0,0,0.06172839506172839,15.987654320987653,0)" xlink:href="#al"/><use transform="matrix(0.06172839506172839,0,0,0.06172839506172839,28.333333333333332,0)" xlink:href="#as"/><use transform="matrix(0.06172839506172839,0,0,0.06172839506172839,39.44444444444444,0)" xlink:href="#ax"/><use transform="matrix(0.06172839506172839,0,0,0.06172839506172839,51.79012345679012,0)" xlink:href="#am"/><use transform="matrix(0.06172839506172839,0,0,0.06172839506172839,59.1358024691358,0)" xlink:href="#aM"/></g><use transform="matrix(0.06172839506172839,0,0,0.06172839506172839,0,0)" xlink:href="#bl" id="U"/><g id="V"><use transform="matrix(0.06172839506172839,0,0,0.06172839506172839,0,0)" xlink:href="#aR"/><use transform="matrix(0.06172839506172839,0,0,0.06172839506172839,17.28395061728395,0)" xlink:href="#as"/><use transform="matrix(0.06172839506172839,0,0,0.06172839506172839,28.39506172839506,0)" xlink:href="#as"/><use transform="matrix(0.06172839506172839,0,0,0.06172839506172839,39.50617283950617,0)" xlink:href="#aS"/><use transform="matrix(0.06172839506172839,0,0,0.06172839506172839,51.85185185185185,0)" xlink:href="#am"/><use transform="matrix(0.06172839506172839,0,0,0.06172839506172839,59.197530864197525,0)" xlink:href="#am"/><use transform="matrix(0.06172839506172839,0,0,0.06172839506172839,66.5432098765432,0)" xlink:href="#al"/><use transform="matrix(0.06172839506172839,0,0,0.06172839506172839,78.88888888888889,0)" xlink:href="#an"/><use transform="matrix(0.06172839506172839,0,0,0.06172839506172839,91.23456790123457,0)" xlink:href="#as"/><use transform="matrix(0.06172839506172839,0,0,0.06172839506172839,102.34567901234568,0)" xlink:href="#al"/></g><path fill="#3a414a" d="M87 75C49 33 22-17 22-94c0-76 28-126 65-167h31c-38 41-64 92-64 168S80 34 118 75H87" id="bo"/><path fill="#3a414a" d="M33-261c38 41 65 92 65 168S71 34 33 75H2C39 34 66-17 66-93S39-220 2-261h31" id="bp"/><g id="W"><use transform="matrix(0.06172839506172839,0,0,0.06172839506172839,0,0)" xlink:href="#bo"/><use transform="matrix(0.06172839506172839,0,0,0.06172839506172839,7.345679012345679,0)" xlink:href="#bl"/><use transform="matrix(0.06172839506172839,0,0,0.06172839506172839,19.691358024691358,0)" xlink:href="#bp"/></g><g id="X"><use transform="matrix(0.06172839506172839,0,0,0.06172839506172839,0,0)" xlink:href="#bg"/><use transform="matrix(0.06172839506172839,0,0,0.06172839506172839,6.172839506172839,0)" xlink:href="#bg"/><use transform="matrix(0.06172839506172839,0,0,0.06172839506172839,12.345679012345679,0)" xlink:href="#bg"/><use transform="matrix(0.06172839506172839,0,0,0.06172839506172839,18.51851851851852,0)" xlink:href="#as"/><use transform="matrix(0.06172839506172839,0,0,0.06172839506172839,29.62962962962963,0)" xlink:href="#ax"/><use transform="matrix(0.06172839506172839,0,0,0.06172839506172839,41.97530864197531,0)" xlink:href="#ax"/><use transform="matrix(0.06172839506172839,0,0,0.06172839506172839,54.32098765432099,0)" xlink:href="#am"/><use transform="matrix(0.06172839506172839,0,0,0.06172839506172839,61.666666666666664,0)" xlink:href="#aM"/><use transform="matrix(0.06172839506172839,0,0,0.06172839506172839,74.01234567901234,0)" xlink:href="#aK"/><use transform="matrix(0.06172839506172839,0,0,0.06172839506172839,78.88888888888889,0)" xlink:href="#an"/><use transform="matrix(0.06172839506172839,0,0,0.06172839506172839,91.23456790123457,0)" xlink:href="#aq"/><use transform="matrix(0.06172839506172839,0,0,0.06172839506172839,103.58024691358025,0)" xlink:href="#ak"/><use transform="matrix(0.06172839506172839,0,0,0.06172839506172839,109.75308641975309,0)" xlink:href="#al"/><use transform="matrix(0.06172839506172839,0,0,0.06172839506172839,122.09876543209877,0)" xlink:href="#ar"/><use transform="matrix(0.06172839506172839,0,0,0.06172839506172839,133.20987654320987,0)" xlink:href="#bg"/><use transform="matrix(0.06172839506172839,0,0,0.06172839506172839,139.3827160493827,0)" xlink:href="#bg"/><use transform="matrix(0.06172839506172839,0,0,0.06172839506172839,145.55555555555554,0)" xlink:href="#bg"/></g><path fill="#3a414a" d="M0 4l72-265h28L28 4H0" id="bq"/><g id="Y"><use transform="matrix(0.06172839506172839,0,0,0.06172839506172839,0,0)" xlink:href="#aM"/><use transform="matrix(0.06172839506172839,0,0,0.06172839506172839,12.345679012345679,0)" xlink:href="#aq"/><use transform="matrix(0.06172839506172839,0,0,0.06172839506172839,24.691358024691358,0)" xlink:href="#ak"/><use transform="matrix(0.06172839506172839,0,0,0.06172839506172839,30.864197530864196,0)" xlink:href="#aq"/><use transform="matrix(0.06172839506172839,0,0,0.06172839506172839,43.20987654320987,0)" xlink:href="#bq"/></g><path fill="#3a414a" d="M127-220V0H93v-220H8v-28h204v28h-85" id="br"/><g id="Z"><use transform="matrix(0.06172839506172839,0,0,0.06172839506172839,0,0)" xlink:href="#aM"/><use transform="matrix(0.06172839506172839,0,0,0.06172839506172839,12.345679012345679,0)" xlink:href="#aq"/><use transform="matrix(0.06172839506172839,0,0,0.06172839506172839,24.691358024691358,0)" xlink:href="#ak"/><use transform="matrix(0.06172839506172839,0,0,0.06172839506172839,30.864197530864196,0)" xlink:href="#al"/><use transform="matrix(0.06172839506172839,0,0,0.06172839506172839,43.20987654320987,0)" xlink:href="#br"/><use transform="matrix(0.06172839506172839,0,0,0.06172839506172839,55.925925925925924,0)" xlink:href="#aK"/><use transform="matrix(0.06172839506172839,0,0,0.06172839506172839,60.80246913580247,0)" xlink:href="#au"/><use transform="matrix(0.06172839506172839,0,0,0.06172839506172839,79.25925925925925,0)" xlink:href="#al"/><use transform="matrix(0.06172839506172839,0,0,0.06172839506172839,91.60493827160494,0)" xlink:href="#bg"/><use transform="matrix(0.06172839506172839,0,0,0.06172839506172839,97.77777777777777,0)" xlink:href="#bg"/><use transform="matrix(0.06172839506172839,0,0,0.06172839506172839,103.9506172839506,0)" xlink:href="#bg"/></g><path fill="#333" d="M115-194c55 1 70 41 70 98S169 2 115 4C84 4 66-9 55-30l1 105H24l-1-265h31l2 30c10-21 28-34 59-34zm-8 174c40 0 45-34 45-75s-6-73-45-74c-42 0-51 32-51 76 0 43 10 73 51 73" id="bs"/><path fill="#333" d="M24-231v-30h32v30H24zM24 0v-190h32V0H24" id="bt"/><path fill="#333" d="M24 0v-261h32V0H24" id="bu"/><g id="aa"><use transform="matrix(0.04938271604938272,0,0,0.04938271604938272,0,0)" xlink:href="#az"/><use transform="matrix(0.04938271604938272,0,0,0.04938271604938272,8.88888888888889,0)" xlink:href="#bs"/><use transform="matrix(0.04938271604938272,0,0,0.04938271604938272,18.765432098765434,0)" xlink:href="#aE"/><use transform="matrix(0.04938271604938272,0,0,0.04938271604938272,28.641975308641978,0)" xlink:href="#aI"/><use transform="matrix(0.04938271604938272,0,0,0.04938271604938272,33.580246913580254,0)" xlink:href="#bt"/><use transform="matrix(0.04938271604938272,0,0,0.04938271604938272,37.48148148148149,0)" xlink:href="#aE"/><use transform="matrix(0.04938271604938272,0,0,0.04938271604938272,47.35802469135803,0)" xlink:href="#bu"/></g><g id="ab"><use transform="matrix(0.04938271604938272,0,0,0.04938271604938272,0,0)" xlink:href="#aI"/><use transform="matrix(0.04938271604938272,0,0,0.04938271604938272,4.938271604938272,0)" xlink:href="#aC"/><use transform="matrix(0.04938271604938272,0,0,0.04938271604938272,14.814814814814817,0)" xlink:href="#aD"/><use transform="matrix(0.04938271604938272,0,0,0.04938271604938272,29.58024691358025,0)" xlink:href="#bs"/><use transform="matrix(0.04938271604938272,0,0,0.04938271604938272,39.4567901234568,0)" xlink:href="#aU"/><use transform="matrix(0.04938271604938272,0,0,0.04938271604938272,49.33333333333334,0)" xlink:href="#aH"/><use transform="matrix(0.04938271604938272,0,0,0.04938271604938272,55.209876543209894,0)" xlink:href="#aE"/><use transform="matrix(0.04938271604938272,0,0,0.04938271604938272,65.08641975308643,0)" xlink:href="#bu"/></g><g id="ac"><use transform="matrix(0.06172839506172839,0,0,0.06172839506172839,0,0)" xlink:href="#bh"/><use transform="matrix(0.06172839506172839,0,0,0.06172839506172839,18.456790123456788,0)" xlink:href="#ax"/><use transform="matrix(0.06172839506172839,0,0,0.06172839506172839,30.80246913580247,0)" xlink:href="#aM"/><use transform="matrix(0.06172839506172839,0,0,0.06172839506172839,43.148148148148145,0)" xlink:href="#al"/><use transform="matrix(0.06172839506172839,0,0,0.06172839506172839,55.49382716049382,0)" xlink:href="#aw"/><use transform="matrix(0.06172839506172839,0,0,0.06172839506172839,60.37037037037037,0)" xlink:href="#aw"/><use transform="matrix(0.06172839506172839,0,0,0.06172839506172839,65.24691358024691,0)" xlink:href="#aK"/><use transform="matrix(0.06172839506172839,0,0,0.06172839506172839,70.12345679012346,0)" xlink:href="#an"/><use transform="matrix(0.06172839506172839,0,0,0.06172839506172839,82.46913580246914,0)" xlink:href="#ay"/></g><g id="ad"><use transform="matrix(0.06172839506172839,0,0,0.06172839506172839,0,0)" xlink:href="#ax"/><use transform="matrix(0.06172839506172839,0,0,0.06172839506172839,12.345679012345679,0)" xlink:href="#bi"/></g><g id="ae"><use transform="matrix(0.06172839506172839,0,0,0.06172839506172839,0,0)" xlink:href="#aY"/><use transform="matrix(0.06172839506172839,0,0,0.06172839506172839,14.814814814814813,0)" xlink:href="#aZ"/><use transform="matrix(0.06172839506172839,0,0,0.06172839506172839,27.160493827160494,0)" xlink:href="#ba"/><use transform="matrix(0.06172839506172839,0,0,0.06172839506172839,39.50617283950617,0)" xlink:href="#bb"/><use transform="matrix(0.06172839506172839,0,0,0.06172839506172839,50.61728395061728,0)" xlink:href="#bc"/><use transform="matrix(0.06172839506172839,0,0,0.06172839506172839,55.49382716049382,0)" xlink:href="#ba"/><use transform="matrix(0.06172839506172839,0,0,0.06172839506172839,67.8395061728395,0)" xlink:href="#bd"/></g><use transform="matrix(0.06172839506172839,0,0,0.06172839506172839,0,0)" xlink:href="#be" id="af"/><path fill="#3a414a" d="M76-167L44 0H12l33-167H18l4-23h27c3-47 25-81 82-69l-4 24c-35-8-44 15-46 45h37l-5 23H76" id="bv"/><path fill="#3a414a" d="M30-147c31-64 166-65 159 27C183-49 158 1 86 4 9 8 1-88 30-147zM88-20c53 0 68-48 68-100 0-31-11-51-44-50-52 1-68 46-68 97 0 32 13 53 44 53" id="bw"/><path fill="#3a414a" d="M66-151c12-25 30-51 66-40l-6 26C45-176 58-65 38 0H6l36-190h30" id="bx"/><g id="ag"><use transform="matrix(0.06172839506172839,0,0,0.06172839506172839,0,0)" xlink:href="#bv"/><use transform="matrix(0.06172839506172839,0,0,0.06172839506172839,6.172839506172839,0)" xlink:href="#bw"/><use transform="matrix(0.06172839506172839,0,0,0.06172839506172839,18.51851851851852,0)" xlink:href="#bx"/></g><path fill="#3a414a" d="M51-54c-9 22 5 41 31 30L79-1C43 14 10-4 19-52l22-115H19l5-23h22l19-43h21l-9 43h35l-4 23H73" id="by"/><path fill="#3a414a" d="M67-158c15-20 31-36 64-36 94 0 33 127 27 194h-32l25-140c3-38-53-32-70-12C52-117 51-51 37 0H6l51-261h31" id="bz"/><g id="ah"><use transform="matrix(0.06172839506172839,0,0,0.06172839506172839,0,0)" xlink:href="#by"/><use transform="matrix(0.06172839506172839,0,0,0.06172839506172839,6.172839506172839,0)" xlink:href="#bz"/><use transform="matrix(0.06172839506172839,0,0,0.06172839506172839,18.51851851851852,0)" xlink:href="#bc"/><use transform="matrix(0.06172839506172839,0,0,0.06172839506172839,23.395061728395063,0)" xlink:href="#bd"/></g><path fill="#3a414a" d="M20-101c0-91 52-143 145-150 126-9 127 168 53 223-23 17-55 32-93 32C57 4 20-33 20-101zm216-33c5-57-18-91-73-90-77 1-110 51-110 125 0 49 23 75 73 75 72-1 104-45 110-110" id="bA"/><path fill="#3a414a" d="M67 3c-93-2-31-127-26-193h32L48-50c-3 39 53 32 70 12 30-34 30-101 43-152h32L157 0h-30c1-10 6-24 4-33-14 20-29 37-64 36" id="bB"/><path fill="#3a414a" d="M67-158c22-48 132-52 116 29L158 0h-32l25-140c3-38-53-32-70-12C52-117 51-52 38 0H6l36-190h30" id="bC"/><g id="ai"><use transform="matrix(0.06172839506172839,0,0,0.06172839506172839,0,0)" xlink:href="#bA"/><use transform="matrix(0.06172839506172839,0,0,0.06172839506172839,17.28395061728395,0)" xlink:href="#bb"/><use transform="matrix(0.06172839506172839,0,0,0.06172839506172839,28.39506172839506,0)" xlink:href="#bb"/><use transform="matrix(0.06172839506172839,0,0,0.06172839506172839,39.50617283950617,0)" xlink:href="#bB"/><use transform="matrix(0.06172839506172839,0,0,0.06172839506172839,51.85185185185185,0)" xlink:href="#bx"/><use transform="matrix(0.06172839506172839,0,0,0.06172839506172839,59.197530864197525,0)" xlink:href="#bx"/><use transform="matrix(0.06172839506172839,0,0,0.06172839506172839,66.5432098765432,0)" xlink:href="#ba"/><use transform="matrix(0.06172839506172839,0,0,0.06172839506172839,78.88888888888889,0)" xlink:href="#bC"/><use transform="matrix(0.06172839506172839,0,0,0.06172839506172839,91.23456790123457,0)" xlink:href="#bb"/><use transform="matrix(0.06172839506172839,0,0,0.06172839506172839,102.34567901234568,0)" xlink:href="#ba"/></g><path fill="#333" d="M85-194c31 0 48 13 60 33l-1-100h32l1 261h-30c-2-10 0-23-3-31C134-8 116 4 85 4 32 4 16-35 15-94c0-66 23-100 70-100zm9 24c-40 0-46 34-46 75 0 40 6 74 45 74 42 0 51-32 51-76 0-42-9-74-50-73" id="bD"/><path fill="#333" d="M240 0l2-218c-23 76-54 145-80 218h-23L58-218 59 0H30v-248h44l77 211c21-75 51-140 76-211h43V0h-30" id="bE"/><path fill="#333" d="M101-234c-31-9-42 10-38 44h38v23H63V0H32v-167H5v-23h27c-7-52 17-82 69-68v24" id="bF"/><g id="aj"><use transform="matrix(0.04938271604938272,0,0,0.04938271604938272,0,0)" xlink:href="#az"/><use transform="matrix(0.04938271604938272,0,0,0.04938271604938272,8.88888888888889,0)" xlink:href="#aA"/><use transform="matrix(0.04938271604938272,0,0,0.04938271604938272,17.77777777777778,0)" xlink:href="#aB"/><use transform="matrix(0.04938271604938272,0,0,0.04938271604938272,27.654320987654323,0)" xlink:href="#aC"/><use transform="matrix(0.04938271604938272,0,0,0.04938271604938272,37.53086419753087,0)" xlink:href="#aD"/><use transform="matrix(0.04938271604938272,0,0,0.04938271604938272,52.2962962962963,0)" xlink:href="#aE"/><use transform="matrix(0.04938271604938272,0,0,0.04938271604938272,62.17283950617284,0)" xlink:href="#aF"/><use transform="matrix(0.04938271604938272,0,0,0.04938271604938272,67.11111111111111,0)" xlink:href="#bD"/><use transform="matrix(0.04938271604938272,0,0,0.04938271604938272,76.98765432098766,0)" xlink:href="#aE"/><use transform="matrix(0.04938271604938272,0,0,0.04938271604938272,86.8641975308642,0)" xlink:href="#aI"/><use transform="matrix(0.04938271604938272,0,0,0.04938271604938272,91.80246913580248,0)" xlink:href="#aC"/><use transform="matrix(0.04938271604938272,0,0,0.04938271604938272,101.67901234567903,0)" xlink:href="#bE"/><use transform="matrix(0.04938271604938272,0,0,0.04938271604938272,116.44444444444446,0)" xlink:href="#aU"/><use transform="matrix(0.04938271604938272,0,0,0.04938271604938272,126.320987654321,0)" xlink:href="#bD"/><use transform="matrix(0.04938271604938272,0,0,0.04938271604938272,136.19753086419755,0)" xlink:href="#bt"/><use transform="matrix(0.04938271604938272,0,0,0.04938271604938272,140.0987654320988,0)" xlink:href="#bF"/><use transform="matrix(0.04938271604938272,0,0,0.04938271604938272,145.03703703703707,0)" xlink:href="#bt"/><use transform="matrix(0.04938271604938272,0,0,0.04938271604938272,148.9382716049383,0)" xlink:href="#aC"/><use transform="matrix(0.04938271604938272,0,0,0.04938271604938272,158.81481481481484,0)" xlink:href="#bD"/></g></defs></g></svg>