<svg version="1.2" xmlns="http://www.w3.org/2000/svg" viewBox="0 0 490.4 292.66" width="491" height="293">
	<title>data-release</title>
	<style>
		.s0 { fill: #ffffff } 
		.s1 { fill: #fcfcca;stroke: #3a414a } 
		.s2 { fill: #31373e } 
		.s3 { fill: #ffffff;stroke: #3a414a } 
		.s4 { fill: #3a414a } 
		.s5 { fill: #3a414a;stroke: #3a414a;stroke-width: .4 } 
		.s6 { fill: #333333 } 
	</style>
	<g>
		<path class="s0" d="m951.9-447v1000h-1000v-1000z"/>
		<path class="s1" d="m103.2 173.5c-45.7 0-82.7-24.8-82.7-55.4 0-30.6 37-55.3 82.7-55.3 45.7 0 82.6 24.7 82.6 55.3 0 30.6-36.9 55.4-82.6 55.4z"/>
		<g id="b">
		</g>
		<path id="schema: Dataset" class="s2" aria-label="schema:
Dataset"  d="m60.6 99.3v2q-0.9-0.5-1.9-0.7-1-0.2-2-0.2-1.6 0-2.4 0.5-0.8 0.4-0.8 1.4 0 0.8 0.6 1.2 0.5 0.4 2.3 0.8l0.7 0.2q2.3 0.5 3.3 1.4 0.9 0.9 0.9 2.5 0 1.8-1.4 2.9-1.5 1-4 1-1 0-2.2-0.2-1.1-0.2-2.4-0.6v-2.2q1.2 0.6 2.4 0.9 1.1 0.3 2.3 0.3 1.5 0 2.3-0.5 0.8-0.5 0.8-1.5 0-0.8-0.6-1.3-0.6-0.5-2.6-0.9l-0.7-0.2q-2-0.4-2.9-1.3-0.9-0.9-0.9-2.4 0-1.8 1.3-2.8 1.3-1 3.7-1 1.2 0 2.3 0.1 1 0.2 1.9 0.6zm13.6 0.1v2q-0.9-0.5-1.8-0.8-0.9-0.2-1.9-0.2-2.1 0-3.2 1.3-1.2 1.3-1.2 3.7 0 2.5 1.2 3.8 1.1 1.3 3.2 1.3 1 0 1.9-0.2 0.9-0.3 1.8-0.8v2q-0.9 0.4-1.9 0.6-0.9 0.2-2 0.2-3 0-4.7-1.8-1.8-1.9-1.8-5.1 0-3.2 1.8-5 1.8-1.8 4.8-1.8 1 0 2 0.2 0.9 0.2 1.8 0.6zm14.7 4.7v7.9h-2.2v-7.9q0-1.8-0.7-2.7-0.7-1-2.2-1-1.7 0-2.7 1.1-1.1 1.2-1.1 3.1v7.4h-2.1v-18.2h2.1v7.1q0.8-1.2 1.9-1.8 1-0.5 2.4-0.5 2.3 0 3.4 1.4 1.2 1.4 1.2 4.1zm15.5 0.8v1.1h-9.9q0.1 2.2 1.3 3.4 1.2 1.1 3.4 1.1 1.2 0 2.4-0.3 1.1-0.3 2.3-0.9v2q-1.2 0.5-2.4 0.8-1.2 0.2-2.5 0.2-3.1 0-4.9-1.8-1.9-1.8-1.9-4.9 0-3.3 1.8-5.1 1.7-1.9 4.7-1.9 2.6 0 4.2 1.7 1.5 1.7 1.5 4.6zm-9.8-0.6h7.6q0-1.8-1-2.9-0.9-1-2.5-1-1.8 0-2.9 1-1.1 1-1.2 2.9zm23.6-2.9q0.8-1.5 1.9-2.1 1.1-0.7 2.6-0.7 2.1 0 3.2 1.4 1.1 1.4 1.1 4.1v7.9h-2.2v-7.9q0-1.8-0.6-2.8-0.7-0.9-2.1-0.9-1.6 0-2.6 1.1-1 1.2-1 3.1v7.4h-2.1v-7.9q0-1.8-0.7-2.8-0.7-0.9-2.1-0.9-1.6 0-2.6 1.2-1 1.1-1 3v7.4h-2.1v-13.1h2.1v2q0.8-1.2 1.8-1.8 1-0.5 2.4-0.5 1.5 0 2.5 0.7 1 0.7 1.5 2.1zm21.2 4h-2.1q-2.6 0-3.6 0.6-1 0.6-1 2 0 1.2 0.7 1.9 0.8 0.6 2.1 0.6 1.8 0 2.8-1.2 1.1-1.3 1.1-3.4zm2.2-0.9v7.5h-2.2v-2q-0.7 1.2-1.8 1.8-1.1 0.5-2.7 0.5-2 0-3.2-1.1-1.2-1.1-1.2-3 0-2.3 1.5-3.4 1.5-1.1 4.4-1.1h3v-0.2q0-1.5-1-2.3-0.9-0.8-2.7-0.8-1.1 0-2.2 0.2-1.1 0.3-2 0.8v-1.9q1.1-0.5 2.3-0.7 1.1-0.3 2.1-0.3 2.9 0 4.3 1.5 1.4 1.5 1.4 4.5zm5 7.5v-3h2.4v3zm0-9.5v-2.9h2.5v2.9zm-89 22.9h-2.8v13.6h2.8q3.6 0 5.3-1.6 1.7-1.6 1.7-5.2 0-3.5-1.7-5.1-1.7-1.7-5.3-1.7zm-5.2 15.6v-17.5h4.9q5.1 0 7.4 2.1 2.4 2.1 2.4 6.6 0 4.5-2.4 6.7-2.4 2.1-7.4 2.1zm26.5-6.6h-2.2q-2.6 0-3.6 0.6-1 0.6-1 2 0 1.2 0.7 1.8 0.8 0.7 2.1 0.7 1.8 0 2.9-1.2 1.1-1.3 1.1-3.4zm2.1-0.9v7.5h-2.1v-2q-0.8 1.2-1.9 1.7-1.1 0.6-2.7 0.6-2 0-3.2-1.1-1.2-1.2-1.2-3.1 0-2.2 1.5-3.3 1.5-1.1 4.4-1.1h3.1v-0.2q0-1.5-1-2.3-1-0.9-2.8-0.9-1.1 0-2.2 0.3-1 0.3-2 0.8v-2q1.2-0.4 2.3-0.6 1.1-0.3 2.2-0.3 2.8 0 4.2 1.5 1.4 1.5 1.4 4.5zm4.4-9.4h2.2v3.7h4.4v1.7h-4.4v7.1q0 1.6 0.4 2.1 0.5 0.5 1.8 0.5h2.2v1.8h-2.2q-2.5 0-3.4-1-1-0.9-1-3.4v-7.1h-1.6v-1.7h1.6zm17.6 10.3h-2.2q-2.6 0-3.6 0.6-1 0.6-1 2 0 1.2 0.8 1.9 0.7 0.6 2 0.6 1.8 0 2.9-1.2 1.1-1.3 1.1-3.4zm2.1-0.9v7.5h-2.1v-2q-0.8 1.2-1.9 1.7-1.1 0.6-2.7 0.6-2 0-3.2-1.1-1.2-1.2-1.2-3.1 0-2.2 1.5-3.3 1.5-1.1 4.5-1.1h3v-0.2q0-1.5-1-2.3-1-0.8-2.7-0.8-1.2 0-2.2 0.2-1.1 0.3-2.1 0.8v-2q1.2-0.4 2.3-0.6 1.1-0.3 2.2-0.3 2.8 0 4.2 1.5 1.4 1.5 1.4 4.5zm12.8-5.3v2.1q-0.9-0.5-1.9-0.7-0.9-0.3-2-0.3-1.6 0-2.4 0.5-0.8 0.5-0.8 1.5 0 0.8 0.6 1.2 0.5 0.4 2.3 0.8l0.7 0.2q2.3 0.4 3.3 1.4 0.9 0.8 0.9 2.4 0 1.9-1.4 2.9-1.4 1.1-4 1.1-1 0-2.2-0.2-1.1-0.2-2.4-0.6v-2.2q1.2 0.6 2.4 0.9 1.1 0.3 2.3 0.3 1.5 0 2.3-0.5 0.8-0.5 0.8-1.5 0-0.9-0.6-1.3-0.6-0.5-2.6-0.9l-0.7-0.2q-2-0.4-2.9-1.3-0.9-0.9-0.9-2.4 0-1.9 1.3-2.9 1.3-1 3.7-1 1.2 0 2.3 0.2 1.1 0.2 1.9 0.5zm15.4 5.7v1h-9.9q0.1 2.2 1.3 3.4 1.2 1.2 3.4 1.2 1.2 0 2.4-0.3 1.2-0.3 2.3-0.9v2q-1.2 0.5-2.4 0.8-1.2 0.2-2.4 0.2-3.2 0-5-1.8-1.9-1.8-1.9-5 0-3.2 1.8-5.1 1.7-1.9 4.7-1.9 2.6 0 4.2 1.7 1.5 1.7 1.5 4.7zm-9.8-0.7h7.6q0-1.7-0.9-2.8-1-1-2.6-1-1.8 0-2.9 1-1.1 1-1.2 2.8zm13.3-9.1h2.2v3.7h4.4v1.7h-4.4v7.1q0 1.6 0.4 2.1 0.5 0.5 1.8 0.5h2.2v1.8h-2.2q-2.5 0-3.4-1-1-0.9-1-3.4v-7.1h-1.6v-1.7h1.6z"/>
		<path class="s3" d="m304.4 26.5q0-1.2 0.5-2.3 0.5-1.1 1.3-1.9 0.8-0.9 1.9-1.3 1.1-0.5 2.3-0.5h153.5q1.2 0 2.3 0.5 1.1 0.4 1.9 1.3 0.9 0.8 1.3 1.9 0.5 1.1 0.5 2.3v35.7q0 1.1-0.5 2.3-0.4 1.1-1.3 1.9-0.8 0.8-1.9 1.3-1.1 0.5-2.3 0.5h-153.5q-1.2 0-2.3-0.5-1.1-0.5-1.9-1.3-0.8-0.8-1.3-1.9-0.5-1.2-0.5-2.3z"/>
		<g id="c">
			<path id="r" class="s4" d="m354.2 48l-3.2-4.8-3.2 4.8h-2.1l4.2-6-4-5.7h2.2l2.9 4.6 2.9-4.6h2.2l-4 5.7 4.2 6z"/>
			<path id="q" class="s4" d="m364.9 39.2c-0.2-2.1-5.3-2.3-5.4 0 1 3.3 7.1 0.7 7.4 5.6 0.2 4.8-9.3 4.5-9.7 0.4l1.7-0.3c0.3 2.3 6 2.8 6.1 0-0.6-3.4-7-0.9-7.3-5.5-0.3-3.5 5-3.9 7.5-2.6 0.8 0.4 1.3 1.2 1.5 2.2"/>
			<path id="s" class="s4" d="m372.9 36.1c1.9 0 3 0.8 3.7 2v-6.2h1.9l0.1 16.1h-1.8c-0.2-0.6 0-1.4-0.2-1.9-0.6 1.4-1.8 2.2-3.7 2.2-3.2 0-4.2-2.4-4.3-6.1 0-4 1.4-6.1 4.3-6.1zm0.6 1.4c-2.5 0-2.9 2.1-2.9 4.7 0 2.4 0.4 4.5 2.8 4.5 2.6 0 3.2-1.9 3.2-4.7 0-2.6-0.6-4.5-3.1-4.5z"/>
			<path id="n" class="s4" d="m382.1 38.5v-2.2h2.1v2.2zm0 9.5v-2.2h2.1v2.2z"/>
			<path id="s" class="s4" d="m391.4 36.1c2 0 3 0.8 3.8 2l-0.1-6.2h2v16.1h-1.8c-0.1-0.6 0-1.4-0.2-1.9-0.6 1.4-1.7 2.2-3.7 2.2-3.2 0-4.2-2.4-4.3-6.1 0-4 1.4-6.1 4.3-6.1zm0.6 1.4c-2.5 0-2.8 2.1-2.8 4.7 0 2.4 0.3 4.5 2.7 4.5 2.6 0 3.2-1.9 3.2-4.7 0-2.6-0.6-4.5-3.1-4.5z"/>
			<path id="p" class="s4" d="m407.3 45.8c-1 1.3-2 2.5-4.2 2.5-2.3-0.1-3.6-1.3-3.6-3.5-0.1-4 3.9-3.9 7.7-3.9 0.2-2.2-0.6-3.4-2.5-3.4-1.5 0.1-2.6 0.5-2.6 1.9l-2.1-0.1c0.3-2.3 2.1-3.2 4.7-3.2 2.8 0 4.5 1.2 4.5 3.9v5.1c-0.1 1.2 0.4 1.9 1.7 1.6v1.3c-1.9 0.5-3.8-0.2-3.6-2.2zm-5.8-1c0 1.2 0.8 2 2 2 2.5-0.2 3.9-1.8 3.7-4.6-2.7 0.1-5.7-0.3-5.7 2.6z"/>
			<path id="j" class="s4" d="m414.5 45.1c-0.1 1.5 1.1 1.8 2.4 1.4v1.5c-2.1 0.6-4.3 0.3-4.3-2.4v-7.9h-1.4v-1.4h1.5l0.5-2.7h1.3v2.7h2.2v1.4h-2.2z"/>
			<path id="k" class="s4" d="m423.2 36.1c3.9 0 5.3 2.5 5.2 6.5h-8.3c0 2.5 0.9 4.1 3.3 4.2 1.6 0.1 2.6-0.7 3-1.8l1.7 0.5c-0.7 1.7-2.3 2.8-4.7 2.8-3.6 0-5.5-2.3-5.4-6.2 0.1-3.8 1.6-6 5.2-6zm3.2 5c0.4-3.8-4.6-4.8-5.9-1.8-0.2 0.5-0.4 1.1-0.4 1.8z"/>
		</g>
		<path class="s5" d="m187 85.7l-11.8 4.1-0.3-0.9 12.1-4.2zm116.2-40.6l-26.4 9.2v-1l26.1-9.1z"/>
		<path class="s4" d="m175.2 89.8l-0.3 0.1-0.2-0.2-0.5-0.6 0.7-0.2z"/>
		<path class="s5" d=""/>
		<path class="s5" d="m303.9 44.3l-13.6 15.8-0.7-0.6 12.5-14.5-18.8-3.6 0.1-0.9z"/>
		<g id="d">
			<path id="t" class="s6" d="m192 52.8c3.1 0 4.2 2.1 4.1 5.2h-6.7c0 2 0.7 3.4 2.6 3.4 1.3 0.1 2.2-0.6 2.5-1.4l1.4 0.4c-0.6 1.3-1.9 2.2-3.9 2.2-2.8 0-4.3-1.8-4.2-5 0-3 1.2-4.8 4.2-4.8zm2.5 4c0.3-3-3.7-3.8-4.8-1.4-0.1 0.4-0.3 0.9-0.3 1.4z"/>
			<path id="u" class="s6" d="m207.3 54c-3.3 0.2-1.9 5.2-2.2 8.4h-1.5v-6c0-1.4-0.3-2.5-1.8-2.4-3.2 0.2-1.8 5.2-2.1 8.4h-1.6v-9.4h1.5c0 0.5-0.1 1.2 0.1 1.6 0.4-2.2 4.8-2.5 5.2 0 0.6-1 1.4-1.7 2.9-1.8 4.2-0.1 2.3 5.9 2.7 9.6h-1.5v-6c0-1.4-0.3-2.4-1.7-2.4z"/>
			<path id="v" class="s6" d="m217.3 52.8c2.7 0 3.4 1.9 3.5 4.8 0 3.3-1.1 5-3.5 5-1.5-0.1-2.4-0.6-2.9-1.7l-0.1 1.5h-1.5v-12.9h1.6v5c0.5-1.1 1.4-1.7 2.9-1.7zm-0.4 8.6c2 0 2.3-1.7 2.3-3.7 0-2-0.3-3.7-2.3-3.7-2 0-2.5 1.6-2.5 3.8 0 2.1 0.5 3.6 2.5 3.6z"/>
			<path id="w" class="s6" d="m228.5 60.6c-0.7 1-1.5 2-3.4 2-1.7-0.1-2.8-1-2.8-2.8-0.1-3.2 3.1-3.1 6.1-3.1 0.2-1.8-0.4-2.7-2-2.7-1.2 0-2 0.3-2.1 1.5l-1.6-0.1c0.3-1.8 1.6-2.6 3.8-2.6 2.2 0 3.5 1 3.5 3.2v4c0 1 0.4 1.6 1.4 1.4v0.9c-1.5 0.5-3-0.1-2.9-1.7zm-4.6-0.8c0 1 0.6 1.6 1.6 1.6 2-0.1 3.1-1.4 2.9-3.7-2.1 0.1-4.5-0.2-4.5 2.1z"/>
			<path id="x" class="s6" d="m237 54.3c-3.8-0.7-2.6 4.5-2.8 8.1h-1.6v-9.4h1.5c0 0.6-0.1 1.4 0.1 1.9 0.3-1.3 1.1-2.4 2.8-2z"/>
			<path id="y" class="s6" d="m246 53c-0.5 6.2 2 14.5-5.4 12.9-1.1-0.3-1.9-1-2.2-2.1l1.6-0.3c0.7 2.3 4.9 1.6 4.4-1.4v-1.4c-0.5 1-1.4 1.7-3 1.7-2.7 0-3.4-2-3.4-4.7 0-2.8 0.8-4.8 3.5-4.8 1.5-0.1 2.4 0.7 2.9 1.7 0.1-0.5 0-1.1 0.1-1.6zm-4.1 8.3c1.8 0 2.5-1.6 2.5-3.6 0-2.1-0.7-3.7-2.5-3.7-1.9 0-2.2 1.7-2.2 3.7 0 2 0.3 3.6 2.2 3.6z"/>
			<path id="z" class="s6" d="m252.1 52.8c3.1 0 4.2 1.8 4.2 4.9 0 3.1-1.3 4.9-4.3 4.9-2.9 0-4-1.9-4.1-4.9q0-4.9 4.2-4.9zm-0.1 8.6c2.2 0.1 2.7-1.5 2.7-3.7 0-2.1-0.4-3.7-2.6-3.7-2.1 0-2.6 1.6-2.6 3.7 0 2.1 0.5 3.7 2.5 3.7z"/>
			<path id="t" class="s6" d="m262 52.8c3.1 0 4.2 2.1 4.1 5.2h-6.6c0 2 0.6 3.4 2.6 3.4 1.3 0.1 2.1-0.6 2.4-1.4l1.4 0.4c-0.6 1.3-1.9 2.2-3.8 2.2-2.9 0-4.4-1.8-4.3-5 0-3 1.3-4.8 4.2-4.8zm2.5 4c0.3-3-3.7-3.8-4.7-1.4-0.2 0.4-0.3 0.9-0.3 1.4z"/>
			<path id="A" class="s6" d="m271.1 52.8c1.5 0 2.4 0.7 3 1.6l-0.1-4.9h1.6l0.1 12.9h-1.5c-0.1-0.5 0-1.1-0.2-1.5-0.5 1.1-1.4 1.7-2.9 1.7-2.6 0-3.4-1.9-3.4-4.9 0-3.2 1.1-4.9 3.4-4.9zm0.5 1.2c-2 0-2.3 1.7-2.3 3.7 0 2 0.3 3.7 2.2 3.7 2.1 0 2.5-1.6 2.5-3.8 0-2.1-0.4-3.7-2.4-3.6z"/>
		</g>
		<g id="e">
			<path id="B" class="s6" d="m219.8 83.9c-4.4 0.2-2.7-5.7-3-9.6h1.6v6c0 1.5 0.3 2.4 1.9 2.4 3.6-0.1 2.2-5 2.5-8.4h1.5v9.4h-1.4c-0.1-0.5 0-1.2-0.1-1.6-0.6 1.1-1.4 1.8-3 1.8z"/>
			<path id="C" class="s6" d="m231.3 74.1c4.4-0.2 2.6 5.8 3 9.6h-1.6v-6c0-1.5-0.4-2.4-1.9-2.3-3.6 0.1-2.2 5-2.5 8.3h-1.5l-0.1-9.4h1.5c0 0.5-0.1 1.2 0.1 1.6 0.5-1.1 1.4-1.7 3-1.8z"/>
			<path id="D" class="s6" d="m238.3 81.4c-0.1 1.2 0.9 1.4 1.9 1.1v1.2c-1.6 0.5-3.5 0.2-3.5-2v-6.2h-1v-1.2h1.1l0.5-2.1h1v2.1h1.7v1.2h-1.7z"/>
			<path id="E" class="s6" d="m241.5 72.3v-1.5h1.6v1.5zm0 11.4v-9.4h1.6v9.4z"/>
			<path id="F" class="s6" d="m247 70.8v12.9h-1.6v-12.9z"/>
		</g>
		<path class="s3" d="m387.1 272.2c-45.7 0-82.7-24.8-82.7-55.4 0-30.6 37-55.3 82.7-55.3 45.7 0 82.7 24.7 82.7 55.3 0 30.6-37 55.4-82.7 55.4z"/>
		<g id="f">
			<path id="j" class="s4" d="m366.6 206.6c-0.2 1.5 1.1 1.8 2.3 1.4v1.5c-2 0.6-4.3 0.3-4.3-2.5v-7.8h-1.4v-1.4h1.5l0.6-2.7h1.3v2.7h2.1v1.4h-2.1z"/>
			<path id="G" class="s4" d="m370.6 195.3v-1.9h2v1.9zm0 14.2v-11.7h1.9v11.7z"/>
			<path id="H" class="s4" d="m386.9 199.1c-4.1 0.2-2.3 6.5-2.7 10.4h-1.9v-7.5c0-1.7-0.3-3-2.1-2.9-4.1 0.2-2.4 6.4-2.8 10.4h-1.9v-11.7h1.8c0.1 0.6 0 1.5 0.1 2 0.7-2.8 6.1-3.1 6.6 0 0.7-1.3 1.7-2.2 3.6-2.3 5.3-0.1 2.9 7.4 3.4 12h-1.9v-7.5c0-1.7-0.3-3-2.2-2.9z"/>
			<path id="k" class="s4" d="m398.6 197.5c3.9 0 5.3 2.6 5.2 6.6h-8.3c0 2.5 0.8 4.1 3.2 4.2 1.6 0 2.7-0.8 3.1-1.8l1.7 0.5c-0.7 1.7-2.3 2.8-4.8 2.8-3.5 0-5.4-2.3-5.3-6.2 0-3.8 1.6-6.1 5.2-6.1zm3.2 5c0.4-3.7-4.7-4.7-6-1.7-0.2 0.4-0.3 1.1-0.3 1.7z"/>
			<path id="n" class="s4" d="m406.8 200v-2.2h2.1v2.2zm0 9.5v-2.2h2.1v2.2z"/>
		</g>
		<g id="g">
			<path id="o" class="s4" d="m346.9 220.9c7.3-0.5 13.3 0.5 13.2 7.5-0.2 4.8-2.7 7.8-7.5 7.8h-5.7zm2 13.6c5.5 0.5 9.1-1 9.1-6.1 0-5.1-3.7-6.2-9.1-5.9z"/>
			<path id="I" class="s4" d="m366.2 236.4c-5.5 0.3-3.3-7.1-3.7-11.9h1.9v7.4c0 1.9 0.5 3 2.4 3 4.5-0.1 2.8-6.2 3.1-10.4h1.9l0.1 11.7h-1.8c-0.1-0.6 0-1.6-0.2-2.1-0.6 1.4-1.7 2.3-3.7 2.3z"/>
			<path id="l" class="s4" d="m380.4 226.1c-4.8-1-3.2 5.6-3.5 10.1h-2v-11.7h1.8c0.1 0.7 0 1.7 0.1 2.4 0.4-1.7 1.5-3.1 3.6-2.6z"/>
			<path id="p" class="s4" d="m389.4 234c-0.9 1.3-1.9 2.5-4.2 2.4-2.2 0-3.5-1.3-3.5-3.5-0.1-3.9 3.9-3.9 7.7-3.9 0.2-2.1-0.6-3.3-2.6-3.3-1.4 0.1-2.5 0.4-2.5 1.9l-2.1-0.2c0.3-2.3 2.1-3.2 4.7-3.2 2.8 0 4.5 1.2 4.5 4v5c-0.1 1.3 0.4 2 1.7 1.7v1.2c-1.9 0.6-3.8-0.1-3.7-2.1zm-5.7-1.1c0 1.2 0.7 2 2 2 2.5-0.1 3.9-1.7 3.7-4.5-2.7 0.1-5.7-0.3-5.7 2.5z"/>
			<path id="j" class="s4" d="m396.7 233.3c-0.1 1.5 1.1 1.8 2.4 1.3v1.5c-2.1 0.6-4.3 0.3-4.3-2.4v-7.8h-1.4v-1.4h1.5l0.5-2.7h1.3v2.7h2.2v1.4h-2.2z"/>
			<path id="G" class="s4" d="m400.7 221.9v-1.8h2v1.8zm0 14.3v-11.7h2v11.7z"/>
			<path id="J" class="s4" d="m410.3 224.2c3.8-0.1 5.3 2.3 5.3 6.1 0 3.9-1.7 6.1-5.4 6.1-3.6 0-5.1-2.4-5.1-6.1q-0.1-6.1 5.2-6.1zm-0.1 10.7c2.8 0.1 3.3-1.9 3.3-4.6 0-2.6-0.5-4.6-3.1-4.6-2.7 0-3.3 2-3.3 4.6 0 2.7 0.6 4.6 3.1 4.6z"/>
			<path id="m" class="s4" d="m423.7 224.2c5.5-0.2 3.3 7.2 3.7 12h-2v-7.5c0-1.9-0.5-3-2.4-2.9-4.4 0.1-2.7 6.2-3 10.4h-2v-11.7h1.8c0.1 0.6 0 1.4 0.1 1.9 0.7-1.3 1.8-2.1 3.8-2.2z"/>
		</g>
		<path class="s5" d="m312.4 190.5l-0.3 0.9-39.9-13.8v-1zm-110.2-38.1v1l-25.1-8.6 0.3-0.9z"/>
		<path class="s4" d="m177.4 143.9l-0.3 0.9-0.6-0.2 0.3-0.4 0.3-0.4z"/>
		<path class="s5" d=""/>
		<path class="s5" d="m313.1 191.2l-20.4 4-0.2-0.9 18.8-3.7-12.6-14.5 0.7-0.6z"/>
		<g>
			<g id="h">
				<path id="t" class="s6" d="m207.1 148.3c3.1 0 4.3 2.1 4.2 5.3h-6.7c0 2 0.7 3.3 2.6 3.3 1.3 0.1 2.2-0.6 2.5-1.4l1.3 0.4c-0.5 1.4-1.8 2.2-3.8 2.2-2.8 0-4.3-1.8-4.3-4.9 0.1-3 1.3-4.9 4.2-4.9zm2.6 4c0.3-2.9-3.8-3.8-4.8-1.3-0.1 0.3-0.3 0.8-0.3 1.3z"/>
				<path id="u" class="s6" d="m222.4 149.6c-3.3 0.1-1.8 5.2-2.1 8.3h-1.6v-6c0-1.4-0.2-2.4-1.7-2.3-3.2 0.2-1.9 5.1-2.2 8.3h-1.5v-9.4h1.4c0.1 0.5 0 1.2 0.1 1.6 0.5-2.2 4.9-2.4 5.3 0 0.6-1 1.4-1.7 2.9-1.8 4.2-0.1 2.3 5.9 2.7 9.6h-1.5v-6c0-1.4-0.3-2.4-1.8-2.3z"/>
				<path id="v" class="s6" d="m232.5 148.3c2.6 0 3.4 2 3.5 4.9 0 3.2-1.2 4.9-3.5 4.9-1.5 0-2.4-0.5-2.9-1.7l-0.1 1.5h-1.5v-12.9h1.6v5c0.5-1.1 1.4-1.7 2.9-1.7zm-0.4 8.6c2 0 2.2-1.6 2.2-3.7 0-1.9-0.2-3.7-2.2-3.6-2.1 0-2.5 1.6-2.5 3.7 0 2.2 0.5 3.6 2.5 3.6z"/>
				<path id="w" class="s6" d="m243.7 156.1c-0.8 1.1-1.6 2.1-3.4 2-1.8 0-2.8-1-2.8-2.8-0.1-3.2 3.1-3.1 6.1-3.1 0.2-1.7-0.4-2.7-2-2.7-1.2 0.1-2 0.4-2.1 1.6l-1.6-0.2c0.2-1.8 1.6-2.6 3.8-2.6 2.2 0 3.5 1 3.5 3.2v4.1c0 0.9 0.4 1.5 1.4 1.3v1c-1.5 0.4-3-0.1-2.9-1.8zm-4.6-0.8c0 1 0.6 1.6 1.6 1.6 2-0.1 3.1-1.4 2.9-3.6-2.1 0.1-4.5-0.3-4.5 2z"/>
				<path id="x" class="s6" d="m252.2 149.9c-3.8-0.8-2.6 4.5-2.8 8h-1.6v-9.4h1.5c0 0.6-0.1 1.5 0.1 2 0.3-1.4 1.1-2.5 2.8-2.1z"/>
				<path id="y" class="s6" d="m261.2 148.5c-0.5 6.2 2 14.5-5.4 12.9-1.2-0.3-1.9-1-2.2-2.1l1.6-0.2c0.7 2.3 4.9 1.5 4.4-1.4v-1.5c-0.6 1-1.5 1.8-3 1.8-2.7 0-3.4-2.1-3.4-4.8 0-2.7 0.8-4.8 3.5-4.8 1.4-0.1 2.4 0.8 2.9 1.7 0.1-0.5 0-1.1 0.1-1.6zm-4.1 8.3c1.8 0 2.5-1.5 2.5-3.6 0-2-0.7-3.7-2.5-3.7-1.9 0-2.2 1.7-2.2 3.7 0 2.1 0.3 3.6 2.2 3.6z"/>
				<path id="z" class="s6" d="m267.3 148.3c3 0 4.2 1.9 4.2 4.9 0 3.1-1.4 4.9-4.3 4.9-2.9 0-4.1-1.9-4.1-4.9q0-4.9 4.2-4.9zm-0.1 8.6c2.2 0.1 2.6-1.5 2.6-3.7 0-2.1-0.3-3.7-2.5-3.7-2.1 0-2.6 1.6-2.6 3.7 0 2.2 0.5 3.7 2.5 3.7z"/>
			</g>
			<g id="i">
				<path id="K" class="s6" d="m218.2 169.7c2.8 0 3.5 2 3.5 4.8 0 2.8-0.8 4.9-3.5 5-1.5 0-2.4-0.7-2.9-1.7v5.2h-1.5l-0.1-13.1h1.5l0.1 1.5c0.5-1.1 1.4-1.7 2.9-1.7zm-0.4 8.6c2 0 2.3-1.7 2.3-3.7 0-2.1-0.3-3.6-2.3-3.7-2 0-2.5 1.6-2.5 3.8 0 2.1 0.5 3.6 2.5 3.6z"/>
				<path id="t" class="s6" d="m227.4 169.7c3.1 0 4.2 2.1 4.1 5.2h-6.6c0 2 0.7 3.3 2.6 3.4 1.3 0 2.1-0.6 2.4-1.5l1.4 0.4c-0.6 1.4-1.8 2.3-3.8 2.3-2.9 0-4.4-1.9-4.3-5 0-3 1.3-4.8 4.2-4.8zm2.5 4c0.3-3-3.7-3.8-4.7-1.4-0.2 0.3-0.3 0.8-0.3 1.4z"/>
				<path id="x" class="s6" d="m237.9 171.2c-3.8-0.8-2.6 4.5-2.8 8.1h-1.5l-0.1-9.4h1.5c0 0.6-0.1 1.4 0.1 1.9 0.3-1.3 1.1-2.4 2.8-2z"/>
				<path id="E" class="s6" d="m239.4 167.8v-1.4h1.6v1.4zm0 11.5v-9.4h1.5v9.4z"/>
				<path id="z" class="s6" d="m247 169.7c3.1-0.1 4.2 1.8 4.2 4.9 0.1 3.1-1.3 4.9-4.2 4.9-2.9 0-4.1-2-4.2-4.9q0-4.9 4.2-4.9zm0 8.6c2.2 0 2.6-1.6 2.6-3.7 0-2.2-0.4-3.7-2.5-3.7-2.1 0-2.6 1.5-2.6 3.7 0 2.1 0.5 3.6 2.5 3.7z"/>
				<path id="A" class="s6" d="m256.2 169.7c1.5 0 2.3 0.6 2.9 1.6v-4.9h1.6v12.9h-1.5c-0.1-0.5 0-1.2-0.1-1.6-0.5 1.2-1.4 1.8-2.9 1.8-2.6 0-3.4-2-3.5-4.9 0-3.2 1.1-4.9 3.5-4.9zm0.4 1.2c-2 0-2.3 1.6-2.3 3.7 0 1.9 0.3 3.6 2.3 3.6 2 0 2.5-1.6 2.5-3.7 0-2.1-0.5-3.7-2.5-3.6z"/>
			</g>
		</g>
	</g>
</svg>