<svg xmlns="http://www.w3.org/2000/svg" xmlns:xlink="http://www.w3.org/1999/xlink" xmlns:lucid="lucid" width="1946.8" height="1409.08"><g transform="translate(666.6566052940153 302.29702056503356)" lucid:page-tab-id="GfvYW2tFSKGS"><path d="M-1000-500h2500v2000h-2500z" fill="#fff"/><path d="M448.55 719.3a6 6 0 0 1 6-6h208a6 6 0 0 1 6 6v108a6 6 0 0 1-6 6h-208a6 6 0 0 1-6-6z" stroke="#3a414a" fill="#e3fae3" fill-opacity=".5"/><use xlink:href="#a" transform="matrix(1,0,0,1,453.5500214339455,718.286386096073) translate(27.845679012345684 59.02777777777778)"/><use xlink:href="#b" transform="matrix(1,0,0,1,453.5500214339455,718.286386096073) translate(94.32716049382715 59.02777777777778)"/><path d="M-310.92 467.62a6 6 0 0 1 6-6h208a6 6 0 0 1 6 6v108a6 6 0 0 1-6 6h-208a6 6 0 0 1-6-6z" stroke="#3a414a" fill="#fcfcca" fill-opacity=".5"/><use xlink:href="#c" transform="matrix(1,0,0,1,-305.9219971814776,466.62368033858775) translate(47.03703703703703 59.02777777777778)"/><path d="M-57.77 467.62a6 6 0 0 1 6-6h208a6 6 0 0 1 6 6v108a6 6 0 0 1-6 6h-208a6 6 0 0 1-6-6z" stroke="#3a414a" fill="#ffdda6" fill-opacity=".5"/><use xlink:href="#d" transform="matrix(1,0,0,1,-52.76465764300326,466.62368033858775) translate(43.4567901234568 59.40277777777778)"/><use xlink:href="#e" transform="matrix(1,0,0,1,-52.76465764300326,466.62368033858775) translate(118.51851851851852 59.40277777777778)"/><path d="M448.55 467.46a6 6 0 0 1 6-6h208a6 6 0 0 1 6 6v107a6 6 0 0 1-6 6h-208a6 6 0 0 1-6-6z" stroke="#3a414a" fill="#dedeff" fill-opacity=".5"/><use xlink:href="#f" transform="matrix(1,0,0,1,453.55002143394563,466.457013671921) translate(74.13580246913581 58.65277777777778)"/><path d="M723.92 467.62a6 6 0 0 1 6-6h208a6 6 0 0 1 6 6v108a6 6 0 0 1-6 6h-208a6 6 0 0 1-6-6z" stroke="#3a414a" fill="#dedeff" fill-opacity=".5"/><use xlink:href="#g" transform="matrix(1,0,0,1,728.915734689879,466.62368033858775) translate(73.5493827160494 59.02777777777778)"/><path d="M195.4 467.62a6 6 0 0 1 6-6h208a6 6 0 0 1 6 6v108a6 6 0 0 1-6 6h-208a6 6 0 0 1-6-6z" stroke="#3a414a" fill="#dedeff" fill-opacity=".5"/><use xlink:href="#h" transform="matrix(1,0,0,1,200.39268189547107,466.62368033858775) translate(39.814814814814824 59.02777777777778)"/><path d="M826.5-30.59a6 6 0 0 1 6-5.98h207.98a6 6 0 0 1 6 6v108a6 6 0 0 1-6 6h-208a6 6 0 0 1-6-6z" stroke="#3a414a" fill="#fc9432" fill-opacity=".5"/><use xlink:href="#i" transform="matrix(1,0,0,1,831.4848853511257,-31.584689658632215) translate(85.92592592592592 59.02777777777778)"/><path d="M826.5 214.63a6 6 0 0 1 6-6h207.98a6 6 0 0 1 6 6v108a6 6 0 0 1-6 6h-208a6 6 0 0 1-6-6z" stroke="#3a414a" fill="#54c45e" fill-opacity=".5"/><use xlink:href="#j" transform="matrix(1,0,0,1,831.4848853511257,213.62764124776913) translate(68.05555555555556 59.02777777777778)"/><path d="M-310.92 719.3a6 6 0 0 1 6-6h208a6 6 0 0 1 6 6v108a6 6 0 0 1-6 6h-208a6 6 0 0 1-6-6z" stroke="#3a414a" fill="#b8f5ed" fill-opacity=".5"/><use xlink:href="#k" transform="matrix(1,0,0,1,-305.9219971814776,718.2863860960729) translate(83.42592592592592 59.02777777777778)"/><path d="M448.55 972.28a6 6 0 0 1 6-6h208a6 6 0 0 1 6 6v108a6 6 0 0 1-6 6h-208a6 6 0 0 1-6-6z" stroke="#3a414a" fill="#fff0fb" fill-opacity=".5"/><use xlink:href="#l" transform="matrix(1,0,0,1,453.5500214339455,971.2824251868915) translate(79.69135802469137 59.02777777777778)"/><path d="M785.57 719.3a6 6 0 0 1 6-6h208a6 6 0 0 1 6 6v108a6 6 0 0 1-6 6h-208a6 6 0 0 1-6-6z" stroke="#3a414a" fill="#ffd6f5"/><use xlink:href="#m" transform="matrix(1,0,0,1,790.566498546217,718.2863860960729) translate(36.543209876543216 59.02777777777778)"/><use xlink:href="#n" transform="matrix(1,0,0,1,790.566498546217,718.2863860960729) translate(93.33333333333334 59.02777777777778)"/><path d="M1039.64 719.3a6 6 0 0 1 6-6h208a6 6 0 0 1 6 6v108a6 6 0 0 1-6 6h-208a6 6 0 0 1-6-6z" stroke="#3a414a" fill="#ffd6f5"/><use xlink:href="#m" transform="matrix(1,0,0,1,1044.6454358023582,718.2863860960729) translate(9.413580246913583 59.02777777777778)"/><use xlink:href="#o" transform="matrix(1,0,0,1,1044.6454358023582,718.2863860960729) translate(66.2037037037037 59.02777777777778)"/><use xlink:href="#p" transform="matrix(1,0,0,1,1044.6454358023582,718.2863860960729) translate(119.22839506172839 59.02777777777778)"/><path d="M603.87 712.5l172.1-120.96" stroke="#3a414a" fill="none"/><path d="M604.1 712.8h-1.5l1-.72z" stroke="#3a414a" stroke-width=".05" fill="#3a414a"/><path d="M788.04 583.05l-9 12-5.33-7.58z" stroke="#3a414a" fill="#3a414a"/><path d="M497.42 712.5L318.95 591.34" stroke="#3a414a" fill="none"/><path d="M498.72 712.8h-1.5l.47-.7z" stroke="#3a414a" stroke-width=".05" fill="#3a414a"/><path d="M306.73 583.03l14.4 4.18-5.2 7.68z" stroke="#3a414a" fill="#3a414a"/><path d="M448.55 214.63a6 6 0 0 1 6-6h208a6 6 0 0 1 6 6v108a6 6 0 0 1-6 6h-208a6 6 0 0 1-6-6z" stroke="#3a414a" fill="#fff"/><use xlink:href="#q" transform="matrix(1,0,0,1,453.55002143395075,213.62764124776913) translate(79.72222222222223 59.02777777777778)"/><path d="M448.55-30.59a6 6 0 0 1 6-5.98h208a6 6 0 0 1 6 6v108a6 6 0 0 1-6 6h-208a6 6 0 0 1-6-6z" stroke="#3a414a" fill="#fff"/><use xlink:href="#r" transform="matrix(1,0,0,1,453.55002143395086,-31.584689658632215) translate(74.84567901234568 59.02777777777778)"/><path d="M448.55-275.8a6 6 0 0 1 6-6h208a6 6 0 0 1 6 6v108a6 6 0 0 1-6 6h-208a6 6 0 0 1-6-6z" stroke="#3a414a" fill="#fff"/><use xlink:href="#s" transform="matrix(1,0,0,1,453.55002143395075,-276.79702056503356) translate(82.25308641975309 59.02777777777778)"/><path d="M366.37 460.77L486.43 340.7" stroke="#3a414a" fill="none"/><path d="M366.73 461.1v.02h-1.42l.72-.7z" stroke="#3a414a" stroke-width=".05" fill="#3a414a"/><path d="M496.87 330.27l-6.8 13.37-6.57-6.56z" stroke="#3a414a" fill="#3a414a"/><path d="M558.55 207.63V100.3" stroke="#3a414a" fill="none"/><path d="M559.05 208.13h-1v-.5h1z" stroke="#3a414a" stroke-width=".05" fill="#3a414a"/><path d="M558.55 85.53l4.63 14.27h-9.26z" stroke="#3a414a" fill="#3a414a"/><path d="M558.55-37.59V-144.9" stroke="#3a414a" fill="none"/><path d="M559.05-37.09l-1 .02v-.52h1z" stroke="#3a414a" stroke-width=".05" fill="#3a414a"/><path d="M558.55-159.68l4.63 14.27h-9.26z" stroke="#3a414a" fill="#3a414a"/><path d="M558.55 712.3V597.33" stroke="#3a414a" fill="none"/><path d="M559.05 712.8h-1v-.53h1z" stroke="#3a414a" stroke-width=".05" fill="#3a414a"/><path d="M558.55 582.58l4.63 14.26h-9.26z" stroke="#3a414a" fill="#3a414a"/><path d="M448.7 715.47L124.37 588.1" stroke="#3a414a" fill="none"/><path d="M449.48 715.24l-.2.23-.37.62-.4-.17.38-.93z" stroke="#3a414a" stroke-width=".05" fill="#3a414a"/><path d="M110.62 582.7l14.97.9-3.4 8.64z" stroke="#3a414a" fill="#3a414a"/><path d="M558.55 965.28v-115.1" stroke="#3a414a" fill="none"/><path d="M559.05 965.78h-1v-.5h1z" stroke="#3a414a" stroke-width=".05" fill="#3a414a"/><path d="M558.55 835.4l4.63 14.27h-9.26z" stroke="#3a414a" fill="#3a414a"/><path d="M895.35 712.33l-54.44-115.4" stroke="#3a414a" fill="none"/><path d="M896.12 712.8h-1.1l-.13-.26.9-.43z" stroke="#3a414a" stroke-width=".05" fill="#3a414a"/><path d="M834.6 583.6l10.3 10.9-8.4 3.97z" stroke="#3a414a" fill="#3a414a"/><path d="M1149.64 712.3V-71.1a6 6 0 0 0-6-5.98H651.7a6 6 0 0 0-6 6v17.6" stroke="#3a414a" fill="none"/><path d="M1150.14 712.8h-1v-.53h1z" stroke="#3a414a" stroke-width=".05" fill="#3a414a"/><path d="M645.7-38.7l-4.63-14.27h9.28z" stroke="#3a414a" fill="#3a414a"/><path d="M-116.15 712.43L2.58 593.7" stroke="#3a414a" fill="none"/><path d="M-115.78 712.78h-1.43l.7-.7z" stroke="#3a414a" stroke-width=".05" fill="#3a414a"/><path d="M13.02 583.27l-6.8 13.36-6.57-6.55z" stroke="#3a414a" fill="#3a414a"/><path d="M447.57 974.46L-74.63 829" stroke="#3a414a" fill="none"/><path d="M448.05 974.07v1.04l-.63-.17.27-.96z" stroke="#3a414a" stroke-width=".05" fill="#3a414a"/><path d="M-88.86 825.03l14.98-.64-2.48 8.92z" stroke="#3a414a" fill="#3a414a"/><path d="M612.33 965.52l199.02-123.1" stroke="#3a414a" fill="none"/><path d="M612.5 965.78h-1.54l1.12-.7z" stroke="#3a414a" stroke-width=".05" fill="#3a414a"/><path d="M823.9 834.64l-9.7 11.45-4.87-7.9z" stroke="#3a414a" fill="#3a414a"/><path d="M669.52 991.32l406.6-151.8" stroke="#3a414a" fill="none"/><path d="M669.7 991.78l-.65.25v-1.07l.3-.12z" stroke="#3a414a" stroke-width=".05" fill="#3a414a"/><path d="M1089.95 834.35l-11.74 9.33-3.23-8.68z" stroke="#3a414a" fill="#3a414a"/><path d="M-200.5 460.88l665-369" stroke="#3a414a" fill="none"/><path d="M-200.34 461.12h-1.6l1.22-.68z" stroke="#3a414a" stroke-width=".05" fill="#3a414a"/><path d="M477.4 84.7l-10.22 10.98-4.5-8.1z" stroke="#3a414a" fill="#3a414a"/><path d="M447.58 773.13L-111.95 587.3" stroke="#3a414a" fill="none"/><path d="M448.05 772.76v1.05l-.64-.2.32-.95z" stroke="#3a414a" stroke-width=".05" fill="#3a414a"/><path d="M-125.96 582.63l15 .1-2.93 8.8z" stroke="#3a414a" fill="#3a414a"/><path d="M558.55 460.46V345.5" stroke="#3a414a" fill="none"/><path d="M559.05 460.96h-1v-.52h1z" stroke="#3a414a" stroke-width=".05" fill="#3a414a"/><path d="M558.55 330.75l4.63 14.26h-9.26z" stroke="#3a414a" fill="#3a414a"/><path d="M759.5 460.77L639.44 340.7" stroke="#3a414a" fill="none"/><path d="M760.56 461.12h-1.42l.7-.7z" stroke="#3a414a" stroke-width=".05" fill="#3a414a"/><path d="M629 330.27l13.37 6.8-6.56 6.57z" stroke="#3a414a" fill="#3a414a"/><path d="M825.5 23.41l-140.07.02" stroke="#3a414a" fill="none"/><path d="M826 23.91l-.53.02v-1h.5z" stroke="#3a414a" stroke-width=".05" fill="#3a414a"/><path d="M670.67 23.41l14.26-4.62v9.27z" stroke="#3a414a" fill="#3a414a"/><path d="M825.5 268.63H685.4" stroke="#3a414a" fill="none"/><path d="M826 269.13h-.53v-1h.5z" stroke="#3a414a" stroke-width=".05" fill="#3a414a"/><path d="M670.67 268.63l14.26-4.64v9.26z" stroke="#3a414a" fill="#3a414a"/><path d="M-564.08 466.3a6 6 0 0 1 6-6h208a6 6 0 0 1 6 6v108a6 6 0 0 1-6 6h-208a6 6 0 0 1-6-6z" stroke="#3a414a" fill="#fff"/><use xlink:href="#t" transform="matrix(1,0,0,1,-559.0793367199519,465.2903470052544) translate(77.87037037037038 59.02777777777778)"/><path d="M-282.58 712.43l-120.06-120.05" stroke="#3a414a" fill="none"/><path d="M-281.52 712.8h-1.4l-.02-.02.7-.7z" stroke="#3a414a" stroke-width=".05" fill="#3a414a"/><path d="M-413.08 581.93l13.37 6.8-6.57 6.57z" stroke="#3a414a" fill="#3a414a"/><path d="M-399.54 459.68l831.6-187.45" stroke="#3a414a" fill="none"/><path d="M-399.5 459.8h-2.8l2.67-.6z" stroke="#3a414a" stroke-width=".05" fill="#3a414a"/><path d="M446.47 268.98l-12.9 7.66-2.03-9.04z" stroke="#3a414a" fill="#3a414a"/><path d="M-200.92 712.3V598.5" stroke="#3a414a" fill="none"/><path d="M-200.42 712.8h-1v-.53h1z" stroke="#3a414a" stroke-width=".05" fill="#3a414a"/><path d="M-200.92 583.74l4.63 14.27h-9.26z" stroke="#3a414a" fill="#3a414a"/><path d="M-610.92 1055.4h-1V45.25h1zm0-1052.8h-1v-261.26h1z" stroke="#3a414a" stroke-width=".05" fill="#3a414a"/><path d="M-610.92-258.65h-1v-.5h1z" stroke="#3a414a" stroke-width=".05" fill="#3a414a"/><path d="M-611.42 1070.15l-4.64-14.26h9.27z" fill="#3a414a"/><path d="M-611.42 1071.77l-5.33-16.38h10.65zm-3.95-15.38l3.95 12.13 3.94-12.14z" stroke="#3a414a" stroke-width=".05" fill="#3a414a"/><g><use xlink:href="#u" transform="matrix(1,0,0,1,-664.6566052940153,2.589907433881116) translate(12.81981481481482 14.222222222222223)"/><use xlink:href="#v" transform="matrix(1,0,0,1,-664.6566052940153,2.589907433881116) translate(0.005000000000002558 35.55555555555556)"/></g><defs><path fill="#3a414a" d="M127-220V0H93v-220H8v-28h204v28h-85" id="w"/><path fill="#3a414a" d="M30 0v-248h187v28H63v79h144v27H63v87h162V0H30" id="x"/><path fill="#3a414a" d="M233-177c-1 41-23 64-60 70L243 0h-38l-65-103H63V0H30v-248c88 3 205-21 203 71zM63-129c60-2 137 13 137-47 0-61-80-42-137-45v92" id="y"/><path fill="#3a414a" d="M190 0L58-211 59 0H30v-248h39L202-35l-2-213h31V0h-41" id="z"/><g id="a"><use transform="matrix(0.06172839506172839,0,0,0.06172839506172839,0,0)" xlink:href="#w"/><use transform="matrix(0.06172839506172839,0,0,0.06172839506172839,13.518518518518517,0)" xlink:href="#x"/><use transform="matrix(0.06172839506172839,0,0,0.06172839506172839,28.33333333333333,0)" xlink:href="#y"/><use transform="matrix(0.06172839506172839,0,0,0.06172839506172839,44.32098765432098,0)" xlink:href="#z"/></g><path fill="#3a414a" d="M140-251c81 0 123 46 123 126C263-46 219 4 140 4 59 4 17-45 17-125s42-126 123-126zm0 227c63 0 89-41 89-101s-29-99-89-99c-61 0-89 39-89 99S79-25 140-24" id="A"/><path fill="#3a414a" d="M117-194c89-4 53 116 60 194h-32v-121c0-31-8-49-39-48C34-167 62-67 57 0H25l-1-190h30c1 10-1 24 2 32 11-22 29-35 61-36" id="B"/><path fill="#3a414a" d="M59-47c-2 24 18 29 38 22v24C64 9 27 4 27-40v-127H5v-23h24l9-43h21v43h35v23H59v120" id="C"/><path fill="#3a414a" d="M100-194c62-1 85 37 85 99 1 63-27 99-86 99S16-35 15-95c0-66 28-99 85-99zM99-20c44 1 53-31 53-75 0-43-8-75-51-75s-53 32-53 75 10 74 51 75" id="D"/><path fill="#3a414a" d="M24 0v-261h32V0H24" id="E"/><path fill="#3a414a" d="M177-190C167-65 218 103 67 71c-23-6-38-20-44-43l32-5c15 47 100 32 89-28v-30C133-14 115 1 83 1 29 1 15-40 15-95c0-56 16-97 71-98 29-1 48 16 59 35 1-10 0-23 2-32h30zM94-22c36 0 50-32 50-73 0-42-14-75-50-75-39 0-46 34-46 75s6 73 46 73" id="F"/><path fill="#3a414a" d="M179-190L93 31C79 59 56 82 12 73V49c39 6 53-20 64-50L1-190h34L92-34l54-156h33" id="G"/><g id="b"><use transform="matrix(0.06172839506172839,0,0,0.06172839506172839,0,0)" xlink:href="#A"/><use transform="matrix(0.06172839506172839,0,0,0.06172839506172839,17.28395061728395,0)" xlink:href="#B"/><use transform="matrix(0.06172839506172839,0,0,0.06172839506172839,29.629629629629626,0)" xlink:href="#C"/><use transform="matrix(0.06172839506172839,0,0,0.06172839506172839,35.80246913580247,0)" xlink:href="#D"/><use transform="matrix(0.06172839506172839,0,0,0.06172839506172839,48.148148148148145,0)" xlink:href="#E"/><use transform="matrix(0.06172839506172839,0,0,0.06172839506172839,53.02469135802469,0)" xlink:href="#D"/><use transform="matrix(0.06172839506172839,0,0,0.06172839506172839,65.37037037037037,0)" xlink:href="#F"/><use transform="matrix(0.06172839506172839,0,0,0.06172839506172839,77.71604938271605,0)" xlink:href="#G"/></g><path fill="#3a414a" d="M135-143c-3-34-86-38-87 0 15 53 115 12 119 90S17 21 10-45l28-5c4 36 97 45 98 0-10-56-113-15-118-90-4-57 82-63 122-42 12 7 21 19 24 35" id="H"/><path fill="#3a414a" d="M96-169c-40 0-48 33-48 73s9 75 48 75c24 0 41-14 43-38l32 2c-6 37-31 61-74 61-59 0-76-41-82-99-10-93 101-131 147-64 4 7 5 14 7 22l-32 3c-4-21-16-35-41-35" id="I"/><path fill="#3a414a" d="M106-169C34-169 62-67 57 0H25v-261h32l-1 103c12-21 28-36 61-36 89 0 53 116 60 194h-32v-121c2-32-8-49-39-48" id="J"/><path fill="#3a414a" d="M100-194c63 0 86 42 84 106H49c0 40 14 67 53 68 26 1 43-12 49-29l28 8c-11 28-37 45-77 45C44 4 14-33 15-96c1-61 26-98 85-98zm52 81c6-60-76-77-97-28-3 7-6 17-6 28h103" id="K"/><path fill="#3a414a" d="M210-169c-67 3-38 105-44 169h-31v-121c0-29-5-50-35-48C34-165 62-65 56 0H25l-1-190h30c1 10-1 24 2 32 10-44 99-50 107 0 11-21 27-35 58-36 85-2 47 119 55 194h-31v-121c0-29-5-49-35-48" id="L"/><path fill="#3a414a" d="M141-36C126-15 110 5 73 4 37 3 15-17 15-53c-1-64 63-63 125-63 3-35-9-54-41-54-24 1-41 7-42 31l-33-3c5-37 33-52 76-52 45 0 72 20 72 64v82c-1 20 7 32 28 27v20c-31 9-61-2-59-35zM48-53c0 20 12 33 32 33 41-3 63-29 60-74-43 2-92-5-92 41" id="M"/><path fill="#3a414a" d="M33 0v-38h34V0H33" id="N"/><path fill="#3a414a" d="M114-163C36-179 61-72 57 0H25l-1-190h30c1 12-1 29 2 39 6-27 23-49 58-41v29" id="O"/><g id="c"><use transform="matrix(0.06172839506172839,0,0,0.06172839506172839,0,0)" xlink:href="#H"/><use transform="matrix(0.06172839506172839,0,0,0.06172839506172839,11.11111111111111,0)" xlink:href="#I"/><use transform="matrix(0.06172839506172839,0,0,0.06172839506172839,22.22222222222222,0)" xlink:href="#J"/><use transform="matrix(0.06172839506172839,0,0,0.06172839506172839,34.5679012345679,0)" xlink:href="#K"/><use transform="matrix(0.06172839506172839,0,0,0.06172839506172839,46.913580246913575,0)" xlink:href="#L"/><use transform="matrix(0.06172839506172839,0,0,0.06172839506172839,65.37037037037037,0)" xlink:href="#M"/><use transform="matrix(0.06172839506172839,0,0,0.06172839506172839,77.71604938271605,0)" xlink:href="#N"/><use transform="matrix(0.06172839506172839,0,0,0.06172839506172839,83.88888888888889,0)" xlink:href="#D"/><use transform="matrix(0.06172839506172839,0,0,0.06172839506172839,96.23456790123457,0)" xlink:href="#O"/><use transform="matrix(0.06172839506172839,0,0,0.06172839506172839,103.58024691358025,0)" xlink:href="#F"/></g><path fill="#3a414a" d="M30-248c118-7 216 8 213 122C240-48 200 0 122 0H30v-248zM63-27c89 8 146-16 146-99s-60-101-146-95v194" id="P"/><path fill="#3a414a" d="M206 0h-36l-40-164L89 0H53L-1-190h32L70-26l43-164h34l41 164 42-164h31" id="Q"/><path fill="#3a414a" d="M24-231v-30h32v30H24zM24 0v-190h32V0H24" id="R"/><g id="d"><use transform="matrix(0.06172839506172839,0,0,0.06172839506172839,0,0)" xlink:href="#P"/><use transform="matrix(0.06172839506172839,0,0,0.06172839506172839,15.987654320987653,0)" xlink:href="#M"/><use transform="matrix(0.06172839506172839,0,0,0.06172839506172839,28.333333333333332,0)" xlink:href="#O"/><use transform="matrix(0.06172839506172839,0,0,0.06172839506172839,35.67901234567901,0)" xlink:href="#Q"/><use transform="matrix(0.06172839506172839,0,0,0.06172839506172839,51.666666666666664,0)" xlink:href="#R"/><use transform="matrix(0.06172839506172839,0,0,0.06172839506172839,56.54320987654321,0)" xlink:href="#B"/></g><path fill="#3a414a" d="M212-179c-10-28-35-45-73-45-59 0-87 40-87 99 0 60 29 101 89 101 43 0 62-24 78-52l27 14C228-24 195 4 139 4 59 4 22-46 18-125c-6-104 99-153 187-111 19 9 31 26 39 46" id="S"/><g id="e"><use transform="matrix(0.06172839506172839,0,0,0.06172839506172839,0,0)" xlink:href="#S"/><use transform="matrix(0.06172839506172839,0,0,0.06172839506172839,15.987654320987653,0)" xlink:href="#D"/><use transform="matrix(0.06172839506172839,0,0,0.06172839506172839,28.333333333333332,0)" xlink:href="#O"/><use transform="matrix(0.06172839506172839,0,0,0.06172839506172839,35.67901234567901,0)" xlink:href="#K"/></g><path fill="#3a414a" d="M185-189c-5-48-123-54-124 2 14 75 158 14 163 119 3 78-121 87-175 55-17-10-28-26-33-46l33-7c5 56 141 63 141-1 0-78-155-14-162-118-5-82 145-84 179-34 5 7 8 16 11 25" id="T"/><path fill="#3a414a" d="M205 0l-28-72H64L36 0H1l101-248h38L239 0h-34zm-38-99l-47-123c-12 45-31 82-46 123h93" id="U"/><g id="f"><use transform="matrix(0.06172839506172839,0,0,0.06172839506172839,0,0)" xlink:href="#T"/><use transform="matrix(0.06172839506172839,0,0,0.06172839506172839,14.814814814814813,0)" xlink:href="#A"/><use transform="matrix(0.06172839506172839,0,0,0.06172839506172839,32.09876543209876,0)" xlink:href="#T"/><use transform="matrix(0.06172839506172839,0,0,0.06172839506172839,46.91358024691357,0)" xlink:href="#U"/></g><path fill="#3a414a" d="M30-248c87 1 191-15 191 75 0 78-77 80-158 76V0H30v-248zm33 125c57 0 124 11 124-50 0-59-68-47-124-48v98" id="V"/><path fill="#3a414a" d="M137 0h-34L2-248h35l83 218 83-218h36" id="W"/><g id="g"><use transform="matrix(0.06172839506172839,0,0,0.06172839506172839,0,0)" xlink:href="#V"/><use transform="matrix(0.06172839506172839,0,0,0.06172839506172839,14.814814814814813,0)" xlink:href="#y"/><use transform="matrix(0.06172839506172839,0,0,0.06172839506172839,30.80246913580247,0)" xlink:href="#A"/><use transform="matrix(0.06172839506172839,0,0,0.06172839506172839,48.08641975308642,0)" xlink:href="#W"/></g><path fill="#3a414a" d="M143 4C61 4 22-44 18-125c-5-107 100-154 193-111 17 8 29 25 37 43l-32 9c-13-25-37-40-76-40-61 0-88 39-88 99 0 61 29 100 91 101 35 0 62-11 79-27v-45h-74v-28h105v86C228-13 192 4 143 4" id="X"/><path fill="#3a414a" d="M140-251c81 0 123 46 123 126C263-53 228-8 163 1c7 30 30 48 69 40v23c-55 16-95-15-103-61C56-3 17-48 17-125c0-80 42-126 123-126zm0 227c63 0 89-41 89-101s-29-99-89-99c-61 0-89 39-89 99S79-25 140-24" id="Y"/><path fill="#3a414a" d="M30 0v-248h33v221h125V0H30" id="Z"/><g id="h"><use transform="matrix(0.06172839506172839,0,0,0.06172839506172839,0,0)" xlink:href="#X"/><use transform="matrix(0.06172839506172839,0,0,0.06172839506172839,17.28395061728395,0)" xlink:href="#K"/><use transform="matrix(0.06172839506172839,0,0,0.06172839506172839,29.629629629629626,0)" xlink:href="#D"/><use transform="matrix(0.06172839506172839,0,0,0.06172839506172839,41.9753086419753,0)" xlink:href="#T"/><use transform="matrix(0.06172839506172839,0,0,0.06172839506172839,56.79012345679011,0)" xlink:href="#V"/><use transform="matrix(0.06172839506172839,0,0,0.06172839506172839,69.93827160493827,0)" xlink:href="#U"/><use transform="matrix(0.06172839506172839,0,0,0.06172839506172839,84.75308641975307,0)" xlink:href="#y"/><use transform="matrix(0.06172839506172839,0,0,0.06172839506172839,100.74074074074073,0)" xlink:href="#Y"/><use transform="matrix(0.06172839506172839,0,0,0.06172839506172839,118.02469135802468,0)" xlink:href="#Z"/></g><g id="i"><use transform="matrix(0.06172839506172839,0,0,0.06172839506172839,0,0)" xlink:href="#A"/><use transform="matrix(0.06172839506172839,0,0,0.06172839506172839,17.28395061728395,0)" xlink:href="#E"/><use transform="matrix(0.06172839506172839,0,0,0.06172839506172839,22.160493827160494,0)" xlink:href="#R"/><use transform="matrix(0.06172839506172839,0,0,0.06172839506172839,27.037037037037038,0)" xlink:href="#H"/></g><path fill="#3a414a" d="M101-234c-31-9-42 10-38 44h38v23H63V0H32v-167H5v-23h27c-7-52 17-82 69-68v24" id="aa"/><g id="j"><use transform="matrix(0.06172839506172839,0,0,0.06172839506172839,0,0)" xlink:href="#V"/><use transform="matrix(0.06172839506172839,0,0,0.06172839506172839,14.814814814814813,0)" xlink:href="#O"/><use transform="matrix(0.06172839506172839,0,0,0.06172839506172839,22.160493827160494,0)" xlink:href="#D"/><use transform="matrix(0.06172839506172839,0,0,0.06172839506172839,34.50617283950617,0)" xlink:href="#aa"/><use transform="matrix(0.06172839506172839,0,0,0.06172839506172839,40.67901234567901,0)" xlink:href="#R"/><use transform="matrix(0.06172839506172839,0,0,0.06172839506172839,45.55555555555556,0)" xlink:href="#E"/><use transform="matrix(0.06172839506172839,0,0,0.06172839506172839,50.4320987654321,0)" xlink:href="#K"/><use transform="matrix(0.06172839506172839,0,0,0.06172839506172839,62.77777777777778,0)" xlink:href="#H"/></g><g id="k"><use transform="matrix(0.06172839506172839,0,0,0.06172839506172839,0,0)" xlink:href="#z"/><use transform="matrix(0.06172839506172839,0,0,0.06172839506172839,15.987654320987653,0)" xlink:href="#T"/><use transform="matrix(0.06172839506172839,0,0,0.06172839506172839,30.80246913580247,0)" xlink:href="#Z"/></g><path fill="#3a414a" d="M160-131c35 5 61 23 61 61C221 17 115-2 30 0v-248c76 3 177-17 177 60 0 33-19 50-47 57zm-97-11c50-1 110 9 110-42 0-47-63-36-110-37v79zm0 115c55-2 124 14 124-45 0-56-70-42-124-44v89" id="ab"/><path fill="#3a414a" d="M33 0v-248h34V0H33" id="ac"/><g id="l"><use transform="matrix(0.06172839506172839,0,0,0.06172839506172839,0,0)" xlink:href="#U"/><use transform="matrix(0.06172839506172839,0,0,0.06172839506172839,14.814814814814813,0)" xlink:href="#ab"/><use transform="matrix(0.06172839506172839,0,0,0.06172839506172839,29.629629629629626,0)" xlink:href="#ac"/><use transform="matrix(0.06172839506172839,0,0,0.06172839506172839,35.80246913580247,0)" xlink:href="#T"/></g><g id="m"><use transform="matrix(0.06172839506172839,0,0,0.06172839506172839,0,0)" xlink:href="#U"/><use transform="matrix(0.06172839506172839,0,0,0.06172839506172839,14.814814814814813,0)" xlink:href="#ab"/><use transform="matrix(0.06172839506172839,0,0,0.06172839506172839,29.629629629629626,0)" xlink:href="#ac"/><use transform="matrix(0.06172839506172839,0,0,0.06172839506172839,35.80246913580247,0)" xlink:href="#T"/></g><path fill="#3a414a" d="M24-231v-30h32v30H24zM-9 49c24 4 33-6 33-30v-209h32V24c2 40-23 58-65 49V49" id="ad"/><g id="n"><use transform="matrix(0.06172839506172839,0,0,0.06172839506172839,0,0)" xlink:href="#V"/><use transform="matrix(0.06172839506172839,0,0,0.06172839506172839,14.814814814814813,0)" xlink:href="#O"/><use transform="matrix(0.06172839506172839,0,0,0.06172839506172839,22.160493827160494,0)" xlink:href="#D"/><use transform="matrix(0.06172839506172839,0,0,0.06172839506172839,34.50617283950617,0)" xlink:href="#ad"/><use transform="matrix(0.06172839506172839,0,0,0.06172839506172839,39.382716049382715,0)" xlink:href="#K"/><use transform="matrix(0.06172839506172839,0,0,0.06172839506172839,51.72839506172839,0)" xlink:href="#I"/><use transform="matrix(0.06172839506172839,0,0,0.06172839506172839,62.839506172839506,0)" xlink:href="#C"/><use transform="matrix(0.06172839506172839,0,0,0.06172839506172839,69.01234567901234,0)" xlink:href="#H"/></g><g id="o"><use transform="matrix(0.06172839506172839,0,0,0.06172839506172839,0,0)" xlink:href="#P"/><use transform="matrix(0.06172839506172839,0,0,0.06172839506172839,15.987654320987653,0)" xlink:href="#M"/><use transform="matrix(0.06172839506172839,0,0,0.06172839506172839,28.333333333333332,0)" xlink:href="#C"/><use transform="matrix(0.06172839506172839,0,0,0.06172839506172839,34.50617283950617,0)" xlink:href="#M"/></g><g id="p"><use transform="matrix(0.06172839506172839,0,0,0.06172839506172839,0,0)" xlink:href="#y"/><use transform="matrix(0.06172839506172839,0,0,0.06172839506172839,15.987654320987653,0)" xlink:href="#K"/><use transform="matrix(0.06172839506172839,0,0,0.06172839506172839,28.333333333333332,0)" xlink:href="#E"/><use transform="matrix(0.06172839506172839,0,0,0.06172839506172839,33.20987654320987,0)" xlink:href="#K"/><use transform="matrix(0.06172839506172839,0,0,0.06172839506172839,45.55555555555555,0)" xlink:href="#M"/><use transform="matrix(0.06172839506172839,0,0,0.06172839506172839,57.90123456790123,0)" xlink:href="#H"/><use transform="matrix(0.06172839506172839,0,0,0.06172839506172839,69.01234567901234,0)" xlink:href="#K"/></g><path fill="#3a414a" d="M266 0h-40l-56-210L115 0H75L2-248h35L96-30l15-64 43-154h32l59 218 59-218h35" id="ae"/><g id="q"><use transform="matrix(0.06172839506172839,0,0,0.06172839506172839,0,0)" xlink:href="#A"/><use transform="matrix(0.06172839506172839,0,0,0.06172839506172839,17.28395061728395,0)" xlink:href="#ae"/><use transform="matrix(0.06172839506172839,0,0,0.06172839506172839,38.20987654320987,0)" xlink:href="#Z"/></g><path fill="#3a414a" d="M63-220v92h138v28H63V0H30v-248h175v28H63" id="af"/><g id="r"><use transform="matrix(0.06172839506172839,0,0,0.06172839506172839,0,0)" xlink:href="#y"/><use transform="matrix(0.06172839506172839,0,0,0.06172839506172839,15.987654320987653,0)" xlink:href="#P"/><use transform="matrix(0.06172839506172839,0,0,0.06172839506172839,31.975308641975307,0)" xlink:href="#af"/><use transform="matrix(0.06172839506172839,0,0,0.06172839506172839,45.49382716049382,0)" xlink:href="#T"/></g><g id="s"><use transform="matrix(0.06172839506172839,0,0,0.06172839506172839,0,0)" xlink:href="#y"/><use transform="matrix(0.06172839506172839,0,0,0.06172839506172839,15.987654320987653,0)" xlink:href="#P"/><use transform="matrix(0.06172839506172839,0,0,0.06172839506172839,31.975308641975307,0)" xlink:href="#af"/></g><g id="t"><use transform="matrix(0.06172839506172839,0,0,0.06172839506172839,0,0)" xlink:href="#ab"/><use transform="matrix(0.06172839506172839,0,0,0.06172839506172839,14.814814814814813,0)" xlink:href="#ac"/><use transform="matrix(0.06172839506172839,0,0,0.06172839506172839,20.98765432098765,0)" xlink:href="#y"/><use transform="matrix(0.06172839506172839,0,0,0.06172839506172839,36.9753086419753,0)" xlink:href="#A"/></g><path fill="#333" d="M24-231v-30h32v30H24zM24 0v-190h32V0H24" id="ag"/><path fill="#333" d="M117-194c89-4 53 116 60 194h-32v-121c0-31-8-49-39-48C34-167 62-67 57 0H25l-1-190h30c1 10-1 24 2 32 11-22 29-35 61-36" id="ah"/><path fill="#333" d="M96-169c-40 0-48 33-48 73s9 75 48 75c24 0 41-14 43-38l32 2c-6 37-31 61-74 61-59 0-76-41-82-99-10-93 101-131 147-64 4 7 5 14 7 22l-32 3c-4-21-16-35-41-35" id="ai"/><path fill="#333" d="M114-163C36-179 61-72 57 0H25l-1-190h30c1 12-1 29 2 39 6-27 23-49 58-41v29" id="aj"/><path fill="#333" d="M100-194c63 0 86 42 84 106H49c0 40 14 67 53 68 26 1 43-12 49-29l28 8c-11 28-37 45-77 45C44 4 14-33 15-96c1-61 26-98 85-98zm52 81c6-60-76-77-97-28-3 7-6 17-6 28h103" id="ak"/><path fill="#333" d="M141-36C126-15 110 5 73 4 37 3 15-17 15-53c-1-64 63-63 125-63 3-35-9-54-41-54-24 1-41 7-42 31l-33-3c5-37 33-52 76-52 45 0 72 20 72 64v82c-1 20 7 32 28 27v20c-31 9-61-2-59-35zM48-53c0 20 12 33 32 33 41-3 63-29 60-74-43 2-92-5-92 41" id="al"/><path fill="#333" d="M135-143c-3-34-86-38-87 0 15 53 115 12 119 90S17 21 10-45l28-5c4 36 97 45 98 0-10-56-113-15-118-90-4-57 82-63 122-42 12 7 21 19 24 35" id="am"/><path fill="#333" d="M177-190C167-65 218 103 67 71c-23-6-38-20-44-43l32-5c15 47 100 32 89-28v-30C133-14 115 1 83 1 29 1 15-40 15-95c0-56 16-97 71-98 29-1 48 16 59 35 1-10 0-23 2-32h30zM94-22c36 0 50-32 50-73 0-42-14-75-50-75-39 0-46 34-46 75s6 73 46 73" id="an"/><g id="u"><use transform="matrix(0.04938271604938272,0,0,0.04938271604938272,0,0)" xlink:href="#ag"/><use transform="matrix(0.04938271604938272,0,0,0.04938271604938272,3.901234567901235,0)" xlink:href="#ah"/><use transform="matrix(0.04938271604938272,0,0,0.04938271604938272,13.777777777777779,0)" xlink:href="#ai"/><use transform="matrix(0.04938271604938272,0,0,0.04938271604938272,22.666666666666668,0)" xlink:href="#aj"/><use transform="matrix(0.04938271604938272,0,0,0.04938271604938272,28.543209876543212,0)" xlink:href="#ak"/><use transform="matrix(0.04938271604938272,0,0,0.04938271604938272,38.41975308641976,0)" xlink:href="#al"/><use transform="matrix(0.04938271604938272,0,0,0.04938271604938272,48.296296296296305,0)" xlink:href="#am"/><use transform="matrix(0.04938271604938272,0,0,0.04938271604938272,57.18518518518519,0)" xlink:href="#ag"/><use transform="matrix(0.04938271604938272,0,0,0.04938271604938272,61.086419753086425,0)" xlink:href="#ah"/><use transform="matrix(0.04938271604938272,0,0,0.04938271604938272,70.96296296296296,0)" xlink:href="#an"/></g><path fill="#333" d="M115-194c55 1 70 41 70 98S169 2 115 4C84 4 66-9 55-30l1 105H24l-1-265h31l2 30c10-21 28-34 59-34zm-8 174c40 0 45-34 45-75s-6-73-45-74c-42 0-51 32-51 76 0 43 10 73 51 73" id="ao"/><path fill="#333" d="M24 0v-261h32V0H24" id="ap"/><path fill="#333" d="M59-47c-2 24 18 29 38 22v24C64 9 27 4 27-40v-127H5v-23h24l9-43h21v43h35v23H59v120" id="aq"/><path fill="#333" d="M100-194c62-1 85 37 85 99 1 63-27 99-86 99S16-35 15-95c0-66 28-99 85-99zM99-20c44 1 53-31 53-75 0-43-8-75-51-75s-53 32-53 75 10 74 51 75" id="ar"/><g id="v"><use transform="matrix(0.04938271604938272,0,0,0.04938271604938272,0,0)" xlink:href="#am"/><use transform="matrix(0.04938271604938272,0,0,0.04938271604938272,8.88888888888889,0)" xlink:href="#ao"/><use transform="matrix(0.04938271604938272,0,0,0.04938271604938272,18.765432098765434,0)" xlink:href="#ak"/><use transform="matrix(0.04938271604938272,0,0,0.04938271604938272,28.641975308641978,0)" xlink:href="#ai"/><use transform="matrix(0.04938271604938272,0,0,0.04938271604938272,37.53086419753087,0)" xlink:href="#ag"/><use transform="matrix(0.04938271604938272,0,0,0.04938271604938272,41.4320987654321,0)" xlink:href="#al"/><use transform="matrix(0.04938271604938272,0,0,0.04938271604938272,51.308641975308646,0)" xlink:href="#ap"/><use transform="matrix(0.04938271604938272,0,0,0.04938271604938272,55.20987654320988,0)" xlink:href="#ag"/><use transform="matrix(0.04938271604938272,0,0,0.04938271604938272,59.111111111111114,0)" xlink:href="#am"/><use transform="matrix(0.04938271604938272,0,0,0.04938271604938272,68,0)" xlink:href="#al"/><use transform="matrix(0.04938271604938272,0,0,0.04938271604938272,77.87654320987654,0)" xlink:href="#aq"/><use transform="matrix(0.04938271604938272,0,0,0.04938271604938272,82.81481481481481,0)" xlink:href="#ag"/><use transform="matrix(0.04938271604938272,0,0,0.04938271604938272,86.71604938271605,0)" xlink:href="#ar"/><use transform="matrix(0.04938271604938272,0,0,0.04938271604938272,96.5925925925926,0)" xlink:href="#ah"/></g></defs></g></svg>