<svg version="1.2" xmlns="http://www.w3.org/2000/svg" viewBox="0 0 1064.94 641.48" width="1065" height="642">
	<title>proj-program</title>
	<style>
		.s0 { fill: #ffffff } 
		.s1 { fill: #dedeff;stroke: #3a414a } 
		.s2 { fill: #3a414a } 
		.s3 { fill: #3a414a;stroke: #3a414a;stroke-width: .4 } 
		.s4 { fill: #333333 } 
		.s5 { fill: #ffffff;stroke: #3a414a } 
		.s6 { fill: none;stroke: #3a414a } 
		.s7 { fill: #343b42 } 
		.s8 { fill: #fff3d9;stroke: #3a414a } 
	</style>
	<g>
		<path class="s0" d="m-97-277.6h1500v1000h-1500z"/>
		<path class="s1" d="m676.5 325.6c0 30.6-37 55.4-82.7 55.4-45.6 0-82.6-24.8-82.6-55.4 0-30.5 37-55.3 82.6-55.3 45.7 0 82.7 24.8 82.7 55.3z"/>
		<g id="a">
			<path id="A" class="s2" d="m578.9 316.1c-0.9 1.3-1.9 2.5-4.1 2.5-2.3-0.1-3.6-1.3-3.6-3.5-0.1-4 3.9-3.9 7.7-3.9 0.2-2.2-0.6-3.4-2.5-3.4-1.5 0.1-2.6 0.5-2.6 2l-2.1-0.2c0.3-2.3 2.1-3.2 4.7-3.2 2.8 0 4.5 1.2 4.5 3.9v5.1c-0.1 1.2 0.4 2 1.7 1.6v1.3c-1.9 0.5-3.8-0.1-3.7-2.2zm-5.7-1c0 1.2 0.7 2 2 2 2.5-0.2 3.9-1.8 3.7-4.6-2.7 0.2-5.7-0.3-5.7 2.6z"/>
			<path id="B" class="s2" d="m589.7 306.4c3.3 0 4.2 2.4 4.3 6 0 4.1-1.4 6.2-4.3 6.2-1.9-0.1-3-0.7-3.7-2.1l-0.1 1.8h-1.9l0.1-16.1h1.9v6.3c0.7-1.5 1.8-2.1 3.7-2.1zm-0.5 10.7c2.5 0 2.8-2.1 2.8-4.6 0-2.5-0.3-4.7-2.8-4.6-2.6 0-3.2 2-3.2 4.7 0 2.7 0.7 4.5 3.2 4.5z"/>
			<path id="C" class="s2" d="m596.4 304.1v-1.9h2v1.9zm0 14.2v-11.7h2v11.7z"/>
			<path id="D" class="s2" d="m608.1 309.5c-0.1-2.1-5.3-2.3-5.3 0 0.9 3.3 7.1 0.8 7.3 5.6 0.3 4.8-9.2 4.5-9.7 0.5l1.8-0.3c0.2 2.2 5.9 2.7 6 0-0.6-3.5-7-1-7.3-5.6-0.2-3.5 5.1-3.9 7.6-2.6 0.7 0.4 1.3 1.2 1.4 2.2"/>
			<path id="E" class="s2" d="m613 308.8v-2.2h2.1v2.2zm0 9.5v-2.2h2.1v2.2z"/>
		</g>
		<g id="b">
			<path id="F" class="s2" d="m553 329.7c5.4 0.1 11.8-0.9 11.8 4.6 0 4.8-4.7 5-9.7 4.7v6h-2.1zm2.1 7.7c3.5 0 7.6 0.7 7.6-3.1 0-3.6-4.2-2.9-7.6-2.9z"/>
			<path id="G" class="s2" d="m573 334.9c-4.8-0.9-3.2 5.7-3.5 10.1h-2v-11.7h1.8c0.1 0.7 0 1.8 0.1 2.4 0.4-1.7 1.5-3 3.6-2.5z"/>
			<path id="H" class="s2" d="m579.5 333c3.8 0 5.3 2.3 5.3 6.1 0 3.9-1.7 6.2-5.4 6.2-3.6 0-5.1-2.5-5.1-6.2q-0.1-6.1 5.2-6.1zm-0.1 10.8c2.8 0 3.3-1.9 3.3-4.7 0-2.6-0.5-4.6-3.1-4.6-2.7 0-3.3 2-3.3 4.6 0 2.7 0.6 4.6 3.1 4.7z"/>
			<path id="I" class="s2" d="m596.6 333.3c-0.6 7.7 2.5 18.1-6.8 16.1-1.4-0.4-2.3-1.2-2.7-2.7l2-0.3c0.9 2.9 6.1 2 5.5-1.7v-1.9c-0.7 1.3-1.8 2.3-3.8 2.3-3.3 0-4.2-2.6-4.2-6 0-3.4 1-5.9 4.4-6 1.8-0.1 2.9 1 3.6 2.2 0.1-0.7 0-1.5 0.2-2zm-5.2 10.3c2.3 0 3.1-1.9 3.1-4.5 0-2.5-0.8-4.6-3.1-4.6-2.4 0-2.8 2.1-2.8 4.6 0 2.6 0.4 4.5 2.8 4.5z"/>
			<path id="G" class="s2" d="m605.1 334.9c-4.9-0.9-3.3 5.7-3.6 10.1h-1.9l-0.1-11.7h1.9c0 0.7-0.1 1.8 0.1 2.4 0.4-1.7 1.4-3 3.6-2.5z"/>
			<path id="A" class="s2" d="m614.1 342.8c-1 1.3-1.9 2.5-4.2 2.5-2.2-0.1-3.6-1.3-3.6-3.6-0.1-3.9 3.9-3.9 7.7-3.9 0.2-2.1-0.5-3.3-2.5-3.3-1.5 0.1-2.6 0.4-2.6 1.9l-2-0.2c0.3-2.2 2-3.2 4.6-3.2 2.8 0 4.5 1.3 4.5 4v5c-0.1 1.3 0.4 2 1.7 1.7v1.2c-1.9 0.6-3.8-0.1-3.6-2.1zm-5.8-1.1c0 1.3 0.8 2.1 2 2.1 2.5-0.2 3.9-1.8 3.7-4.6-2.6 0.1-5.7-0.3-5.7 2.5z"/>
			<path id="J" class="s2" d="m630.7 334.6c-4.2 0.2-2.4 6.5-2.7 10.4h-2v-7.5c0-1.8-0.3-3-2.1-2.9-4.1 0.2-2.4 6.4-2.7 10.4h-1.9l-0.1-11.7h1.8c0.1 0.6 0 1.5 0.2 2 0.6-2.8 6.1-3.1 6.6 0 0.7-1.3 1.6-2.2 3.6-2.3 5.2-0.1 2.9 7.4 3.4 12h-2v-7.5c0-1.8-0.3-3-2.1-2.9z"/>
		</g>
		<path class="s3" d="m535 285.5l-0.7 0.7-45.2-53.1h1.4zm-135.3-159.1h-1.3l-69-81.1 0.8-0.6z"/>
		<path class="s2" d="m535.4 285.9l-0.9 0.6-0.2-0.4 0.7-0.6z"/>
		<path class="s3" d="m535.4 285.9l-0.9 0.6-0.3-0.4 0.8-0.6zm-1.1 0.2l0.3 0.3 0.8-0.5-0.4-0.4zm-185.3-235.1l-0.3 1-18.1-6.3 3.2 18.9-1 0.2-3.5-20.6z"/>
		<g id="c">
			<path id="K" class="s4" d="m412.1 133.6c-0.1-1.7-4.2-1.9-4.3 0 0.8 2.6 5.7 0.6 5.9 4.4 0.2 3.9-7.4 3.7-7.7 0.4l1.3-0.2c0.2 1.8 4.8 2.2 4.9 0-0.5-2.8-5.6-0.8-5.8-4.5-0.2-2.8 4-3.1 6-2 0.6 0.3 1 0.9 1.2 1.7"/>
			<path id="L" class="s4" d="m418.5 131.1c1.6 0 2.4 0.6 3 1.6v-4.9h1.5l0.1 12.9h-1.5c-0.1-0.5 0-1.2-0.1-1.6-0.5 1.2-1.4 1.7-3 1.7-2.6 0-3.4-1.9-3.4-4.8 0-3.3 1.1-4.9 3.4-4.9zm0.5 1.2c-2 0-2.3 1.6-2.3 3.7 0 1.9 0.3 3.6 2.2 3.6 2.1 0 2.6-1.6 2.6-3.7 0-2.1-0.5-3.7-2.5-3.6z"/>
			<path id="M" class="s4" d="m429.2 131.1c3-0.1 4.2 1.8 4.2 4.9 0 3.1-1.4 4.8-4.3 4.8-2.9 0-4.1-1.9-4.1-4.8q0-4.9 4.2-4.9zm-0.1 8.6c2.2 0 2.6-1.6 2.6-3.7 0-2.2-0.4-3.7-2.5-3.7-2.1 0-2.6 1.5-2.6 3.7 0 2.1 0.5 3.6 2.5 3.7z"/>
			<path id="N" class="s4" d="m435.7 133v-1.7h1.7v1.7zm0 7.7v-1.8h1.7v1.8z"/>
			<path id="O" class="s4" d="m444.8 131.1c4.4-0.2 2.6 5.7 3 9.6h-1.6v-6c0-1.6-0.4-2.4-1.9-2.4-3.6 0.1-2.2 5-2.4 8.4h-1.6l-0.1-9.4h1.5c0.1 0.5 0 1.2 0.1 1.5 0.6-1 1.4-1.7 3-1.7z"/>
			<path id="P" class="s4" d="m455.9 138.9c-0.8 1-1.5 2-3.4 1.9-1.8 0-2.8-1-2.8-2.8-0.1-3.1 3.1-3.1 6.1-3.1 0.2-1.7-0.4-2.6-2-2.6-1.2 0-2 0.3-2.1 1.5l-1.6-0.2c0.3-1.8 1.6-2.5 3.8-2.5 2.2 0 3.5 1 3.5 3.1v4.1c0 1 0.4 1.6 1.4 1.3v1c-1.5 0.4-3-0.1-2.9-1.7zm-4.6-0.9c0 1 0.6 1.7 1.6 1.7 2-0.2 3.1-1.5 2.9-3.7-2.1 0.1-4.5-0.2-4.5 2z"/>
			<path id="Q" class="s4" d="m469.2 132.3c-3.3 0.2-1.9 5.2-2.2 8.4h-1.5v-6c0-1.5-0.3-2.5-1.8-2.4-3.2 0.2-1.8 5.1-2.1 8.4h-1.6v-9.4h1.5c0 0.5-0.1 1.2 0.1 1.5 0.5-2.1 4.8-2.4 5.2 0 0.6-1 1.4-1.7 2.9-1.7 4.2-0.1 2.3 5.8 2.7 9.6h-1.5v-6c0-1.5-0.3-2.4-1.7-2.4z"/>
			<path id="R" class="s4" d="m478.5 131.1c3.1 0 4.2 2 4.1 5.2h-6.6c0 2 0.7 3.3 2.6 3.4 1.3 0 2.1-0.6 2.4-1.5l1.4 0.4c-0.5 1.4-1.8 2.2-3.8 2.2-2.9 0-4.3-1.8-4.3-4.9 0.1-3 1.3-4.8 4.2-4.8zm2.6 4c0.3-3-3.8-3.8-4.8-1.4-0.2 0.3-0.3 0.8-0.3 1.4z"/>
		</g>
		<g id="e">
			<path id="K" class="s4" d="m391.4 176.3c-0.1-1.7-4.2-1.9-4.3 0 0.8 2.6 5.7 0.5 5.9 4.4 0.2 3.9-7.4 3.7-7.7 0.4l1.3-0.3c0.2 1.8 4.8 2.3 4.9 0-0.5-2.7-5.6-0.7-5.8-4.4-0.2-2.8 4-3.1 6-2.1 0.6 0.4 1 1 1.2 1.8"/>
			<path id="L" class="s4" d="m397.9 173.7c1.5 0 2.3 0.7 2.9 1.7v-5h1.6v12.9h-1.5c-0.1-0.5 0-1.1-0.1-1.5-0.5 1.1-1.4 1.7-2.9 1.7-2.7 0-3.5-1.9-3.5-4.8 0-3.3 1.1-5 3.5-5zm0.4 1.2c-2 0-2.3 1.7-2.3 3.7 0 2 0.3 3.7 2.3 3.7 2 0 2.5-1.6 2.5-3.8 0-2-0.5-3.6-2.5-3.6z"/>
			<path id="M" class="s4" d="m408.5 173.7c3 0 4.2 1.9 4.2 4.9 0 3.1-1.4 4.9-4.3 4.9-2.9 0-4.1-1.9-4.1-4.9q0-4.9 4.2-4.9zm-0.1 8.6c2.2 0.1 2.6-1.5 2.6-3.7 0-2.1-0.4-3.7-2.5-3.7-2.1 0-2.6 1.6-2.6 3.7 0 2.1 0.5 3.7 2.5 3.7z"/>
			<path id="N" class="s4" d="m415 175.7v-1.8h1.7v1.8zm0 7.6v-1.8h1.7v1.8z"/>
			<path id="L" class="s4" d="m422.5 173.7c1.6 0 2.4 0.7 3 1.7v-5h1.5l0.1 12.9h-1.5c-0.1-0.5 0-1.1-0.1-1.5-0.5 1.1-1.4 1.7-3 1.7-2.6 0-3.4-1.9-3.4-4.8 0-3.3 1.1-5 3.4-5zm0.5 1.2c-2 0-2.3 1.7-2.3 3.7 0 2 0.3 3.7 2.2 3.7 2.1 0 2.6-1.6 2.6-3.8 0-2-0.5-3.6-2.5-3.6z"/>
			<path id="R" class="s4" d="m433.2 173.7c3.1 0 4.2 2.1 4.1 5.3h-6.7c0 1.9 0.7 3.3 2.7 3.3 1.2 0.1 2.1-0.6 2.4-1.4l1.4 0.4c-0.6 1.4-1.9 2.2-3.8 2.2-2.9 0-4.4-1.8-4.3-4.9 0-3 1.3-4.9 4.2-4.9zm2.5 4c0.3-2.9-3.7-3.8-4.8-1.3-0.1 0.3-0.3 0.8-0.3 1.3z"/>
			<path id="K" class="s4" d="m444.8 176.3c-0.2-1.7-4.3-1.9-4.3 0 0.7 2.6 5.7 0.5 5.9 4.4 0.1 3.9-7.5 3.7-7.8 0.4l1.4-0.3c0.2 1.8 4.8 2.3 4.8 0-0.5-2.7-5.6-0.7-5.8-4.4-0.2-2.8 4-3.1 6-2.1 0.6 0.4 1.1 1 1.2 1.8"/>
			<path id="S" class="s4" d="m451.7 175c-1.9 0-2.3 1.6-2.3 3.6 0 2 0.4 3.7 2.3 3.7 1.2 0 2.1-0.7 2.2-1.9l1.5 0.1c-0.3 1.8-1.5 3-3.6 3-2.9 0-3.8-2-4.1-4.9-0.5-4.6 5-6.4 7.3-3.1 0.2 0.3 0.2 0.7 0.3 1.1l-1.5 0.1c-0.2-1-0.8-1.7-2.1-1.7z"/>
			<path id="T" class="s4" d="m461.5 175.3c-3.8-0.8-2.6 4.5-2.8 8h-1.6v-9.4h1.4c0.1 0.6 0 1.5 0.1 2 0.3-1.4 1.2-2.5 2.9-2.1z"/>
			<path id="U" class="s4" d="m462.9 171.9v-1.5h1.6v1.5zm0 11.4v-9.4h1.6v9.4z"/>
			<path id="V" class="s4" d="m471.3 173.7c2.8 0.1 3.5 2.1 3.5 4.9 0 2.8-0.8 4.8-3.5 4.9-1.5 0-2.4-0.6-2.9-1.7v5.2h-1.6v-13.1h1.5l0.1 1.5c0.5-1 1.4-1.7 2.9-1.7zm-0.4 8.6c2 0 2.3-1.6 2.3-3.7 0-2-0.3-3.6-2.3-3.6-2 0-2.5 1.6-2.5 3.7 0 2.1 0.5 3.6 2.5 3.6z"/>
			<path id="W" class="s4" d="m478.4 181c0 1.2 0.9 1.4 1.9 1.1v1.2c-1.6 0.5-3.4 0.2-3.4-2v-6.2h-1.1v-1.2h1.2l0.4-2.1h1v2.1h1.8v1.2h-1.8z"/>
			<path id="U" class="s4" d="m481.7 171.9v-1.5h1.5v1.5zm0 11.4v-9.4h1.6v9.4z"/>
			<path id="M" class="s4" d="m489.3 173.7c3.1 0 4.2 1.9 4.2 4.9 0.1 3.1-1.3 4.9-4.2 4.9-2.9 0-4.1-1.9-4.2-4.9q0-4.9 4.2-4.9zm0 8.6c2.1 0.1 2.6-1.5 2.6-3.7 0-2.1-0.4-3.7-2.5-3.7-2.2 0-2.7 1.6-2.7 3.7 0 2.1 0.5 3.7 2.6 3.7z"/>
			<path id="O" class="s4" d="m500 173.7c4.4-0.2 2.6 5.8 3 9.6h-1.6v-6c0-1.5-0.4-2.4-1.9-2.3-3.6 0.1-2.2 5-2.4 8.3h-1.6l-0.1-9.4h1.5c0.1 0.5 0 1.2 0.1 1.6 0.6-1.1 1.4-1.7 3-1.8z"/>
		</g>
		<g id="f">
			<path id="P" class="s4" d="m400.6 224.2c-0.7 1-1.5 2-3.4 2-1.7-0.1-2.8-1.1-2.8-2.8-0.1-3.2 3.1-3.1 6.1-3.1 0.2-1.8-0.4-2.7-2-2.7-1.2 0-2 0.3-2.1 1.5l-1.6-0.1c0.3-1.9 1.6-2.6 3.8-2.6 2.2 0 3.5 1 3.5 3.2v4c0 1 0.4 1.6 1.4 1.3v1c-1.5 0.5-3-0.1-2.9-1.7zm-4.6-0.8c0 1 0.6 1.6 1.6 1.6 2-0.2 3.1-1.4 2.9-3.7-2.1 0.1-4.5-0.2-4.5 2.1z"/>
			<path id="X" class="s4" d="m409.2 216.4c2.6 0 3.4 1.9 3.4 4.8 0 3.3-1.1 5-3.4 5-1.5-0.1-2.4-0.6-2.9-1.7l-0.1 1.5h-1.6l0.1-12.9h1.6v5c0.5-1.2 1.4-1.7 2.9-1.7zm-0.4 8.6c2 0 2.2-1.7 2.2-3.7 0-2-0.2-3.7-2.2-3.7-2.1 0-2.5 1.6-2.5 3.8 0 2.1 0.5 3.6 2.5 3.6z"/>
			<path id="U" class="s4" d="m414.6 214.6v-1.5h1.6v1.5zm0 11.4v-9.4h1.5v9.4z"/>
			<path id="K" class="s4" d="m424 218.9c-0.2-1.7-4.3-1.9-4.3 0 0.7 2.6 5.6 0.6 5.8 4.5 0.2 3.8-7.4 3.6-7.7 0.4l1.4-0.3c0.2 1.8 4.8 2.2 4.8 0-0.5-2.8-5.6-0.7-5.8-4.4-0.2-2.8 4-3.1 6-2.1 0.6 0.3 1 0.9 1.2 1.7"/>
			<path id="N" class="s4" d="m427.8 218.4v-1.8h1.7v1.8zm0 7.6v-1.8h1.7v1.8z"/>
			<path id="V" class="s4" d="m436.8 216.4c2.7 0.1 3.5 2 3.5 4.8 0 2.9-0.8 4.9-3.5 5-1.5 0-2.4-0.7-3-1.7l0.1 5.2h-1.6v-13.1h1.5l0.1 1.5c0.5-1.1 1.4-1.7 2.9-1.7zm-0.4 8.6c2 0 2.2-1.7 2.2-3.7 0-2-0.3-3.6-2.2-3.7-2.1 0-2.5 1.6-2.5 3.8 0 2.1 0.5 3.6 2.5 3.6z"/>
			<path id="Y" class="s4" d="m445.1 226.2c-4.4 0.2-2.6-5.7-3-9.6h1.6v5.9c0 1.6 0.4 2.5 1.9 2.4 3.6-0.1 2.3-4.9 2.5-8.3h1.5l0.1 9.4h-1.5c0-0.5 0.1-1.3-0.1-1.6-0.5 1-1.4 1.7-3 1.8z"/>
			<path id="T" class="s4" d="m456.5 217.9c-3.9-0.8-2.6 4.5-2.8 8.1h-1.6v-9.4h1.4c0.1 0.6 0 1.4 0.1 1.9 0.3-1.3 1.2-2.4 2.9-2z"/>
			<path id="V" class="s4" d="m462.4 216.4c2.7 0.1 3.5 2 3.5 4.8 0 2.9-0.8 4.9-3.5 5-1.5 0-2.4-0.7-2.9-1.7v5.2h-1.6v-13.1h1.5l0.1 1.5c0.5-1.1 1.4-1.7 2.9-1.7zm-0.4 8.6c2 0 2.3-1.7 2.3-3.7 0-2-0.3-3.6-2.3-3.7-2 0-2.5 1.6-2.5 3.8 0 2.1 0.5 3.6 2.5 3.6z"/>
			<path id="M" class="s4" d="m471.6 216.4c3 0 4.2 1.8 4.2 4.9 0 3.1-1.4 4.9-4.3 4.9-2.9 0-4.1-1.9-4.1-4.9q0-4.9 4.2-4.9zm-0.1 8.6c2.2 0 2.6-1.5 2.6-3.7 0-2.1-0.4-3.7-2.5-3.7-2.1 0-2.6 1.6-2.6 3.7 0 2.1 0.5 3.6 2.5 3.7z"/>
			<path id="K" class="s4" d="m483.2 218.9c-0.2-1.7-4.3-1.9-4.3 0 0.7 2.6 5.6 0.6 5.8 4.5 0.2 3.8-7.4 3.6-7.7 0.4l1.4-0.3c0.2 1.8 4.8 2.2 4.8 0-0.5-2.8-5.6-0.7-5.8-4.4-0.2-2.8 4-3.1 6-2.1 0.6 0.3 1 0.9 1.2 1.7"/>
			<path id="R" class="s4" d="m490.3 216.4c3.1 0 4.3 2.1 4.2 5.2h-6.7c0 2 0.7 3.3 2.6 3.4 1.3 0 2.1-0.6 2.4-1.4l1.4 0.4c-0.5 1.3-1.8 2.2-3.8 2.2-2.8 0-4.3-1.8-4.3-5 0.1-3 1.3-4.8 4.2-4.8zm2.6 4c0.3-3-3.8-3.8-4.8-1.4-0.1 0.4-0.3 0.9-0.3 1.4z"/>
		</g>
		<path class="s5" d="m163.3 26.5q0-1.2 0.5-2.3 0.4-1.1 1.3-1.9 0.8-0.9 1.9-1.3 1.1-0.5 2.3-0.5h153.5q1.2 0 2.3 0.5 1.1 0.4 1.9 1.3 0.9 0.8 1.3 1.9 0.5 1.1 0.5 2.3v35.7q0 1.2-0.5 2.3-0.4 1.1-1.3 1.9-0.8 0.8-1.9 1.3-1.1 0.5-2.3 0.5h-153.5q-1.2 0-2.3-0.5-1.1-0.5-1.9-1.3-0.9-0.8-1.3-1.9-0.5-1.1-0.5-2.3z"/>
		<g id="g">
			<path id="Z" class="s2" d="m207.6 48l-3.2-4.8-3.2 4.8h-2.1l4.2-6-4-5.7h2.1l3 4.6 2.9-4.6h2.2l-4 5.7 4.2 6z"/>
			<path id="D" class="s2" d="m218.3 39.2c-0.2-2.1-5.3-2.3-5.4 0 0.9 3.3 7.1 0.7 7.4 5.6 0.2 4.8-9.3 4.5-9.7 0.4l1.7-0.3c0.3 2.3 6 2.8 6.1 0-0.7-3.4-7-0.9-7.3-5.5-0.3-3.5 5-3.9 7.5-2.6 0.7 0.4 1.3 1.2 1.5 2.2"/>
			<path id="aa" class="s2" d="m226.3 36.1c1.9 0 3 0.8 3.7 2v-6.2h1.9l0.1 16.1h-1.9c-0.1-0.6 0-1.4-0.1-1.9-0.7 1.4-1.8 2.2-3.7 2.2-3.3 0-4.2-2.4-4.3-6.1 0-4 1.4-6.1 4.3-6.1zm0.6 1.4c-2.5 0-2.9 2.1-2.9 4.7 0 2.4 0.4 4.5 2.8 4.5 2.6 0 3.2-1.9 3.2-4.7 0-2.6-0.6-4.5-3.1-4.5z"/>
			<path id="E" class="s2" d="m235.5 38.5v-2.2h2.1v2.2zm0 9.5v-2.2h2v2.2z"/>
			<path id="D" class="s2" d="m247.9 39.2c-0.2-2.1-5.3-2.3-5.3 0 0.9 3.3 7 0.7 7.3 5.6 0.2 4.8-9.3 4.5-9.7 0.4l1.7-0.3c0.3 2.3 6 2.8 6.1 0-0.6-3.4-7-0.9-7.3-5.5-0.2-3.5 5.1-3.9 7.5-2.6 0.8 0.4 1.3 1.2 1.5 2.2"/>
			<path id="ab" class="s2" d="m254.3 45.1c-0.1 1.5 1.2 1.8 2.4 1.4v1.5c-2.1 0.6-4.3 0.3-4.3-2.4v-7.9h-1.4v-1.4h1.5l0.5-2.7h1.3v2.7h2.2v1.4h-2.2z"/>
			<path id="G" class="s2" d="m263.9 38c-4.8-1-3.3 5.6-3.5 10h-2v-11.7h1.8c0.1 0.7-0.1 1.8 0.1 2.4 0.4-1.7 1.4-3 3.6-2.5z"/>
			<path id="C" class="s2" d="m265.7 33.8v-1.9h2v1.9zm0 14.2v-11.7h1.9v11.7z"/>
			<path id="ac" class="s2" d="m276.3 36.1c5.5-0.3 3.3 7.1 3.7 11.9h-2v-7.4c0-2-0.4-3.1-2.4-3-4.4 0.1-2.7 6.3-3 10.4h-2v-11.7h1.8c0.1 0.6 0 1.5 0.2 2 0.6-1.4 1.7-2.2 3.7-2.2z"/>
			<path id="I" class="s2" d="m292.4 36.3c-0.7 7.7 2.5 18.1-6.8 16.1-1.4-0.4-2.4-1.2-2.7-2.6l1.9-0.4c1 2.9 6.2 2 5.5-1.7v-1.8c-0.7 1.3-1.8 2.2-3.7 2.2-3.4 0-4.2-2.5-4.2-5.9 0-3.5 1-6 4.3-6.1 1.8 0 3 1 3.7 2.2 0.1-0.6 0-1.4 0.1-2zm-5.1 10.4c2.2 0 3.1-2 3.1-4.5 0-2.6-0.9-4.7-3.1-4.7-2.4 0-2.8 2.1-2.8 4.7 0 2.5 0.3 4.5 2.8 4.5z"/>
		</g>
		<path class="s5" d="m928.4 109.6c0 30.6-37 55.4-82.6 55.4-45.7 0-82.7-24.8-82.7-55.4 0-30.5 37-55.3 82.7-55.3 45.6 0 82.6 24.8 82.6 55.3z"/>
		<g id="h">
			<path id="ab" class="s2" d="m825.7 96.3c-0.1 1.5 1.1 1.8 2.4 1.3v1.5c-2.1 0.6-4.3 0.3-4.3-2.4v-7.8h-1.4v-1.4h1.5l0.5-2.7h1.3v2.7h2.2v1.4h-2.2z"/>
			<path id="C" class="s2" d="m829.8 84.9v-1.8h1.9v1.8zm0 14.3v-11.7h2v11.7z"/>
			<path id="J" class="s2" d="m846.1 88.8c-4.1 0.1-2.3 6.4-2.7 10.4h-1.9v-7.5c0-1.8-0.3-3.1-2.2-2.9-4.1 0.2-2.3 6.4-2.7 10.4h-1.9l-0.1-11.7h1.9c0 0.6-0.1 1.4 0.1 1.9 0.6-2.7 6.1-3.1 6.6 0 0.7-1.3 1.7-2.1 3.6-2.2 5.2-0.1 2.9 7.4 3.4 12h-1.9v-7.5c0-1.8-0.3-3-2.2-2.9z"/>
			<path id="ad" class="s2" d="m857.8 87.2c3.9 0 5.3 2.6 5.2 6.6h-8.4c0 2.4 0.9 4.1 3.3 4.1 1.6 0.1 2.7-0.7 3-1.7l1.8 0.5c-0.7 1.7-2.3 2.7-4.8 2.7-3.6 0-5.4-2.3-5.4-6.1 0.1-3.8 1.6-6.1 5.3-6.1zm3.2 5c0.4-3.7-4.7-4.7-6-1.7-0.2 0.4-0.4 1-0.4 1.7z"/>
			<path id="E" class="s2" d="m866 89.7v-2.2h2.1v2.2zm0 9.5v-2.2h2.1v2.2z"/>
		</g>
		<g id="i">
			<path id="ae" class="s2" d="m780.6 112.3v13.6h-2.1v-13.6h-5.2v-1.8h12.6v1.8z"/>
			<path id="ad" class="s2" d="m790 113.9c3.9 0 5.3 2.6 5.2 6.5h-8.3c0 2.5 0.8 4.2 3.3 4.2 1.6 0.1 2.6-0.7 3-1.8l1.7 0.5c-0.7 1.7-2.3 2.8-4.7 2.8-3.6 0-5.5-2.3-5.4-6.2 0-3.7 1.6-6 5.2-6zm3.2 5c0.4-3.7-4.7-4.8-5.9-1.8-0.2 0.5-0.4 1.1-0.4 1.8z"/>
			<path id="J" class="s2" d="m809.2 115.4c-4.2 0.2-2.4 6.5-2.8 10.5h-1.9v-7.5c0-1.8-0.3-3.1-2.1-3-4.1 0.3-2.4 6.4-2.7 10.5h-2v-11.8h1.8c0.1 0.6 0 1.5 0.2 2 0.6-2.7 6.1-3.1 6.6 0 0.6-1.3 1.6-2.2 3.5-2.2 5.3-0.1 2.9 7.3 3.4 12h-1.9v-7.5c0-1.8-0.3-3-2.1-3z"/>
			<path id="af" class="s2" d="m821.8 113.9c3.4 0 4.3 2.5 4.3 6 0 3.5-1 6.1-4.3 6.2-2 0-3.1-0.8-3.7-2.1v6.5h-2v-16.4h1.9l0.1 1.9c0.6-1.3 1.7-2.1 3.7-2.1zm-0.5 10.7c2.4 0 2.7-2.1 2.7-4.6 0-2.5-0.3-4.5-2.7-4.6-2.6 0-3.2 2-3.2 4.7 0 2.7 0.6 4.5 3.2 4.5z"/>
			<path id="H" class="s2" d="m833.2 113.9c3.8-0.1 5.2 2.3 5.2 6.1 0.1 3.9-1.6 6.1-5.3 6.1-3.6 0-5.1-2.4-5.2-6.1q0-6.1 5.3-6.1zm-0.1 10.7c2.7 0.1 3.3-1.9 3.3-4.6 0-2.7-0.5-4.6-3.2-4.6-2.6 0-3.2 1.9-3.2 4.6 0 2.6 0.6 4.6 3.1 4.6z"/>
			<path id="G" class="s2" d="m846.4 115.8c-4.8-1-3.3 5.6-3.5 10.1h-2l-0.1-11.8h1.9c0 0.8-0.1 1.8 0.1 2.4 0.4-1.6 1.4-3 3.6-2.5z"/>
			<path id="A" class="s2" d="m855.4 123.6c-0.9 1.3-1.9 2.6-4.2 2.5-2.2-0.1-3.6-1.3-3.6-3.5 0-4 3.9-3.9 7.7-3.9 0.2-2.2-0.5-3.3-2.5-3.3-1.5 0-2.5 0.4-2.6 1.9l-2-0.2c0.3-2.3 2-3.2 4.7-3.2 2.7 0 4.4 1.2 4.4 3.9v5.1c0 1.2 0.4 2 1.7 1.7v1.2c-1.9 0.5-3.7-0.1-3.6-2.2zm-5.7-1c0 1.2 0.7 2 1.9 2 2.6-0.2 3.9-1.8 3.7-4.6-2.6 0.2-5.6-0.3-5.6 2.6z"/>
			<path id="ag" class="s2" d="m860.5 125.9v-16.2h2v16.2z"/>
			<path id="ah" class="s2" d="m865.8 125.9v-15.4h11.5v1.8h-9.5v4.8h8.9v1.7h-8.9v5.4h10v1.7z"/>
			<path id="ac" class="s2" d="m886 113.9c5.4-0.3 3.2 7.1 3.7 12h-2v-7.5c0-1.9-0.5-3-2.4-3-4.5 0.1-2.7 6.3-3 10.5h-2l-0.1-11.8h1.9c0 0.6-0.1 1.5 0.1 2 0.7-1.4 1.8-2.2 3.8-2.2z"/>
			<path id="ab" class="s2" d="m894.7 122.9c-0.1 1.5 1.1 1.8 2.4 1.4v1.5c-2.1 0.6-4.4 0.3-4.4-2.4v-7.9h-1.3v-1.4h1.5l0.5-2.6h1.3v2.6h2.2v1.4h-2.2z"/>
			<path id="C" class="s2" d="m898.7 111.6v-1.9h2v1.9zm0 14.3v-11.8h2v11.8z"/>
			<path id="ab" class="s2" d="m905.8 122.9c-0.2 1.5 1.1 1.8 2.3 1.4v1.5c-2 0.6-4.3 0.3-4.3-2.4v-7.9h-1.4v-1.4h1.5l0.6-2.6h1.3v2.6h2.1v1.4h-2.1z"/>
			<path id="ai" class="s2" d="m919.3 114.1l-5.3 13.7c-0.8 1.7-2.2 3.1-5 2.6v-1.5c2.4 0.3 3.3-1.3 4-3.1l-4.6-11.7h2.1l3.5 9.7 3.3-9.7z"/>
		</g>
		<path class="s3" d="m669.6 301.5l-0.8-0.5 35.9-56.8h1.2zm103.4-163.6l-53.7 85h-1.2l54.1-85.5z"/>
		<path class="s2" d="m669.6 301.5l-0.3 0.6-0.7-0.9 0.2-0.2z"/>
		<path class="s3" d="m669.7 301.5l-0.4 0.6-0.7-0.9 0.2-0.3zm-1-0.2l0.6 0.8 0.3-0.6-0.8-0.5zm103.9-143.5h-1l0.6-19.2-17.1 8.7-0.4-0.9 18.5-9.4z"/>
		<path class="s6" d="m593.8 269.3v-116.2"/>
		<path id="schema:temporal" class="s7" aria-label="schema:temporal"  d="m652.5 230v1.4q-0.6-0.3-1.3-0.5-0.7-0.1-1.5-0.1-1.1 0-1.7 0.3-0.5 0.4-0.5 1.1 0 0.5 0.4 0.8 0.4 0.3 1.6 0.6l0.5 0.1q1.7 0.3 2.3 1 0.7 0.6 0.7 1.7 0 1.3-1 2.1-1 0.7-2.8 0.7-0.8 0-1.6-0.1-0.8-0.1-1.7-0.4v-1.6q0.9 0.4 1.7 0.6 0.8 0.3 1.6 0.3 1.1 0 1.7-0.4 0.6-0.4 0.6-1 0-0.7-0.5-1-0.4-0.3-1.8-0.6l-0.5-0.2q-1.5-0.3-2.1-0.9-0.6-0.6-0.6-1.7 0-1.3 0.9-2 0.9-0.7 2.7-0.7 0.8 0 1.6 0.1 0.7 0.1 1.3 0.4zm9.6 0.1v1.4q-0.6-0.4-1.3-0.5-0.6-0.2-1.3-0.2-1.5 0-2.3 0.9-0.8 1-0.8 2.7 0 1.7 0.8 2.6 0.8 0.9 2.3 0.9 0.7 0 1.3-0.1 0.7-0.2 1.3-0.6v1.4q-0.6 0.3-1.3 0.5-0.7 0.1-1.4 0.1-2.1 0-3.4-1.3-1.2-1.3-1.2-3.5 0-2.3 1.2-3.6 1.3-1.3 3.5-1.3 0.7 0 1.3 0.1 0.7 0.2 1.3 0.5zm10.4 3.3v5.6h-1.5v-5.6q0-1.3-0.5-1.9-0.5-0.7-1.6-0.7-1.2 0-1.9 0.8-0.7 0.8-0.7 2.1v5.3h-1.6v-12.9h1.6v5q0.5-0.8 1.3-1.2 0.7-0.4 1.7-0.4 1.6 0 2.4 1 0.8 1 0.8 2.9zm11 0.6v0.7h-7q0.1 1.6 1 2.4 0.8 0.8 2.3 0.8 0.9 0 1.7-0.2 0.9-0.2 1.7-0.6v1.4q-0.8 0.4-1.7 0.6-0.9 0.1-1.8 0.1-2.2 0-3.5-1.3-1.3-1.2-1.3-3.5 0-2.2 1.2-3.6 1.3-1.3 3.4-1.3 1.8 0 2.9 1.2 1.1 1.2 1.1 3.3zm-6.9-0.5h5.4q0-1.2-0.7-2-0.7-0.7-1.8-0.7-1.3 0-2.1 0.7-0.7 0.7-0.8 2zm16.7-2q0.6-1 1.3-1.5 0.8-0.5 1.9-0.5 1.5 0 2.3 1 0.8 1 0.8 2.9v5.6h-1.6v-5.6q0-1.3-0.5-1.9-0.4-0.7-1.4-0.7-1.2 0-1.9 0.8-0.7 0.8-0.7 2.1v5.3h-1.5v-5.6q0-1.3-0.5-1.9-0.4-0.7-1.4-0.7-1.2 0-1.9 0.8-0.7 0.8-0.7 2.1v5.3h-1.5v-9.3h1.5v1.4q0.5-0.8 1.3-1.2 0.7-0.4 1.7-0.4 1 0 1.7 0.5 0.7 0.5 1.1 1.5zm15 2.8h-1.5q-1.8 0-2.5 0.5-0.8 0.4-0.8 1.4 0 0.8 0.6 1.3 0.5 0.5 1.4 0.5 1.3 0 2.1-0.9 0.7-0.9 0.7-2.4zm1.6-0.7v5.3h-1.6v-1.4q-0.5 0.9-1.3 1.3-0.7 0.4-1.9 0.4-1.4 0-2.2-0.8-0.9-0.8-0.9-2.2 0-1.5 1.1-2.3 1-0.8 3.1-0.8h2.1v-0.2q0-1-0.7-1.6-0.6-0.6-1.9-0.6-0.8 0-1.5 0.2-0.8 0.2-1.5 0.6v-1.4q0.8-0.4 1.6-0.5 0.8-0.2 1.6-0.2 2 0 3 1.1 1 1 1 3.1zm3.5 5.3v-2.1h1.8v2.1zm0-6.6v-2.2h1.7v2.2zm5.3-5.3h1.6v2.6h3.1v1.2h-3.1v5.1q0 1.1 0.3 1.4 0.3 0.4 1.2 0.4h1.6v1.2h-1.6q-1.7 0-2.4-0.6-0.7-0.7-0.7-2.4v-5.1h-1.1v-1.2h1.1zm14.7 6.9v0.8h-7.1q0.1 1.6 1 2.4 0.8 0.8 2.4 0.8 0.8 0 1.7-0.2 0.8-0.2 1.6-0.6v1.4q-0.8 0.4-1.7 0.5-0.8 0.2-1.7 0.2-2.3 0-3.6-1.3-1.3-1.3-1.3-3.5 0-2.3 1.3-3.6 1.2-1.3 3.3-1.3 1.9 0 3 1.2 1.1 1.2 1.1 3.2zm-7-0.4h5.4q0-1.3-0.7-2-0.6-0.7-1.8-0.7-1.3 0-2 0.7-0.8 0.7-0.9 2zm16.7-2q0.6-1.1 1.4-1.6 0.8-0.4 1.9-0.4 1.4 0 2.2 1 0.8 1 0.8 2.9v5.6h-1.6v-5.6q0-1.3-0.4-2-0.5-0.6-1.5-0.6-1.2 0-1.8 0.8-0.7 0.8-0.7 2.1v5.3h-1.6v-5.6q0-1.3-0.4-2-0.5-0.6-1.5-0.6-1.2 0-1.9 0.8-0.7 0.8-0.7 2.1v5.3h-1.5v-9.3h1.5v1.4q0.6-0.8 1.3-1.2 0.7-0.4 1.7-0.4 1.1 0 1.8 0.5 0.7 0.5 1 1.5zm10.8 6.1v4.9h-1.5v-12.8h1.5v1.4q0.5-0.8 1.2-1.2 0.8-0.4 1.8-0.4 1.7 0 2.7 1.3 1.1 1.3 1.1 3.5 0 2.2-1.1 3.6-1 1.3-2.7 1.3-1 0-1.8-0.4-0.7-0.4-1.2-1.2zm5.2-3.3q0-1.6-0.7-2.6-0.7-1-1.9-1-1.2 0-1.9 1-0.7 1-0.7 2.6 0 1.7 0.7 2.7 0.7 0.9 1.9 0.9 1.2 0 1.9-0.9 0.7-1 0.7-2.7zm7.7-3.5q-1.2 0-1.9 0.9-0.7 1-0.7 2.6 0 1.7 0.7 2.7 0.7 0.9 1.9 0.9 1.2 0 2-0.9 0.7-1 0.7-2.7 0-1.6-0.7-2.6-0.8-0.9-2-0.9zm0-1.3q2 0 3.2 1.3 1.1 1.2 1.1 3.5 0 2.3-1.1 3.6-1.2 1.3-3.2 1.3-2 0-3.1-1.3-1.1-1.3-1.1-3.6 0-2.3 1.1-3.5 1.1-1.3 3.1-1.3zm12.2 0v1.6q-0.2-0.1-0.6-0.2-0.3-0.1-0.6-0.1-1.3 0-2 0.9-0.7 0.8-0.7 2.4v4.9h-1.5v-9.3h1.5v1.4q0.5-0.8 1.3-1.2 0.7-0.4 1.8-0.4 0.2 0 0.4 0 0.2 0 0.4 0zm7.4 4.8h-1.6q-1.8 0-2.5 0.4-0.7 0.5-0.7 1.5 0 0.8 0.5 1.3 0.5 0.4 1.5 0.4 1.2 0 2-0.9 0.8-0.9 0.8-2.4zm1.5-0.6v5.3h-1.5v-1.4q-0.6 0.9-1.3 1.3-0.8 0.4-2 0.4-1.4 0-2.2-0.8-0.9-0.8-0.9-2.2 0-1.6 1.1-2.4 1-0.7 3.1-0.7h2.2v-0.2q0-1.1-0.7-1.6-0.7-0.6-2-0.6-0.8 0-1.5 0.2-0.8 0.2-1.5 0.6v-1.5q0.9-0.3 1.6-0.4 0.8-0.2 1.6-0.2 2 0 3 1 1 1.1 1 3.2zm3.1 5.3v-12.9h1.6v12.9z"/>
		<path id="schema:spatial" class="s7" aria-label="schema:spatial"  d="m724.5 309v1.4q-0.6-0.3-1.3-0.5-0.7-0.1-1.5-0.1-1.1 0-1.7 0.3-0.5 0.4-0.5 1.1 0 0.5 0.4 0.8 0.4 0.3 1.6 0.6l0.5 0.1q1.7 0.3 2.3 1 0.7 0.6 0.7 1.7 0 1.3-1 2.1-1 0.7-2.8 0.7-0.8 0-1.6-0.1-0.8-0.1-1.7-0.4v-1.6q0.9 0.4 1.7 0.6 0.8 0.3 1.6 0.3 1.1 0 1.7-0.4 0.6-0.4 0.6-1 0-0.7-0.5-1-0.4-0.3-1.8-0.6l-0.5-0.2q-1.5-0.3-2.1-0.9-0.6-0.6-0.6-1.7 0-1.3 0.9-2 0.9-0.7 2.7-0.7 0.8 0 1.6 0.1 0.7 0.1 1.3 0.4zm9.6 0.1v1.4q-0.6-0.4-1.3-0.5-0.6-0.2-1.3-0.2-1.5 0-2.3 0.9-0.8 1-0.8 2.7 0 1.7 0.8 2.6 0.8 0.9 2.3 0.9 0.7 0 1.3-0.1 0.7-0.2 1.3-0.6v1.4q-0.6 0.3-1.3 0.5-0.7 0.1-1.4 0.1-2.1 0-3.4-1.3-1.2-1.3-1.2-3.5 0-2.3 1.2-3.6 1.3-1.3 3.5-1.3 0.7 0 1.3 0.1 0.7 0.2 1.3 0.5zm10.4 3.3v5.6h-1.5v-5.6q0-1.3-0.5-1.9-0.5-0.7-1.6-0.7-1.2 0-1.9 0.8-0.7 0.8-0.7 2.1v5.3h-1.6v-12.9h1.6v5q0.5-0.8 1.3-1.2 0.7-0.4 1.7-0.4 1.6 0 2.4 1 0.8 1 0.8 2.9zm11 0.6v0.7h-7q0.1 1.6 1 2.4 0.8 0.8 2.3 0.8 0.9 0 1.7-0.2 0.9-0.2 1.7-0.6v1.4q-0.8 0.4-1.7 0.6-0.9 0.1-1.8 0.1-2.2 0-3.5-1.3-1.3-1.2-1.3-3.5 0-2.2 1.2-3.6 1.3-1.3 3.4-1.3 1.8 0 2.9 1.2 1.1 1.2 1.1 3.3zm-6.9-0.5h5.4q0-1.2-0.7-2-0.7-0.7-1.8-0.7-1.3 0-2.1 0.7-0.7 0.7-0.8 2zm16.7-2q0.6-1 1.3-1.5 0.8-0.5 1.9-0.5 1.5 0 2.3 1 0.8 1 0.8 2.9v5.6h-1.6v-5.6q0-1.3-0.5-1.9-0.4-0.7-1.4-0.7-1.2 0-1.9 0.8-0.7 0.8-0.7 2.1v5.3h-1.5v-5.6q0-1.3-0.5-1.9-0.4-0.7-1.4-0.7-1.2 0-1.9 0.8-0.7 0.8-0.7 2.1v5.3h-1.5v-9.3h1.5v1.4q0.5-0.8 1.3-1.2 0.7-0.4 1.7-0.4 1 0 1.7 0.5 0.7 0.5 1.1 1.5zm15 2.8h-1.5q-1.8 0-2.5 0.5-0.8 0.4-0.8 1.4 0 0.8 0.6 1.3 0.5 0.5 1.4 0.5 1.3 0 2.1-0.9 0.7-0.9 0.7-2.4zm1.6-0.7v5.3h-1.6v-1.4q-0.5 0.9-1.3 1.3-0.7 0.4-1.9 0.4-1.4 0-2.2-0.8-0.9-0.8-0.9-2.2 0-1.5 1.1-2.3 1-0.8 3.1-0.8h2.1v-0.2q0-1-0.7-1.6-0.6-0.6-1.9-0.6-0.8 0-1.5 0.2-0.8 0.2-1.5 0.6v-1.4q0.8-0.4 1.6-0.5 0.8-0.2 1.6-0.2 2 0 3 1.1 1 1 1 3.1zm3.5 5.3v-2.1h1.8v2.1zm0-6.6v-2.2h1.7v2.2zm11.3-2.4v1.5q-0.7-0.4-1.4-0.5-0.7-0.2-1.4-0.2-1.2 0-1.7 0.3-0.6 0.4-0.6 1.1 0 0.5 0.4 0.8 0.4 0.3 1.7 0.6l0.5 0.1q1.6 0.4 2.3 1 0.7 0.6 0.7 1.8 0 1.3-1.1 2-1 0.8-2.8 0.8-0.7 0-1.5-0.2-0.8-0.1-1.7-0.4v-1.6q0.8 0.5 1.6 0.7 0.9 0.2 1.7 0.2 1 0 1.6-0.4 0.6-0.3 0.6-1 0-0.6-0.4-1-0.4-0.3-1.9-0.6l-0.5-0.1q-1.4-0.3-2-0.9-0.7-0.7-0.7-1.7 0-1.4 1-2.1 0.9-0.7 2.6-0.7 0.8 0 1.6 0.1 0.7 0.2 1.4 0.4zm4.4 7.6v5h-1.6v-12.9h1.6v1.5q0.5-0.9 1.2-1.3 0.7-0.4 1.8-0.4 1.6 0 2.7 1.4 1.1 1.3 1.1 3.5 0 2.2-1.1 3.5-1.1 1.4-2.7 1.4-1.1 0-1.8-0.4-0.7-0.4-1.2-1.3zm5.2-3.2q0-1.7-0.7-2.6-0.7-1-1.9-1-1.2 0-1.9 1-0.7 0.9-0.7 2.6 0 1.7 0.7 2.6 0.7 1 1.9 1 1.2 0 1.9-1 0.7-0.9 0.7-2.6zm9.8 0h-1.5q-1.8 0-2.5 0.4-0.8 0.4-0.8 1.4 0 0.8 0.6 1.3 0.5 0.5 1.4 0.5 1.3 0 2.1-0.9 0.7-0.9 0.7-2.4zm1.6-0.6v5.3h-1.6v-1.4q-0.5 0.8-1.3 1.2-0.7 0.4-1.9 0.4-1.4 0-2.2-0.8-0.9-0.8-0.9-2.1 0-1.6 1.1-2.4 1-0.8 3.1-0.8h2.1v-0.1q0-1.1-0.7-1.7-0.6-0.5-1.9-0.5-0.8 0-1.6 0.1-0.7 0.2-1.4 0.6v-1.4q0.8-0.3 1.6-0.5 0.8-0.1 1.6-0.1 2 0 3 1 1 1.1 1 3.2zm3.1-6.7h1.5v2.7h3.2v1.2h-3.2v5q0 1.2 0.3 1.5 0.3 0.3 1.3 0.3h1.6v1.3h-1.6q-1.8 0-2.4-0.7-0.7-0.6-0.7-2.4v-5h-1.1v-1.2h1.1zm6.7 11.9v-9.3h1.5v9.3zm0-11v-1.9h1.5v1.9zm10.5 6.3h-1.5q-1.9 0-2.6 0.5-0.7 0.4-0.7 1.4 0 0.8 0.5 1.3 0.6 0.5 1.5 0.5 1.3 0 2-0.9 0.8-0.9 0.8-2.4zm1.5-0.6v5.3h-1.5v-1.5q-0.5 0.9-1.3 1.3-0.8 0.4-1.9 0.4-1.4 0-2.3-0.8-0.8-0.8-0.8-2.1 0-1.6 1-2.4 1.1-0.8 3.2-0.8h2.1v-0.2q0-1-0.7-1.6-0.7-0.6-1.9-0.6-0.8 0-1.6 0.2-0.7 0.2-1.4 0.6v-1.4q0.8-0.3 1.6-0.5 0.8-0.2 1.5-0.2 2 0 3 1.1 1 1 1 3.2zm3.2 5.3v-13h1.5v13z"/>
		<path class="s3" d="m594.3 269.8h-1v-0.5h1z"/>
		<path class="s5" d="m593.8 142.5l7.7 12.9h-15.3z"/>
		<path class="s1" d="m676.5 85.6c0 30.6-37 55.4-82.7 55.4-45.6 0-82.6-24.8-82.6-55.4 0-30.5 37-55.3 82.6-55.3 45.7 0 82.7 24.8 82.7 55.3z"/>
		<g id="k">
			<path id="af" class="s2" d="m576.1 66.4c3.4 0 4.3 2.5 4.3 6 0 3.5-1 6.1-4.3 6.2-1.9 0-3-0.8-3.7-2.1l0.1 6.5h-2l-0.1-16.4h1.9l0.2 1.9c0.6-1.3 1.7-2.1 3.6-2.1zm-0.5 10.7c2.5 0 2.8-2.1 2.8-4.6 0-2.6-0.4-4.5-2.8-4.6-2.6 0-3.1 2-3.1 4.7 0 2.7 0.6 4.5 3.1 4.5z"/>
			<path id="G" class="s2" d="m588.4 68.3c-4.8-1-3.3 5.6-3.5 10h-2l-0.1-11.7h1.9c0.1 0.8-0.1 1.8 0.1 2.4 0.4-1.6 1.4-3 3.6-2.5z"/>
			<path id="H" class="s2" d="m594.9 66.4c3.8-0.1 5.2 2.2 5.2 6.1 0.1 3.9-1.6 6.1-5.3 6.1-3.6 0-5.1-2.4-5.2-6.1q0-6.1 5.3-6.1zm-0.1 10.7c2.7 0.1 3.3-1.9 3.3-4.6 0-2.7-0.5-4.7-3.2-4.7-2.6 0-3.2 2-3.2 4.7 0 2.6 0.6 4.5 3.1 4.6z"/>
			<path id="al" class="s2" d="m607.7 78.3h-2.3l-4.3-11.7h2.1l3.3 10.2 3.5-10.2h2.1"/>
			<path id="E" class="s2" d="m614.2 68.8v-2.2h2.1v2.2zm0 9.5v-2.2h2.1v2.2z"/>
		</g>
		<g id="l">
			<path id="am" class="s2" d="m571.2 105l-1.7-4.4h-7l-1.7 4.4h-2.2l6.2-15.3h2.4l6.1 15.3zm-2.3-6.1l-2.9-7.6c-0.8 2.8-2 5.1-2.9 7.6z"/>
			<path id="an" class="s2" d="m579.3 94.6c-2.5 0-3 2-3 4.5 0 2.5 0.6 4.6 3 4.6 1.5 0 2.5-0.9 2.6-2.3l2 0.1c-0.4 2.3-1.9 3.8-4.5 3.8-3.7 0-4.7-2.6-5.1-6.2-0.6-5.7 6.2-8 9.1-3.9 0.2 0.4 0.3 0.9 0.4 1.4l-2 0.1c-0.2-1.3-1-2.1-2.5-2.1z"/>
			<path id="ab" class="s2" d="m588.1 102.1c-0.1 1.5 1.1 1.8 2.4 1.4v1.4c-2.1 0.7-4.4 0.4-4.4-2.4v-7.8h-1.3v-1.4h1.5l0.5-2.7h1.3v2.7h2.2v1.4h-2.2z"/>
			<path id="C" class="s2" d="m592.1 90.7v-1.8h2v1.8zm0 14.3v-11.7h2v11.7z"/>
			<path id="al" class="s2" d="m602.2 105h-2.4l-4.2-11.7h2.1l3.3 10.2 3.5-10.2h2.1"/>
			<path id="C" class="s2" d="m608.1 90.7v-1.8h2v1.8zm0 14.3v-11.7h2v11.7z"/>
			<path id="ab" class="s2" d="m615.2 102.1c-0.2 1.5 1.1 1.8 2.3 1.4v1.4c-2 0.7-4.3 0.4-4.3-2.4v-7.8h-1.4v-1.4h1.5l0.6-2.7h1.3v2.7h2.1v1.4h-2.1z"/>
			<path id="ai" class="s2" d="m628.7 93.3l-5.3 13.6c-0.8 1.7-2.3 3.2-5 2.6v-1.5c2.4 0.4 3.3-1.2 4-3.1l-4.7-11.6h2.1l3.6 9.6 3.3-9.6z"/>
		</g>
		<path class="s5" d="m1044.4 279c0 30.5-37 55.3-82.6 55.3-45.7 0-82.7-24.8-82.7-55.3 0-30.6 37-55.4 82.7-55.4 45.6 0 82.6 24.8 82.6 55.4z"/>
		<g id="m">
			<path id="I" class="s2" d="m950.9 259.9c-0.6 7.8 2.6 18.1-6.8 16.2-1.4-0.4-2.3-1.3-2.7-2.7l2-0.3c0.9 2.9 6.2 2 5.5-1.7v-1.9c-0.7 1.3-1.8 2.2-3.8 2.2-3.3 0-4.2-2.5-4.2-5.9 0-3.4 1-6 4.4-6 1.8-0.1 3 0.9 3.7 2.1 0-0.6 0-1.4 0.1-2zm-5.1 10.4c2.2 0 3-2 3-4.5 0-2.6-0.8-4.6-3-4.6-2.5 0-2.9 2.1-2.9 4.6 0 2.5 0.4 4.5 2.9 4.5z"/>
			<path id="ad" class="s2" d="m958.5 259.7c3.9 0 5.3 2.6 5.2 6.5h-8.3c0 2.5 0.8 4.2 3.2 4.2 1.7 0.1 2.7-0.7 3.1-1.8l1.7 0.5c-0.7 1.8-2.3 2.8-4.8 2.8-3.5 0-5.4-2.3-5.3-6.2 0-3.7 1.6-6 5.2-6zm3.2 5c0.4-3.7-4.7-4.8-6-1.7-0.1 0.4-0.3 1-0.3 1.7z"/>
			<path id="H" class="s2" d="m970.9 259.7c3.8-0.1 5.2 2.3 5.2 6.1 0.1 3.9-1.7 6.1-5.3 6.1-3.6 0-5.1-2.4-5.2-6.1q0-6.1 5.3-6.1zm-0.1 10.7c2.7 0.1 3.3-1.9 3.3-4.6 0-2.6-0.5-4.6-3.2-4.6-2.6 0-3.2 2-3.2 4.6 0 2.7 0.6 4.6 3.1 4.6z"/>
			<path id="E" class="s2" d="m979.1 262.2v-2.3h2.1v2.3zm0 9.5v-2.2h2.1v2.2z"/>
		</g>
		<g id="n">
			<path id="ao" class="s2" d="m921.7 298.6c-5 0-7.4-3-7.7-8-0.3-6.6 6.2-9.5 11.9-6.8 1.1 0.5 1.8 1.5 2.3 2.6l-2 0.6c-0.8-1.6-2.2-2.5-4.7-2.5-3.7 0-5.4 2.4-5.4 6.1 0 3.8 1.8 6.2 5.6 6.3 2.2 0 3.9-0.7 4.9-1.7v-2.8h-4.6v-1.7h6.5v5.3c-1.5 1.5-3.7 2.6-6.8 2.6z"/>
			<path id="ad" class="s2" d="m936.4 286.4c3.9 0 5.3 2.6 5.1 6.5h-8.3c0 2.5 0.9 4.1 3.3 4.2 1.6 0.1 2.6-0.7 3-1.8l1.7 0.5c-0.6 1.7-2.2 2.8-4.7 2.8-3.6 0-5.4-2.3-5.4-6.2 0.1-3.8 1.6-6 5.3-6zm3.2 5c0.3-3.7-4.7-4.8-6-1.8-0.2 0.5-0.4 1.1-0.4 1.8z"/>
			<path id="H" class="s2" d="m948.7 286.4c3.8-0.1 5.3 2.2 5.3 6.1 0 3.9-1.7 6.1-5.4 6.1-3.6 0-5.1-2.4-5.1-6.1q-0.1-6.1 5.2-6.1zm-0.1 10.7c2.8 0.1 3.3-1.9 3.3-4.6 0-2.7-0.5-4.7-3.1-4.7-2.7 0-3.3 2-3.3 4.7 0 2.6 0.6 4.5 3.1 4.6z"/>
			<path id="J" class="s2" d="m967.8 287.9c-4.1 0.2-2.3 6.5-2.7 10.4h-1.9v-7.4c0-1.8-0.3-3.1-2.1-3-4.1 0.3-2.4 6.4-2.8 10.4h-1.9v-11.7h1.8c0.1 0.6 0 1.5 0.1 2 0.7-2.7 6.1-3.1 6.6 0 0.7-1.3 1.7-2.2 3.6-2.2 5.3-0.2 2.9 7.3 3.4 11.9h-1.9v-7.4c0-1.8-0.3-3.1-2.2-3z"/>
			<path id="ad" class="s2" d="m979.5 286.4c3.9 0 5.3 2.6 5.2 6.5h-8.3c0 2.5 0.8 4.1 3.2 4.2 1.6 0.1 2.7-0.7 3.1-1.8l1.7 0.5c-0.7 1.7-2.3 2.8-4.8 2.8-3.5 0-5.4-2.3-5.3-6.2 0-3.8 1.6-6 5.2-6zm3.2 5c0.4-3.7-4.7-4.8-6-1.8-0.2 0.5-0.3 1.1-0.3 1.8z"/>
			<path id="ab" class="s2" d="m989.3 295.4c-0.1 1.5 1.1 1.8 2.4 1.4v1.5c-2.1 0.6-4.4 0.3-4.4-2.4v-7.9h-1.3v-1.4h1.5l0.5-2.6h1.3v2.6h2.2v1.4h-2.2z"/>
			<path id="G" class="s2" d="m998.9 288.3c-4.8-1-3.3 5.6-3.5 10h-2l-0.1-11.7h1.9c0.1 0.8-0.1 1.8 0.1 2.4 0.4-1.6 1.4-3 3.6-2.5z"/>
			<path id="ai" class="s2" d="m1010.3 286.6l-5.4 13.7c-0.8 1.7-2.2 3.1-5 2.5v-1.4c2.4 0.3 3.3-1.3 4-3.1l-4.6-11.7h2.1l3.5 9.6 3.3-9.6z"/>
		</g>
		<path class="s3" d="m709.3 321.6l-31.7 4.5-0.2-1 31.9-4.5zm172.7-24.4l-31.5 4.4v-1l31.3-4.4z"/>
		<path class="s2" d="m677.6 326.1h-0.6v-0.5-0.5h0.4z"/>
		<path class="s3" d="m677.6 326.1l-0.6 0.1v-1.1l0.5-0.1zm-0.6-0.9v0.5 0.5l0.5-0.1-0.1-0.9zm205.8-28.6l-16.3 13-0.6-0.8 14.9-12-17.7-7.3 0.4-0.9z"/>
		<path class="s1" d="m601.8 565.6c0 30.6-37 55.4-82.6 55.4-45.7 0-82.7-24.8-82.7-55.4 0-30.5 37-55.3 82.7-55.3 45.6 0 82.6 24.8 82.6 55.3z"/>
		<g id="a">
			<path id="A" class="s2" d="m504.3 556.1c-0.9 1.3-1.9 2.5-4.2 2.5-2.2-0.1-3.6-1.3-3.6-3.5-0.1-4 3.9-3.9 7.7-3.9 0.2-2.2-0.5-3.4-2.5-3.4-1.5 0.1-2.5 0.5-2.6 2l-2-0.2c0.3-2.3 2-3.2 4.7-3.2 2.7 0 4.4 1.2 4.4 3.9v5.1c-0.1 1.2 0.4 2 1.7 1.6v1.3c-1.9 0.5-3.7-0.1-3.6-2.2zm-5.8-1c0 1.2 0.8 2 2 2 2.5-0.2 3.9-1.8 3.7-4.6-2.6 0.2-5.7-0.3-5.7 2.6z"/>
			<path id="B" class="s2" d="m515 546.4c3.3 0 4.3 2.4 4.3 6 0 4.1-1.4 6.2-4.3 6.2-1.9-0.1-3-0.7-3.6-2.1l-0.1 1.8h-2l0.1-16.1h2v6.3c0.6-1.5 1.7-2.1 3.6-2.1zm-0.5 10.7c2.5 0 2.8-2.1 2.8-4.6 0-2.5-0.3-4.7-2.8-4.6-2.6 0-3.1 2-3.1 4.7 0 2.7 0.6 4.5 3.1 4.5z"/>
			<path id="C" class="s2" d="m521.8 544.1v-1.9h1.9v1.9zm0 14.2v-11.7h2v11.7z"/>
			<path id="D" class="s2" d="m533.5 549.5c-0.2-2.1-5.3-2.3-5.4 0 0.9 3.3 7.1 0.8 7.4 5.6 0.2 4.8-9.3 4.5-9.7 0.5l1.7-0.3c0.2 2.2 6 2.7 6 0-0.6-3.5-6.9-1-7.2-5.6-0.3-3.5 5-3.9 7.5-2.6 0.7 0.4 1.3 1.2 1.5 2.2"/>
			<path id="E" class="s2" d="m538.3 548.8v-2.2h2.1v2.2zm0 9.5v-2.2h2.1v2.2z"/>
		</g>
		<g id="p">
			<path id="F" class="s2" d="m486.4 569.7c5.3 0.1 11.7-0.9 11.7 4.6 0 4.8-4.7 5-9.7 4.7v6h-2zm2 7.7c3.5 0 7.6 0.7 7.6-3.1 0-3.6-4.2-2.9-7.6-2.9z"/>
			<path id="G" class="s2" d="m506.4 574.9c-4.9-0.9-3.3 5.7-3.6 10.1h-1.9l-0.1-11.7h1.8c0.1 0.7 0 1.8 0.2 2.4 0.3-1.7 1.4-3 3.6-2.5z"/>
			<path id="H" class="s2" d="m512.8 573c3.9 0 5.3 2.3 5.3 6.1 0 3.9-1.7 6.2-5.3 6.2-3.7 0-5.2-2.5-5.2-6.2q0-6.1 5.2-6.1zm0 10.8c2.7 0 3.2-1.9 3.2-4.7 0-2.6-0.5-4.6-3.1-4.6-2.7 0-3.3 2-3.3 4.6 0 2.7 0.6 4.6 3.2 4.7z"/>
			<path id="as" class="s2" d="m520.5 570.7v-1.8h2v1.8zm-2.1 17.3c1.5 0.3 2.1-0.3 2.1-1.8v-12.9h1.9v13.2c0.2 2.5-1.4 3.6-4 3z"/>
			<path id="ad" class="s2" d="m530.1 573c3.8 0 5.3 2.6 5.1 6.6h-8.3c0 2.4 0.9 4.1 3.3 4.2 1.6 0 2.6-0.8 3-1.8l1.7 0.5c-0.6 1.7-2.3 2.8-4.7 2.8-3.6 0-5.5-2.3-5.4-6.2 0.1-3.8 1.6-6.1 5.3-6.1zm3.2 5c0.3-3.7-4.7-4.7-6-1.7-0.2 0.4-0.4 1.1-0.4 1.7z"/>
			<path id="an" class="s2" d="m542.2 574.6c-2.5 0-3 2-3 4.5 0 2.5 0.5 4.6 3 4.6 1.4 0 2.5-0.9 2.6-2.3l2 0.1c-0.4 2.3-1.9 3.8-4.6 3.8-3.6 0-4.7-2.6-5-6.2-0.7-5.7 6.2-8 9-3.9 0.3 0.4 0.3 0.9 0.5 1.4l-2 0.1c-0.3-1.3-1-2.1-2.5-2.1z"/>
			<path id="ab" class="s2" d="m551 582.1c-0.1 1.5 1.1 1.8 2.3 1.4v1.4c-2 0.7-4.3 0.4-4.3-2.4v-7.8h-1.4v-1.4h1.5l0.6-2.7h1.3v2.7h2.1v1.4h-2.1z"/>
		</g>
		<path class="s3" d="m520 509.1l-1-0.3 15.7-40.7h1.1zm49.9-129.4l-25.9 67.1h-1.1l26.1-67.5z"/>
		<path class="s2" d="m570.1 379.1l-0.2 0.6-0.9-0.4 0.1-0.4z"/>
		<path class="s3" d="m570.2 379.1l-0.3 0.6-0.9-0.4 0.1-0.4zm-1.1 0.2l0.9 0.3 0.2-0.5-1-0.2zm-49.1 128.7l15-11.9 0.6 0.8-16.3 12.9-3.5-20.6 1-0.1z"/>
		<g id="q">
			<path id="K" class="s4" d="m498.6 454c-0.1-1.7-4.2-1.9-4.2 0 0.7 2.6 5.6 0.6 5.8 4.4 0.2 3.9-7.4 3.7-7.7 0.4l1.4-0.2c0.2 1.7 4.7 2.2 4.8 0-0.5-2.8-5.6-0.8-5.8-4.5-0.2-2.8 4-3.1 6-2 0.6 0.3 1 0.9 1.2 1.7"/>
			<path id="L" class="s4" d="m505.1 451.5c1.5 0 2.3 0.6 2.9 1.6v-5h1.6v12.9h-1.5c-0.1-0.5 0-1.1-0.1-1.5-0.5 1.1-1.4 1.7-2.9 1.7-2.6 0-3.4-1.9-3.5-4.8 0-3.3 1.1-4.9 3.5-4.9zm0.4 1.1c-2 0-2.3 1.7-2.3 3.7 0 2 0.3 3.7 2.3 3.7 2 0 2.5-1.6 2.5-3.8 0-2-0.5-3.6-2.5-3.6z"/>
			<path id="M" class="s4" d="m515.7 451.5c3-0.1 4.2 1.8 4.2 4.8 0 3.2-1.3 4.9-4.3 4.9-2.9 0-4.1-1.9-4.1-4.9q0-4.8 4.2-4.8zm-0.1 8.6c2.2 0 2.7-1.6 2.7-3.8 0-2.1-0.4-3.7-2.6-3.7-2.1 0-2.6 1.6-2.6 3.7 0 2.2 0.5 3.7 2.5 3.8z"/>
			<path id="N" class="s4" d="m522.3 453.4v-1.7h1.6v1.7zm0 7.6v-1.7h1.7v1.7z"/>
			<path id="aj" class="s4" d="m530.8 452.7c-3.6 0-2.2 5-2.4 8.3h-1.6v-12.9h1.6l-0.1 5.1c0.6-1 1.4-1.7 3-1.7 4.4 0 2.7 5.7 3 9.5h-1.6v-5.9c0.1-1.6-0.4-2.5-1.9-2.4z"/>
			<path id="P" class="s4" d="m542.4 459.3c-0.7 1-1.5 2-3.4 1.9-1.7 0-2.8-1-2.8-2.8-0.1-3.1 3.1-3.1 6.2-3.1 0.1-1.7-0.5-2.7-2.1-2.7-1.2 0.1-2 0.4-2 1.6l-1.7-0.2c0.3-1.8 1.7-2.5 3.8-2.5 2.2 0 3.5 0.9 3.5 3.1v4.1c0 1 0.4 1.5 1.4 1.3v1c-1.5 0.4-3-0.1-2.9-1.7zm-4.6-0.9c0 1 0.6 1.7 1.6 1.7 2-0.2 3.1-1.5 3-3.7-2.2 0.1-4.6-0.3-4.6 2z"/>
			<path id="K" class="s4" d="m552 454c-0.2-1.7-4.3-1.9-4.3 0 0.7 2.6 5.7 0.6 5.9 4.4 0.2 3.9-7.4 3.7-7.8 0.4l1.4-0.2c0.2 1.7 4.8 2.2 4.8 0-0.5-2.8-5.5-0.8-5.8-4.5-0.2-2.8 4.1-3.1 6-2 0.6 0.3 1.1 0.9 1.2 1.7"/>
			<path id="at" class="s4" d="m555.7 448.8c4.3 0 9.4-0.7 9.4 3.7 0 3.8-3.8 3.9-7.8 3.7v4.8h-1.6zm1.6 6.2c2.8 0 6.1 0.6 6.1-2.5 0-2.9-3.3-2.3-6.1-2.3z"/>
			<path id="P" class="s4" d="m573 459.3c-0.7 1-1.5 2-3.3 1.9-1.8 0-2.9-1-2.9-2.8-0.1-3.1 3.1-3.1 6.2-3.1 0.1-1.7-0.5-2.7-2.1-2.7-1.1 0.1-2 0.4-2 1.6l-1.7-0.2c0.3-1.8 1.7-2.5 3.8-2.5 2.2 0 3.6 0.9 3.6 3.1v4.1c-0.1 1 0.3 1.5 1.3 1.3v1c-1.5 0.4-3-0.1-2.9-1.7zm-4.6-0.9c0 1 0.6 1.7 1.6 1.7 2-0.2 3.1-1.5 3-3.7-2.2 0.1-4.6-0.3-4.6 2z"/>
			<path id="T" class="s4" d="m581.6 453c-3.9-0.8-2.7 4.5-2.9 8h-1.5l-0.1-9.3h1.5c0 0.5 0 1.4 0.1 1.9 0.3-1.4 1.1-2.4 2.9-2z"/>
			<path id="W" class="s4" d="m584.7 458.7c-0.1 1.2 0.9 1.4 1.9 1.1v1.2c-1.6 0.5-3.5 0.2-3.5-1.9v-6.3h-1v-1.1h1.1l0.5-2.2h1v2.2h1.8v1.1h-1.8z"/>
		</g>
		<path class="s5" d="m207.1 403.7q0-1.2 0.5-2.3 0.4-1.1 1.3-1.9 0.8-0.8 1.9-1.3 1.1-0.5 2.3-0.5h28.1q1.2 0 2.3 0.5 1.1 0.5 2 1.3 0.8 0.8 1.3 1.9 0.4 1.1 0.4 2.3v30.4q0 1.2-0.4 2.3-0.5 1.1-1.3 1.9-0.9 0.9-2 1.3-1.1 0.5-2.3 0.5h-28.1q-1.2 0-2.3-0.5-1.1-0.4-1.9-1.3-0.9-0.8-1.3-1.9-0.5-1.1-0.5-2.3z"/>
		<path class="s3" d="m353.6 395.3l-104.9 23.9-0.2-1 105.1-24zm169.9-38.8l-64.5 14.7v-1l64.3-14.7z"/>
		<path class="s2" d="m524.3 356.3l-0.8 0.2-0.2-1 0.2-0.1z"/>
		<path class="s3" d="m524.4 356.3l-0.9 0.2-0.2-1 0.2-0.1zm-1-0.8l0.2 0.9 0.7-0.1-0.8-0.8zm-259.7 49.8l-13.9 13.2 18.2 5.8-0.3 0.9-19.8-6.3 15.1-14.3z"/>
		<g id="r">
			<path id="V" class="s4" d="m359.3 366c2.7 0.1 3.4 2 3.4 4.9 0 2.8-0.8 4.8-3.4 4.9-1.6 0-2.5-0.7-3-1.7v5.2h-1.5l-0.1-13.1h1.5l0.1 1.5c0.5-1 1.4-1.7 3-1.7zm-0.4 8.6c1.9 0 2.2-1.7 2.2-3.7 0-2-0.3-3.6-2.2-3.7-2.1 0-2.6 1.6-2.6 3.8 0 2.1 0.5 3.6 2.6 3.6z"/>
			<path id="T" class="s4" d="m369.1 367.5c-3.9-0.7-2.6 4.5-2.8 8.1h-1.6l-0.1-9.4h1.5c0.1 0.6 0 1.4 0.1 1.9 0.3-1.3 1.2-2.4 2.9-2z"/>
			<path id="M" class="s4" d="m374.3 366c3 0 4.2 1.8 4.2 4.9 0 3.1-1.4 4.9-4.3 4.9-2.9 0-4.1-1.9-4.1-4.9q0-4.9 4.2-4.9zm-0.1 8.6c2.2 0.1 2.6-1.5 2.6-3.7 0-2.1-0.4-3.7-2.5-3.7-2.1 0-2.6 1.6-2.6 3.7 0 2.1 0.5 3.7 2.5 3.7z"/>
			<path id="au" class="s4" d="m384.5 375.6h-1.8l-3.4-9.4h1.6l2.7 8.2 2.8-8.2h1.7"/>
			<path id="N" class="s4" d="m389.7 368v-1.8h1.7v1.8zm0 7.6v-1.8h1.7v1.8z"/>
			<path id="av" class="s4" d="m400.2 374.1c-0.5 1-1.4 1.7-3 1.7-2.6 0-3.4-1.9-3.4-4.9 0-2.9 0.8-4.8 3.4-4.9 1.6 0 2.4 0.7 3 1.6 0-0.5-0.1-1.1 0.1-1.5h1.5l-0.1 13.2h-1.6zm-2.5 0.5c2 0 2.5-1.6 2.5-3.8 0-2.1-0.4-3.6-2.5-3.6-1.9 0-2.2 1.8-2.2 3.7 0 2 0.2 3.7 2.2 3.7z"/>
			<path id="Y" class="s4" d="m407.1 375.8c-4.4 0.2-2.7-5.7-3-9.6h1.5v5.9c0 1.6 0.4 2.5 2 2.5 3.5-0.1 2.2-5 2.4-8.4h1.6v9.4h-1.5c0-0.5 0.1-1.2-0.1-1.6-0.5 1-1.4 1.7-2.9 1.8z"/>
			<path id="P" class="s4" d="m419.8 373.8c-0.8 1.1-1.6 2-3.4 2-1.8-0.1-2.9-1-2.9-2.8 0-3.2 3.1-3.1 6.2-3.1 0.2-1.8-0.4-2.7-2-2.7-1.2 0-2 0.3-2.1 1.5l-1.6-0.1c0.2-1.8 1.6-2.6 3.7-2.6 2.3 0 3.6 1 3.6 3.2v4c-0.1 1 0.3 1.6 1.4 1.4v0.9c-1.6 0.5-3-0.1-2.9-1.7zm-4.6-0.8c0 1 0.6 1.6 1.5 1.6 2.1-0.1 3.2-1.4 3-3.7-2.1 0.1-4.5-0.2-4.5 2.1z"/>
			<path id="aw" class="s4" d="m423.9 375.6v-12.9h1.5v12.9z"/>
			<path id="U" class="s4" d="m427.8 364.2v-1.5h1.5v1.5zm0 11.4v-9.4h1.6v9.4z"/>
			<path id="ax" class="s4" d="m435.5 364c-1.6-0.4-2.1 0.5-1.9 2.2h1.9v1.1h-1.9v8.3h-1.5v-8.3h-1.4v-1.1h1.4c-0.4-2.6 0.8-4 3.4-3.3z"/>
			<path id="U" class="s4" d="m436.6 364.2v-1.5h1.6v1.5zm0 11.4v-9.4h1.6v9.4z"/>
			<path id="R" class="s4" d="m444.2 366c3.2 0 4.3 2.1 4.2 5.2h-6.7c0 2 0.7 3.4 2.6 3.4 1.3 0.1 2.2-0.6 2.5-1.4l1.3 0.4c-0.5 1.3-1.8 2.2-3.8 2.2-2.8 0-4.3-1.8-4.2-4.9 0-3.1 1.2-4.9 4.1-4.9zm2.6 4c0.3-3-3.7-3.8-4.8-1.4-0.1 0.4-0.3 0.9-0.3 1.4z"/>
			<path id="L" class="s4" d="m453.4 366c1.5 0 2.4 0.7 2.9 1.6v-4.9h1.6v12.9h-1.5c-0.1-0.5 0-1.1-0.1-1.5-0.5 1.1-1.4 1.7-2.9 1.7-2.6 0-3.4-1.9-3.5-4.9 0-3.2 1.2-4.9 3.5-4.9zm0.4 1.2c-1.9 0-2.2 1.7-2.2 3.7 0 2 0.3 3.7 2.2 3.7 2.1 0 2.5-1.6 2.5-3.8 0-2.1-0.4-3.7-2.5-3.6z"/>
		</g>
		<g id="s">
			<path id="ay" class="s4" d="m371.1 396.9l-1.4-3.5h-5.6l-1.4 3.5h-1.7l5-12.2h1.9l4.8 12.2zm-1.8-4.9l-2.4-6c-0.5 2.2-1.5 4-2.2 6z"/>
			<path id="K" class="s4" d="m379.5 389.9c-0.2-1.7-4.3-1.9-4.3 0 0.7 2.6 5.6 0.6 5.8 4.4 0.2 3.9-7.4 3.7-7.7 0.4l1.4-0.2c0.2 1.7 4.8 2.2 4.8 0-0.5-2.8-5.6-0.8-5.8-4.5-0.2-2.8 4-3.1 6-2.1 0.6 0.4 1 1 1.2 1.8"/>
			<path id="K" class="s4" d="m388.3 389.9c-0.1-1.7-4.2-1.9-4.2 0 0.7 2.6 5.6 0.6 5.8 4.4 0.2 3.9-7.4 3.7-7.7 0.4l1.4-0.2c0.2 1.7 4.7 2.2 4.8 0-0.5-2.8-5.6-0.8-5.8-4.5-0.2-2.8 4-3.1 6-2.1 0.6 0.4 1 1 1.2 1.8"/>
			<path id="M" class="s4" d="m395.5 387.3c3.1 0 4.2 1.9 4.2 4.9 0.1 3.1-1.3 4.9-4.2 4.9-3 0-4.1-1.9-4.2-4.9q0-4.9 4.2-4.9zm0 8.6c2.1 0.1 2.6-1.5 2.6-3.7 0-2.1-0.4-3.7-2.5-3.7-2.2 0-2.7 1.6-2.7 3.7 0 2.2 0.5 3.7 2.6 3.7z"/>
			<path id="S" class="s4" d="m405.2 388.6c-2 0-2.4 1.6-2.4 3.6 0 2 0.5 3.7 2.4 3.7 1.2 0 2-0.7 2.1-1.9l1.6 0.1c-0.3 1.8-1.5 3-3.7 3-2.9 0-3.7-2-4-4.9-0.5-4.6 5-6.4 7.2-3.1 0.2 0.3 0.3 0.7 0.4 1.1l-1.6 0.1c-0.2-1-0.8-1.7-2-1.7z"/>
			<path id="U" class="s4" d="m410.5 385.5v-1.5h1.6v1.5zm0 11.4v-9.4h1.6v9.4z"/>
			<path id="P" class="s4" d="m420.2 395.1c-0.7 1.1-1.5 2.1-3.4 2-1.7 0-2.8-1-2.8-2.8-0.1-3.2 3.1-3.1 6.1-3.1 0.2-1.7-0.4-2.7-2-2.7-1.2 0.1-2 0.4-2 1.6l-1.7-0.2c0.3-1.8 1.7-2.6 3.8-2.6 2.2 0 3.5 1 3.5 3.2v4.1c0 0.9 0.4 1.5 1.4 1.3v1c-1.5 0.4-3-0.1-2.9-1.8zm-4.6-0.8c0 1 0.6 1.6 1.6 1.6 2-0.1 3.1-1.4 2.9-3.6-2.1 0.1-4.5-0.3-4.5 2z"/>
			<path id="W" class="s4" d="m426 394.6c-0.1 1.2 0.9 1.4 1.9 1.1v1.2c-1.6 0.5-3.5 0.2-3.5-2v-6.2h-1v-1.2h1.1l0.5-2.1h1v2.1h1.8v1.2h-1.8z"/>
			<path id="U" class="s4" d="m429.2 385.5v-1.5h1.6v1.5zm0 11.4v-9.4h1.6v9.4z"/>
			<path id="M" class="s4" d="m436.9 387.3c3.1 0 4.2 1.9 4.2 4.9 0 3.1-1.3 4.9-4.3 4.9-2.9 0-4.1-1.9-4.1-4.9q0-4.9 4.2-4.9zm-0.1 8.6c2.2 0.1 2.7-1.5 2.7-3.7 0-2.1-0.4-3.7-2.6-3.7-2.1 0-2.6 1.6-2.6 3.7 0 2.2 0.5 3.7 2.5 3.7z"/>
			<path id="O" class="s4" d="m447.6 387.3c4.4-0.2 2.6 5.8 3 9.6h-1.6v-6c0-1.5-0.4-2.4-1.9-2.3-3.6 0.1-2.2 5-2.5 8.3h-1.5l-0.1-9.4h1.5c0 0.5-0.1 1.2 0.1 1.6 0.5-1.1 1.4-1.7 3-1.8z"/>
		</g>
		<path class="s8" d="m185.8 565.6c0 30.6-37 55.4-82.6 55.4-45.7 0-82.7-24.8-82.7-55.4 0-30.5 37-55.3 82.7-55.3 45.6 0 82.6 24.8 82.6 55.3z"/>
		<g id="k">
			<path id="af" class="s2" d="m85.4 546.4c3.4 0 4.4 2.5 4.4 6 0 3.5-1 6.1-4.4 6.2-1.9 0-3-0.8-3.7-2.1l0.1 6.5h-2v-16.4h1.9l0.1 1.9c0.6-1.3 1.7-2.1 3.6-2.1zm-0.5 10.7c2.5 0 2.8-2.1 2.8-4.6 0-2.6-0.3-4.5-2.8-4.6-2.5 0-3.1 2-3.1 4.7 0 2.7 0.6 4.5 3.1 4.5z"/>
			<path id="G" class="s2" d="m97.7 548.3c-4.8-1-3.2 5.6-3.5 10h-2v-11.7h1.8c0.1 0.8 0 1.8 0.1 2.4 0.4-1.6 1.5-3 3.6-2.5z"/>
			<path id="H" class="s2" d="m104.2 546.4c3.8-0.1 5.3 2.2 5.3 6.1 0 3.9-1.7 6.1-5.4 6.1-3.6 0-5.1-2.4-5.1-6.1q-0.1-6.1 5.2-6.1zm-0.1 10.7c2.8 0.1 3.3-1.9 3.3-4.6 0-2.7-0.5-4.7-3.1-4.7-2.7 0-3.3 2-3.3 4.7 0 2.6 0.6 4.5 3.1 4.6z"/>
			<path id="al" class="s2" d="m117 558.3h-2.3l-4.3-11.7h2.1l3.4 10.2 3.4-10.2h2.1"/>
			<path id="E" class="s2" d="m123.5 548.8v-2.2h2.1v2.2zm0 9.5v-2.2h2.1v2.2z"/>
		</g>
		<g id="t">
			<path id="am" class="s2" d="m86.6 585l-1.7-4.4h-7l-1.7 4.4h-2.1l6.2-15.3h2.3l6.1 15.3zm-2.3-6.1l-2.9-7.6c-0.7 2.8-1.9 5.1-2.8 7.6z"/>
			<path id="I" class="s2" d="m99.7 573.3c-0.6 7.7 2.6 18.1-6.8 16.1-1.4-0.4-2.3-1.2-2.7-2.7l2-0.3c0.9 2.9 6.2 2 5.5-1.7v-1.9c-0.7 1.3-1.8 2.3-3.8 2.3-3.3 0-4.2-2.6-4.2-6 0-3.4 1-5.9 4.4-6 1.8-0.1 3 1 3.7 2.2 0-0.7 0-1.5 0.1-2zm-5.1 10.3c2.2 0 3-1.9 3-4.5 0-2.5-0.8-4.6-3-4.6-2.4 0-2.9 2.1-2.9 4.6 0 2.6 0.4 4.5 2.9 4.5z"/>
			<path id="ad" class="s2" d="m107.3 573c3.9 0 5.3 2.6 5.2 6.6h-8.3c0 2.4 0.8 4.1 3.2 4.2 1.7 0 2.7-0.8 3.1-1.8l1.7 0.5c-0.7 1.7-2.3 2.8-4.8 2.8-3.5 0-5.4-2.3-5.3-6.2 0-3.8 1.6-6.1 5.2-6.1zm3.2 5c0.4-3.7-4.7-4.7-6-1.7-0.1 0.4-0.3 1.1-0.3 1.7z"/>
			<path id="ac" class="s2" d="m120.7 573c5.5-0.2 3.3 7.2 3.7 12h-2v-7.5c0-1.9-0.4-3-2.4-2.9-4.4 0.1-2.7 6.3-3 10.4h-2v-11.7h1.8c0.1 0.6 0 1.5 0.2 2 0.6-1.4 1.7-2.2 3.7-2.3z"/>
			<path id="ab" class="s2" d="m129.5 582.1c-0.1 1.5 1.1 1.8 2.3 1.4v1.4c-2 0.7-4.3 0.4-4.3-2.4v-7.8h-1.3v-1.4h1.4l0.6-2.7h1.3v2.7h2.1v1.4h-2.1z"/>
		</g>
		<path class="s5" d="m401.2 565.6c0 30.6-37 55.4-82.7 55.4-45.7 0-82.7-24.8-82.7-55.4 0-30.5 37-55.3 82.7-55.3 45.7 0 82.7 24.8 82.7 55.3z"/>
		<g id="k">
			<path id="af" class="s2" d="m300.8 546.4c3.4 0 4.3 2.5 4.3 6 0 3.5-1 6.1-4.3 6.2-1.9 0-3-0.8-3.7-2.1v6.5h-1.9l-0.1-16.4h1.9l0.1 1.9c0.7-1.3 1.8-2.1 3.7-2.1zm-0.5 10.7c2.5 0 2.8-2.1 2.8-4.6 0-2.6-0.4-4.5-2.8-4.6-2.6 0-3.2 2-3.2 4.7 0 2.7 0.7 4.5 3.2 4.5z"/>
			<path id="G" class="s2" d="m313.1 548.3c-4.9-1-3.3 5.6-3.6 10h-1.9l-0.1-11.7h1.9c0 0.8-0.1 1.8 0.1 2.4 0.4-1.6 1.4-3 3.6-2.5z"/>
			<path id="H" class="s2" d="m319.5 546.4c3.9-0.1 5.3 2.2 5.3 6.1 0.1 3.9-1.7 6.1-5.3 6.1-3.7 0-5.1-2.4-5.2-6.1q0-6.1 5.2-6.1zm0 10.7c2.7 0.1 3.3-1.9 3.3-4.6 0-2.7-0.5-4.7-3.2-4.7-2.7 0-3.3 2-3.3 4.7 0 2.6 0.6 4.5 3.2 4.6z"/>
			<path id="al" class="s2" d="m332.4 558.3h-2.4l-4.2-11.7h2.1l3.3 10.2 3.5-10.2h2.1"/>
			<path id="E" class="s2" d="m338.9 548.8v-2.2h2.1v2.2zm0 9.5v-2.2h2.1v2.2z"/>
		</g>
		<g id="u">
			<path id="az" class="s2" d="m309.9 574.1c0 2.5-1.4 3.9-3.7 4.3l4.4 6.6h-2.4l-4-6.4h-4.8v6.4h-2v-15.3c5.4 0.2 12.7-1.3 12.5 4.4zm-10.5 2.9c3.8-0.1 8.5 0.8 8.5-2.9 0-3.7-4.9-2.5-8.5-2.7z"/>
			<path id="H" class="s2" d="m317.7 573c3.8 0 5.3 2.3 5.3 6.1 0 3.9-1.7 6.2-5.3 6.2-3.7 0-5.2-2.5-5.2-6.2q0-6.1 5.2-6.1zm0 10.8c2.7 0 3.2-1.9 3.2-4.7 0-2.6-0.5-4.6-3.1-4.6-2.7 0-3.3 2-3.3 4.6 0 2.7 0.6 4.6 3.2 4.7z"/>
			<path id="ag" class="s2" d="m325.4 585v-16.1h2v16.1z"/>
			<path id="ad" class="s2" d="m334.9 573c3.9 0 5.4 2.6 5.2 6.6h-8.3c0 2.4 0.9 4.1 3.3 4.2 1.6 0 2.6-0.8 3-1.8l1.7 0.5c-0.7 1.7-2.3 2.8-4.7 2.8-3.6 0-5.5-2.3-5.4-6.2 0.1-3.8 1.6-6.1 5.2-6.1zm3.3 5c0.3-3.7-4.7-4.7-6-1.7-0.2 0.4-0.4 1.1-0.4 1.7z"/>
		</g>
		<path class="s3" d="m149.4 518.4l-0.8-0.6 33.1-44.1h1.2zm59.2-79.1l-9.7 13h-1.2l10.1-13.6z"/>
		<path class="s2" d="m208.5 438.7l0.4 0.3-0.3 0.4-0.8-0.6 0.4-0.5z"/>
		<path class="s3" d="m208.5 438.6l0.4 0.4-0.3 0.4-0.8-0.6 0.4-0.6zm-0.7 0.1l0.7 0.6 0.3-0.3-0.4-0.3-0.3-0.4zm-56.1 59.4l-2.1 19.1 17.7-7.4 0.4 0.9-19.3 8 2.3-20.7z"/>
		<g id="v">
			<path id="V" class="s4" d="m154 457c2.7 0 3.5 2 3.5 4.8 0 2.8-0.8 4.8-3.5 4.9-1.5 0-2.4-0.6-2.9-1.6v5.1h-1.6v-13h1.5l0.1 1.4c0.5-1 1.4-1.6 2.9-1.6zm-0.4 8.6c2 0 2.2-1.7 2.2-3.7 0-2.1-0.2-3.7-2.2-3.7-2 0-2.5 1.6-2.5 3.8 0 2.1 0.5 3.6 2.5 3.6z"/>
			<path id="T" class="s4" d="m163.8 458.5c-3.8-0.8-2.6 4.5-2.8 8h-1.5l-0.1-9.3h1.5c0 0.6-0.1 1.4 0.1 1.9 0.3-1.3 1.1-2.4 2.8-2z"/>
			<path id="M" class="s4" d="m169 457c3.1-0.1 4.2 1.8 4.2 4.9 0.1 3.1-1.3 4.8-4.2 4.8-2.9 0-4.1-1.9-4.2-4.8q0-4.9 4.2-4.9zm0 8.6c2.2 0 2.6-1.6 2.6-3.7 0-2.2-0.4-3.7-2.5-3.7-2.1 0-2.6 1.5-2.6 3.7 0 2.1 0.5 3.6 2.5 3.7z"/>
			<path id="au" class="s4" d="m179.3 466.5h-1.9l-3.4-9.3h1.7l2.7 8.1 2.7-8.1h1.7"/>
			<path id="N" class="s4" d="m184.5 458.9v-1.7h1.7v1.7zm0 7.6v-1.7h1.6v1.7z"/>
			<path id="P" class="s4" d="m194.8 464.8c-0.8 1-1.6 2-3.4 1.9-1.8 0-2.9-1-2.9-2.8 0-3.1 3.1-3.1 6.2-3.1 0.2-1.7-0.4-2.6-2-2.6-1.2 0-2 0.3-2.1 1.5l-1.6-0.2c0.2-1.8 1.6-2.5 3.7-2.5 2.3 0 3.6 1 3.6 3.1v4.1c-0.1 1 0.3 1.6 1.4 1.3v1c-1.6 0.4-3-0.1-2.9-1.7zm-4.6-0.9c0 1 0.6 1.7 1.5 1.7 2.1-0.2 3.2-1.5 3-3.7-2.1 0.1-4.5-0.2-4.5 2z"/>
			<path id="ap" class="s4" d="m206.4 457.2c-0.5 6.1 2 14.4-5.4 12.9-1.2-0.3-1.9-1-2.2-2.2l1.6-0.2c0.7 2.3 4.9 1.6 4.4-1.4v-1.5c-0.6 1.1-1.4 1.8-3 1.8-2.7 0-3.4-2-3.4-4.7 0-2.8 0.8-4.8 3.5-4.9 1.5 0 2.4 0.8 2.9 1.7 0.1-0.5 0-1.1 0.1-1.5zm-4.1 8.3c1.8 0 2.5-1.6 2.5-3.6 0-2.1-0.7-3.7-2.5-3.7-1.9 0-2.2 1.6-2.2 3.7 0 2 0.3 3.6 2.2 3.6z"/>
			<path id="R" class="s4" d="m212.5 457c3.1 0 4.2 2 4.1 5.2h-6.6c0 2 0.7 3.3 2.6 3.4 1.3 0 2.1-0.6 2.4-1.5l1.4 0.4c-0.6 1.4-1.8 2.2-3.8 2.2-2.9 0-4.4-1.8-4.3-4.9 0-3 1.3-4.8 4.2-4.8zm2.6 4c0.3-3-3.8-3.8-4.8-1.4-0.2 0.3-0.3 0.8-0.3 1.4z"/>
			<path id="O" class="s4" d="m223.2 457c4.4-0.2 2.6 5.7 3 9.5h-1.6v-5.9c0-1.6-0.4-2.4-1.9-2.4-3.6 0.1-2.2 5-2.5 8.3h-1.5l-0.1-9.3h1.5c0 0.5-0.1 1.1 0.1 1.5 0.5-1 1.4-1.7 3-1.7z"/>
			<path id="W" class="s4" d="m230.2 464.2c-0.1 1.2 0.9 1.5 1.9 1.1v1.2c-1.6 0.5-3.5 0.2-3.5-1.9v-6.3h-1v-1.1h1.1l0.5-2.2h1v2.2h1.7v1.1h-1.7z"/>
		</g>
		<path class="s3" d="m277.2 516.2l-0.9 0.4-8.9-21.8h1zm-17.5-42.6h-1.1l-13.8-33.6 0.9-0.4z"/>
		<path class="s2" d="m245.7 439.6l-0.9 0.4-0.2-0.4 0.4-0.3 0.4-0.3z"/>
		<path class="s3" d="m245.7 439.6l-0.9 0.4-0.2-0.4 0.4-0.3 0.5-0.4zm-0.7-0.2l-0.4 0.2 0.1 0.4 0.9-0.4-0.2-0.6zm35 57.3l-3 20.6-16.6-12.5 0.6-0.8 15.3 11.5 2.7-19z"/>
		<g>
			<g id="w">
				<path id="V" class="s4" d="m234.7 478.1c2.7 0.1 3.5 2.1 3.5 4.9 0 2.8-0.8 4.8-3.5 4.9-1.5 0-2.4-0.6-3-1.7l0.1 5.2h-1.6v-13.1h1.5l0.1 1.5c0.5-1 1.4-1.7 2.9-1.7zm-0.4 8.6c2 0 2.2-1.6 2.2-3.7 0-2-0.3-3.6-2.2-3.6-2.1 0-2.5 1.6-2.5 3.7 0 2.2 0.5 3.6 2.5 3.6z"/>
				<path id="T" class="s4" d="m244.5 479.7c-3.8-0.8-2.6 4.5-2.8 8h-1.6v-9.4h1.5c0 0.6-0.1 1.5 0.1 2 0.3-1.4 1.1-2.4 2.8-2.1z"/>
				<path id="M" class="s4" d="m249.7 478.1c3.1 0 4.2 1.9 4.2 4.9 0.1 3.1-1.3 4.9-4.2 4.9-3 0-4.1-1.9-4.2-4.9q0-4.9 4.2-4.9zm0 8.6c2.1 0.1 2.6-1.5 2.6-3.7 0-2.1-0.4-3.7-2.5-3.7-2.2 0-2.7 1.6-2.7 3.7 0 2.2 0.5 3.7 2.6 3.7z"/>
				<path id="au" class="s4" d="m260 487.7h-1.9l-3.4-9.4h1.7l2.6 8.2 2.8-8.2h1.7"/>
				<path id="N" class="s4" d="m265.2 480.1v-1.8h1.6v1.8zm0 7.6v-1.7h1.7v1.7z"/>
				<path id="T" class="s4" d="m274.1 479.7c-3.8-0.8-2.6 4.5-2.8 8h-1.6v-9.4h1.4c0.1 0.6 0 1.5 0.1 2 0.3-1.4 1.2-2.4 2.9-2.1z"/>
				<path id="M" class="s4" d="m279.3 478.1c3.1 0 4.2 1.9 4.2 4.9 0 3.1-1.3 4.9-4.3 4.9-2.9 0-4.1-1.9-4.1-4.9q0-4.9 4.2-4.9zm-0.1 8.6c2.2 0.1 2.7-1.5 2.7-3.7 0-2.1-0.4-3.7-2.6-3.7-2.1 0-2.6 1.6-2.6 3.7 0 2.2 0.5 3.7 2.5 3.7z"/>
				<path id="aw" class="s4" d="m285.4 487.7v-12.9h1.6v12.9z"/>
				<path id="R" class="s4" d="m293.1 478.1c3.1 0 4.2 2.1 4.1 5.3h-6.7c0 2 0.7 3.3 2.7 3.3 1.3 0.1 2.1-0.6 2.4-1.4l1.4 0.4c-0.6 1.4-1.9 2.2-3.8 2.2-2.9 0-4.4-1.8-4.3-4.9 0-3 1.3-4.9 4.2-4.9zm2.5 4c0.3-2.9-3.7-3.8-4.8-1.3-0.1 0.3-0.3 0.8-0.3 1.3z"/>
			</g>
		</g>
		<path class="s5" d="m261.3 220.3c0 30.6-37 55.3-82.7 55.3-45.6 0-82.6-24.7-82.6-55.3 0-30.6 37-55.3 82.7-55.3 45.6 0 82.6 24.7 82.6 55.3z"/>
		<g>
			<g id="x">
				<path id="D" class="s2" d="m160.9 204.2c-0.2-2.1-5.3-2.4-5.4 0 0.9 3.3 7.1 0.7 7.4 5.5 0.2 4.9-9.3 4.6-9.7 0.5l1.7-0.3c0.2 2.2 6 2.8 6 0-0.6-3.4-6.9-0.9-7.2-5.5-0.3-3.6 5-3.9 7.5-2.6 0.7 0.4 1.3 1.1 1.5 2.1"/>
				<path id="aA" class="s2" d="m172.5 213l-4-5.4-1.4 1.2v4.2h-2v-16.1h2v10.1l5.1-5.7h2.3l-4.7 5 5 6.7z"/>
				<path id="H" class="s2" d="m180.9 201c3.9 0 5.3 2.3 5.3 6.1 0.1 3.9-1.7 6.2-5.3 6.2-3.7 0-5.1-2.5-5.2-6.2q0-6.1 5.2-6.1zm0 10.8c2.7 0 3.3-1.9 3.3-4.7 0-2.6-0.5-4.6-3.2-4.6-2.6 0-3.3 2-3.3 4.6 0 2.7 0.7 4.6 3.2 4.7z"/>
				<path id="D" class="s2" d="m195.5 204.2c-0.2-2.1-5.4-2.4-5.4 0 0.9 3.3 7.1 0.7 7.3 5.5 0.3 4.9-9.2 4.6-9.7 0.5l1.8-0.3c0.2 2.2 6 2.8 6 0-0.6-3.4-7-0.9-7.3-5.5-0.2-3.6 5.1-3.9 7.6-2.6 0.7 0.4 1.3 1.1 1.4 2.1"/>
				<path id="E" class="s2" d="m200.3 203.5v-2.2h2.1v2.2zm0 9.5v-2.2h2.1v2.2z"/>
			</g>
			<g id="y">
				<path id="aB" class="s2" d="m150.2 228.6c-0.6-1.7-2.1-2.8-4.5-2.8-3.6 0-5.3 2.5-5.3 6.2 0 3.7 1.8 6.2 5.5 6.2 2.6 0 3.8-1.5 4.8-3.2l1.6 0.8c-1.1 2.4-3.1 4.1-6.6 4.1-4.9 0-7.2-3.1-7.4-7.9-0.4-6.5 6.1-9.5 11.5-6.9 1.2 0.6 1.9 1.6 2.4 2.8"/>
				<path id="H" class="s2" d="m159.3 227.7c3.8-0.1 5.3 2.3 5.3 6.1 0 3.9-1.7 6.1-5.3 6.1-3.7 0-5.2-2.4-5.2-6.1q-0.1-6.1 5.2-6.1zm0 10.7c2.7 0.1 3.2-1.9 3.2-4.6 0-2.6-0.5-4.6-3.1-4.6-2.7 0-3.3 2-3.3 4.6 0 2.7 0.6 4.6 3.2 4.6z"/>
				<path id="ac" class="s2" d="m172.7 227.7c5.5-0.2 3.3 7.2 3.7 12h-2v-7.5c0-1.9-0.5-3-2.4-3-4.4 0.2-2.7 6.3-3 10.5h-2v-11.8h1.8c0.1 0.7 0 1.5 0.1 2 0.7-1.3 1.8-2.1 3.8-2.2z"/>
				<path id="an" class="s2" d="m183.8 229.2c-2.5 0-3 2.1-3 4.5 0 2.5 0.5 4.7 3 4.7 1.4 0 2.5-0.9 2.6-2.4l2 0.2c-0.4 2.2-1.9 3.7-4.6 3.7-3.6 0-4.7-2.5-5-6.1-0.7-5.7 6.2-8.1 9-3.9 0.3 0.4 0.3 0.8 0.5 1.3l-2 0.2c-0.3-1.3-1-2.2-2.5-2.2z"/>
				<path id="ad" class="s2" d="m195.1 227.7c3.9 0 5.3 2.6 5.2 6.5h-8.3c0 2.5 0.8 4.2 3.2 4.2 1.6 0.1 2.7-0.7 3.1-1.8l1.7 0.5c-0.7 1.8-2.3 2.8-4.8 2.8-3.5 0-5.4-2.3-5.3-6.2 0-3.7 1.6-6 5.2-6zm3.2 5c0.4-3.7-4.7-4.8-6-1.7-0.1 0.4-0.3 1-0.3 1.7z"/>
				<path id="af" class="s2" d="m208.4 227.7c3.4 0.1 4.3 2.5 4.3 6 0 3.6-1 6.1-4.3 6.2-1.9 0-3-0.8-3.7-2.1v6.5h-1.9l-0.1-16.4h1.9l0.1 1.9c0.7-1.3 1.8-2.1 3.7-2.1zm-0.5 10.7c2.5 0 2.8-2.1 2.8-4.6 0-2.5-0.4-4.5-2.8-4.6-2.6 0-3.2 2-3.2 4.7 0 2.7 0.7 4.5 3.2 4.5z"/>
				<path id="ab" class="s2" d="m217.3 236.8c-0.1 1.5 1.1 1.8 2.3 1.3v1.5c-2 0.6-4.3 0.3-4.3-2.4v-7.8h-1.4v-1.5h1.5l0.6-2.6h1.3v2.6h2.1v1.5h-2.1z"/>
			</g>
		</g>
		<path class="s3" d="m510.3 325l-0.3 1-96-31.2h3.3zm-158.8-51.6h-3.3l-92.7-30.1 0.3-0.9z"/>
		<path class="s2" d="m510.7 325.1v0.5 0.6l-0.7-0.2 0.3-1z"/>
		<path class="s3" d="m510.7 325.1v1.1l-0.7-0.2 0.3-1zm-0.6 0.8l0.6 0.2v-1l-0.3-0.1zm-234.6-86.9l-18.7 4.2 12.6 14.3-0.7 0.7-13.8-15.6 20.3-4.6z"/>
		<g>
			<g id="z">
				<path id="K" class="s4" d="m335.2 280.6c-0.2-1.7-4.3-1.9-4.3 0 0.7 2.6 5.7 0.6 5.9 4.5 0.2 3.8-7.4 3.6-7.8 0.4l1.4-0.3c0.2 1.8 4.8 2.2 4.8 0-0.5-2.8-5.6-0.7-5.8-4.4-0.2-2.8 4.1-3.1 6-2.1 0.6 0.3 1.1 0.9 1.2 1.7"/>
				<path id="L" class="s4" d="m341.6 278.1c1.5 0 2.4 0.6 3 1.6l-0.1-4.9h1.6v12.9h-1.4c-0.1-0.5 0-1.2-0.2-1.5-0.5 1.1-1.4 1.7-2.9 1.7-2.6 0-3.4-1.9-3.5-4.9 0-3.2 1.2-4.9 3.5-4.9zm0.4 1.2c-1.9 0-2.2 1.7-2.2 3.7 0 2 0.3 3.6 2.2 3.6 2.1 0 2.5-1.5 2.5-3.7 0-2.1-0.4-3.7-2.5-3.6z"/>
				<path id="M" class="s4" d="m352.2 278.1c3.1 0 4.2 1.8 4.2 4.9 0.1 3.1-1.3 4.9-4.2 4.9-2.9 0-4.1-1.9-4.2-4.9q0-4.9 4.2-4.9zm0 8.6c2.1 0 2.6-1.5 2.6-3.7 0-2.1-0.4-3.7-2.5-3.7-2.2 0-2.7 1.6-2.7 3.7 0 2.1 0.5 3.6 2.6 3.7z"/>
				<path id="N" class="s4" d="m358.8 280.1v-1.8h1.7v1.8zm0 7.6v-1.8h1.6v1.8z"/>
				<path id="aC" class="s4" d="m369.2 287.7l-3.2-4.3-1.1 0.9v3.4h-1.6v-12.9h1.6v8l4.1-4.5h1.8l-3.8 4.1 4 5.3z"/>
				<path id="R" class="s4" d="m375.9 278.1c3.1 0 4.3 2.1 4.2 5.2h-6.7c0 2 0.7 3.3 2.6 3.4 1.3 0 2.1-0.6 2.4-1.4l1.4 0.4c-0.5 1.3-1.8 2.2-3.8 2.2-2.8 0-4.3-1.8-4.3-5 0.1-3 1.3-4.8 4.2-4.8zm2.6 4c0.3-3-3.8-3.8-4.8-1.4-0.2 0.4-0.3 0.9-0.3 1.4z"/>
				<path id="ar" class="s4" d="m389.7 278.3l-4.2 10.9c-0.7 1.4-1.9 2.5-4 2.1v-1.2c1.9 0.3 2.6-1 3.1-2.5l-3.7-9.3h1.7l2.8 7.7 2.7-7.7z"/>
				<path id="aD" class="s4" d="m399.9 287.7h-1.8l-1.9-8.1-2.1 8.1h-1.7l-2.7-9.4h1.6l1.9 8.1 2.1-8.1h1.7l2 8.1 2.1-8.1h1.5"/>
				<path id="M" class="s4" d="m407.5 278.1c3 0 4.2 1.8 4.2 4.9 0 3.1-1.4 4.9-4.3 4.9-2.9 0-4.1-1.9-4.1-4.9q0-4.9 4.2-4.9zm-0.1 8.6c2.2 0 2.6-1.5 2.6-3.7 0-2.1-0.4-3.7-2.5-3.7-2.1 0-2.6 1.6-2.6 3.7 0 2.1 0.5 3.6 2.5 3.7z"/>
				<path id="T" class="s4" d="m418 279.6c-3.8-0.8-2.6 4.5-2.8 8.1h-1.6v-9.4h1.5c0 0.6-0.1 1.4 0.1 1.9 0.3-1.3 1.1-2.4 2.8-2z"/>
				<path id="L" class="s4" d="m422.5 278.1c1.5 0 2.4 0.6 3 1.6l-0.1-4.9h1.6v12.9h-1.5c0-0.5 0-1.2-0.1-1.5-0.5 1.1-1.4 1.7-2.9 1.7-2.6 0-3.4-1.9-3.5-4.9 0-3.2 1.2-4.9 3.5-4.9zm0.4 1.2c-1.9 0-2.2 1.7-2.2 3.7 0 2 0.3 3.6 2.2 3.6 2.1 0 2.5-1.5 2.5-3.7 0-2.1-0.4-3.7-2.5-3.6z"/>
				<path id="K" class="s4" d="m434.8 280.6c-0.1-1.7-4.2-1.9-4.3 0 0.8 2.6 5.7 0.6 5.9 4.5 0.2 3.8-7.4 3.6-7.7 0.4l1.3-0.3c0.2 1.8 4.8 2.2 4.9 0-0.5-2.8-5.6-0.7-5.8-4.4-0.2-2.8 4-3.1 6-2.1 0.6 0.3 1 0.9 1.2 1.7"/>
			</g>
		</g>
	</g>
</svg>