<svg version="1.2" xmlns="http://www.w3.org/2000/svg" viewBox="0 0 1064.94 639.63" width="1065" height="640">
	<title>proj-project</title>
	<style>
		.s0 { fill: #ffffff } 
		.s1 { fill: #dedeff;stroke: #3a414a } 
		.s2 { fill: #3a414a } 
		.s3 { fill: #ffffff;stroke: #3a414a } 
		.s4 { fill: #3a414a;stroke: #3a414a;stroke-width: .4 } 
		.s5 { fill: none;stroke: #3a414a } 
		.s6 { fill: #343b42 } 
		.s7 { fill: #333333 } 
		.s8 { fill: #fff3d9;stroke: #3a414a } 
		.s9 { fill: #fcfcca;stroke: #3a414a } 
	</style>
	<g>
		<path class="s0" d="m-280.9-411.9h1500v1500h-1500z"/>
		<path class="s1" d="m676.5 323.8c0 30.6-37 55.3-82.7 55.3-45.6 0-82.6-24.7-82.6-55.3 0-30.6 37-55.3 82.6-55.3 45.7 0 82.7 24.7 82.7 55.3z"/>
		<g id="a">
			<path id="F" class="s2" d="m578.9 314.3c-0.9 1.3-1.9 2.5-4.1 2.4-2.3 0-3.6-1.3-3.6-3.5-0.1-3.9 3.9-3.9 7.7-3.9 0.2-2.1-0.6-3.3-2.5-3.3-1.5 0.1-2.6 0.4-2.6 1.9l-2.1-0.2c0.3-2.3 2.1-3.2 4.7-3.2 2.8 0 4.5 1.3 4.5 4v5c-0.1 1.3 0.4 2 1.7 1.7v1.2c-1.9 0.6-3.8-0.1-3.7-2.1zm-5.7-1.1c0 1.3 0.7 2.1 2 2.1 2.5-0.2 3.9-1.8 3.7-4.6-2.7 0.1-5.7-0.3-5.7 2.5z"/>
			<path id="G" class="s2" d="m589.7 304.5c3.3 0 4.2 2.4 4.3 6.1 0 4-1.4 6.1-4.3 6.1-1.9 0-3-0.6-3.7-2.1l-0.1 1.9h-1.9l0.1-16.1h1.9v6.2c0.7-1.4 1.8-2.1 3.7-2.1zm-0.5 10.8c2.5 0 2.8-2.1 2.8-4.7 0-2.4-0.3-4.6-2.8-4.5-2.6 0-3.2 1.9-3.2 4.7 0 2.6 0.7 4.5 3.2 4.5z"/>
			<path id="H" class="s2" d="m596.4 302.2v-1.8h2v1.8zm0 14.3v-11.7h2v11.7z"/>
			<path id="I" class="s2" d="m608.1 307.7c-0.1-2.1-5.3-2.4-5.3 0 0.9 3.2 7.1 0.7 7.3 5.5 0.3 4.8-9.2 4.6-9.7 0.5l1.8-0.3c0.2 2.2 5.9 2.8 6 0-0.6-3.5-7-0.9-7.3-5.6-0.2-3.5 5.1-3.8 7.6-2.5 0.7 0.4 1.3 1.1 1.4 2.1"/>
			<path id="J" class="s2" d="m613 307v-2.2h2.1v2.2zm0 9.5v-2.2h2.1v2.2z"/>
		</g>
		<g id="b">
			<path id="K" class="s2" d="m561 327.8c5.4 0.1 11.8-0.9 11.8 4.7 0 4.8-4.7 4.9-9.7 4.7v6h-2.1zm2.1 7.7c3.5 0 7.6 0.7 7.6-3.1 0-3.7-4.2-2.9-7.6-3z"/>
			<path id="L" class="s2" d="m581 333.1c-4.8-1-3.3 5.6-3.5 10.1h-2v-11.8h1.8c0.1 0.8 0 1.8 0.1 2.4 0.4-1.6 1.5-3 3.6-2.5z"/>
			<path id="M" class="s2" d="m587.5 331.2c3.8-0.1 5.2 2.3 5.2 6.1 0.1 3.9-1.6 6.1-5.3 6.1-3.6 0-5.1-2.4-5.1-6.1q-0.1-6.1 5.2-6.1zm-0.1 10.7c2.8 0.1 3.3-1.9 3.3-4.6 0-2.7-0.5-4.6-3.1-4.6-2.7 0-3.3 1.9-3.3 4.6 0 2.6 0.6 4.6 3.1 4.6z"/>
			<path id="N" class="s2" d="m595.2 328.9v-1.9h1.9v1.9zm-2 17.3c1.5 0.2 2-0.4 2-1.9v-12.9h2v13.2c0.1 2.5-1.4 3.6-4 3.1z"/>
			<path id="O" class="s2" d="m604.7 331.2c3.9 0 5.3 2.6 5.2 6.5h-8.3c0 2.5 0.8 4.2 3.2 4.2 1.6 0.1 2.7-0.7 3.1-1.8l1.7 0.5c-0.7 1.8-2.3 2.8-4.8 2.8-3.5 0-5.4-2.3-5.3-6.2 0-3.7 1.6-6 5.2-6zm3.2 5c0.4-3.7-4.7-4.8-6-1.7-0.1 0.4-0.3 1-0.3 1.7z"/>
			<path id="P" class="s2" d="m616.8 332.7c-2.4 0-2.9 2.1-2.9 4.5 0 2.5 0.5 4.7 2.9 4.7 1.5 0 2.6-0.9 2.7-2.4l1.9 0.1c-0.3 2.3-1.9 3.8-4.5 3.8-3.7 0-4.7-2.5-5.1-6.1-0.6-5.7 6.3-8.1 9.1-4 0.2 0.5 0.3 0.9 0.4 1.4l-1.9 0.2c-0.3-1.3-1-2.2-2.6-2.2z"/>
			<path id="Q" class="s2" d="m625.6 340.3c-0.1 1.4 1.2 1.7 2.4 1.3v1.5c-2 0.6-4.3 0.3-4.3-2.4v-7.9h-1.4v-1.4h1.5l0.6-2.6h1.2v2.6h2.2v1.4h-2.2z"/>
		</g>
		<path class="s3" d="m928.4 107.8c0 30.6-37 55.3-82.6 55.3-45.7 0-82.7-24.7-82.7-55.3 0-30.6 37-55.3 82.7-55.3 45.6 0 82.6 24.7 82.6 55.3z"/>
		<g id="c">
			<path id="Q" class="s2" d="m825.7 94.4c-0.1 1.5 1.1 1.8 2.4 1.4v1.5c-2.1 0.6-4.3 0.3-4.3-2.4v-7.9h-1.4v-1.4h1.5l0.5-2.6h1.3v2.6h2.2v1.4h-2.2z"/>
			<path id="H" class="s2" d="m829.8 83.1v-1.9h1.9v1.9zm0 14.2v-11.7h2v11.7z"/>
			<path id="R" class="s2" d="m846.1 86.9c-4.1 0.2-2.3 6.5-2.7 10.4h-1.9v-7.4c0-1.8-0.3-3.1-2.2-3-4.1 0.3-2.3 6.4-2.7 10.4h-1.9l-0.1-11.7h1.9c0 0.6-0.1 1.5 0.1 2 0.6-2.7 6.1-3.1 6.6 0 0.7-1.3 1.7-2.2 3.6-2.2 5.2-0.2 2.9 7.3 3.4 11.9h-1.9v-7.4c0-1.8-0.3-3.1-2.2-3z"/>
			<path id="O" class="s2" d="m857.8 85.4c3.9 0 5.3 2.6 5.2 6.5h-8.4c0 2.5 0.9 4.1 3.3 4.2 1.6 0.1 2.7-0.7 3-1.8l1.8 0.5c-0.7 1.7-2.3 2.8-4.8 2.8-3.6 0-5.4-2.3-5.4-6.2 0.1-3.8 1.6-6 5.3-6zm3.2 5c0.4-3.7-4.7-4.8-6-1.8-0.2 0.5-0.4 1.1-0.4 1.8z"/>
			<path id="J" class="s2" d="m866 87.8v-2.2h2.1v2.2zm0 9.5v-2.2h2.1v2.2z"/>
		</g>
		<g id="d">
			<path id="S" class="s2" d="m780.6 110.4v13.6h-2.1v-13.6h-5.2v-1.7h12.6v1.7z"/>
			<path id="O" class="s2" d="m790 112c3.9 0 5.3 2.6 5.2 6.6h-8.3c0 2.4 0.8 4.1 3.3 4.2 1.6 0 2.6-0.8 3-1.8l1.7 0.5c-0.7 1.7-2.3 2.7-4.7 2.7-3.6 0-5.5-2.2-5.4-6.1 0-3.8 1.6-6.1 5.2-6.1zm3.2 5c0.4-3.7-4.7-4.7-5.9-1.7-0.2 0.4-0.4 1-0.4 1.7z"/>
			<path id="R" class="s2" d="m809.2 113.6c-4.2 0.2-2.4 6.5-2.8 10.4h-1.9v-7.5c0-1.8-0.3-3.1-2.1-2.9-4.1 0.2-2.4 6.4-2.7 10.4h-2v-11.7h1.8c0.1 0.6 0 1.5 0.2 1.9 0.6-2.7 6.1-3 6.6 0 0.6-1.2 1.6-2.1 3.5-2.2 5.3-0.1 2.9 7.4 3.4 12h-1.9v-7.5c0-1.8-0.3-3-2.1-2.9z"/>
			<path id="T" class="s2" d="m821.8 112c3.4 0.1 4.3 2.6 4.3 6.1 0 3.5-1 6-4.3 6.1-2 0-3.1-0.8-3.7-2v6.4h-2v-16.3h1.9l0.1 1.8c0.6-1.3 1.7-2.1 3.7-2.1zm-0.5 10.8c2.4 0 2.7-2.1 2.7-4.7 0-2.5-0.3-4.5-2.7-4.5-2.6 0-3.2 1.9-3.2 4.7 0 2.6 0.6 4.5 3.2 4.5z"/>
			<path id="M" class="s2" d="m833.2 112c3.8 0 5.2 2.3 5.2 6.1 0.1 3.9-1.6 6.1-5.3 6.1-3.6 0-5.1-2.4-5.2-6.1q0-6.1 5.3-6.1zm-0.1 10.8c2.7 0 3.3-1.9 3.3-4.7 0-2.6-0.5-4.6-3.2-4.6-2.6 0-3.2 2-3.2 4.6 0 2.7 0.6 4.6 3.1 4.7z"/>
			<path id="L" class="s2" d="m846.4 113.9c-4.8-0.9-3.3 5.7-3.5 10.1h-2l-0.1-11.7h1.9c0 0.7-0.1 1.8 0.1 2.4 0.4-1.7 1.4-3 3.6-2.5z"/>
			<path id="F" class="s2" d="m855.4 121.8c-0.9 1.3-1.9 2.5-4.2 2.4-2.2 0-3.6-1.2-3.6-3.5 0-3.9 3.9-3.9 7.7-3.9 0.2-2.1-0.5-3.3-2.5-3.3-1.5 0.1-2.5 0.4-2.6 1.9l-2-0.2c0.3-2.2 2-3.2 4.7-3.2 2.7 0 4.4 1.3 4.4 4v5c0 1.3 0.4 2 1.7 1.7v1.2c-1.9 0.6-3.7-0.1-3.6-2.1zm-5.7-1.1c0 1.3 0.7 2.1 1.9 2.1 2.6-0.2 3.9-1.8 3.7-4.6-2.6 0.1-5.6-0.3-5.6 2.5z"/>
			<path id="U" class="s2" d="m860.5 124v-16.1h2v16.1z"/>
			<path id="V" class="s2" d="m865.8 124v-15.3h11.5v1.7h-9.5v4.9h8.9v1.7h-8.9v5.3h10v1.7z"/>
			<path id="W" class="s2" d="m886 112c5.4-0.2 3.2 7.2 3.7 12h-2v-7.5c0-1.9-0.5-3-2.4-2.9-4.5 0.1-2.7 6.3-3 10.4h-2l-0.1-11.7h1.9c0 0.6-0.1 1.5 0.1 1.9 0.7-1.3 1.8-2.1 3.8-2.2z"/>
			<path id="Q" class="s2" d="m894.7 121.1c-0.1 1.5 1.1 1.8 2.4 1.4v1.4c-2.1 0.7-4.4 0.3-4.4-2.4v-7.8h-1.3v-1.4h1.5l0.5-2.7h1.3v2.7h2.2v1.4h-2.2z"/>
			<path id="H" class="s2" d="m898.7 109.7v-1.8h2v1.8zm0 14.3v-11.7h2v11.7z"/>
			<path id="Q" class="s2" d="m905.8 121.1c-0.2 1.5 1.1 1.8 2.3 1.4v1.4c-2 0.7-4.3 0.3-4.3-2.4v-7.8h-1.4v-1.4h1.5l0.6-2.7h1.3v2.7h2.1v1.4h-2.1z"/>
			<path id="X" class="s2" d="m919.3 112.3l-5.3 13.6c-0.8 1.7-2.2 3.2-5 2.6v-1.5c2.4 0.4 3.3-1.2 4-3.1l-4.6-11.6h2.1l3.5 9.6 3.3-9.6z"/>
		</g>
		<path class="s4" d="m656.7 286.6l-0.8-0.6 39.7-51.3h1.2zm116.3-150.6l-59.7 77.3h-1.2l60.1-77.9z"/>
		<path class="s2" d="m656.7 286.6l-0.3 0.4-0.8-0.5 0.4-0.4z"/>
		<path class="s4" d=""/>
		<path class="s4" d="m770.4 155.7l-1-0.1 2.6-19-17.8 7.3-0.3-0.9 19.2-7.9z"/>
		<path class="s5" d="m593.8 267.5v-113.4"/>
		<path id="schema:temporal" class="s6" aria-label="schema:temporal"  d="m644.5 220v1.4q-0.6-0.3-1.3-0.5-0.7-0.1-1.5-0.1-1.1 0-1.7 0.3-0.5 0.4-0.5 1.1 0 0.5 0.4 0.8 0.4 0.3 1.6 0.6l0.5 0.1q1.7 0.3 2.3 1 0.7 0.6 0.7 1.7 0 1.3-1 2.1-1 0.7-2.8 0.7-0.8 0-1.6-0.1-0.8-0.1-1.7-0.4v-1.6q0.9 0.4 1.7 0.6 0.8 0.3 1.6 0.3 1.1 0 1.7-0.4 0.6-0.4 0.6-1 0-0.7-0.5-1-0.4-0.3-1.8-0.6l-0.5-0.2q-1.5-0.3-2.1-0.9-0.6-0.6-0.6-1.7 0-1.3 0.9-2 0.9-0.7 2.7-0.7 0.8 0 1.6 0.1 0.7 0.1 1.3 0.4zm9.6 0.1v1.4q-0.6-0.4-1.3-0.5-0.6-0.2-1.3-0.2-1.5 0-2.3 0.9-0.8 1-0.8 2.7 0 1.7 0.8 2.6 0.8 0.9 2.3 0.9 0.7 0 1.3-0.1 0.7-0.2 1.3-0.6v1.4q-0.6 0.3-1.3 0.5-0.7 0.1-1.4 0.1-2.1 0-3.4-1.3-1.2-1.3-1.2-3.5 0-2.3 1.2-3.6 1.3-1.3 3.5-1.3 0.7 0 1.3 0.1 0.7 0.2 1.3 0.5zm10.4 3.3v5.6h-1.5v-5.6q0-1.3-0.5-1.9-0.5-0.7-1.6-0.7-1.2 0-1.9 0.8-0.7 0.8-0.7 2.1v5.3h-1.6v-12.9h1.6v5q0.5-0.8 1.3-1.2 0.7-0.4 1.7-0.4 1.6 0 2.4 1 0.8 1 0.8 2.9zm11 0.6v0.7h-7q0.1 1.6 1 2.4 0.8 0.8 2.3 0.8 0.9 0 1.7-0.2 0.9-0.2 1.7-0.6v1.4q-0.8 0.4-1.7 0.6-0.9 0.1-1.8 0.1-2.2 0-3.5-1.3-1.3-1.2-1.3-3.5 0-2.2 1.2-3.6 1.3-1.3 3.4-1.3 1.8 0 2.9 1.2 1.1 1.2 1.1 3.3zm-6.9-0.5h5.4q0-1.2-0.7-2-0.7-0.7-1.8-0.7-1.3 0-2.1 0.7-0.7 0.7-0.8 2zm16.7-2q0.6-1 1.3-1.5 0.8-0.5 1.9-0.5 1.5 0 2.3 1 0.8 1 0.8 2.9v5.6h-1.6v-5.6q0-1.3-0.5-1.9-0.4-0.7-1.4-0.7-1.2 0-1.9 0.8-0.7 0.8-0.7 2.1v5.3h-1.5v-5.6q0-1.3-0.5-1.9-0.4-0.7-1.4-0.7-1.2 0-1.9 0.8-0.7 0.8-0.7 2.1v5.3h-1.5v-9.3h1.5v1.4q0.5-0.8 1.3-1.2 0.7-0.4 1.7-0.4 1 0 1.7 0.5 0.7 0.5 1.1 1.5zm15 2.8h-1.5q-1.8 0-2.5 0.5-0.8 0.4-0.8 1.4 0 0.8 0.6 1.3 0.5 0.5 1.4 0.5 1.3 0 2.1-0.9 0.7-0.9 0.7-2.4zm1.6-0.7v5.3h-1.6v-1.4q-0.5 0.9-1.3 1.3-0.7 0.4-1.9 0.4-1.4 0-2.2-0.8-0.9-0.8-0.9-2.2 0-1.5 1.1-2.3 1-0.8 3.1-0.8h2.1v-0.2q0-1-0.7-1.6-0.6-0.6-1.9-0.6-0.8 0-1.5 0.2-0.8 0.2-1.5 0.6v-1.4q0.8-0.4 1.6-0.5 0.8-0.2 1.6-0.2 2 0 3 1.1 1 1 1 3.1zm3.5 5.3v-2.1h1.8v2.1zm0-6.6v-2.2h1.7v2.2zm5.3-5.3h1.6v2.6h3.1v1.2h-3.1v5.1q0 1.1 0.3 1.4 0.3 0.4 1.2 0.4h1.6v1.2h-1.6q-1.7 0-2.4-0.6-0.7-0.7-0.7-2.4v-5.1h-1.1v-1.2h1.1zm14.7 6.9v0.8h-7.1q0.1 1.6 1 2.4 0.8 0.8 2.4 0.8 0.8 0 1.7-0.2 0.8-0.2 1.6-0.6v1.4q-0.8 0.4-1.7 0.5-0.8 0.2-1.7 0.2-2.3 0-3.6-1.3-1.3-1.3-1.3-3.5 0-2.3 1.3-3.6 1.2-1.3 3.3-1.3 1.9 0 3 1.2 1.1 1.2 1.1 3.2zm-7-0.4h5.4q0-1.3-0.7-2-0.6-0.7-1.8-0.7-1.3 0-2 0.7-0.8 0.7-0.9 2zm16.7-2q0.6-1.1 1.4-1.6 0.8-0.4 1.9-0.4 1.4 0 2.2 1 0.8 1 0.8 2.9v5.6h-1.6v-5.6q0-1.3-0.4-2-0.5-0.6-1.5-0.6-1.2 0-1.8 0.8-0.7 0.8-0.7 2.1v5.3h-1.6v-5.6q0-1.3-0.4-2-0.5-0.6-1.5-0.6-1.2 0-1.9 0.8-0.7 0.8-0.7 2.1v5.3h-1.5v-9.3h1.5v1.4q0.6-0.8 1.3-1.2 0.7-0.4 1.7-0.4 1.1 0 1.8 0.5 0.7 0.5 1 1.5zm10.8 6.1v4.9h-1.5v-12.8h1.5v1.4q0.5-0.8 1.2-1.2 0.8-0.4 1.8-0.4 1.7 0 2.7 1.3 1.1 1.3 1.1 3.5 0 2.2-1.1 3.6-1 1.3-2.7 1.3-1 0-1.8-0.4-0.7-0.4-1.2-1.2zm5.2-3.3q0-1.6-0.7-2.6-0.7-1-1.9-1-1.2 0-1.9 1-0.7 1-0.7 2.6 0 1.7 0.7 2.7 0.7 0.9 1.9 0.9 1.2 0 1.9-0.9 0.7-1 0.7-2.7zm7.7-3.5q-1.2 0-1.9 0.9-0.7 1-0.7 2.6 0 1.7 0.7 2.7 0.7 0.9 1.9 0.9 1.2 0 2-0.9 0.7-1 0.7-2.7 0-1.6-0.7-2.6-0.8-0.9-2-0.9zm0-1.3q2 0 3.2 1.3 1.1 1.2 1.1 3.5 0 2.3-1.1 3.6-1.2 1.3-3.2 1.3-2 0-3.1-1.3-1.1-1.3-1.1-3.6 0-2.3 1.1-3.5 1.1-1.3 3.1-1.3zm12.2 0v1.6q-0.2-0.1-0.6-0.2-0.3-0.1-0.6-0.1-1.3 0-2 0.9-0.7 0.8-0.7 2.4v4.9h-1.5v-9.3h1.5v1.4q0.5-0.8 1.3-1.2 0.7-0.4 1.8-0.4 0.2 0 0.4 0 0.2 0 0.4 0zm7.4 4.8h-1.6q-1.8 0-2.5 0.4-0.7 0.5-0.7 1.5 0 0.8 0.5 1.3 0.5 0.4 1.5 0.4 1.2 0 2-0.9 0.8-0.9 0.8-2.4zm1.5-0.6v5.3h-1.5v-1.4q-0.6 0.9-1.3 1.3-0.8 0.4-2 0.4-1.4 0-2.2-0.8-0.9-0.8-0.9-2.2 0-1.6 1.1-2.4 1-0.7 3.1-0.7h2.2v-0.2q0-1.1-0.7-1.6-0.7-0.6-2-0.6-0.8 0-1.5 0.2-0.8 0.2-1.5 0.6v-1.5q0.9-0.3 1.6-0.4 0.8-0.2 1.6-0.2 2 0 3 1 1 1.1 1 3.2zm3.1 5.3v-12.9h1.6v12.9z"/>
		<path class="s4" d="m594.3 268h-0.9v-0.6h0.9z"/>
		<path class="s3" d="m593.8 140.6l7.5 13h-15z"/>
		<path class="s1" d="m676.5 83.8c0 30.6-37 55.3-82.7 55.3-45.6 0-82.6-24.7-82.6-55.3 0-30.6 37-55.3 82.6-55.3 45.7 0 82.7 24.7 82.7 55.3z"/>
		<g id="f">
			<path id="T" class="s2" d="m576.1 64.5c3.4 0.1 4.3 2.5 4.3 6.1 0 3.5-1 6-4.3 6.1-1.9 0-3-0.8-3.7-2.1l0.1 6.5h-2l-0.1-16.3h1.9l0.2 1.8c0.6-1.3 1.7-2.1 3.6-2.1zm-0.5 10.8c2.5 0 2.8-2.1 2.8-4.7 0-2.5-0.4-4.5-2.8-4.5-2.6 0-3.1 1.9-3.1 4.7 0 2.6 0.6 4.5 3.1 4.5z"/>
			<path id="L" class="s2" d="m588.4 66.4c-4.8-1-3.3 5.6-3.5 10.1h-2l-0.1-11.7h1.9c0.1 0.7-0.1 1.8 0.1 2.4 0.4-1.7 1.4-3.1 3.6-2.6z"/>
			<path id="M" class="s2" d="m594.9 64.5c3.8 0 5.2 2.3 5.2 6.1 0.1 3.9-1.6 6.1-5.3 6.1-3.6 0-5.1-2.4-5.2-6.1q0-6.1 5.3-6.1zm-0.1 10.8c2.7 0 3.3-2 3.3-4.7 0-2.6-0.5-4.6-3.2-4.6-2.6 0-3.2 2-3.2 4.6 0 2.7 0.6 4.6 3.1 4.7z"/>
			<path id="ah" class="s2" d="m607.7 76.5h-2.3l-4.3-11.7h2.1l3.3 10.1 3.5-10.1h2.1"/>
			<path id="J" class="s2" d="m614.2 67v-2.2h2.1v2.2zm0 9.5v-2.2h2.1v2.2z"/>
		</g>
		<g id="g">
			<path id="ai" class="s2" d="m571.2 103.2l-1.7-4.5h-7l-1.7 4.5h-2.2l6.2-15.4h2.4l6.1 15.4zm-2.3-6.2l-2.9-7.5c-0.8 2.7-2 5-2.9 7.5z"/>
			<path id="P" class="s2" d="m579.3 92.7c-2.5 0-3 2.1-3 4.5 0 2.5 0.6 4.7 3 4.7 1.5 0 2.5-0.9 2.6-2.4l2 0.1c-0.4 2.3-1.9 3.8-4.5 3.8-3.7 0-4.7-2.5-5.1-6.1-0.6-5.7 6.2-8.1 9.1-4 0.2 0.5 0.3 0.9 0.4 1.4l-2 0.2c-0.2-1.3-1-2.2-2.5-2.2z"/>
			<path id="Q" class="s2" d="m588.1 100.3c-0.1 1.4 1.1 1.7 2.4 1.3v1.5c-2.1 0.6-4.4 0.3-4.4-2.4v-7.9h-1.3v-1.4h1.5l0.5-2.6h1.3v2.6h2.2v1.4h-2.2z"/>
			<path id="H" class="s2" d="m592.1 88.9v-1.9h2v1.9zm0 14.3v-11.8h2v11.8z"/>
			<path id="ah" class="s2" d="m602.2 103.2h-2.4l-4.2-11.8h2.1l3.3 10.2 3.5-10.2h2.1"/>
			<path id="H" class="s2" d="m608.1 88.9v-1.9h2v1.9zm0 14.3v-11.8h2v11.8z"/>
			<path id="Q" class="s2" d="m615.2 100.3c-0.2 1.4 1.1 1.7 2.3 1.3v1.5c-2 0.6-4.3 0.3-4.3-2.4v-7.9h-1.4v-1.4h1.5l0.6-2.6h1.3v2.6h2.1v1.4h-2.1z"/>
			<path id="X" class="s2" d="m628.7 91.4l-5.3 13.7c-0.8 1.7-2.3 3.1-5 2.6v-1.5c2.4 0.4 3.3-1.3 4-3.1l-4.7-11.7h2.1l3.6 9.7 3.3-9.7z"/>
		</g>
		<path class="s3" d="m1044.4 277.1c0 30.6-37 55.4-82.6 55.4-45.7 0-82.7-24.8-82.7-55.4 0-30.5 37-55.3 82.7-55.3 45.6 0 82.6 24.8 82.6 55.3z"/>
		<g id="h">
			<path id="aj" class="s2" d="m950.9 258.1c-0.6 7.7 2.6 18.1-6.8 16.1-1.4-0.4-2.3-1.2-2.7-2.6l2-0.4c0.9 2.9 6.2 2 5.5-1.7v-1.8c-0.7 1.3-1.8 2.2-3.8 2.2-3.3 0-4.2-2.5-4.2-5.9 0-3.5 1-6 4.4-6.1 1.8-0.1 3 1 3.7 2.2 0-0.6 0-1.4 0.1-2zm-5.1 10.4c2.2 0 3-2 3-4.5 0-2.6-0.8-4.7-3-4.7-2.5 0-2.9 2.1-2.9 4.7 0 2.5 0.4 4.5 2.9 4.5z"/>
			<path id="O" class="s2" d="m958.5 257.8c3.9 0 5.3 2.6 5.2 6.6h-8.3c0 2.5 0.8 4.1 3.2 4.2 1.7 0.1 2.7-0.8 3.1-1.8l1.7 0.5c-0.7 1.7-2.3 2.8-4.8 2.8-3.5 0-5.4-2.3-5.3-6.2 0-3.8 1.6-6.1 5.2-6.1zm3.2 5c0.4-3.7-4.7-4.7-6-1.7-0.1 0.5-0.3 1.1-0.3 1.7z"/>
			<path id="M" class="s2" d="m970.9 257.8c3.8 0 5.2 2.3 5.2 6.2 0.1 3.8-1.7 6.1-5.3 6.1-3.6 0-5.1-2.4-5.2-6.1q0-6.2 5.3-6.2zm-0.1 10.8c2.7 0.1 3.3-1.9 3.3-4.6 0-2.7-0.5-4.7-3.2-4.7-2.6 0-3.2 2-3.2 4.7 0 2.6 0.6 4.5 3.1 4.6z"/>
			<path id="J" class="s2" d="m979.1 260.3v-2.2h2.1v2.2zm0 9.5v-2.2h2.1v2.2z"/>
		</g>
		<g id="i">
			<path id="ak" class="s2" d="m921.7 296.7c-5 0-7.4-2.9-7.7-7.9-0.3-6.6 6.2-9.5 11.9-6.9 1.1 0.5 1.8 1.6 2.3 2.7l-2 0.5c-0.8-1.5-2.2-2.4-4.7-2.4-3.7 0-5.4 2.4-5.4 6.1 0 3.7 1.8 6.1 5.6 6.2 2.2 0 3.9-0.7 4.9-1.7v-2.7h-4.6v-1.8h6.5v5.3c-1.5 1.6-3.7 2.6-6.8 2.6z"/>
			<path id="O" class="s2" d="m936.4 284.5c3.9 0 5.3 2.6 5.1 6.6h-8.3c0 2.4 0.9 4.1 3.3 4.2 1.6 0 2.6-0.8 3-1.8l1.7 0.5c-0.6 1.7-2.2 2.7-4.7 2.7-3.6 0-5.4-2.2-5.4-6.1 0.1-3.8 1.6-6.1 5.3-6.1zm3.2 5c0.3-3.7-4.7-4.7-6-1.7-0.2 0.4-0.4 1-0.4 1.7z"/>
			<path id="M" class="s2" d="m948.7 284.5c3.8 0 5.3 2.3 5.3 6.1 0 3.9-1.7 6.1-5.4 6.1-3.6 0-5.1-2.4-5.1-6.1q-0.1-6.1 5.2-6.1zm-0.1 10.8c2.8 0 3.3-2 3.3-4.7 0-2.6-0.5-4.6-3.1-4.6-2.7 0-3.3 2-3.3 4.6 0 2.7 0.6 4.6 3.1 4.7z"/>
			<path id="R" class="s2" d="m967.8 286.1c-4.1 0.1-2.3 6.4-2.7 10.4h-1.9v-7.5c0-1.8-0.3-3.1-2.1-2.9-4.1 0.2-2.4 6.4-2.8 10.4h-1.9v-11.7h1.8c0.1 0.6 0 1.4 0.1 1.9 0.7-2.7 6.1-3 6.6 0 0.7-1.3 1.7-2.1 3.6-2.2 5.3-0.1 2.9 7.4 3.4 12h-1.9v-7.5c0-1.8-0.3-3-2.2-2.9z"/>
			<path id="O" class="s2" d="m979.5 284.5c3.9 0 5.3 2.6 5.2 6.6h-8.3c0 2.4 0.8 4.1 3.2 4.2 1.6 0 2.7-0.8 3.1-1.8l1.7 0.5c-0.7 1.7-2.3 2.7-4.8 2.7-3.5 0-5.4-2.2-5.3-6.1 0-3.8 1.6-6.1 5.2-6.1zm3.2 5c0.4-3.7-4.7-4.7-6-1.7-0.2 0.4-0.3 1-0.3 1.7z"/>
			<path id="Q" class="s2" d="m989.3 293.6c-0.1 1.5 1.1 1.8 2.4 1.3v1.5c-2.1 0.6-4.4 0.3-4.4-2.4v-7.8h-1.3v-1.4h1.5l0.5-2.7h1.3v2.7h2.2v1.4h-2.2z"/>
			<path id="L" class="s2" d="m998.9 286.4c-4.8-1-3.3 5.6-3.5 10.1h-2l-0.1-11.7h1.9c0.1 0.7-0.1 1.8 0.1 2.4 0.4-1.7 1.4-3.1 3.6-2.6z"/>
			<path id="X" class="s2" d="m1010.3 284.8l-5.4 13.6c-0.8 1.7-2.2 3.2-5 2.6v-1.5c2.4 0.4 3.3-1.2 4-3.1l-4.6-11.6h2.1l3.5 9.6 3.3-9.6z"/>
		</g>
		<path class="s4" d="m709.3 319.7l-31.7 4.5-0.2-0.9 31.9-4.5zm172.7-24.4l-31.5 4.4v-0.9l31.3-4.5z"/>
		<path class="s2" d="m677.6 324.2l-0.6 0.1v-0.5-0.5h0.4z"/>
		<path class="s4" d=""/>
		<path class="s4" d="m882.8 294.7l-16.4 12.8-0.6-0.7 15.1-11.8-17.8-7.2 0.4-0.9z"/>
		<path class="s1" d="m601.8 563.8c0 30.6-37 55.3-82.6 55.3-45.7 0-82.7-24.7-82.7-55.3 0-30.6 37-55.3 82.7-55.3 45.6 0 82.6 24.7 82.6 55.3z"/>
		<path id="schema:spatial" class="s6" aria-label="schema:spatial"  d="m722.5 305v1.4q-0.6-0.3-1.3-0.5-0.7-0.1-1.5-0.1-1.1 0-1.7 0.3-0.5 0.4-0.5 1.1 0 0.5 0.4 0.8 0.4 0.3 1.6 0.6l0.5 0.1q1.7 0.3 2.3 1 0.7 0.6 0.7 1.7 0 1.3-1 2.1-1 0.7-2.8 0.7-0.8 0-1.6-0.1-0.8-0.1-1.7-0.4v-1.6q0.9 0.4 1.7 0.6 0.8 0.3 1.6 0.3 1.1 0 1.7-0.4 0.6-0.4 0.6-1 0-0.7-0.5-1-0.4-0.3-1.8-0.6l-0.5-0.2q-1.5-0.3-2.1-0.9-0.6-0.6-0.6-1.7 0-1.3 0.9-2 0.9-0.7 2.7-0.7 0.8 0 1.6 0.1 0.7 0.1 1.3 0.4zm9.6 0.1v1.4q-0.6-0.4-1.3-0.5-0.6-0.2-1.3-0.2-1.5 0-2.3 0.9-0.8 1-0.8 2.7 0 1.7 0.8 2.6 0.8 0.9 2.3 0.9 0.7 0 1.3-0.1 0.7-0.2 1.3-0.6v1.4q-0.6 0.3-1.3 0.5-0.7 0.1-1.4 0.1-2.1 0-3.4-1.3-1.2-1.3-1.2-3.5 0-2.3 1.2-3.6 1.3-1.3 3.5-1.3 0.7 0 1.3 0.1 0.7 0.2 1.3 0.5zm10.4 3.3v5.6h-1.5v-5.6q0-1.3-0.5-1.9-0.5-0.7-1.6-0.7-1.2 0-1.9 0.8-0.7 0.8-0.7 2.1v5.3h-1.6v-12.9h1.6v5q0.5-0.8 1.3-1.2 0.7-0.4 1.7-0.4 1.6 0 2.4 1 0.8 1 0.8 2.9zm11 0.6v0.7h-7q0.1 1.6 1 2.4 0.8 0.8 2.3 0.8 0.9 0 1.7-0.2 0.9-0.2 1.7-0.6v1.4q-0.8 0.4-1.7 0.6-0.9 0.1-1.8 0.1-2.2 0-3.5-1.3-1.3-1.2-1.3-3.5 0-2.2 1.2-3.6 1.3-1.3 3.4-1.3 1.8 0 2.9 1.2 1.1 1.2 1.1 3.3zm-6.9-0.5h5.4q0-1.2-0.7-2-0.7-0.7-1.8-0.7-1.3 0-2.1 0.7-0.7 0.7-0.8 2zm16.7-2q0.6-1 1.3-1.5 0.8-0.5 1.9-0.5 1.5 0 2.3 1 0.8 1 0.8 2.9v5.6h-1.6v-5.6q0-1.3-0.5-1.9-0.4-0.7-1.4-0.7-1.2 0-1.9 0.8-0.7 0.8-0.7 2.1v5.3h-1.5v-5.6q0-1.3-0.5-1.9-0.4-0.7-1.4-0.7-1.2 0-1.9 0.8-0.7 0.8-0.7 2.1v5.3h-1.5v-9.3h1.5v1.4q0.5-0.8 1.3-1.2 0.7-0.4 1.7-0.4 1 0 1.7 0.5 0.7 0.5 1.1 1.5zm15 2.8h-1.5q-1.8 0-2.5 0.5-0.8 0.4-0.8 1.4 0 0.8 0.6 1.3 0.5 0.5 1.4 0.5 1.3 0 2.1-0.9 0.7-0.9 0.7-2.4zm1.6-0.7v5.3h-1.6v-1.4q-0.5 0.9-1.3 1.3-0.7 0.4-1.9 0.4-1.4 0-2.2-0.8-0.9-0.8-0.9-2.2 0-1.5 1.1-2.3 1-0.8 3.1-0.8h2.1v-0.2q0-1-0.7-1.6-0.6-0.6-1.9-0.6-0.8 0-1.5 0.2-0.8 0.2-1.5 0.6v-1.4q0.8-0.4 1.6-0.5 0.8-0.2 1.6-0.2 2 0 3 1.1 1 1 1 3.1zm3.5 5.3v-2.1h1.8v2.1zm0-6.6v-2.2h1.7v2.2zm11.3-2.4v1.5q-0.7-0.4-1.4-0.5-0.7-0.2-1.4-0.2-1.2 0-1.7 0.3-0.6 0.4-0.6 1.1 0 0.5 0.4 0.8 0.4 0.3 1.7 0.6l0.5 0.1q1.6 0.4 2.3 1 0.7 0.6 0.7 1.8 0 1.3-1.1 2-1 0.8-2.8 0.8-0.7 0-1.5-0.2-0.8-0.1-1.7-0.4v-1.6q0.8 0.5 1.6 0.7 0.9 0.2 1.7 0.2 1 0 1.6-0.4 0.6-0.3 0.6-1 0-0.6-0.4-1-0.4-0.3-1.9-0.6l-0.5-0.1q-1.4-0.3-2-0.9-0.7-0.7-0.7-1.7 0-1.4 1-2.1 0.9-0.7 2.6-0.7 0.8 0 1.6 0.1 0.7 0.2 1.4 0.4zm4.4 7.6v5h-1.6v-12.9h1.6v1.5q0.5-0.9 1.2-1.3 0.7-0.4 1.8-0.4 1.6 0 2.7 1.4 1.1 1.3 1.1 3.5 0 2.2-1.1 3.5-1.1 1.4-2.7 1.4-1.1 0-1.8-0.4-0.7-0.4-1.2-1.3zm5.2-3.2q0-1.7-0.7-2.6-0.7-1-1.9-1-1.2 0-1.9 1-0.7 0.9-0.7 2.6 0 1.7 0.7 2.6 0.7 1 1.9 1 1.2 0 1.9-1 0.7-0.9 0.7-2.6zm9.8 0h-1.5q-1.8 0-2.5 0.4-0.8 0.4-0.8 1.4 0 0.8 0.6 1.3 0.5 0.5 1.4 0.5 1.3 0 2.1-0.9 0.7-0.9 0.7-2.4zm1.6-0.6v5.3h-1.6v-1.4q-0.5 0.8-1.3 1.2-0.7 0.4-1.9 0.4-1.4 0-2.2-0.8-0.9-0.8-0.9-2.1 0-1.6 1.1-2.4 1-0.8 3.1-0.8h2.1v-0.1q0-1.1-0.7-1.7-0.6-0.5-1.9-0.5-0.8 0-1.6 0.1-0.7 0.2-1.4 0.6v-1.4q0.8-0.3 1.6-0.5 0.8-0.1 1.6-0.1 2 0 3 1 1 1.1 1 3.2zm3.1-6.7h1.5v2.7h3.2v1.2h-3.2v5q0 1.2 0.3 1.5 0.3 0.3 1.3 0.3h1.6v1.3h-1.6q-1.8 0-2.4-0.7-0.7-0.6-0.7-2.4v-5h-1.1v-1.2h1.1zm6.7 11.9v-9.3h1.5v9.3zm0-11v-1.9h1.5v1.9zm10.5 6.3h-1.5q-1.9 0-2.6 0.5-0.7 0.4-0.7 1.4 0 0.8 0.5 1.3 0.6 0.5 1.5 0.5 1.3 0 2-0.9 0.8-0.9 0.8-2.4zm1.5-0.6v5.3h-1.5v-1.5q-0.5 0.9-1.3 1.3-0.8 0.4-1.9 0.4-1.4 0-2.3-0.8-0.8-0.8-0.8-2.1 0-1.6 1-2.4 1.1-0.8 3.2-0.8h2.1v-0.2q0-1-0.7-1.6-0.7-0.6-1.9-0.6-0.8 0-1.6 0.2-0.7 0.2-1.4 0.6v-1.4q0.8-0.3 1.6-0.5 0.8-0.2 1.5-0.2 2 0 3 1.1 1 1 1 3.2zm3.2 5.3v-13h1.5v13z"/>
		<g id="k">
			<path id="Q" class="s2" d="m500.5 553.6c-0.2 1.5 1.1 1.8 2.3 1.3v1.5c-2 0.6-4.3 0.3-4.3-2.4v-7.8h-1.4v-1.4h1.5l0.6-2.7h1.3v2.7h2.1v1.4h-2.1z"/>
			<path id="O" class="s2" d="m509.2 544.5c3.8 0 5.3 2.6 5.1 6.6h-8.3c0 2.4 0.9 4.1 3.3 4.2 1.6 0 2.6-0.8 3-1.8l1.7 0.5c-0.6 1.7-2.2 2.7-4.7 2.7-3.6 0-5.4-2.2-5.4-6.1 0.1-3.8 1.6-6.1 5.3-6.1zm3.2 5c0.3-3.7-4.7-4.7-6-1.7-0.2 0.4-0.4 1-0.4 1.7z"/>
			<path id="L" class="s2" d="m522.4 546.4c-4.8-1-3.3 5.6-3.5 10.1h-2l-0.1-11.7h1.9c0 0.7-0.1 1.8 0.1 2.4 0.4-1.7 1.4-3.1 3.6-2.6z"/>
			<path id="W" class="s2" d="m529.9 544.5c5.5-0.2 3.3 7.2 3.7 12h-2v-7.5c0-1.9-0.5-3-2.4-2.9-4.4 0.1-2.7 6.3-3 10.4h-2v-11.7h1.8c0.1 0.6-0.1 1.4 0.1 1.9 0.7-1.3 1.8-2.1 3.8-2.2z"/>
			<path id="J" class="s2" d="m537.1 547v-2.2h2.1v2.2zm0 9.5v-2.2h2.1v2.2z"/>
		</g>
		<g id="l">
			<path id="aq" class="s2" d="m495.9 571.5c-0.3-3-7.6-3.3-7.7 0.1 0.9 4.6 9.8 0.9 10.1 7.4 0.2 4.8-7.5 5.3-10.8 3.4-1.1-0.7-1.7-1.6-2-2.9l2-0.4c0.3 3.4 8.7 3.9 8.7-0.1 0-4.8-9.6-0.8-10-7.3-0.3-5 8.9-5.1 11-2.1 0.4 0.5 0.5 1 0.7 1.6"/>
			<path id="ar" class="s2" d="m504.5 583.4c-5.5 0.3-3.4-7.2-3.8-12h2v7.4c0 2 0.4 3.1 2.4 3.1 4.4-0.2 2.8-6.3 3.1-10.5h1.9v11.8h-1.8c-0.1-0.7 0.1-1.6-0.1-2.1-0.7 1.4-1.8 2.2-3.7 2.3z"/>
			<path id="L" class="s2" d="m518.7 573.1c-4.8-1-3.3 5.6-3.6 10.1h-1.9l-0.1-11.8h1.9c0 0.8-0.1 1.8 0.1 2.4 0.4-1.6 1.4-3 3.6-2.5z"/>
			<path id="ah" class="s2" d="m525.6 583.2h-2.3l-4.3-11.8h2.1l3.4 10.2 3.4-10.2h2.1"/>
			<path id="O" class="s2" d="m536.3 571.2c3.8 0 5.3 2.6 5.1 6.5h-8.3c0 2.5 0.9 4.2 3.3 4.2 1.6 0.1 2.6-0.7 3-1.8l1.7 0.5c-0.6 1.8-2.2 2.8-4.7 2.8-3.6 0-5.5-2.3-5.4-6.2 0.1-3.7 1.6-6 5.3-6zm3.2 5c0.3-3.7-4.7-4.8-6-1.7-0.2 0.4-0.4 1-0.4 1.7z"/>
			<path id="X" class="s2" d="m553.5 571.4l-5.3 13.7c-0.9 1.7-2.3 3.1-5 2.6v-1.5c2.4 0.4 3.2-1.3 3.9-3.1l-4.6-11.7h2.1l3.5 9.7 3.3-9.7z"/>
		</g>
		<path class="s4" d="m519.9 507.3l-0.8-0.4 15.6-40.6h1.1zm49.9-129.5l-25.9 67.2h-1l26-67.5z"/>
		<path class="s2" d="m570.1 377.3l-0.2 0.5-0.9-0.3 0.2-0.4z"/>
		<path class="s4" d=""/>
		<path class="s4" d="m519.9 506.1l14.9-12 0.6 0.7-16.2 13.1-3.2-20.6 0.9-0.1z"/>
		<g id="m">
			<path id="af" class="s7" d="m498.6 452.1c-0.1-1.7-4.2-1.8-4.2 0 0.7 2.6 5.6 0.6 5.8 4.5 0.2 3.8-7.4 3.6-7.7 0.4l1.4-0.3c0.2 1.8 4.7 2.2 4.8 0-0.5-2.7-5.6-0.7-5.8-4.4-0.2-2.8 4-3.1 6-2.1 0.6 0.3 1 0.9 1.2 1.7"/>
			<path id="as" class="s7" d="m505.1 449.6c1.5 0 2.3 0.7 2.9 1.6v-4.9h1.6v12.9h-1.5c-0.1-0.5 0-1.1-0.1-1.5-0.5 1.1-1.4 1.7-2.9 1.7-2.6 0-3.4-1.9-3.5-4.9 0-3.2 1.1-4.9 3.5-4.9zm0.4 1.2c-2 0-2.3 1.7-2.3 3.7 0 2 0.3 3.7 2.3 3.7 2 0 2.5-1.6 2.5-3.8 0-2.1-0.5-3.7-2.5-3.6z"/>
			<path id="am" class="s7" d="m515.7 449.6c3 0 4.2 1.8 4.2 4.9 0 3.1-1.3 4.9-4.3 4.9-2.9 0-4.1-1.9-4.1-4.9q0-4.9 4.2-4.9zm-0.1 8.6c2.2 0.1 2.7-1.5 2.7-3.7 0-2.1-0.4-3.7-2.6-3.7-2.1 0-2.6 1.6-2.6 3.7 0 2.1 0.5 3.7 2.5 3.7z"/>
			<path id="ac" class="s7" d="m522.3 451.6v-1.8h1.6v1.8zm0 7.6v-1.8h1.7v1.8z"/>
			<path id="ad" class="s7" d="m530.8 450.8c-3.6 0-2.2 5.1-2.4 8.4h-1.6v-12.9h1.6l-0.1 5.1c0.6-1 1.4-1.8 3-1.8 4.4 0 2.7 5.7 3 9.6h-1.6v-6c0.1-1.6-0.4-2.4-1.9-2.4z"/>
			<path id="ae" class="s7" d="m542.4 457.4c-0.7 1-1.5 2-3.4 2-1.7-0.1-2.8-1-2.8-2.8-0.1-3.2 3.1-3.1 6.2-3.1 0.1-1.8-0.5-2.7-2.1-2.7-1.2 0-2 0.3-2 1.5l-1.7-0.1c0.3-1.8 1.7-2.6 3.8-2.6 2.2 0 3.5 1 3.5 3.2v4c0 1 0.4 1.6 1.4 1.4v0.9c-1.5 0.5-3-0.1-2.9-1.7zm-4.6-0.8c0 1 0.6 1.6 1.6 1.6 2-0.1 3.1-1.4 3-3.7-2.2 0.1-4.6-0.2-4.6 2.1z"/>
			<path id="af" class="s7" d="m552 452.1c-0.2-1.7-4.3-1.8-4.3 0 0.7 2.6 5.7 0.6 5.9 4.5 0.2 3.8-7.4 3.6-7.8 0.4l1.4-0.3c0.2 1.8 4.8 2.2 4.8 0-0.5-2.7-5.5-0.7-5.8-4.4-0.2-2.8 4.1-3.1 6-2.1 0.6 0.3 1.1 0.9 1.2 1.7"/>
			<path id="at" class="s7" d="m555.7 446.9c4.3 0.1 9.4-0.7 9.4 3.7 0 3.9-3.8 4-7.8 3.8v4.8h-1.6zm1.6 6.2c2.8 0 6.1 0.5 6.1-2.5 0-2.9-3.3-2.3-6.1-2.4z"/>
			<path id="ae" class="s7" d="m573 457.4c-0.7 1-1.5 2-3.3 2-1.8-0.1-2.9-1-2.9-2.8-0.1-3.2 3.1-3.1 6.2-3.1 0.1-1.8-0.5-2.7-2.1-2.7-1.1 0-2 0.3-2 1.5l-1.7-0.1c0.3-1.8 1.7-2.6 3.8-2.6 2.2 0 3.6 1 3.6 3.2v4c-0.1 1 0.3 1.6 1.3 1.4v0.9c-1.5 0.5-3-0.1-2.9-1.7zm-4.6-0.8c0 1 0.6 1.6 1.6 1.6 2-0.1 3.1-1.4 3-3.7-2.2 0.1-4.6-0.2-4.6 2.1z"/>
			<path id="ao" class="s7" d="m581.6 451.1c-3.9-0.7-2.7 4.5-2.9 8.1h-1.5l-0.1-9.4h1.5c0 0.6 0 1.4 0.1 1.9 0.3-1.3 1.1-2.4 2.9-2z"/>
			<path id="Y" class="s7" d="m584.7 456.9c-0.1 1.2 0.9 1.4 1.9 1.1v1.1c-1.6 0.5-3.5 0.3-3.5-1.9v-6.3h-1v-1.1h1.1l0.5-2.1h1v2.1h1.8v1.1h-1.8z"/>
		</g>
		<path class="s3" d="m207.1 401.9q0-1.2 0.5-2.3 0.4-1.1 1.3-1.9 0.8-0.9 1.9-1.3 1.1-0.5 2.3-0.5h28.1q1.2 0 2.3 0.5 1.1 0.4 2 1.3 0.8 0.8 1.3 1.9 0.4 1.1 0.4 2.3v30.3q0 1.2-0.4 2.3-0.5 1.1-1.3 2-0.9 0.8-2 1.3-1.1 0.4-2.3 0.4h-28.1q-1.2 0-2.3-0.4-1.1-0.5-1.9-1.3-0.9-0.9-1.3-2-0.5-1.1-0.5-2.3z"/>
		<path class="s4" d="m353.6 393.4l-104.9 23.9-0.2-0.9 105.1-24zm169.9-38.8l-64.5 14.7v-0.9l64.3-14.7z"/>
		<path class="s2" d="m524.3 354.4l-0.8 0.2-0.2-0.9 0.2-0.1z"/>
		<path class="s4" d=""/>
		<path class="s4" d="m263.7 403.6l-14.1 13 18.4 5.7-0.3 0.9-19.9-6.2 15.2-14.1z"/>
		<g id="n">
			<path id="au" class="s7" d="m359.3 364.2c2.7 0 3.4 2 3.4 4.8 0 2.8-0.8 4.8-3.4 4.9-1.6 0-2.5-0.6-3-1.6v5.1h-1.5l-0.1-13h1.5l0.1 1.4c0.5-1 1.4-1.6 3-1.6zm-0.4 8.6c1.9 0 2.2-1.7 2.2-3.7 0-2.1-0.3-3.7-2.2-3.7-2.1 0-2.6 1.6-2.6 3.7 0 2.2 0.5 3.7 2.6 3.7z"/>
			<path id="ao" class="s7" d="m369.1 365.7c-3.9-0.8-2.6 4.5-2.8 8h-1.6l-0.1-9.3h1.5c0.1 0.6 0 1.4 0.1 1.9 0.3-1.3 1.2-2.4 2.9-2z"/>
			<path id="am" class="s7" d="m374.3 364.2c3-0.1 4.2 1.8 4.2 4.9 0 3.1-1.4 4.8-4.3 4.8-2.9 0-4.1-1.9-4.1-4.8q0-4.9 4.2-4.9zm-0.1 8.6c2.2 0 2.6-1.6 2.6-3.7 0-2.2-0.4-3.8-2.5-3.8-2.1 0-2.6 1.6-2.6 3.8 0 2.1 0.5 3.6 2.5 3.7z"/>
			<path id="av" class="s7" d="m384.5 373.7h-1.8l-3.4-9.3h1.6l2.7 8.1 2.8-8.1h1.7"/>
			<path id="ac" class="s7" d="m389.7 366.1v-1.7h1.7v1.7zm0 7.6v-1.7h1.7v1.7z"/>
			<path id="aw" class="s7" d="m400.2 372.2c-0.5 1.1-1.4 1.7-3 1.7-2.6 0-3.4-1.9-3.4-4.8 0-2.9 0.8-4.9 3.4-4.9 1.6-0.1 2.4 0.7 3 1.6 0-0.6-0.1-1.2 0.1-1.6h1.5l-0.1 13.2h-1.6zm-2.5 0.5c2 0 2.5-1.6 2.5-3.7 0-2.1-0.4-3.6-2.5-3.6-1.9 0-2.2 1.7-2.2 3.7 0 2 0.2 3.6 2.2 3.6z"/>
			<path id="ax" class="s7" d="m407.1 373.9c-4.4 0.2-2.7-5.7-3-9.5h1.5v5.9c0 1.5 0.4 2.5 2 2.4 3.5-0.1 2.2-5 2.4-8.3h1.6v9.3h-1.5c0-0.5 0.1-1.2-0.1-1.6-0.5 1.1-1.4 1.8-2.9 1.8z"/>
			<path id="ae" class="s7" d="m419.8 372c-0.8 1-1.6 2-3.4 1.9-1.8 0-2.9-1-2.9-2.8 0-3.1 3.1-3.1 6.2-3.1 0.2-1.7-0.4-2.7-2-2.7-1.2 0.1-2 0.4-2.1 1.6l-1.6-0.2c0.2-1.8 1.6-2.5 3.7-2.5 2.3 0 3.6 0.9 3.6 3.1v4.1c-0.1 1 0.3 1.6 1.4 1.3v1c-1.6 0.4-3-0.1-2.9-1.7zm-4.6-0.9c0 1 0.6 1.7 1.5 1.7 2.1-0.2 3.2-1.5 3-3.7-2.1 0.1-4.5-0.2-4.5 2z"/>
			<path id="ay" class="s7" d="m423.9 373.7v-12.8h1.5v12.8z"/>
			<path id="Z" class="s7" d="m427.8 362.3v-1.4h1.5v1.4zm0 11.4v-9.3h1.6v9.3z"/>
			<path id="az" class="s7" d="m435.5 362.2c-1.6-0.5-2.1 0.5-1.9 2.2h1.9v1.1h-1.9v8.2h-1.5v-8.2h-1.4v-1.1h1.4c-0.4-2.6 0.8-4.1 3.4-3.4z"/>
			<path id="Z" class="s7" d="m436.6 362.3v-1.4h1.6v1.4zm0 11.4v-9.3h1.6v9.3z"/>
			<path id="ab" class="s7" d="m444.2 364.2c3.2 0 4.3 2 4.2 5.2h-6.7c0 2 0.7 3.3 2.6 3.4 1.3 0 2.2-0.6 2.5-1.5l1.3 0.4c-0.5 1.4-1.8 2.2-3.8 2.2-2.8 0-4.3-1.8-4.2-4.9 0-3 1.2-4.8 4.1-4.8zm2.6 4c0.3-3-3.7-3.8-4.8-1.4-0.1 0.3-0.3 0.8-0.3 1.4z"/>
			<path id="as" class="s7" d="m453.4 364.2c1.5 0 2.4 0.6 2.9 1.6v-4.9h1.6v12.8h-1.5c-0.1-0.5 0-1.1-0.1-1.5-0.5 1.1-1.4 1.7-2.9 1.7-2.6 0-3.4-1.9-3.5-4.8 0-3.3 1.2-4.9 3.5-4.9zm0.4 1.1c-1.9 0-2.2 1.7-2.2 3.8 0 1.9 0.3 3.6 2.2 3.6 2.1 0 2.5-1.6 2.5-3.7 0-2.1-0.4-3.7-2.5-3.7z"/>
		</g>
		<g id="o">
			<path id="aA" class="s7" d="m371.1 395.1l-1.4-3.6h-5.6l-1.4 3.6h-1.7l5-12.3h1.9l4.8 12.3zm-1.8-4.9l-2.4-6.1c-0.5 2.2-1.5 4.1-2.2 6.1z"/>
			<path id="af" class="s7" d="m379.5 388c-0.2-1.7-4.3-1.9-4.3 0 0.7 2.6 5.6 0.6 5.8 4.5 0.2 3.8-7.4 3.6-7.7 0.4l1.4-0.3c0.2 1.8 4.8 2.2 4.8 0-0.5-2.8-5.6-0.7-5.8-4.4-0.2-2.9 4-3.1 6-2.1 0.6 0.3 1 0.9 1.2 1.7"/>
			<path id="af" class="s7" d="m388.3 388c-0.1-1.7-4.2-1.9-4.2 0 0.7 2.6 5.6 0.6 5.8 4.5 0.2 3.8-7.4 3.6-7.7 0.4l1.4-0.3c0.2 1.8 4.7 2.2 4.8 0-0.5-2.8-5.6-0.7-5.8-4.4-0.2-2.9 4-3.1 6-2.1 0.6 0.3 1 0.9 1.2 1.7"/>
			<path id="am" class="s7" d="m395.5 385.5c3.1-0.1 4.2 1.8 4.2 4.9 0.1 3.1-1.3 4.9-4.2 4.9-3 0-4.1-2-4.2-4.9q0-4.9 4.2-4.9zm0 8.6c2.1 0 2.6-1.5 2.6-3.7 0-2.1-0.4-3.7-2.5-3.7-2.2 0-2.7 1.6-2.7 3.7 0 2.1 0.5 3.6 2.6 3.7z"/>
			<path id="aB" class="s7" d="m405.2 386.7c-2 0-2.4 1.7-2.4 3.6 0 2 0.5 3.7 2.4 3.7 1.2 0 2-0.7 2.1-1.8l1.6 0.1c-0.3 1.8-1.5 3-3.7 3-2.9 0-3.7-2.1-4-4.9-0.5-4.6 5-6.5 7.2-3.2 0.2 0.4 0.3 0.7 0.4 1.1l-1.6 0.2c-0.2-1.1-0.8-1.8-2-1.8z"/>
			<path id="Z" class="s7" d="m410.5 383.7v-1.5h1.6v1.5zm0 11.4v-9.4h1.6v9.4z"/>
			<path id="ae" class="s7" d="m420.2 393.3c-0.7 1-1.5 2-3.4 2-1.7-0.1-2.8-1.1-2.8-2.8-0.1-3.2 3.1-3.2 6.1-3.2 0.2-1.7-0.4-2.6-2-2.6-1.2 0-2 0.3-2 1.5l-1.7-0.1c0.3-1.9 1.7-2.6 3.8-2.6 2.2 0 3.5 1 3.5 3.2v4c0 1 0.4 1.6 1.4 1.3v1c-1.5 0.5-3-0.1-2.9-1.7zm-4.6-0.8c0 0.9 0.6 1.6 1.6 1.6 2-0.2 3.1-1.4 2.9-3.7-2.1 0.1-4.5-0.2-4.5 2.1z"/>
			<path id="Y" class="s7" d="m426 392.8c-0.1 1.1 0.9 1.4 1.9 1v1.2c-1.6 0.5-3.5 0.3-3.5-1.9v-6.3h-1v-1.1h1.1l0.5-2.1h1v2.1h1.8v1.1h-1.8z"/>
			<path id="Z" class="s7" d="m429.2 383.7v-1.5h1.6v1.5zm0 11.4v-9.4h1.6v9.4z"/>
			<path id="am" class="s7" d="m436.9 385.5c3.1-0.1 4.2 1.8 4.2 4.9 0 3.1-1.3 4.9-4.3 4.9-2.9 0-4.1-2-4.1-4.9q0-4.9 4.2-4.9zm-0.1 8.6c2.2 0 2.7-1.5 2.7-3.7 0-2.1-0.4-3.7-2.6-3.7-2.1 0-2.6 1.6-2.6 3.7 0 2.1 0.5 3.6 2.5 3.7z"/>
			<path id="aC" class="s7" d="m447.6 385.5c4.4-0.2 2.6 5.7 3 9.6h-1.6v-6c0-1.5-0.4-2.4-1.9-2.4-3.6 0.1-2.2 5.1-2.5 8.4h-1.5l-0.1-9.4h1.5c0 0.5-0.1 1.2 0.1 1.6 0.5-1.1 1.4-1.8 3-1.8z"/>
		</g>
		<path class="s8" d="m185.8 563.8c0 30.6-37 55.3-82.6 55.3-45.7 0-82.7-24.7-82.7-55.3 0-30.6 37-55.3 82.7-55.3 45.6 0 82.6 24.7 82.6 55.3z"/>
		<g id="f">
			<path id="T" class="s2" d="m85.4 544.5c3.4 0.1 4.4 2.5 4.4 6.1 0 3.5-1 6-4.4 6.1-1.9 0-3-0.8-3.7-2.1l0.1 6.5h-2v-16.3h1.9l0.1 1.8c0.6-1.3 1.7-2.1 3.6-2.1zm-0.5 10.8c2.5 0 2.8-2.1 2.8-4.7 0-2.5-0.3-4.5-2.8-4.5-2.5 0-3.1 1.9-3.1 4.7 0 2.6 0.6 4.5 3.1 4.5z"/>
			<path id="L" class="s2" d="m97.7 546.4c-4.8-1-3.2 5.6-3.5 10.1h-2v-11.7h1.8c0.1 0.7 0 1.8 0.1 2.4 0.4-1.7 1.5-3.1 3.6-2.6z"/>
			<path id="M" class="s2" d="m104.2 544.5c3.8 0 5.3 2.3 5.3 6.1 0 3.9-1.7 6.1-5.4 6.1-3.6 0-5.1-2.4-5.1-6.1q-0.1-6.1 5.2-6.1zm-0.1 10.8c2.8 0 3.3-2 3.3-4.7 0-2.6-0.5-4.6-3.1-4.6-2.7 0-3.3 2-3.3 4.6 0 2.7 0.6 4.6 3.1 4.7z"/>
			<path id="ah" class="s2" d="m117 556.5h-2.3l-4.3-11.7h2.1l3.4 10.1 3.4-10.1h2.1"/>
			<path id="J" class="s2" d="m123.5 547v-2.2h2.1v2.2zm0 9.5v-2.2h2.1v2.2z"/>
		</g>
		<g id="p">
			<path id="ai" class="s2" d="m86.6 583.2l-1.7-4.5h-7l-1.7 4.5h-2.1l6.2-15.4h2.3l6.1 15.4zm-2.3-6.2l-2.9-7.5c-0.7 2.7-1.9 5-2.8 7.5z"/>
			<path id="aj" class="s2" d="m99.7 571.4c-0.6 7.7 2.6 18.1-6.8 16.1-1.4-0.3-2.3-1.2-2.7-2.6l2-0.3c0.9 2.9 6.2 2 5.5-1.8v-1.8c-0.7 1.3-1.8 2.2-3.8 2.2-3.3 0-4.2-2.5-4.2-5.9 0-3.5 1-6 4.4-6.1 1.8 0 3 1 3.7 2.2 0-0.6 0-1.4 0.1-2zm-5.1 10.4c2.2 0 3-2 3-4.5 0-2.6-0.8-4.6-3-4.6-2.4 0-2.9 2.1-2.9 4.6 0 2.5 0.4 4.5 2.9 4.5z"/>
			<path id="O" class="s2" d="m107.3 571.2c3.9 0 5.3 2.6 5.2 6.5h-8.3c0 2.5 0.8 4.2 3.2 4.2 1.7 0.1 2.7-0.7 3.1-1.8l1.7 0.5c-0.7 1.8-2.3 2.8-4.8 2.8-3.5 0-5.4-2.3-5.3-6.2 0-3.7 1.6-6 5.2-6zm3.2 5c0.4-3.7-4.7-4.8-6-1.7-0.1 0.4-0.3 1-0.3 1.7z"/>
			<path id="W" class="s2" d="m120.7 571.2c5.5-0.3 3.3 7.1 3.7 12h-2v-7.5c0-1.9-0.4-3-2.4-3-4.4 0.1-2.7 6.3-3 10.5h-2v-11.8h1.8c0.1 0.6 0 1.5 0.2 2 0.6-1.4 1.7-2.2 3.7-2.2z"/>
			<path id="Q" class="s2" d="m129.5 580.3c-0.1 1.4 1.1 1.7 2.3 1.3v1.5c-2 0.6-4.3 0.3-4.3-2.4v-7.9h-1.3v-1.4h1.4l0.6-2.6h1.3v2.6h2.1v1.4h-2.1z"/>
		</g>
		<path class="s3" d="m401.2 563.8c0 30.6-37 55.3-82.7 55.3-45.7 0-82.7-24.7-82.7-55.3 0-30.6 37-55.3 82.7-55.3 45.7 0 82.7 24.7 82.7 55.3z"/>
		<g id="f">
			<path id="T" class="s2" d="m300.8 544.5c3.4 0.1 4.3 2.5 4.3 6.1 0 3.5-1 6-4.3 6.1-1.9 0-3-0.8-3.7-2.1v6.5h-1.9l-0.1-16.3h1.9l0.1 1.8c0.7-1.3 1.8-2.1 3.7-2.1zm-0.5 10.8c2.5 0 2.8-2.1 2.8-4.7 0-2.5-0.4-4.5-2.8-4.5-2.6 0-3.2 1.9-3.2 4.7 0 2.6 0.7 4.5 3.2 4.5z"/>
			<path id="L" class="s2" d="m313.1 546.4c-4.9-1-3.3 5.6-3.6 10.1h-1.9l-0.1-11.7h1.9c0 0.7-0.1 1.8 0.1 2.4 0.4-1.7 1.4-3.1 3.6-2.6z"/>
			<path id="M" class="s2" d="m319.5 544.5c3.9 0 5.3 2.3 5.3 6.1 0.1 3.9-1.7 6.1-5.3 6.1-3.7 0-5.1-2.4-5.2-6.1q0-6.1 5.2-6.1zm0 10.8c2.7 0 3.3-2 3.3-4.7 0-2.6-0.5-4.6-3.2-4.6-2.7 0-3.3 2-3.3 4.6 0 2.7 0.6 4.6 3.2 4.7z"/>
			<path id="ah" class="s2" d="m332.4 556.5h-2.4l-4.2-11.7h2.1l3.3 10.1 3.5-10.1h2.1"/>
			<path id="J" class="s2" d="m338.9 547v-2.2h2.1v2.2zm0 9.5v-2.2h2.1v2.2z"/>
		</g>
		<g id="q">
			<path id="aD" class="s2" d="m309.9 572.2c0 2.6-1.4 4-3.7 4.4l4.4 6.6h-2.4l-4-6.4h-4.8v6.4h-2v-15.4c5.4 0.2 12.7-1.2 12.5 4.4zm-10.5 3c3.8-0.1 8.5 0.8 8.5-2.9 0-3.8-4.9-2.6-8.5-2.8z"/>
			<path id="M" class="s2" d="m317.7 571.2c3.8-0.1 5.3 2.3 5.3 6.1 0 3.9-1.7 6.1-5.3 6.1-3.7 0-5.2-2.4-5.2-6.1q0-6.1 5.2-6.1zm0 10.7c2.7 0.1 3.2-1.9 3.2-4.6 0-2.7-0.5-4.6-3.1-4.6-2.7 0-3.3 1.9-3.3 4.6 0 2.6 0.6 4.6 3.2 4.6z"/>
			<path id="U" class="s2" d="m325.4 583.2v-16.2h2v16.2z"/>
			<path id="O" class="s2" d="m334.9 571.2c3.9 0 5.4 2.6 5.2 6.5h-8.3c0 2.5 0.9 4.2 3.3 4.2 1.6 0.1 2.6-0.7 3-1.8l1.7 0.5c-0.7 1.8-2.3 2.8-4.7 2.8-3.6 0-5.5-2.3-5.4-6.2 0.1-3.7 1.6-6 5.2-6zm3.3 5c0.3-3.7-4.7-4.8-6-1.7-0.2 0.4-0.4 1-0.4 1.7z"/>
		</g>
		<path class="s4" d="m149.4 516.5l-0.8-0.5 33.1-44.2h1.2zm59.2-79l-9.7 12.9h-1.2l10.1-13.5z"/>
		<path class="s2" d="m208.5 436.8l0.4 0.3-0.3 0.4-0.8-0.6 0.4-0.5z"/>
		<path class="s4" d=""/>
		<path class="s4" d="m151.9 496.4l-2.3 19 17.7-7.5 0.3 0.9-19.1 8.2 2.5-20.7z"/>
		<g id="r">
			<path id="au" class="s7" d="m154 455.1c2.7 0.1 3.5 2 3.5 4.9 0 2.8-0.8 4.8-3.5 4.9-1.5 0-2.4-0.6-2.9-1.7v5.2h-1.6v-13.1h1.5l0.1 1.5c0.5-1 1.4-1.7 2.9-1.7zm-0.4 8.6c2 0 2.2-1.7 2.2-3.7 0-2-0.2-3.6-2.2-3.6-2 0-2.5 1.5-2.5 3.7 0 2.1 0.5 3.6 2.5 3.6z"/>
			<path id="ao" class="s7" d="m163.8 456.6c-3.8-0.7-2.6 4.5-2.8 8.1h-1.5l-0.1-9.4h1.5c0 0.6-0.1 1.4 0.1 1.9 0.3-1.3 1.1-2.4 2.8-2z"/>
			<path id="am" class="s7" d="m169 455.1c3.1 0 4.2 1.8 4.2 4.9 0.1 3.1-1.3 4.9-4.2 4.9-2.9 0-4.1-1.9-4.2-4.9q0-4.9 4.2-4.9zm0 8.6c2.2 0.1 2.6-1.5 2.6-3.7 0-2.1-0.4-3.7-2.5-3.7-2.1 0-2.6 1.6-2.6 3.7 0 2.1 0.5 3.7 2.5 3.7z"/>
			<path id="av" class="s7" d="m179.3 464.7h-1.9l-3.4-9.4h1.7l2.7 8.2 2.7-8.2h1.7"/>
			<path id="ac" class="s7" d="m184.5 457.1v-1.8h1.7v1.8zm0 7.6v-1.8h1.6v1.8z"/>
			<path id="ae" class="s7" d="m194.8 462.9c-0.8 1.1-1.6 2-3.4 2-1.8-0.1-2.9-1-2.9-2.8 0-3.2 3.1-3.1 6.2-3.1 0.2-1.8-0.4-2.7-2-2.7-1.2 0.1-2 0.3-2.1 1.5l-1.6-0.1c0.2-1.8 1.6-2.6 3.7-2.6 2.3 0 3.6 1 3.6 3.2v4c-0.1 1 0.3 1.6 1.4 1.4v0.9c-1.6 0.5-3-0.1-2.9-1.7zm-4.6-0.8c0 1 0.6 1.6 1.5 1.6 2.1-0.1 3.2-1.4 3-3.6-2.1 0.1-4.5-0.3-4.5 2z"/>
			<path id="al" class="s7" d="m206.4 455.3c-0.5 6.2 2 14.5-5.4 12.9-1.2-0.3-1.9-1-2.2-2.1l1.6-0.3c0.7 2.4 4.9 1.6 4.4-1.4v-1.4c-0.6 1-1.4 1.7-3 1.7-2.7 0-3.4-2-3.4-4.7 0-2.8 0.8-4.8 3.5-4.8 1.5-0.1 2.4 0.8 2.9 1.7 0.1-0.5 0-1.1 0.1-1.6zm-4.1 8.3c1.8 0 2.5-1.6 2.5-3.6 0-2.1-0.7-3.7-2.5-3.7-1.9 0-2.2 1.7-2.2 3.7 0 2 0.3 3.6 2.2 3.6z"/>
			<path id="ab" class="s7" d="m212.5 455.1c3.1 0 4.2 2.1 4.1 5.3h-6.6c0 1.9 0.7 3.3 2.6 3.3 1.3 0.1 2.1-0.6 2.4-1.4l1.4 0.4c-0.6 1.4-1.8 2.2-3.8 2.2-2.9 0-4.4-1.8-4.3-4.9 0-3.1 1.3-4.9 4.2-4.9zm2.6 4c0.3-2.9-3.8-3.8-4.8-1.4-0.2 0.4-0.3 0.9-0.3 1.4z"/>
			<path id="aC" class="s7" d="m223.2 455.1c4.4-0.2 2.6 5.7 3 9.6h-1.6v-6c0-1.5-0.4-2.4-1.9-2.3-3.6 0-2.2 5-2.5 8.3h-1.5l-0.1-9.4h1.5c0 0.5-0.1 1.2 0.1 1.6 0.5-1.1 1.4-1.7 3-1.8z"/>
			<path id="Y" class="s7" d="m230.2 462.4c-0.1 1.2 0.9 1.4 1.9 1.1v1.1c-1.6 0.5-3.5 0.3-3.5-1.9v-6.3h-1v-1.1h1.1l0.5-2.1h1v2.1h1.7v1.1h-1.7z"/>
		</g>
		<path class="s4" d="m277.2 514.3l-0.9 0.4-8.9-21.7h1zm-17.6-42.7h-1l-13.8-33.5 0.9-0.4z"/>
		<path class="s2" d="m245.7 437.8l-0.9 0.3-0.2-0.4 0.5-0.2 0.3-0.4z"/>
		<path class="s4" d=""/>
		<path class="s4" d="m279.9 494.7l-2.8 20.6-16.5-12.7 0.6-0.7 15.2 11.7 2.5-19z"/>
		<g id="s">
			<path id="au" class="s7" d="m234.7 476.3c2.7 0 3.5 2 3.5 4.8 0 2.9-0.8 4.9-3.5 5-1.5 0-2.4-0.7-3-1.7l0.1 5.2h-1.6v-13.1h1.5l0.1 1.5c0.5-1.1 1.4-1.7 2.9-1.7zm-0.4 8.6c2 0 2.2-1.7 2.2-3.7 0-2-0.3-3.6-2.2-3.7-2.1 0-2.5 1.6-2.5 3.8 0 2.1 0.5 3.6 2.5 3.6z"/>
			<path id="ao" class="s7" d="m244.5 477.8c-3.8-0.8-2.6 4.5-2.8 8.1h-1.6v-9.4h1.5c0 0.6-0.1 1.4 0.1 1.9 0.3-1.3 1.1-2.4 2.8-2z"/>
			<path id="am" class="s7" d="m249.7 476.3c3.1-0.1 4.2 1.8 4.2 4.9 0.1 3.1-1.3 4.9-4.2 4.9-3 0-4.1-1.9-4.2-4.9q0-4.9 4.2-4.9zm0 8.6c2.1 0 2.6-1.5 2.6-3.7 0-2.1-0.4-3.7-2.5-3.7-2.2 0-2.7 1.6-2.7 3.7 0 2.1 0.5 3.6 2.6 3.7z"/>
			<path id="av" class="s7" d="m260 485.9h-1.9l-3.4-9.4h1.7l2.6 8.1 2.8-8.1h1.7"/>
			<path id="ac" class="s7" d="m265.2 478.3v-1.8h1.6v1.8zm0 7.6v-1.8h1.7v1.8z"/>
			<path id="ao" class="s7" d="m274.1 477.8c-3.8-0.8-2.6 4.5-2.8 8.1h-1.6v-9.4h1.4c0.1 0.6 0 1.4 0.1 1.9 0.3-1.3 1.2-2.4 2.9-2z"/>
			<path id="am" class="s7" d="m279.3 476.3c3.1-0.1 4.2 1.8 4.2 4.9 0 3.1-1.3 4.9-4.3 4.9-2.9 0-4.1-1.9-4.1-4.9q0-4.9 4.2-4.9zm-0.1 8.6c2.2 0 2.7-1.5 2.7-3.7 0-2.1-0.4-3.7-2.6-3.7-2.1 0-2.6 1.6-2.6 3.7 0 2.1 0.5 3.6 2.5 3.7z"/>
			<path id="ay" class="s7" d="m285.4 485.9v-12.9h1.6v12.9z"/>
			<path id="ab" class="s7" d="m293.1 476.3c3.1 0 4.2 2.1 4.1 5.2h-6.7c0 2 0.7 3.3 2.7 3.4 1.3 0 2.1-0.6 2.4-1.4l1.4 0.4c-0.6 1.3-1.9 2.2-3.8 2.2-2.9 0-4.4-1.9-4.3-5 0-3 1.3-4.8 4.2-4.8zm2.5 4c0.3-3-3.7-3.8-4.8-1.4-0.1 0.4-0.3 0.9-0.3 1.4z"/>
		</g>
		<path class="s1" d="m831.2 563.8c0 30.6-37 55.3-82.7 55.3-45.7 0-82.7-24.7-82.7-55.3 0-30.6 37-55.3 82.7-55.3 45.7 0 82.7 24.7 82.7 55.3z"/>
		<g id="a">
			<path id="F" class="s2" d="m733.6 554.3c-0.9 1.3-1.9 2.5-4.2 2.4-2.2 0-3.6-1.3-3.6-3.5 0-3.9 3.9-3.9 7.8-3.9 0.1-2.1-0.6-3.3-2.6-3.3-1.5 0.1-2.5 0.4-2.6 1.9l-2-0.2c0.3-2.3 2-3.2 4.7-3.2 2.8 0 4.4 1.3 4.4 4v5c0 1.3 0.5 2 1.8 1.7v1.2c-2 0.6-3.8-0.1-3.7-2.1zm-5.7-1.1c0 1.3 0.7 2.1 2 2.1 2.5-0.2 3.8-1.8 3.7-4.6-2.7 0.1-5.7-0.3-5.7 2.5z"/>
			<path id="G" class="s2" d="m744.4 544.5c3.2 0 4.2 2.4 4.3 6.1 0 4-1.4 6.1-4.3 6.1-2 0-3.1-0.6-3.7-2.1l-0.1 1.9h-1.9v-16.1h2v6.2c0.6-1.4 1.7-2.1 3.7-2.1zm-0.5 10.8c2.4 0 2.7-2.1 2.7-4.7 0-2.4-0.3-4.6-2.7-4.5-2.6 0-3.2 1.9-3.2 4.7 0 2.6 0.6 4.5 3.2 4.5z"/>
			<path id="H" class="s2" d="m751.1 542.2v-1.8h2v1.8zm0 14.3v-11.7h1.9v11.7z"/>
			<path id="I" class="s2" d="m762.8 547.7c-0.2-2.1-5.3-2.4-5.4 0 1 3.2 7.1 0.7 7.4 5.5 0.2 4.8-9.3 4.6-9.7 0.5l1.7-0.3c0.3 2.2 6 2.8 6.1 0-0.6-3.5-7-0.9-7.3-5.6-0.3-3.5 5.1-3.8 7.5-2.5 0.8 0.4 1.3 1.1 1.5 2.1"/>
			<path id="J" class="s2" d="m767.6 547v-2.2h2.1v2.2zm0 9.5v-2.2h2.1v2.2z"/>
		</g>
		<g id="t">
			<path id="K" class="s2" d="m707.7 567.8c5.4 0.1 11.8-0.9 11.8 4.7 0 4.8-4.8 4.9-9.8 4.7v6h-2zm2 7.7c3.5 0 7.7 0.7 7.7-3.1 0-3.7-4.2-2.9-7.7-3z"/>
			<path id="L" class="s2" d="m727.7 573.1c-4.8-1-3.3 5.6-3.5 10.1h-2l-0.1-11.8h1.9c0 0.8-0.1 1.8 0.1 2.4 0.4-1.6 1.4-3 3.6-2.5z"/>
			<path id="M" class="s2" d="m734.2 571.2c3.8-0.1 5.2 2.3 5.2 6.1 0.1 3.9-1.6 6.1-5.3 6.1-3.6 0-5.1-2.4-5.2-6.1q0-6.1 5.3-6.1zm-0.1 10.7c2.7 0.1 3.3-1.9 3.3-4.6 0-2.7-0.5-4.6-3.2-4.6-2.6 0-3.2 1.9-3.2 4.6 0 2.6 0.6 4.6 3.1 4.6z"/>
			<path id="aj" class="s2" d="m751.3 571.4c-0.6 7.7 2.5 18.1-6.8 16.1-1.4-0.3-2.4-1.2-2.7-2.6l1.9-0.3c1 2.9 6.2 2 5.5-1.8v-1.8c-0.6 1.3-1.8 2.2-3.7 2.2-3.4 0-4.2-2.5-4.2-5.9 0-3.5 1-6 4.4-6.1 1.7 0 2.9 1 3.6 2.2 0.1-0.6 0-1.4 0.1-2zm-5.1 10.4c2.2 0 3.1-2 3.1-4.5 0-2.6-0.9-4.6-3.1-4.6-2.4 0-2.8 2.1-2.8 4.6 0 2.5 0.3 4.5 2.8 4.5z"/>
			<path id="L" class="s2" d="m759.7 573.1c-4.8-1-3.2 5.6-3.5 10.1h-2v-11.8h1.8c0.1 0.8 0 1.8 0.1 2.4 0.4-1.6 1.5-3 3.6-2.5z"/>
			<path id="F" class="s2" d="m768.7 580.9c-0.9 1.3-1.9 2.6-4.2 2.5-2.2-0.1-3.5-1.3-3.5-3.5-0.1-4 3.9-3.9 7.7-3.9 0.2-2.2-0.6-3.3-2.6-3.3-1.4 0-2.5 0.4-2.5 1.9l-2.1-0.2c0.3-2.3 2.1-3.2 4.7-3.2 2.8 0 4.5 1.2 4.5 3.9v5.1c-0.1 1.2 0.4 2 1.7 1.7v1.2c-1.9 0.6-3.8-0.1-3.7-2.2zm-5.7-1c0 1.2 0.7 2 2 2 2.5-0.2 3.9-1.8 3.7-4.5-2.7 0.1-5.7-0.4-5.7 2.5z"/>
			<path id="R" class="s2" d="m785.3 572.7c-4.1 0.2-2.3 6.5-2.7 10.5h-1.9v-7.5c0-1.8-0.3-3.1-2.1-3-4.1 0.3-2.4 6.4-2.8 10.5h-1.9v-11.8h1.8c0.1 0.6 0 1.5 0.1 2 0.7-2.7 6.1-3.1 6.6 0 0.7-1.3 1.7-2.2 3.6-2.2 5.3-0.1 2.9 7.3 3.4 12h-1.9v-7.5c0-1.8-0.3-3-2.2-3z"/>
		</g>
		<path class="s4" d="m704 515.6l-0.8 0.5-27.7-44.6h1.1zm-40.6-65.4h-1.1l-44.8-72.2 0.8-0.5z"/>
		<path class="s2" d="m618.3 377.5l-0.8 0.5-0.4-0.6 1-0.2z"/>
		<path class="s4" d=""/>
		<path class="s4" d="m704 516.6l-18.3-9.8 0.4-0.9 16.9 9.1-0.6-19.2h1z"/>
		<g id="u">
			<path id="af" class="s7" d="m627.3 457.4c-0.2-1.7-4.3-1.9-4.3 0 0.7 2.6 5.7 0.6 5.9 4.4 0.2 3.9-7.4 3.7-7.8 0.4l1.4-0.2c0.2 1.7 4.8 2.2 4.8 0-0.5-2.8-5.5-0.8-5.8-4.5-0.2-2.8 4.1-3.1 6-2.1 0.6 0.4 1.1 1 1.2 1.8"/>
			<path id="as" class="s7" d="m633.7 454.8c1.5 0 2.4 0.7 3 1.7l-0.1-5h1.6l0.1 12.9h-1.5c-0.1-0.5 0-1.1-0.2-1.5-0.5 1.1-1.4 1.7-2.9 1.7-2.6 0-3.4-1.9-3.4-4.8 0-3.3 1.1-5 3.4-5zm0.5 1.2c-2 0-2.3 1.7-2.3 3.7 0 2 0.3 3.7 2.2 3.7 2.1 0 2.5-1.6 2.5-3.8 0-2-0.4-3.6-2.4-3.6z"/>
			<path id="am" class="s7" d="m644.3 454.8c3.1 0 4.2 1.9 4.2 4.9 0.1 3.1-1.3 4.9-4.2 4.9-2.9 0-4.1-1.9-4.2-4.9q0-4.9 4.2-4.9zm0 8.6c2.1 0.1 2.6-1.5 2.6-3.7 0-2.1-0.4-3.7-2.5-3.7-2.1 0-2.6 1.6-2.6 3.7 0 2.2 0.5 3.7 2.5 3.7z"/>
			<path id="ac" class="s7" d="m650.9 456.8v-1.8h1.7v1.8zm0 7.6v-1.8h1.7v1.8z"/>
			<path id="Z" class="s7" d="m655.4 453v-1.5h1.6v1.5zm0 11.4v-9.4h1.5v9.4z"/>
			<path id="af" class="s7" d="m664.8 457.4c-0.2-1.7-4.3-1.9-4.3 0 0.7 2.6 5.7 0.6 5.8 4.4 0.2 3.9-7.4 3.7-7.7 0.4l1.4-0.2c0.2 1.7 4.8 2.2 4.8 0-0.5-2.8-5.6-0.8-5.8-4.5-0.2-2.8 4-3.1 6-2.1 0.6 0.4 1.1 1 1.2 1.8"/>
			<path id="at" class="s7" d="m668.5 452.2c4.3 0 9.4-0.8 9.4 3.7 0 3.8-3.8 3.9-7.8 3.7v4.8h-1.6zm1.6 6.2c2.8 0 6.1 0.5 6.1-2.5 0-2.9-3.3-2.3-6.1-2.3z"/>
			<path id="ae" class="s7" d="m685.8 462.6c-0.7 1.1-1.5 2.1-3.4 2-1.7 0-2.8-1-2.8-2.8-0.1-3.2 3.1-3.1 6.2-3.1 0.1-1.7-0.5-2.7-2.1-2.7-1.2 0.1-2 0.4-2 1.6l-1.7-0.2c0.3-1.8 1.7-2.6 3.8-2.6 2.2 0 3.5 1 3.5 3.2v4.1c0 0.9 0.4 1.5 1.4 1.3v1c-1.5 0.4-3-0.1-2.9-1.8zm-4.6-0.8c0 1 0.6 1.6 1.6 1.6 2-0.1 3.1-1.4 3-3.6-2.2 0.1-4.6-0.3-4.6 2z"/>
			<path id="ao" class="s7" d="m694.3 456.4c-3.8-0.8-2.6 4.5-2.8 8h-1.5l-0.1-9.4h1.5c0 0.6-0.1 1.5 0.1 2 0.3-1.4 1.1-2.5 2.8-2.1z"/>
			<path id="Y" class="s7" d="m697.5 462.1c-0.1 1.2 0.9 1.4 1.9 1.1v1.2c-1.6 0.5-3.5 0.2-3.5-1.9v-6.3h-1.1v-1.2h1.2l0.5-2.1h1v2.1h1.7v1.2h-1.7z"/>
			<path id="aE" class="s7" d="m706.4 452c4 0 6.1 2.3 6.1 6.3 0 3.9-2.2 6.3-6.1 6.3-4 0-6-2.4-6-6.3 0-4 2-6.3 6-6.3zm0 11.2c3.2 0 4.4-2 4.4-4.9 0-3-1.4-4.9-4.4-4.9-3 0-4.3 1.9-4.3 4.9 0 2.9 1.3 4.9 4.3 4.9z"/>
			<path id="az" class="s7" d="m718.3 452.9c-1.5-0.5-2 0.5-1.8 2.1h1.8v1.2h-1.8v8.2h-1.6v-8.2h-1.3v-1.2h1.3c-0.3-2.5 0.9-4 3.4-3.3z"/>
		</g>
		<path class="s9" d="m1020.5 453.1c0 30.6-37 55.4-82.7 55.4-45.7 0-82.7-24.8-82.7-55.4 0-30.5 37-55.3 82.7-55.3 45.7 0 82.7 24.8 82.7 55.3z"/>
		<g id="k">
			<path id="Q" class="s2" d="m919.1 442.9c-0.1 1.5 1.1 1.8 2.3 1.4v1.5c-2 0.6-4.3 0.3-4.3-2.4v-7.9h-1.3v-1.4h1.4l0.6-2.7h1.3v2.7h2.2v1.4h-2.2z"/>
			<path id="O" class="s2" d="m927.8 433.8c3.9 0 5.3 2.6 5.2 6.6h-8.4c0 2.5 0.9 4.1 3.3 4.2 1.6 0.1 2.7-0.8 3-1.8l1.8 0.5c-0.7 1.7-2.3 2.8-4.8 2.8-3.6 0-5.4-2.3-5.4-6.2 0.1-3.8 1.7-6.1 5.3-6.1zm3.2 5c0.4-3.7-4.7-4.7-6-1.7-0.2 0.5-0.4 1.1-0.4 1.7z"/>
			<path id="L" class="s2" d="m941 435.8c-4.8-1-3.3 5.6-3.5 10h-2l-0.1-11.7h1.9c0.1 0.7-0.1 1.8 0.1 2.4 0.4-1.7 1.4-3 3.6-2.5z"/>
			<path id="W" class="s2" d="m948.5 433.8c5.5-0.2 3.3 7.2 3.7 12h-1.9v-7.4c0-2-0.5-3.1-2.4-3-4.5 0.1-2.8 6.3-3.1 10.4h-1.9l-0.1-11.7h1.8c0.1 0.6 0 1.5 0.2 2 0.6-1.4 1.8-2.2 3.7-2.3z"/>
			<path id="J" class="s2" d="m955.7 436.3v-2.2h2.1v2.2zm0 9.5v-2.2h2.1v2.2z"/>
		</g>
		<g id="v">
			<path id="aF" class="s2" d="m901.3 457.2c7.2-0.4 13.3 0.5 13.1 7.5-0.2 4.8-2.7 7.8-7.5 7.8h-5.6zm2 13.6c5.5 0.5 9-1 9-6.1 0-5.1-3.7-6.2-9-5.8z"/>
			<path id="F" class="s2" d="m924.1 470.3c-0.9 1.3-1.9 2.5-4.2 2.4-2.2 0-3.6-1.3-3.6-3.5 0-3.9 3.9-3.9 7.7-3.9 0.2-2.1-0.5-3.3-2.5-3.3-1.5 0.1-2.5 0.4-2.6 1.9l-2-0.2c0.3-2.3 2-3.2 4.7-3.2 2.7 0 4.4 1.3 4.4 4v5c-0.1 1.3 0.4 2 1.7 1.7v1.2c-1.9 0.6-3.7-0.1-3.6-2.1zm-5.8-1.1c0 1.3 0.8 2.1 2 2.1 2.6-0.2 3.9-1.8 3.7-4.6-2.6 0.1-5.7-0.3-5.7 2.5z"/>
			<path id="Q" class="s2" d="m931.4 469.6c-0.1 1.5 1.1 1.8 2.3 1.3v1.5c-2 0.6-4.3 0.3-4.3-2.4v-7.8h-1.4v-1.4h1.5l0.6-2.7h1.3v2.7h2.1v1.4h-2.1z"/>
			<path id="F" class="s2" d="m942.6 470.3c-0.9 1.3-1.9 2.5-4.2 2.4-2.2 0-3.6-1.3-3.6-3.5 0-3.9 3.9-3.9 7.7-3.9 0.2-2.1-0.5-3.3-2.5-3.3-1.5 0.1-2.5 0.4-2.6 1.9l-2-0.2c0.3-2.3 2-3.2 4.7-3.2 2.8 0 4.4 1.3 4.4 4v5c0 1.3 0.5 2 1.8 1.7v1.2c-2 0.6-3.8-0.1-3.7-2.1zm-5.7-1.1c0 1.3 0.7 2.1 1.9 2.1 2.6-0.2 3.9-1.8 3.7-4.6-2.6 0.1-5.6-0.3-5.6 2.5z"/>
			<path id="I" class="s2" d="m954.6 463.7c-0.2-2.1-5.3-2.4-5.4 0 0.9 3.2 7.1 0.7 7.4 5.5 0.2 4.8-9.3 4.6-9.7 0.5l1.7-0.3c0.2 2.2 6 2.8 6 0-0.6-3.5-6.9-0.9-7.2-5.6-0.3-3.5 5-3.8 7.5-2.5 0.7 0.4 1.3 1.1 1.5 2.1"/>
			<path id="O" class="s2" d="m963.5 460.5c3.9 0 5.3 2.6 5.2 6.6h-8.3c0 2.4 0.9 4.1 3.3 4.2 1.6 0 2.6-0.8 3-1.8l1.7 0.5c-0.7 1.7-2.3 2.7-4.7 2.7-3.6 0-5.5-2.2-5.4-6.1 0-3.8 1.6-6.1 5.2-6.1zm3.2 5c0.4-3.7-4.6-4.7-5.9-1.7-0.2 0.4-0.4 1-0.4 1.7z"/>
			<path id="Q" class="s2" d="m973.3 469.6c-0.1 1.5 1.2 1.8 2.4 1.3v1.5c-2 0.6-4.3 0.3-4.3-2.4v-7.8h-1.4v-1.4h1.5l0.6-2.7h1.2v2.7h2.2v1.4h-2.2z"/>
		</g>
		<path class="s4" d="m854 452.3l-0.4 0.8-75.3-37.7h2.1zm-116.3-58.3h-2.1l-74-37.1 0.4-0.8z"/>
		<path class="s2" d="m662.1 356.1l-0.4 0.9-0.6-0.3 0.7-0.7z"/>
		<path class="s4" d=""/>
		<path class="s4" d="m854.6 453.1l-20.8 1.2-0.1-0.9 19.2-1.2-10.6-16 0.8-0.5z"/>
		<g id="w">
			<path id="au" class="s7" d="m704 398.7c2.7 0 3.5 2 3.5 4.8 0 2.8-0.8 4.9-3.5 5-1.5 0-2.4-0.7-2.9-1.7v5.2h-1.6v-13.1h1.5l0.1 1.5c0.5-1.1 1.4-1.7 2.9-1.7zm-0.4 8.6c2 0 2.2-1.7 2.2-3.7 0-2-0.3-3.6-2.2-3.7-2.1 0-2.5 1.6-2.5 3.8 0 2.1 0.5 3.6 2.5 3.6z"/>
			<path id="ao" class="s7" d="m713.8 400.2c-3.8-0.8-2.6 4.5-2.8 8.1h-1.6v-9.4h1.5c0 0.6-0.1 1.4 0.1 1.9 0.3-1.3 1.1-2.4 2.8-2z"/>
			<path id="am" class="s7" d="m719 398.7c3.1-0.1 4.2 1.8 4.2 4.9 0.1 3.1-1.3 4.9-4.2 4.9-2.9 0-4.1-2-4.2-4.9q0-4.9 4.2-4.9zm0 8.6c2.1 0 2.6-1.5 2.6-3.7 0-2.1-0.4-3.7-2.5-3.7-2.1 0-2.6 1.6-2.6 3.7 0 2.1 0.5 3.6 2.5 3.7z"/>
			<path id="av" class="s7" d="m729.3 408.3h-1.9l-3.4-9.4h1.7l2.7 8.1 2.7-8.1h1.7"/>
			<path id="ac" class="s7" d="m734.5 400.7v-1.8h1.7v1.8zm0 7.6v-1.8h1.6v1.8z"/>
			<path id="al" class="s7" d="m746.5 398.9c-0.5 6.2 2.1 14.5-5.4 12.9-1.1-0.3-1.9-1-2.2-2.1l1.6-0.3c0.7 2.3 4.9 1.6 4.4-1.4v-1.5c-0.5 1.1-1.4 1.8-3 1.8-2.7 0-3.4-2-3.4-4.7 0-2.8 0.8-4.8 3.5-4.9 1.5 0 2.4 0.8 3 1.8 0-0.5 0-1.2 0.1-1.6zm-4.1 8.3c1.7 0 2.4-1.6 2.4-3.6 0-2.1-0.7-3.7-2.4-3.7-2 0-2.3 1.7-2.3 3.7 0 2 0.3 3.6 2.3 3.6z"/>
			<path id="ab" class="s7" d="m752.6 398.7c3.1 0 4.3 2.1 4.2 5.2h-6.7c0 2 0.7 3.3 2.6 3.4 1.3 0 2.1-0.6 2.4-1.4l1.4 0.3c-0.5 1.4-1.8 2.3-3.8 2.3-2.9 0-4.3-1.9-4.3-5 0.1-3 1.3-4.8 4.2-4.8zm2.6 4c0.3-3-3.8-3.8-4.8-1.4-0.2 0.4-0.3 0.8-0.3 1.4z"/>
			<path id="aC" class="s7" d="m763.3 398.7c4.4-0.2 2.6 5.7 3 9.6h-1.6v-6c0-1.5-0.4-2.4-1.9-2.4-3.6 0.1-2.2 5.1-2.4 8.4h-1.6l-0.1-9.4h1.5c0.1 0.5 0 1.2 0.1 1.6 0.6-1.1 1.4-1.8 3-1.8z"/>
			<path id="ab" class="s7" d="m772.4 398.7c3.1 0 4.2 2.1 4.1 5.2h-6.7c0 2 0.7 3.3 2.7 3.4 1.2 0 2.1-0.6 2.4-1.4l1.4 0.3c-0.6 1.4-1.9 2.3-3.8 2.3-2.9 0-4.4-1.9-4.3-5 0-3 1.2-4.8 4.2-4.8zm2.5 4c0.3-3-3.7-3.8-4.8-1.4-0.1 0.4-0.3 0.8-0.3 1.4z"/>
			<path id="ao" class="s7" d="m782.9 400.2c-3.8-0.8-2.6 4.5-2.8 8.1h-1.6v-9.4h1.5c0 0.6-0.1 1.4 0.1 1.9 0.3-1.3 1.1-2.4 2.8-2z"/>
			<path id="ae" class="s7" d="m790.1 406.5c-0.7 1-1.5 2-3.3 2-1.8-0.1-2.9-1.1-2.9-2.8 0-3.2 3.1-3.2 6.2-3.2 0.1-1.7-0.5-2.6-2-2.6-1.2 0-2.1 0.3-2.1 1.5l-1.6-0.1c0.2-1.9 1.6-2.6 3.7-2.6 2.2 0 3.6 1 3.6 3.2v4c-0.1 1 0.3 1.6 1.4 1.3v1c-1.6 0.5-3.1-0.1-3-1.7zm-4.6-0.8c0 0.9 0.6 1.6 1.6 1.6 2-0.2 3.1-1.4 3-3.7-2.1 0.1-4.6-0.2-4.6 2.1z"/>
			<path id="Y" class="s7" d="m796 406c-0.1 1.1 0.9 1.4 1.8 1v1.2c-1.6 0.5-3.4 0.3-3.4-1.9v-6.3h-1.1v-1.1h1.2l0.4-2.1h1.1v2.1h1.7v1.1h-1.7z"/>
			<path id="ab" class="s7" d="m802.9 398.7c3.1 0 4.3 2.1 4.2 5.2h-6.7c0 2 0.7 3.3 2.6 3.4 1.3 0 2.1-0.6 2.4-1.4l1.4 0.3c-0.5 1.4-1.8 2.3-3.8 2.3-2.8 0-4.3-1.9-4.3-5 0.1-3 1.3-4.8 4.2-4.8zm2.6 4c0.3-3-3.8-3.8-4.8-1.4-0.1 0.4-0.3 0.8-0.3 1.4z"/>
			<path id="as" class="s7" d="m812.1 398.7c1.5 0 2.3 0.6 2.9 1.6v-4.9h1.6v12.9h-1.5c-0.1-0.5 0-1.2-0.1-1.6-0.5 1.2-1.4 1.8-2.9 1.8-2.7 0-3.4-2-3.5-4.9 0-3.2 1.1-4.9 3.5-4.9zm0.4 1.2c-2 0-2.3 1.7-2.3 3.7 0 2 0.3 3.6 2.3 3.6 2 0 2.5-1.5 2.5-3.7 0-2.1-0.5-3.7-2.5-3.6z"/>
		</g>
		<path class="s4" d="m536.9 282.5l-0.8 0.6-44.2-51.7h1.2zm-135.1-157.8h-1.2l-68-79.4 0.7-0.6z"/>
		<path class="s2" d="m537.2 282.9l-0.8 0.5-0.3-0.3 0.8-0.6z"/>
		<path class="s4" d=""/>
		<path class="s4" d="m352 51.3l-0.3 0.9-18.1-6.4 3.5 18.9-0.9 0.2-3.9-20.5z"/>
		<g id="x">
			<path id="af" class="s7" d="m414.5 131.9c-0.1-1.7-4.2-1.9-4.3 0 0.7 2.6 5.7 0.6 5.9 4.4 0.2 3.9-7.4 3.7-7.8 0.4l1.4-0.2c0.2 1.8 4.8 2.2 4.9 0-0.5-2.8-5.6-0.8-5.9-4.5-0.2-2.8 4.1-3.1 6.1-2 0.5 0.3 1 0.9 1.1 1.7"/>
			<path id="as" class="s7" d="m420.9 129.4c1.6 0 2.4 0.6 3 1.6l-0.1-4.9h1.6l0.1 12.8h-1.5c-0.1-0.5 0-1.1-0.2-1.5-0.5 1.1-1.3 1.7-2.9 1.7-2.6 0-3.4-1.9-3.4-4.8 0-3.3 1.1-4.9 3.4-4.9zm0.5 1.1c-2 0-2.3 1.7-2.3 3.8 0 1.9 0.3 3.6 2.2 3.6 2.1 0 2.5-1.6 2.5-3.7 0-2.1-0.4-3.7-2.4-3.7z"/>
			<path id="am" class="s7" d="m431.5 129.4c3.1-0.1 4.2 1.8 4.2 4.9 0.1 3.1-1.3 4.8-4.2 4.8-2.9 0-4.1-1.9-4.2-4.8q0-4.9 4.2-4.9zm0 8.6c2.2 0 2.6-1.6 2.6-3.7 0-2.2-0.4-3.8-2.5-3.8-2.1 0-2.6 1.6-2.6 3.8 0 2.1 0.5 3.6 2.5 3.7z"/>
			<path id="ac" class="s7" d="m438.1 131.3v-1.7h1.7v1.7zm0 7.6v-1.7h1.7v1.7z"/>
			<path id="aC" class="s7" d="m447.2 129.4c4.4-0.2 2.6 5.7 3 9.5h-1.6v-5.9c0-1.6-0.4-2.5-1.9-2.4-3.6 0.1-2.2 5-2.5 8.3h-1.5l-0.1-9.3h1.5c0 0.5-0.1 1.1 0.1 1.5 0.5-1 1.4-1.7 3-1.7z"/>
			<path id="ae" class="s7" d="m458.3 137.2c-0.8 1-1.6 2-3.4 1.9-1.8 0-2.9-1-2.9-2.8 0-3.1 3.1-3.1 6.2-3.1 0.2-1.7-0.4-2.7-2-2.7-1.2 0.1-2 0.4-2.1 1.6l-1.6-0.2c0.2-1.8 1.6-2.5 3.7-2.5 2.3 0 3.6 1 3.6 3.1v4.1c-0.1 1 0.3 1.6 1.4 1.3v1c-1.6 0.4-3-0.1-2.9-1.7zm-4.6-0.9c0 1 0.6 1.7 1.5 1.7 2.1-0.2 3.2-1.5 3-3.7-2.1 0.1-4.5-0.2-4.5 2z"/>
			<path id="aa" class="s7" d="m471.5 130.6c-3.3 0.1-1.8 5.2-2.1 8.3h-1.6v-5.9c0-1.5-0.2-2.5-1.7-2.4-3.3 0.2-1.9 5.1-2.2 8.3h-1.5v-9.3h1.4c0.1 0.5 0 1.1 0.1 1.5 0.5-2.1 4.9-2.4 5.3 0 0.6-1 1.4-1.7 2.9-1.7 4.2-0.1 2.3 5.8 2.7 9.5h-1.5v-5.9c0-1.5-0.3-2.5-1.8-2.4z"/>
			<path id="ab" class="s7" d="m480.9 129.4c3.1 0 4.2 2 4.1 5.2h-6.6c0 2 0.6 3.3 2.6 3.4 1.3 0 2.1-0.6 2.4-1.5l1.4 0.4c-0.6 1.4-1.9 2.2-3.8 2.2-2.9 0-4.4-1.8-4.3-4.9 0-3 1.3-4.8 4.2-4.8zm2.5 4c0.3-3-3.7-3.8-4.7-1.4-0.2 0.3-0.3 0.8-0.3 1.4z"/>
		</g>
		<g id="z">
			<path id="af" class="s7" d="m393.8 174.5c-0.1-1.6-4.2-1.8-4.3 0 0.8 2.7 5.7 0.6 5.9 4.5 0.2 3.8-7.4 3.6-7.8 0.4l1.4-0.3c0.2 1.8 4.8 2.3 4.9 0-0.5-2.7-5.6-0.7-5.9-4.4-0.2-2.8 4.1-3.1 6.1-2.1 0.6 0.4 1 1 1.1 1.8"/>
			<path id="as" class="s7" d="m400.2 172c1.6 0 2.4 0.7 3 1.7l-0.1-5h1.6l0.1 12.9h-1.5c-0.1-0.5 0-1.1-0.2-1.5-0.4 1.1-1.3 1.7-2.9 1.7-2.6 0-3.4-1.9-3.4-4.8 0-3.3 1.1-5 3.4-5zm0.5 1.2c-2 0-2.3 1.7-2.3 3.7 0 2 0.3 3.7 2.2 3.7 2.1 0 2.5-1.6 2.5-3.8 0-2.1-0.4-3.6-2.4-3.6z"/>
			<path id="am" class="s7" d="m410.8 172c3.1 0 4.2 1.9 4.2 4.9 0.1 3.1-1.3 4.9-4.2 4.9-2.9 0-4.1-1.9-4.1-4.9q-0.1-4.9 4.1-4.9zm0 8.6c2.2 0.1 2.6-1.5 2.6-3.7 0-2.1-0.4-3.7-2.5-3.7-2.1 0-2.6 1.6-2.6 3.7 0 2.1 0.5 3.7 2.5 3.7z"/>
			<path id="ac" class="s7" d="m417.4 174v-1.8h1.7v1.8zm0 7.6v-1.8h1.7v1.8z"/>
			<path id="as" class="s7" d="m424.9 172c1.6 0 2.4 0.7 3 1.7l-0.1-5h1.6l0.1 12.9h-1.5c-0.1-0.5 0-1.1-0.2-1.5-0.5 1.1-1.3 1.7-2.9 1.7-2.6 0-3.4-1.9-3.4-4.8 0-3.3 1.1-5 3.4-5zm0.5 1.2c-2 0-2.3 1.7-2.3 3.7 0 2 0.3 3.7 2.2 3.7 2.1 0 2.5-1.6 2.5-3.8 0-2.1-0.4-3.6-2.4-3.6z"/>
			<path id="ab" class="s7" d="m435.5 172c3.2 0 4.3 2.1 4.2 5.3h-6.7c0 1.9 0.7 3.3 2.6 3.3 1.3 0.1 2.2-0.6 2.5-1.4l1.3 0.4c-0.5 1.4-1.8 2.2-3.8 2.2-2.8 0-4.3-1.8-4.3-4.9 0.1-3 1.3-4.9 4.2-4.9zm2.6 4c0.3-2.9-3.7-3.8-4.8-1.4-0.1 0.4-0.3 0.9-0.3 1.4z"/>
			<path id="af" class="s7" d="m447.1 174.5c-0.1-1.6-4.2-1.8-4.3 0 0.8 2.7 5.7 0.6 5.9 4.5 0.2 3.8-7.4 3.6-7.7 0.4l1.4-0.3c0.2 1.8 4.7 2.3 4.8 0-0.5-2.7-5.6-0.7-5.8-4.4-0.2-2.8 4-3.1 6-2.1 0.6 0.4 1 1 1.2 1.8"/>
			<path id="aB" class="s7" d="m454.1 173.3c-2 0-2.4 1.6-2.4 3.6 0 1.9 0.5 3.7 2.4 3.7 1.2 0 2-0.7 2.1-1.9l1.6 0.1c-0.3 1.8-1.5 3-3.6 3-3 0-3.8-2-4.1-4.9-0.5-4.6 5-6.5 7.3-3.1 0.2 0.3 0.2 0.6 0.3 1l-1.6 0.2c-0.2-1-0.8-1.7-2-1.7z"/>
			<path id="ao" class="s7" d="m463.9 173.6c-3.9-0.8-2.6 4.5-2.8 8h-1.6l-0.1-9.4h1.5c0.1 0.6 0 1.5 0.1 2 0.3-1.4 1.2-2.5 2.9-2.1z"/>
			<path id="Z" class="s7" d="m465.3 170.2v-1.5h1.6v1.5zm0 11.4v-9.4h1.6v9.4z"/>
			<path id="au" class="s7" d="m473.7 172c2.7 0.1 3.5 2.1 3.5 4.9 0 2.8-0.8 4.8-3.5 4.9-1.5 0-2.4-0.6-2.9-1.7v5.2h-1.6v-13.1h1.5l0.1 1.5c0.5-1 1.4-1.7 2.9-1.7zm-0.4 8.6c2 0 2.2-1.7 2.2-3.7 0-2-0.3-3.6-2.2-3.6-2.1 0-2.5 1.5-2.5 3.7 0 2.1 0.5 3.6 2.5 3.6z"/>
			<path id="Y" class="s7" d="m480.8 179.3c-0.1 1.2 0.9 1.4 1.9 1.1v1.2c-1.6 0.5-3.5 0.2-3.5-2v-6.2h-1v-1.2h1.1l0.5-2.1h1v2.1h1.8v1.2h-1.8z"/>
			<path id="Z" class="s7" d="m484 170.2v-1.5h1.6v1.5zm0 11.4v-9.4h1.6v9.4z"/>
			<path id="am" class="s7" d="m491.7 172c3.1 0 4.2 1.9 4.2 4.9 0 3.1-1.3 4.9-4.3 4.9-2.9 0-4.1-1.9-4.1-4.9q0-4.9 4.2-4.9zm-0.1 8.6c2.2 0.1 2.7-1.5 2.7-3.7 0-2.1-0.4-3.7-2.6-3.7-2.1 0-2.6 1.6-2.6 3.7 0 2.1 0.5 3.7 2.5 3.7z"/>
			<path id="aC" class="s7" d="m502.4 172c4.4-0.2 2.6 5.8 3 9.6h-1.6v-6c0-1.5-0.4-2.4-1.9-2.3-3.6 0.1-2.2 5-2.5 8.3h-1.5l-0.1-9.4h1.5c0 0.5-0.1 1.2 0.1 1.6 0.5-1.1 1.4-1.7 3-1.8z"/>
		</g>
		<g id="A">
			<path id="ae" class="s7" d="m403 222.5c-0.8 1-1.6 2-3.4 2-1.8-0.1-2.8-1.1-2.8-2.8-0.1-3.2 3.1-3.2 6.1-3.2 0.2-1.7-0.4-2.6-2-2.6-1.2 0-2 0.3-2.1 1.5l-1.6-0.1c0.2-1.9 1.6-2.6 3.7-2.6 2.3 0 3.6 1 3.6 3.2v4c0 1 0.3 1.6 1.4 1.3v1c-1.5 0.5-3-0.1-2.9-1.7zm-4.6-0.8c0 0.9 0.6 1.6 1.6 1.6 2-0.2 3.1-1.4 2.9-3.7-2.1 0.1-4.5-0.2-4.5 2.1z"/>
			<path id="aG" class="s7" d="m411.6 214.7c2.6 0 3.4 1.9 3.4 4.8 0 3.3-1.1 5-3.4 5-1.6-0.1-2.5-0.6-2.9-1.7l-0.1 1.5h-1.6l0.1-12.9h1.6v5c0.4-1.2 1.3-1.7 2.9-1.7zm-0.4 8.6c1.9 0 2.2-1.7 2.2-3.7 0-2-0.3-3.7-2.2-3.7-2.1 0-2.5 1.6-2.5 3.8 0 2.1 0.4 3.6 2.5 3.6z"/>
			<path id="Z" class="s7" d="m416.9 212.9v-1.5h1.6v1.5zm0 11.4v-9.4h1.6v9.4z"/>
			<path id="af" class="s7" d="m426.3 217.2c-0.1-1.7-4.2-1.9-4.3 0 0.8 2.6 5.7 0.6 5.9 4.5 0.2 3.8-7.4 3.6-7.7 0.4l1.3-0.3c0.2 1.8 4.8 2.2 4.9 0-0.5-2.8-5.6-0.7-5.8-4.4-0.2-2.9 4-3.1 6-2.1 0.6 0.3 1 0.9 1.2 1.7"/>
			<path id="ac" class="s7" d="m430.2 216.7v-1.8h1.7v1.8zm0 7.6v-1.8h1.6v1.8z"/>
			<path id="au" class="s7" d="m439.2 214.7c2.7 0 3.4 2 3.4 4.8 0 2.9-0.8 4.9-3.4 5-1.6 0-2.4-0.7-3-1.7l0.1 5.2h-1.6l-0.1-13.1h1.6l0.1 1.5c0.5-1.1 1.3-1.7 2.9-1.7zm-0.4 8.6c2 0 2.2-1.7 2.2-3.7 0-2-0.3-3.6-2.2-3.7-2.1 0-2.5 1.6-2.5 3.8 0 2.1 0.5 3.6 2.5 3.6z"/>
			<path id="ax" class="s7" d="m447.5 224.5c-4.4 0.2-2.7-5.8-3-9.6h1.6v5.9c0 1.6 0.3 2.5 1.9 2.4 3.6-0.1 2.2-4.9 2.5-8.3h1.5l0.1 9.4h-1.5c-0.1-0.5 0-1.3-0.1-1.7-0.6 1.1-1.4 1.8-3 1.9z"/>
			<path id="ao" class="s7" d="m458.9 216.2c-3.9-0.8-2.6 4.5-2.8 8.1h-1.6l-0.1-9.4h1.5c0.1 0.6 0 1.4 0.1 1.9 0.3-1.3 1.1-2.4 2.9-2z"/>
			<path id="au" class="s7" d="m464.8 214.7c2.7 0 3.5 2 3.5 4.8 0 2.9-0.8 4.9-3.5 5-1.5 0-2.4-0.7-3-1.7l0.1 5.2h-1.6v-13.1h1.5l0.1 1.5c0.5-1.1 1.4-1.7 2.9-1.7zm-0.4 8.6c2 0 2.2-1.7 2.2-3.7 0-2-0.3-3.6-2.2-3.7-2.1 0-2.5 1.6-2.5 3.8 0 2.1 0.5 3.6 2.5 3.6z"/>
			<path id="am" class="s7" d="m473.9 214.7c3.1-0.1 4.2 1.8 4.2 4.9 0.1 3.1-1.3 4.9-4.2 4.9-2.9 0-4.1-2-4.2-4.9q0-4.9 4.2-4.9zm0 8.6c2.2 0 2.6-1.5 2.6-3.7 0-2.1-0.4-3.7-2.5-3.7-2.1 0-2.6 1.6-2.6 3.7 0 2.1 0.5 3.6 2.5 3.7z"/>
			<path id="af" class="s7" d="m485.5 217.2c-0.1-1.7-4.2-1.9-4.3 0 0.8 2.6 5.7 0.6 5.9 4.5 0.2 3.8-7.4 3.6-7.7 0.4l1.4-0.3c0.1 1.8 4.7 2.2 4.8 0-0.5-2.8-5.6-0.7-5.8-4.4-0.2-2.9 4-3.1 6-2.1 0.6 0.3 1 0.9 1.2 1.7"/>
			<path id="ab" class="s7" d="m492.7 214.7c3.1 0 4.2 2.1 4.1 5.2h-6.6c0 2 0.7 3.3 2.6 3.4 1.3 0 2.1-0.6 2.4-1.4l1.4 0.4c-0.5 1.3-1.8 2.2-3.8 2.2-2.9 0-4.3-1.9-4.3-5 0.1-3 1.3-4.8 4.2-4.8zm2.6 4c0.3-3-3.8-3.8-4.8-1.4-0.2 0.4-0.3 0.9-0.3 1.4z"/>
		</g>
		<path class="s3" d="m166.3 26.5q0-1.2 0.5-2.3 0.5-1.1 1.3-1.9 0.8-0.9 1.9-1.3 1.1-0.5 2.3-0.5h153.5q1.2 0 2.3 0.5 1.1 0.4 1.9 1.3 0.9 0.8 1.3 1.9 0.5 1.1 0.5 2.3v35.6q0 1.2-0.5 2.3-0.4 1.1-1.3 2-0.8 0.8-1.9 1.3-1.1 0.4-2.3 0.4h-153.5q-1.2 0-2.3-0.4-1.1-0.5-1.9-1.3-0.8-0.9-1.3-2-0.5-1.1-0.5-2.3z"/>
		<g>
			<g id="B">
				<path id="aH" class="s2" d="m210.6 48l-3.2-4.8-3.2 4.8h-2.1l4.2-6-4-5.7h2.2l2.9 4.6 2.9-4.6h2.2l-4 5.7 4.2 6z"/>
				<path id="I" class="s2" d="m221.3 39.2c-0.2-2.1-5.3-2.3-5.4 0 1 3.3 7.1 0.7 7.4 5.6 0.2 4.8-9.3 4.5-9.7 0.4l1.7-0.3c0.3 2.3 6 2.8 6.1 0-0.6-3.4-7-0.9-7.3-5.5-0.3-3.5 5.1-3.9 7.5-2.6 0.8 0.4 1.3 1.2 1.5 2.2"/>
				<path id="aI" class="s2" d="m229.3 36.1c2 0 3 0.8 3.7 2v-6.2h2v16.1h-1.8c-0.2-0.6 0-1.4-0.2-1.9-0.6 1.4-1.7 2.2-3.7 2.2-3.2 0-4.2-2.4-4.3-6.1 0-4 1.4-6.1 4.3-6.1zm0.6 1.4c-2.5 0-2.8 2.1-2.8 4.7 0 2.4 0.3 4.5 2.7 4.5 2.6 0 3.2-1.9 3.2-4.7 0-2.6-0.6-4.5-3.1-4.5z"/>
				<path id="J" class="s2" d="m238.5 38.5v-2.2h2.1v2.2zm0 9.5v-2.2h2.1v2.2z"/>
				<path id="I" class="s2" d="m250.9 39.2c-0.1-2.1-5.3-2.3-5.3 0 0.9 3.3 7.1 0.7 7.3 5.6 0.3 4.8-9.2 4.5-9.7 0.4l1.8-0.3c0.2 2.3 5.9 2.8 6 0-0.6-3.4-7-0.9-7.3-5.5-0.2-3.5 5.1-3.9 7.6-2.6 0.7 0.4 1.3 1.2 1.4 2.2"/>
				<path id="Q" class="s2" d="m257.4 45.1c-0.2 1.5 1.1 1.8 2.3 1.4v1.5c-2 0.6-4.3 0.3-4.3-2.4v-7.9h-1.4v-1.4h1.5l0.6-2.7h1.3v2.7h2.1v1.4h-2.1z"/>
				<path id="L" class="s2" d="m266.9 38c-4.8-1-3.2 5.6-3.5 10h-2v-11.7h1.8c0.1 0.7 0 1.8 0.2 2.4 0.3-1.7 1.4-3 3.5-2.5z"/>
				<path id="H" class="s2" d="m268.7 33.8v-1.9h2v1.9zm0 14.2v-11.7h2v11.7z"/>
				<path id="W" class="s2" d="m279.3 36.1c5.5-0.3 3.3 7.1 3.7 11.9h-1.9v-7.4c0-2-0.5-3.1-2.4-3-4.5 0.1-2.8 6.3-3.1 10.4h-1.9l-0.1-11.7h1.9c0 0.6-0.1 1.5 0.1 2 0.7-1.4 1.8-2.2 3.7-2.2z"/>
				<path id="aj" class="s2" d="m295.4 36.3c-0.6 7.7 2.5 18.1-6.8 16.1-1.4-0.4-2.3-1.2-2.7-2.6l2-0.4c0.9 2.9 6.1 2 5.5-1.7v-1.8c-0.7 1.3-1.8 2.2-3.8 2.2-3.3 0-4.2-2.5-4.2-5.9 0-3.5 1-6 4.4-6.1 1.8 0 2.9 1 3.6 2.2 0.1-0.6 0-1.4 0.1-2zm-5.1 10.4c2.2 0 3.1-2 3.1-4.5 0-2.6-0.9-4.7-3.1-4.7-2.4 0-2.8 2.1-2.8 4.7 0 2.5 0.3 4.5 2.8 4.5z"/>
			</g>
		</g>
		<path class="s3" d="m264.3 220.3c0 30.6-37 55.3-82.6 55.3-45.7 0-82.7-24.7-82.7-55.3 0-30.5 37-55.3 82.7-55.3 45.6 0 82.6 24.7 82.6 55.3z"/>
		<g>
			<g id="C">
				<path id="I" class="s2" d="m163.9 204.2c-0.2-2.1-5.3-2.4-5.4 0 1 3.3 7.1 0.7 7.4 5.5 0.2 4.9-9.3 4.6-9.7 0.5l1.7-0.3c0.3 2.2 6 2.8 6.1 0-0.6-3.4-7-0.9-7.3-5.5-0.3-3.6 5.1-3.9 7.5-2.6 0.8 0.4 1.3 1.1 1.5 2.1"/>
				<path id="aJ" class="s2" d="m175.5 213l-3.9-5.4-1.5 1.2v4.2h-1.9v-16.1h1.9v10.1l5.2-5.7h2.3l-4.8 5 5.1 6.7z"/>
				<path id="M" class="s2" d="m184 201c3.8 0 5.2 2.3 5.2 6.1 0.1 3.9-1.6 6.2-5.3 6.2-3.6 0-5.1-2.5-5.2-6.2q0-6.1 5.3-6.1zm-0.1 10.8c2.7 0 3.3-1.9 3.3-4.7 0-2.6-0.5-4.6-3.2-4.6-2.6 0-3.2 2-3.2 4.6 0 2.7 0.6 4.6 3.1 4.7z"/>
				<path id="I" class="s2" d="m198.5 204.2c-0.2-2.1-5.3-2.4-5.4 0 0.9 3.3 7.1 0.7 7.4 5.5 0.2 4.9-9.3 4.6-9.7 0.5l1.7-0.3c0.2 2.2 6 2.8 6 0-0.6-3.4-6.9-0.9-7.2-5.5-0.3-3.6 5-3.9 7.5-2.6 0.7 0.4 1.3 1.1 1.5 2.1"/>
				<path id="J" class="s2" d="m203.3 203.5v-2.2h2.1v2.2zm0 9.5v-2.2h2.1v2.2z"/>
			</g>
			<g id="D">
				<path id="aK" class="s2" d="m153.3 228.6c-0.7-1.7-2.2-2.8-4.5-2.8-3.7 0-5.4 2.5-5.4 6.2 0 3.7 1.8 6.2 5.5 6.2 2.6 0 3.8-1.5 4.8-3.2l1.7 0.8c-1.1 2.4-3.2 4.1-6.6 4.1-5 0-7.3-3.1-7.5-7.9-0.4-6.5 6.1-9.5 11.5-6.9 1.2 0.6 1.9 1.6 2.4 2.8"/>
				<path id="M" class="s2" d="m162.3 227.7c3.9-0.1 5.3 2.3 5.3 6.1 0 3.9-1.7 6.1-5.3 6.1-3.7 0-5.1-2.4-5.2-6.1q0-6.1 5.2-6.1zm0 10.7c2.7 0.1 3.2-1.9 3.2-4.6 0-2.6-0.4-4.6-3.1-4.6-2.7 0-3.3 2-3.3 4.6 0 2.7 0.6 4.6 3.2 4.6z"/>
				<path id="W" class="s2" d="m175.7 227.7c5.5-0.2 3.3 7.2 3.7 12h-1.9v-7.5c0-1.9-0.5-3-2.4-3-4.5 0.2-2.8 6.3-3.1 10.5h-1.9l-0.1-11.8h1.8c0.1 0.7 0 1.5 0.2 2 0.6-1.3 1.8-2.1 3.7-2.2z"/>
				<path id="P" class="s2" d="m186.8 229.2c-2.5 0-3 2.1-3 4.5 0 2.5 0.6 4.7 3 4.7 1.5 0 2.5-0.9 2.6-2.4l2 0.2c-0.4 2.2-1.9 3.7-4.6 3.7-3.6 0-4.6-2.5-5-6.1-0.6-5.7 6.2-8.1 9.1-3.9 0.2 0.4 0.3 0.8 0.4 1.3l-2 0.2c-0.2-1.3-1-2.2-2.5-2.2z"/>
				<path id="O" class="s2" d="m198.1 227.7c3.9 0 5.4 2.6 5.2 6.5h-8.3c0 2.5 0.9 4.2 3.3 4.2 1.6 0.1 2.6-0.7 3-1.8l1.7 0.5c-0.7 1.8-2.3 2.8-4.7 2.8-3.6 0-5.5-2.3-5.4-6.2 0.1-3.7 1.6-6 5.2-6zm3.3 5c0.3-3.7-4.7-4.8-6-1.7-0.2 0.4-0.4 1-0.4 1.7z"/>
				<path id="T" class="s2" d="m211.4 227.7c3.4 0.1 4.3 2.5 4.3 6 0 3.6-1 6.1-4.3 6.2-1.9 0-3-0.8-3.7-2.1l0.1 6.5h-2l-0.1-16.4h1.9l0.2 1.9c0.6-1.3 1.7-2.1 3.6-2.1zm-0.5 10.7c2.5 0 2.8-2.1 2.8-4.6 0-2.5-0.4-4.5-2.8-4.6-2.6 0-3.1 2-3.1 4.7 0 2.7 0.6 4.5 3.1 4.5z"/>
				<path id="Q" class="s2" d="m220.3 236.8c-0.1 1.5 1.1 1.8 2.3 1.3v1.5c-2 0.6-4.3 0.3-4.3-2.4v-7.8h-1.3v-1.5h1.5l0.5-2.6h1.3v2.6h2.2v1.5h-2.2z"/>
			</g>
		</g>
		<path class="s4" d="m510.3 323.2l-0.3 0.9-94.1-30.2h3.2zm-157.7-50.7h-3.1l-90.9-29.2 0.3-0.9z"/>
		<path class="s2" d="m510.7 323.3v0.5 0.5l-0.7-0.2 0.3-0.9z"/>
		<path class="s4" d=""/>
		<path class="s4" d="m278.5 239.1l-18.7 4.1 12.9 14.2-0.7 0.6-14-15.4 20.3-4.4z"/>
		<g>
			<g id="E">
				<path id="af" class="s7" d="m336.7 279.7c-0.2-1.7-4.3-1.9-4.3 0 0.7 2.6 5.7 0.6 5.9 4.4 0.2 3.9-7.4 3.7-7.8 0.4l1.4-0.2c0.2 1.8 4.8 2.2 4.8 0-0.5-2.8-5.5-0.8-5.8-4.5-0.2-2.8 4.1-3.1 6-2 0.6 0.3 1.1 0.9 1.2 1.7"/>
				<path id="as" class="s7" d="m343.1 277.2c1.5 0 2.4 0.6 3 1.6l-0.1-4.9h1.6l0.1 12.9h-1.5c-0.1-0.5 0-1.2-0.2-1.6-0.5 1.2-1.4 1.8-2.9 1.8-2.6 0-3.4-2-3.4-4.9 0-3.2 1.1-4.9 3.4-4.9zm0.5 1.2c-2 0-2.3 1.6-2.3 3.7 0 1.9 0.3 3.6 2.2 3.6 2.1 0 2.5-1.6 2.5-3.7 0-2.1-0.4-3.7-2.4-3.6z"/>
				<path id="am" class="s7" d="m353.7 277.2c3.1-0.1 4.2 1.8 4.2 4.9 0.1 3.1-1.3 4.9-4.2 4.9-2.9 0-4.1-2-4.2-4.9q0-4.9 4.2-4.9zm0 8.6c2.2 0 2.6-1.6 2.6-3.7 0-2.2-0.4-3.7-2.5-3.7-2.1 0-2.6 1.5-2.6 3.7 0 2.1 0.5 3.6 2.5 3.7z"/>
				<path id="ac" class="s7" d="m360.3 279.2v-1.8h1.7v1.8zm0 7.6v-1.8h1.7v1.8z"/>
				<path id="aL" class="s7" d="m370.7 286.8l-3.2-4.3-1.1 0.9v3.4h-1.6v-12.9h1.6v8l4.1-4.5h1.8l-3.8 4 4 5.4z"/>
				<path id="ab" class="s7" d="m377.4 277.2c3.1 0 4.3 2.1 4.2 5.2h-6.7c0 2 0.7 3.3 2.6 3.4 1.3 0 2.2-0.6 2.5-1.5l1.3 0.4c-0.5 1.4-1.8 2.3-3.8 2.3-2.8 0-4.3-1.9-4.3-5 0.1-3 1.3-4.8 4.2-4.8zm2.6 4c0.3-3-3.8-3.8-4.8-1.4-0.1 0.3-0.3 0.8-0.3 1.4z"/>
				<path id="ap" class="s7" d="m391.2 277.4l-4.2 10.9c-0.7 1.4-1.9 2.5-4 2.1v-1.2c1.9 0.3 2.6-1 3.1-2.5l-3.7-9.3h1.7l2.8 7.7 2.7-7.7z"/>
				<path id="aM" class="s7" d="m401.4 286.8h-1.7l-2-8.1-2 8.1h-1.8l-2.7-9.4h1.6l1.9 8.1 2.1-8.1h1.7l2 8.1 2.1-8.1h1.6"/>
				<path id="am" class="s7" d="m409 277.2c3.1-0.1 4.2 1.8 4.2 4.9 0 3.1-1.3 4.9-4.3 4.9-2.9 0-4.1-2-4.1-4.9q0-4.9 4.2-4.9zm-0.1 8.6c2.2 0 2.7-1.6 2.7-3.7 0-2.2-0.4-3.7-2.6-3.7-2.1 0-2.6 1.5-2.6 3.7 0 2.1 0.5 3.6 2.5 3.7z"/>
				<path id="ao" class="s7" d="m419.6 278.7c-3.9-0.8-2.7 4.5-2.9 8.1h-1.5l-0.1-9.4h1.5c0 0.6-0.1 1.4 0.1 1.9 0.3-1.3 1.1-2.4 2.9-2z"/>
				<path id="as" class="s7" d="m424 277.2c1.5 0 2.4 0.6 3 1.6l-0.1-4.9h1.6v12.9h-1.4c-0.1-0.5 0-1.2-0.2-1.6-0.5 1.2-1.4 1.8-2.9 1.8-2.6 0-3.4-2-3.5-4.9 0-3.2 1.2-4.9 3.5-4.9zm0.4 1.2c-1.9 0-2.2 1.6-2.2 3.7 0 1.9 0.3 3.6 2.2 3.6 2.1 0 2.5-1.6 2.5-3.7 0-2.1-0.4-3.7-2.5-3.6z"/>
				<path id="af" class="s7" d="m436.3 279.7c-0.1-1.7-4.2-1.9-4.2 0 0.7 2.6 5.6 0.6 5.8 4.4 0.2 3.9-7.4 3.7-7.7 0.4l1.4-0.2c0.2 1.8 4.7 2.2 4.8 0-0.5-2.8-5.6-0.8-5.8-4.5-0.2-2.8 4-3.1 6-2 0.6 0.3 1 0.9 1.2 1.7"/>
			</g>
		</g>
	</g>
</svg>