<svg version="1.2" xmlns="http://www.w3.org/2000/svg" viewBox="-0.17976214609404906 -0.499911727322484 552.3486349999921 363.5465275616443" width="554" height="365">
	<title>proj-join</title>
	<style>
		.s0 { fill: #ffffff } 
		.s1 { fill: #dedeff;stroke: #3a414a } 
		.s2 { fill: #3a414a } 
		.s3 { fill: #fcfcca;stroke: #3a414a } 
		.s4 { fill: #3a414a;stroke: #3a414a;stroke-width: .4 } 
		.s5 { fill: #343b42 } 
		.s6 { fill: #333333 } 
		.s7 { fill: none;stroke: #3a414a } 
		.s8 { fill: #ffffff;stroke: #3a414a } 
	</style>
	<g>
		<path id="Shape 1" fill-rule="evenodd" class="s0" d="m552.2 0l-0.4 363-552-0.5 0.4-363z"/>
		<path class="s1" d="m185.8 286.5c0 30.6-37 55.3-82.6 55.3-45.7 0-82.7-24.7-82.7-55.3 0-30.6 37-55.3 82.7-55.3 45.6 0 82.6 24.7 82.6 55.3z"/>
		<g id="a">
			<path id="j" class="s2" d="m88.3 277c-0.9 1.3-1.9 2.5-4.2 2.4-2.2 0-3.6-1.3-3.6-3.5-0.1-3.9 3.9-3.9 7.7-3.9 0.2-2.1-0.5-3.3-2.5-3.3-1.5 0.1-2.5 0.4-2.6 1.9l-2-0.2c0.3-2.3 2-3.2 4.7-3.2 2.7 0 4.4 1.3 4.4 4v5c-0.1 1.3 0.4 2 1.7 1.7v1.2c-1.9 0.6-3.7-0.1-3.6-2.1zm-5.8-1.1c0 1.3 0.8 2.1 2 2.1 2.5-0.2 3.9-1.8 3.7-4.6-2.6 0.1-5.7-0.3-5.7 2.5z"/>
			<path id="k" class="s2" d="m99 267.2c3.3 0 4.3 2.4 4.3 6.1 0 4-1.4 6.1-4.3 6.1-1.9 0-3-0.6-3.6-2.1l-0.1 1.9h-2l0.1-16.1h2v6.2c0.6-1.4 1.7-2.1 3.6-2.1zm-0.5 10.8c2.5 0 2.8-2.1 2.8-4.7 0-2.4-0.3-4.6-2.8-4.5-2.6 0-3.1 1.9-3.1 4.7 0 2.6 0.6 4.5 3.1 4.5z"/>
			<path id="l" class="s2" d="m105.8 264.9v-1.8h1.9v1.8zm0 14.3v-11.7h2v11.7z"/>
			<path id="m" class="s2" d="m117.5 270.4c-0.2-2.1-5.3-2.4-5.4 0 0.9 3.2 7.1 0.7 7.4 5.5 0.2 4.8-9.3 4.6-9.7 0.5l1.7-0.3c0.2 2.2 6 2.8 6 0-0.6-3.4-6.9-0.9-7.2-5.5-0.3-3.6 5-3.9 7.5-2.6 0.7 0.4 1.3 1.1 1.5 2.1"/>
			<path id="n" class="s2" d="m122.3 269.7v-2.2h2.1v2.2zm0 9.5v-2.2h2.1v2.2z"/>
		</g>
		<g id="b">
			<path id="o" class="s2" d="m70.4 290.6c5.3 0 11.7-1 11.7 4.6 0 4.8-4.7 4.9-9.7 4.7v6h-2zm2 7.7c3.5 0 7.6 0.7 7.6-3.1 0-3.7-4.2-2.9-7.6-3z"/>
			<path id="p" class="s2" d="m90.4 295.8c-4.9-1-3.3 5.6-3.6 10.1h-1.9l-0.1-11.8h1.8c0.1 0.8 0 1.8 0.2 2.4 0.3-1.6 1.4-3 3.6-2.5z"/>
			<path id="q" class="s2" d="m96.8 293.9c3.9-0.1 5.3 2.3 5.3 6.1 0 3.9-1.7 6.1-5.3 6.1-3.7 0-5.2-2.4-5.2-6.1q0-6.1 5.2-6.1zm0 10.7c2.7 0.1 3.2-1.9 3.2-4.6 0-2.7-0.5-4.6-3.1-4.6-2.7 0-3.3 1.9-3.3 4.6 0 2.7 0.6 4.6 3.2 4.6z"/>
			<path id="r" class="s2" d="m104.5 291.6v-1.9h2v1.9zm-2.1 17.3c1.5 0.2 2.1-0.4 2.1-1.9v-12.9h1.9v13.2c0.2 2.5-1.4 3.6-4 3.1z"/>
			<path id="s" class="s2" d="m114.1 293.9c3.8 0 5.3 2.6 5.1 6.5h-8.3c0 2.5 0.9 4.2 3.3 4.2 1.6 0.1 2.6-0.7 3-1.8l1.7 0.5c-0.6 1.8-2.3 2.8-4.7 2.8-3.6 0-5.5-2.3-5.4-6.2 0.1-3.7 1.6-6 5.3-6zm3.2 5c0.3-3.7-4.7-4.8-6-1.7-0.2 0.4-0.4 1-0.4 1.7z"/>
			<path id="t" class="s2" d="m126.2 295.4c-2.5 0-3 2.1-3 4.5 0 2.5 0.5 4.7 3 4.7 1.4 0 2.5-0.9 2.6-2.4l2 0.1c-0.4 2.3-1.9 3.8-4.6 3.8-3.6 0-4.7-2.5-5-6.1-0.7-5.7 6.2-8.1 9-4 0.3 0.5 0.3 0.9 0.5 1.4l-2 0.2c-0.3-1.3-1-2.2-2.5-2.2z"/>
			<path id="u" class="s2" d="m135 303c-0.1 1.4 1.1 1.7 2.3 1.3v1.5c-2 0.6-4.3 0.3-4.3-2.4v-7.8h-1.4v-1.5h1.5l0.6-2.6h1.3v2.6h2.1v1.5h-2.1z"/>
		</g>
		<path class="s3" d="m532.5 286.5c0 30.6-37 55.3-82.7 55.3-45.6 0-82.6-24.7-82.6-55.3 0-30.6 37-55.3 82.6-55.3 45.7 0 82.7 24.7 82.7 55.3z"/>
		<path class="s4" d="m233.5 287h-46.3v-1h46.3zm132.7 0h-28v-0.9h28z"/>
		<path id="schema: Dataset" class="s5" aria-label="schema: Dataset"  d="m410.6 266.3v2q-0.9-0.5-1.9-0.7-1-0.2-2-0.2-1.6 0-2.4 0.5-0.8 0.4-0.8 1.4 0 0.8 0.6 1.2 0.5 0.4 2.3 0.8l0.7 0.2q2.3 0.5 3.3 1.4 0.9 0.9 0.9 2.5 0 1.8-1.4 2.9-1.5 1-4 1-1 0-2.2-0.2-1.1-0.2-2.4-0.6v-2.2q1.2 0.6 2.4 0.9 1.1 0.3 2.3 0.3 1.5 0 2.3-0.5 0.8-0.5 0.8-1.5 0-0.8-0.6-1.3-0.6-0.5-2.6-0.9l-0.7-0.2q-2-0.4-2.9-1.3-0.9-0.9-0.9-2.4 0-1.8 1.3-2.8 1.3-1 3.7-1 1.2 0 2.3 0.1 1 0.2 1.9 0.6zm13.6 0.1v2q-0.9-0.5-1.8-0.8-0.9-0.2-1.9-0.2-2.1 0-3.2 1.3-1.2 1.3-1.2 3.7 0 2.5 1.2 3.8 1.1 1.3 3.2 1.3 1 0 1.9-0.2 0.9-0.3 1.8-0.8v2q-0.9 0.4-1.9 0.6-0.9 0.2-2 0.2-3 0-4.7-1.8-1.8-1.9-1.8-5.1 0-3.2 1.8-5 1.8-1.8 4.8-1.8 1 0 2 0.2 0.9 0.2 1.8 0.6zm14.7 4.7v7.9h-2.2v-7.9q0-1.8-0.7-2.7-0.7-1-2.2-1-1.7 0-2.7 1.1-1.1 1.2-1.1 3.1v7.4h-2.1v-18.2h2.1v7.1q0.8-1.2 1.9-1.8 1-0.5 2.4-0.5 2.3 0 3.4 1.4 1.2 1.4 1.2 4.1zm15.5 0.8v1.1h-9.9q0.1 2.2 1.3 3.4 1.2 1.1 3.4 1.1 1.2 0 2.4-0.3 1.1-0.3 2.3-0.9v2q-1.2 0.5-2.4 0.8-1.2 0.2-2.5 0.2-3.1 0-4.9-1.8-1.9-1.8-1.9-4.9 0-3.3 1.8-5.1 1.7-1.9 4.7-1.9 2.6 0 4.2 1.7 1.5 1.7 1.5 4.6zm-9.8-0.6h7.6q0-1.8-1-2.9-0.9-1-2.5-1-1.8 0-2.9 1-1.1 1-1.2 2.9zm23.6-2.9q0.8-1.5 1.9-2.2 1.1-0.6 2.6-0.6 2.1 0 3.2 1.4 1.1 1.4 1.1 4.1v7.9h-2.2v-7.9q0-1.8-0.6-2.8-0.7-0.9-2.1-0.9-1.6 0-2.6 1.1-1 1.2-1 3.1v7.4h-2.1v-7.9q0-1.9-0.7-2.8-0.7-0.9-2.1-0.9-1.6 0-2.6 1.2-1 1.1-1 3v7.4h-2.1v-13.1h2.1v2q0.8-1.2 1.8-1.8 1-0.5 2.4-0.5 1.5 0 2.5 0.7 1 0.7 1.5 2.1zm21.2 4h-2.1q-2.6 0-3.6 0.6-1 0.6-1 2 0 1.2 0.7 1.9 0.8 0.6 2.1 0.6 1.8 0 2.8-1.2 1.1-1.3 1.1-3.4zm2.2-0.9v7.5h-2.2v-2q-0.7 1.2-1.8 1.8-1.1 0.5-2.7 0.5-2 0-3.2-1.1-1.2-1.1-1.2-3 0-2.3 1.5-3.4 1.5-1.1 4.4-1.1h3v-0.2q0-1.5-1-2.3-0.9-0.8-2.7-0.8-1.1 0-2.2 0.2-1.1 0.3-2 0.8v-1.9q1.1-0.5 2.3-0.7 1.1-0.3 2.1-0.3 2.9 0 4.3 1.5 1.4 1.5 1.4 4.5zm5 7.5v-3h2.4v3zm0-9.5v-2.9h2.5v2.9zm-89 22.9h-2.8v13.6h2.8q3.6 0 5.3-1.6 1.7-1.6 1.7-5.2 0-3.5-1.7-5.1-1.7-1.7-5.3-1.7zm-5.2 15.6v-17.5h4.9q5 0 7.4 2.1 2.4 2.1 2.4 6.6 0 4.5-2.4 6.7-2.4 2.1-7.4 2.1zm26.5-6.6h-2.2q-2.6 0-3.6 0.6-1 0.6-1 2 0 1.2 0.7 1.8 0.8 0.7 2.1 0.7 1.8 0 2.9-1.3 1.1-1.2 1.1-3.3zm2.1-0.9v7.5h-2.1v-2q-0.8 1.2-1.9 1.7-1.1 0.6-2.7 0.6-2 0-3.2-1.1-1.2-1.2-1.2-3.1 0-2.2 1.5-3.3 1.5-1.1 4.4-1.1h3.1v-0.2q0-1.5-1-2.3-1-0.9-2.8-0.9-1.1 0-2.2 0.3-1 0.3-2 0.8v-2q1.2-0.4 2.3-0.6 1.1-0.3 2.2-0.3 2.8 0 4.2 1.5 1.4 1.5 1.4 4.5zm4.4-9.4h2.2v3.7h4.4v1.7h-4.4v7.1q0 1.6 0.4 2.1 0.5 0.5 1.8 0.5h2.2v1.8h-2.2q-2.5 0-3.4-1-1-0.9-1-3.4v-7.1h-1.6v-1.7h1.6zm17.6 10.3h-2.2q-2.6 0-3.6 0.6-1 0.6-1 2 0 1.2 0.8 1.9 0.7 0.6 2 0.6 1.8 0 2.9-1.2 1.1-1.3 1.1-3.4zm2.1-0.9v7.5h-2.1v-2q-0.8 1.2-1.9 1.7-1.1 0.6-2.7 0.6-2 0-3.2-1.1-1.2-1.2-1.2-3.1 0-2.2 1.5-3.3 1.5-1.1 4.5-1.1h3v-0.2q0-1.5-1-2.3-1-0.8-2.7-0.8-1.2 0-2.2 0.2-1.1 0.3-2.1 0.8v-2q1.2-0.4 2.3-0.6 1.1-0.3 2.2-0.3 2.8 0 4.2 1.5 1.4 1.5 1.4 4.5zm12.8-5.3v2.1q-0.9-0.5-1.9-0.7-0.9-0.3-2-0.3-1.6 0-2.4 0.5-0.8 0.5-0.8 1.5 0 0.7 0.6 1.2 0.5 0.4 2.3 0.8l0.7 0.2q2.3 0.4 3.3 1.4 0.9 0.8 0.9 2.4 0 1.9-1.4 2.9-1.4 1.1-4 1.1-1 0-2.2-0.2-1.1-0.2-2.4-0.6v-2.2q1.2 0.6 2.4 0.9 1.1 0.3 2.3 0.3 1.5 0 2.3-0.5 0.8-0.5 0.8-1.5 0-0.9-0.6-1.3-0.6-0.5-2.6-0.9l-0.7-0.2q-2-0.4-2.9-1.3-0.9-0.9-0.9-2.4 0-1.9 1.3-2.9 1.3-1 3.7-1 1.2 0 2.3 0.2 1.1 0.2 1.9 0.5zm15.4 5.7v1h-9.9q0.1 2.2 1.3 3.4 1.2 1.2 3.4 1.2 1.2 0 2.4-0.3 1.2-0.3 2.3-0.9v2q-1.2 0.5-2.4 0.7-1.2 0.3-2.5 0.3-3.1 0-4.9-1.8-1.9-1.8-1.9-5 0-3.2 1.8-5.1 1.7-1.9 4.7-1.9 2.6 0 4.2 1.7 1.5 1.7 1.5 4.7zm-9.8-0.7h7.6q0-1.7-0.9-2.8-1-1-2.6-1-1.8 0-2.9 1-1.1 1-1.2 2.8zm13.3-9.1h2.2v3.7h4.4v1.7h-4.4v7.1q0 1.6 0.4 2.1 0.5 0.5 1.8 0.5h2.2v1.8h-2.2q-2.5 0-3.4-1-1-0.9-1-3.4v-7.1h-1.6v-1.7h1.6z"/>
		<path class="s2" d="m366.7 286.5v0.5h-0.5v-1h0.5z"/>
		<path class="s4" d=""/>
		<path class="s4" d="m204.9 276.9l-16.6 9.6 16.6 9.6-0.5 0.8-18-10.4 18-10.4z"/>
		<g id="e">
			<path id="x" class="s6" d="m256 269.8c2.7 0.1 3.5 2 3.5 4.8 0 2.9-0.8 4.9-3.5 5-1.5 0-2.4-0.7-3-1.7l0.1 5.2h-1.6v-13.1h1.5l0.1 1.5c0.5-1 1.4-1.7 2.9-1.7zm-0.4 8.6c2 0 2.2-1.7 2.2-3.7 0-2-0.3-3.6-2.2-3.7-2.1 0-2.5 1.6-2.5 3.8 0 2.1 0.5 3.6 2.5 3.6z"/>
			<path id="y" class="s6" d="m265.8 271.3c-3.8-0.8-2.6 4.5-2.8 8.1h-1.6v-9.4h1.5c0 0.6-0.1 1.4 0.1 1.9 0.3-1.3 1.1-2.4 2.8-2z"/>
			<path id="z" class="s6" d="m271 269.8c3.1 0 4.2 1.8 4.2 4.9 0.1 3.1-1.3 4.9-4.2 4.9-2.9 0-4.1-1.9-4.2-4.9q0-4.9 4.2-4.9zm0 8.6c2.1 0.1 2.6-1.5 2.6-3.7 0-2.1-0.4-3.7-2.5-3.7-2.2 0-2.6 1.6-2.6 3.7 0 2.1 0.4 3.7 2.5 3.7z"/>
			<path id="A" class="s6" d="m281.3 279.4h-1.9l-3.4-9.4h1.7l2.7 8.2 2.7-8.2h1.7"/>
			<path id="B" class="s6" d="m286.5 271.8v-1.8h1.7v1.8zm0 7.6v-1.8h1.6v1.8z"/>
			<path id="C" class="s6" d="m300 279.4h-1.8l-2-8.1-2 8.1h-1.8l-2.7-9.4h1.6l1.9 8.1 2.2-8.1h1.6l2.1 8.1 2-8.1h1.6"/>
			<path id="D" class="s6" d="m309.5 277.6c-0.7 1-1.5 2-3.3 2-1.8-0.1-2.9-1.1-2.9-2.8 0-3.2 3.1-3.1 6.2-3.1 0.1-1.8-0.5-2.7-2-2.7-1.2 0-2.1 0.3-2.1 1.5l-1.6-0.1c0.2-1.9 1.6-2.6 3.7-2.6 2.2 0 3.6 1 3.6 3.2v4c-0.1 1 0.3 1.6 1.4 1.4v0.9c-1.6 0.5-3.1-0.1-3-1.7zm-4.6-0.8c0 1 0.6 1.6 1.6 1.6 2.1-0.1 3.1-1.4 3-3.7-2.1 0.1-4.6-0.2-4.6 2.1z"/>
			<path id="E" class="s6" d="m319.1 272.3c-0.1-1.7-4.2-1.8-4.3 0 0.8 2.6 5.7 0.6 5.9 4.5 0.2 3.8-7.4 3.6-7.8 0.4l1.4-0.3c0.2 1.8 4.8 2.2 4.9 0-0.5-2.7-5.6-0.7-5.9-4.4-0.2-2.8 4.1-3.1 6.1-2.1 0.6 0.3 1 0.9 1.2 1.7"/>
		</g>
		<g id="f">
			<path id="F" class="s6" d="m240.6 300.9c-4.1 0-6-2.4-6.2-6.4-0.2-5.2 4.9-7.6 9.5-5.4 0.9 0.4 1.5 1.2 1.9 2.1l-1.6 0.4c-0.7-1.2-1.8-1.9-3.8-1.9-3 0-4.3 1.9-4.3 4.8 0 3.1 1.4 5 4.5 5 1.7 0 3-0.5 3.9-1.3v-2.2h-3.7v-1.4h5.2v4.2c-1.2 1.3-3 2.1-5.4 2.1z"/>
			<path id="G" class="s6" d="m252.3 291.1c3.1 0 4.2 2.1 4.1 5.3h-6.6c0 2 0.7 3.3 2.6 3.3 1.3 0.1 2.1-0.6 2.4-1.4l1.4 0.4c-0.6 1.4-1.8 2.2-3.8 2.2-2.9 0-4.4-1.8-4.3-4.9 0-3 1.3-4.9 4.2-4.9zm2.6 4c0.2-2.9-3.8-3.8-4.8-1.3-0.2 0.3-0.3 0.8-0.3 1.3z"/>
			<path id="H" class="s6" d="m263 291.1c4.4-0.2 2.6 5.8 3 9.6h-1.6v-6c0-1.5-0.4-2.4-1.9-2.3-3.6 0.1-2.2 5-2.5 8.3h-1.5l-0.1-9.4h1.5c0 0.5-0.1 1.2 0.1 1.6 0.5-1.1 1.4-1.7 3-1.8z"/>
			<path id="G" class="s6" d="m272 291.1c3.1 0 4.3 2.1 4.2 5.3h-6.7c0 2 0.7 3.3 2.6 3.3 1.3 0.1 2.2-0.6 2.5-1.4l1.3 0.4c-0.5 1.4-1.8 2.2-3.8 2.2-2.8 0-4.3-1.8-4.3-4.9 0.1-3 1.3-4.9 4.2-4.9zm2.6 4c0.3-2.9-3.7-3.8-4.8-1.3-0.1 0.3-0.3 0.8-0.3 1.3z"/>
			<path id="y" class="s6" d="m282.6 292.7c-3.8-0.8-2.6 4.5-2.8 8h-1.6v-9.4h1.4c0.1 0.6 0 1.5 0.1 2 0.3-1.4 1.2-2.5 2.9-2.1z"/>
			<path id="D" class="s6" d="m289.8 298.9c-0.7 1.1-1.5 2.1-3.3 2-1.8 0-2.9-1-2.9-2.8-0.1-3.2 3.1-3.1 6.2-3.1 0.1-1.7-0.5-2.7-2.1-2.7-1.1 0.1-2 0.4-2 1.6l-1.7-0.2c0.3-1.8 1.7-2.6 3.8-2.6 2.2 0 3.5 1 3.5 3.2v4.1c0 0.9 0.4 1.5 1.4 1.3v1c-1.5 0.4-3-0.1-2.9-1.8zm-4.6-0.8c0 1 0.6 1.6 1.6 1.6 2-0.1 3.1-1.4 3-3.6-2.2 0.1-4.6-0.3-4.6 2z"/>
			<path id="I" class="s6" d="m295.6 298.4c-0.1 1.2 0.9 1.4 1.9 1.1v1.2c-1.6 0.5-3.4 0.2-3.4-2v-6.2h-1.1v-1.2h1.2l0.4-2.1h1v2.1h1.8v1.2h-1.8z"/>
			<path id="G" class="s6" d="m302.6 291.1c3.1 0 4.3 2.1 4.2 5.3h-6.7c0 2 0.7 3.3 2.6 3.3 1.3 0.1 2.1-0.6 2.4-1.4l1.4 0.4c-0.5 1.4-1.8 2.2-3.8 2.2-2.9 0-4.3-1.8-4.3-4.9 0.1-3 1.3-4.9 4.2-4.9zm2.6 4c0.3-2.9-3.8-3.8-4.8-1.3-0.2 0.3-0.3 0.8-0.3 1.3z"/>
			<path id="J" class="s6" d="m311.7 291.1c1.6 0 2.4 0.7 3 1.7v-5h1.5l0.1 12.9h-1.5c-0.1-0.5 0-1.1-0.1-1.5-0.5 1.1-1.4 1.7-3 1.7-2.6 0-3.4-1.9-3.4-4.8 0-3.3 1.1-5 3.4-5zm0.5 1.2c-2 0-2.3 1.7-2.3 3.7 0 2 0.3 3.7 2.2 3.7 2.1 0 2.6-1.6 2.6-3.8 0-2-0.5-3.6-2.5-3.6z"/>
			<path id="K" class="s6" d="m325.3 294.3c1.7 0.2 3 1.1 3 3 0 4.3-5.2 3.3-9.4 3.4v-12.2c3.8 0.1 8.7-0.9 8.7 2.9 0 1.7-0.9 2.5-2.3 2.9zm-4.8-0.6c2.5 0 5.5 0.5 5.5-2.1 0-2.3-3.1-1.7-5.5-1.8zm0 5.7c2.7-0.1 6.2 0.7 6.2-2.2 0-2.8-3.5-2.1-6.2-2.2z"/>
			<path id="L" class="s6" d="m338.1 291.3l-4.2 11c-0.7 1.3-1.9 2.5-4 2v-1.2c1.9 0.3 2.6-0.9 3.1-2.4l-3.7-9.4h1.7l2.8 7.7 2.7-7.7z"/>
		</g>
		<path class="s1" d="m185.8 75.8c0 30.6-37 55.4-82.6 55.4-45.7 0-82.7-24.8-82.7-55.4 0-30.5 37-55.3 82.7-55.3 45.6 0 82.6 24.8 82.6 55.3z"/>
		<g id="g">
			<path id="M" class="s2" d="m85.4 56.6c3.4 0 4.4 2.5 4.4 6 0 3.5-1 6.1-4.4 6.2-1.9 0-3-0.8-3.7-2.1l0.1 6.5h-2v-16.4h1.9l0.1 1.9c0.6-1.3 1.7-2.1 3.6-2.1zm-0.5 10.7c2.5 0 2.8-2.1 2.8-4.6 0-2.6-0.3-4.5-2.8-4.6-2.5 0-3.1 2-3.1 4.7 0 2.6 0.6 4.5 3.1 4.5z"/>
			<path id="p" class="s2" d="m97.7 58.5c-4.8-1-3.2 5.6-3.5 10h-2v-11.7h1.8c0.1 0.7 0 1.8 0.1 2.4 0.4-1.7 1.5-3 3.6-2.5z"/>
			<path id="q" class="s2" d="m104.2 56.6c3.8-0.1 5.3 2.2 5.3 6.1 0 3.9-1.7 6.1-5.4 6.1-3.6 0-5.1-2.4-5.1-6.1q-0.1-6.1 5.2-6.1zm-0.1 10.7c2.8 0.1 3.3-1.9 3.3-4.6 0-2.7-0.5-4.7-3.1-4.7-2.7 0-3.3 2-3.3 4.7 0 2.6 0.6 4.5 3.1 4.6z"/>
			<path id="N" class="s2" d="m117 68.5h-2.3l-4.3-11.7h2.1l3.4 10.2 3.4-10.2h2.1"/>
			<path id="n" class="s2" d="m123.5 59v-2.2h2.1v2.2zm0 9.5v-2.2h2.1v2.2z"/>
		</g>
		<g id="h">
			<path id="O" class="s2" d="m80.5 95.2l-1.7-4.5h-7l-1.7 4.5h-2.2l6.3-15.3h2.3l6.1 15.3zm-2.3-6.1l-2.9-7.6c-0.8 2.8-1.9 5.1-2.9 7.6z"/>
			<path id="t" class="s2" d="m88.6 84.8c-2.4 0-2.9 2-2.9 4.5 0 2.4 0.5 4.6 2.9 4.6 1.5 0 2.6-0.9 2.7-2.3l2 0.1c-0.4 2.3-2 3.7-4.6 3.7-3.7 0-4.7-2.5-5.1-6.1-0.6-5.7 6.3-8.1 9.1-3.9 0.2 0.4 0.3 0.8 0.4 1.3l-1.9 0.2c-0.3-1.3-1-2.1-2.6-2.1z"/>
			<path id="u" class="s2" d="m97.4 92.3c-0.1 1.5 1.2 1.8 2.4 1.4v1.4c-2 0.6-4.3 0.3-4.3-2.4v-7.8h-1.4v-1.4h1.5l0.6-2.7h1.2v2.7h2.2v1.4h-2.2z"/>
			<path id="l" class="s2" d="m101.5 80.9v-1.8h1.9v1.8zm0 14.3v-11.7h2v11.7z"/>
			<path id="N" class="s2" d="m111.5 95.2h-2.3l-4.3-11.7h2.1l3.4 10.2 3.4-10.2h2.1"/>
			<path id="l" class="s2" d="m117.4 80.9v-1.8h2v1.8zm0 14.3v-11.7h2v11.7z"/>
			<path id="u" class="s2" d="m124.5 92.3c-0.1 1.5 1.1 1.8 2.3 1.4v1.4c-2 0.6-4.3 0.3-4.3-2.4v-7.8h-1.3v-1.4h1.4l0.6-2.7h1.3v2.7h2.1v1.4h-2.1z"/>
			<path id="P" class="s2" d="m138.1 83.5l-5.3 13.6c-0.9 1.7-2.3 3.2-5 2.6v-1.5c2.4 0.4 3.2-1.2 3.9-3.1l-4.6-11.6h2.1l3.5 9.6 3.3-9.6z"/>
		</g>
		<path class="s3" d="m532.5 75.8c0 30.6-37 55.4-82.7 55.4-45.6 0-82.6-24.8-82.6-55.4 0-30.5 37-55.3 82.6-55.3 45.7 0 82.7 24.8 82.7 55.3z"/>
		<g id="g">
			<path id="M" class="s2" d="m432.1 56.6c3.4 0 4.3 2.5 4.3 6 0 3.5-1 6.1-4.3 6.2-1.9 0-3-0.8-3.7-2.1l0.1 6.5h-2l-0.1-16.4h1.9l0.2 1.9c0.6-1.3 1.7-2.1 3.6-2.1zm-0.5 10.7c2.5 0 2.8-2.1 2.8-4.6 0-2.6-0.4-4.5-2.8-4.6-2.6 0-3.1 2-3.1 4.7 0 2.6 0.6 4.5 3.1 4.5z"/>
			<path id="p" class="s2" d="m444.4 58.5c-4.8-1-3.3 5.6-3.5 10h-2l-0.1-11.7h1.9c0.1 0.7-0.1 1.8 0.1 2.4 0.4-1.7 1.4-3 3.6-2.5z"/>
			<path id="q" class="s2" d="m450.9 56.6c3.8-0.1 5.2 2.2 5.2 6.1 0.1 3.9-1.6 6.1-5.3 6.1-3.6 0-5.1-2.4-5.2-6.1q0-6.1 5.3-6.1zm-0.1 10.7c2.7 0.1 3.3-1.9 3.3-4.6 0-2.7-0.5-4.7-3.2-4.7-2.6 0-3.2 2-3.2 4.7 0 2.6 0.6 4.5 3.1 4.6z"/>
			<path id="N" class="s2" d="m463.7 68.5h-2.3l-4.3-11.7h2.1l3.3 10.2 3.5-10.2h2.1"/>
			<path id="n" class="s2" d="m470.2 59v-2.2h2.1v2.2zm0 9.5v-2.2h2.1v2.2z"/>
		</g>
		<g id="i">
			<path id="Q" class="s2" d="m423.8 95.2v-15.3h11.5v1.7h-9.5v4.9h8.9v1.7h-8.9v5.3h10v1.7z"/>
			<path id="v" class="s2" d="m444 83.2c5.5-0.2 3.2 7.2 3.7 12h-2v-7.5c0-1.9-0.5-3-2.4-2.9-4.5 0.1-2.7 6.3-3 10.4h-2l-0.1-11.7h1.9c0 0.6-0.1 1.4 0.1 1.9 0.7-1.3 1.8-2.1 3.8-2.2z"/>
			<path id="u" class="s2" d="m452.7 92.3c-0.1 1.5 1.1 1.8 2.4 1.4v1.4c-2.1 0.6-4.3 0.3-4.3-2.4v-7.8h-1.4v-1.4h1.5l0.5-2.7h1.3v2.7h2.2v1.4h-2.2z"/>
			<path id="l" class="s2" d="m456.7 80.9v-1.8h2v1.8zm0 14.3v-11.7h2v11.7z"/>
			<path id="u" class="s2" d="m463.8 92.3c-0.1 1.5 1.1 1.8 2.3 1.4v1.4c-2 0.6-4.3 0.3-4.3-2.4v-7.8h-1.4v-1.4h1.5l0.6-2.7h1.3v2.7h2.1v1.4h-2.1z"/>
			<path id="P" class="s2" d="m477.4 83.5l-5.4 13.6c-0.8 1.7-2.2 3.2-5 2.6v-1.5c2.5 0.4 3.3-1.2 4-3.1l-4.6-11.6h2.1l3.5 9.6 3.3-9.6z"/>
		</g>
		<path class="s4" d="m224.2 76.3h-37v-0.9h37zm142 0h-37.4v-1h37.4z"/>
		<path class="s2" d="m366.7 75.8v0.5h-0.5v-0.9h0.5z"/>
		<path class="s4" d=""/>
		<path class="s4" d="m204.9 66.2l-16.6 9.6 16.6 9.6-0.5 0.8-18-10.4 18-10.4z"/>
		<g id="e">
			<path id="x" class="s6" d="m246.7 59.1c2.7 0.1 3.4 2.1 3.4 4.9 0 2.8-0.8 4.8-3.4 4.9-1.6 0-2.4-0.6-3-1.7l0.1 5.2h-1.6l-0.1-13.1h1.6l0.1 1.5c0.5-1 1.3-1.7 2.9-1.7zm-0.4 8.6c2 0 2.2-1.6 2.2-3.7 0-2-0.3-3.6-2.2-3.6-2.1 0-2.5 1.6-2.5 3.7 0 2.2 0.5 3.6 2.5 3.6z"/>
			<path id="y" class="s6" d="m256.5 60.7c-3.8-0.8-2.6 4.5-2.8 8h-1.6v-9.4h1.4c0.1 0.6 0 1.5 0.1 2 0.3-1.4 1.2-2.5 2.9-2.1z"/>
			<path id="z" class="s6" d="m261.7 59.1c3.1 0 4.2 1.9 4.2 4.9 0 3.1-1.3 4.9-4.3 4.9-2.9 0-4.1-1.9-4.1-4.9q0-4.9 4.2-4.9zm-0.1 8.6c2.2 0.1 2.7-1.5 2.7-3.7 0-2.1-0.4-3.7-2.6-3.7-2.1 0-2.6 1.6-2.6 3.7 0 2.2 0.5 3.7 2.5 3.7z"/>
			<path id="A" class="s6" d="m272 68.7h-1.9l-3.4-9.4h1.7l2.6 8.2 2.8-8.2h1.7"/>
			<path id="B" class="s6" d="m277.1 61.1v-1.8h1.7v1.8zm0 7.6v-1.8h1.7v1.8z"/>
			<path id="C" class="s6" d="m290.6 68.7h-1.7l-2-8.1-2 8.1h-1.8l-2.7-9.4h1.6l1.9 8.1 2.1-8.1h1.7l2 8.1 2.1-8.1h1.5"/>
			<path id="D" class="s6" d="m300.2 66.9c-0.7 1.1-1.5 2.1-3.3 2-1.8 0-2.9-1-2.9-2.8-0.1-3.2 3.1-3.1 6.2-3.1 0.1-1.7-0.5-2.7-2.1-2.7-1.2 0.1-2 0.4-2 1.6l-1.7-0.2c0.3-1.8 1.7-2.6 3.8-2.6 2.2 0 3.5 1 3.5 3.2v4.1c0 0.9 0.4 1.5 1.4 1.3v1c-1.5 0.4-3-0.1-2.9-1.8zm-4.6-0.8c0 1 0.6 1.6 1.6 1.6 2-0.1 3.1-1.4 3-3.6-2.2 0.1-4.6-0.3-4.6 2z"/>
			<path id="E" class="s6" d="m309.8 61.7c-0.2-1.7-4.3-1.9-4.3 0 0.7 2.6 5.7 0.6 5.9 4.4 0.2 3.9-7.4 3.7-7.8 0.4l1.4-0.2c0.2 1.7 4.8 2.2 4.8 0-0.5-2.8-5.5-0.8-5.8-4.5-0.2-2.8 4.1-3.1 6-2.1 0.6 0.4 1.1 1 1.2 1.8"/>
		</g>
		<g id="f">
			<path id="F" class="s6" d="m231.2 90.3c-4 0-5.9-2.4-6.1-6.4-0.3-5.3 4.9-7.6 9.5-5.5 0.8 0.4 1.4 1.2 1.8 2.1l-1.5 0.5c-0.7-1.3-1.9-2-3.8-2-3 0-4.3 1.9-4.3 4.9 0 3 1.4 4.9 4.4 5 1.8 0 3.1-0.6 3.9-1.4v-2.2h-3.6v-1.4h5.2v4.3c-1.3 1.2-3 2.1-5.5 2.1z"/>
			<path id="G" class="s6" d="m242.9 80.5c3.2 0 4.3 2 4.2 5.2h-6.7c0 2 0.7 3.3 2.6 3.4 1.3 0 2.2-0.6 2.5-1.5l1.4 0.4c-0.6 1.4-1.9 2.3-3.9 2.3-2.8 0-4.3-1.9-4.2-5 0-3 1.2-4.8 4.1-4.8zm2.6 4c0.3-3-3.7-3.8-4.8-1.4-0.1 0.3-0.3 0.8-0.3 1.4z"/>
			<path id="H" class="s6" d="m253.7 80.5c4.4-0.2 2.6 5.7 2.9 9.6h-1.6v-6c0-1.6-0.3-2.4-1.9-2.4-3.5 0.1-2.2 5-2.4 8.4h-1.6v-9.4h1.5c0 0.5-0.1 1.2 0.1 1.6 0.5-1.1 1.4-1.8 3-1.8z"/>
			<path id="G" class="s6" d="m262.7 80.5c3.1 0 4.2 2 4.2 5.2h-6.7c0 2 0.7 3.3 2.6 3.4 1.3 0 2.1-0.6 2.4-1.5l1.4 0.4c-0.5 1.4-1.8 2.3-3.8 2.3-2.9 0-4.3-1.9-4.3-5 0.1-3 1.3-4.8 4.2-4.8zm2.6 4c0.3-3-3.8-3.8-4.8-1.4-0.2 0.3-0.3 0.8-0.3 1.4z"/>
			<path id="y" class="s6" d="m273.3 82c-3.9-0.8-2.6 4.5-2.8 8.1h-1.6l-0.1-9.4h1.5c0.1 0.6 0 1.4 0.1 1.9 0.3-1.3 1.1-2.4 2.9-2z"/>
			<path id="D" class="s6" d="m280.5 88.3c-0.8 1-1.6 2-3.4 2-1.8-0.1-2.8-1.1-2.8-2.9-0.1-3.1 3.1-3.1 6.1-3.1 0.2-1.7-0.4-2.6-2-2.6-1.2 0-2 0.3-2.1 1.5l-1.6-0.2c0.2-1.8 1.6-2.5 3.8-2.5 2.2 0 3.5 1 3.5 3.1v4.1c0 1 0.4 1.6 1.4 1.3v1c-1.5 0.5-3-0.1-2.9-1.7zm-4.6-0.9c0 1 0.6 1.7 1.6 1.7 2-0.2 3.1-1.5 2.9-3.7-2.1 0.1-4.5-0.2-4.5 2z"/>
			<path id="I" class="s6" d="m286.3 87.7c-0.1 1.2 0.9 1.5 1.9 1.1v1.2c-1.6 0.5-3.5 0.3-3.5-1.9v-6.3h-1.1v-1.1h1.2l0.5-2.2h1v2.2h1.7v1.1h-1.7z"/>
			<path id="G" class="s6" d="m293.3 80.5c3.1 0 4.2 2 4.1 5.2h-6.6c0 2 0.6 3.3 2.6 3.4 1.3 0 2.1-0.6 2.4-1.5l1.4 0.4c-0.6 1.4-1.9 2.3-3.8 2.3-2.9 0-4.4-1.9-4.3-5 0-3 1.3-4.8 4.2-4.8zm2.5 4c0.3-3-3.7-3.8-4.8-1.4-0.1 0.3-0.2 0.8-0.2 1.4z"/>
			<path id="J" class="s6" d="m302.4 80.5c1.5 0 2.4 0.6 3 1.6l-0.1-4.9h1.6v12.9h-1.4c-0.1-0.5 0-1.2-0.2-1.6-0.5 1.2-1.4 1.8-2.9 1.8-2.6 0-3.4-2-3.5-4.9 0-3.2 1.2-4.9 3.5-4.9zm0.5 1.2c-2 0-2.3 1.6-2.3 3.7 0 1.9 0.3 3.6 2.2 3.6 2.1 0 2.5-1.6 2.5-3.7 0-2.1-0.4-3.7-2.4-3.6z"/>
			<path id="K" class="s6" d="m316 83.6c1.7 0.2 3 1.1 3 3 0 4.3-5.2 3.4-9.4 3.5v-12.3c3.7 0.2 8.7-0.8 8.7 3 0 1.6-0.9 2.4-2.3 2.8zm-4.8-0.6c2.5 0 5.4 0.5 5.4-2 0-2.4-3.1-1.8-5.4-1.9zm0 5.7c2.7-0.1 6.1 0.7 6.1-2.2 0-2.8-3.4-2.1-6.1-2.2z"/>
			<path id="L" class="s6" d="m328.8 80.7l-4.3 10.9c-0.7 1.4-1.8 2.5-4 2.1v-1.2c2 0.3 2.6-1 3.2-2.5l-3.7-9.3h1.7l2.8 7.7 2.6-7.7z"/>
		</g>
		<path class="s7" d="m103.2 230.2v-82.1"/>
		<path class="s4" d="m103.6 230.7h-0.4-0.5v-0.5h0.9z"/>
		<path class="s8" d="m103.2 133.3l4.6 14.3h-9.3z"/>
		<path class="s7" d="m449.8 230.2v-82.1"/>
		<path class="s4" d="m450.3 230.7h-0.5-0.4v-0.5h0.9z"/>
		<path class="s8" d="m449.8 133.3l4.7 14.3h-9.3z"/>
	</g>
</svg>