<svg version="1.2" xmlns="http://www.w3.org/2000/svg" viewBox="0 0 914.33 666.33" width="915" height="667">
	<title>tern-sosa</title>
	<style>
		.s0 { fill: #ffffff } 
		.s1 { fill: #dedeff;stroke: #3a414a } 
		.s2 { fill: #3a414a } 
		.s3 { fill: #fcfcca;stroke: #3a414a } 
		.s4 { fill: #3a414a;stroke: #3a414a;stroke-width: .4 } 
		.s5 { fill: #343b42 } 
		.s6 { fill: #333333 } 
	</style>
	<g>
		<path class="s0" d="m-460.8-133.5h1500v1000h-1500z"/>
		<path class="s1" d="m568.5 374.5c0 30.6-37 55.3-82.7 55.3-45.6 0-82.6-24.7-82.6-55.3 0-30.6 37-55.3 82.6-55.3 45.7 0 82.7 24.7 82.7 55.3z"/>
		<g id="a">
			<path id="v" class="s2" d="m435 364.3c5 0 7.6 2.9 7.6 7.8 0 4.9-2.7 8-7.6 8-5 0-7.6-3.1-7.6-8 0-4.9 2.6-7.8 7.6-7.8zm0 14c3.9 0 5.5-2.5 5.5-6.2 0-3.7-1.8-6.1-5.5-6.1-3.8 0-5.5 2.4-5.5 6.1 0 3.7 1.7 6.2 5.5 6.2z"/>
			<path id="w" class="s2" d="m450.7 367.8c3.3 0 4.3 2.5 4.4 6.1 0 4.1-1.5 6.2-4.4 6.2-1.9-0.1-3-0.7-3.6-2.1l-0.1 1.8h-1.9v-16.1h2v6.2c0.6-1.4 1.7-2.1 3.6-2.1zm-0.5 10.8c2.5 0 2.8-2.1 2.8-4.6 0-2.5-0.3-4.7-2.8-4.6-2.6 0-3.1 2-3.1 4.7 0 2.6 0.6 4.5 3.1 4.5z"/>
			<path id="x" class="s2" d="m464.3 371c-0.2-2.1-5.3-2.4-5.4 0 1 3.3 7.1 0.7 7.4 5.5 0.2 4.9-9.3 4.6-9.7 0.5l1.7-0.3c0.3 2.3 6 2.8 6.1 0-0.6-3.4-7-0.9-7.3-5.5-0.3-3.5 5.1-3.9 7.5-2.6 0.8 0.4 1.3 1.2 1.5 2.1"/>
			<path id="y" class="s2" d="m473.3 367.8c3.9 0 5.3 2.6 5.2 6.6h-8.4c0 2.5 0.9 4.1 3.3 4.2 1.6 0 2.6-0.8 3-1.8l1.7 0.5c-0.6 1.7-2.2 2.8-4.7 2.8-3.6 0-5.4-2.3-5.4-6.2 0.1-3.8 1.6-6.1 5.3-6.1zm3.2 5c0.3-3.7-4.7-4.7-6-1.7-0.2 0.4-0.4 1.1-0.4 1.7z"/>
			<path id="z" class="s2" d="m486.5 369.8c-4.8-1-3.3 5.6-3.5 10h-2l-0.1-11.7h1.9c0 0.7-0.1 1.8 0.1 2.4 0.4-1.7 1.4-3 3.6-2.5z"/>
			<path id="A" class="s2" d="m493.5 379.8h-2.4l-4.3-11.7h2.1l3.4 10.2 3.4-10.2h2.1"/>
			<path id="B" class="s2" d="m506.6 377.6c-0.9 1.3-1.9 2.5-4.2 2.5-2.2-0.1-3.6-1.3-3.6-3.6 0-3.9 3.9-3.8 7.7-3.8 0.2-2.2-0.5-3.4-2.5-3.4-1.5 0.1-2.5 0.5-2.6 1.9l-2-0.1c0.3-2.3 2-3.3 4.7-3.3 2.7 0 4.4 1.3 4.4 4v5.1c0 1.2 0.4 1.9 1.7 1.6v1.3c-1.9 0.5-3.7-0.2-3.6-2.2zm-5.7-1.1c0 1.3 0.7 2.1 1.9 2.1 2.6-0.2 3.9-1.8 3.7-4.6-2.6 0.1-5.6-0.3-5.6 2.5z"/>
			<path id="C" class="s2" d="m513.9 376.9c-0.1 1.5 1.1 1.8 2.3 1.4v1.5c-2 0.6-4.3 0.3-4.3-2.4v-7.9h-1.4v-1.4h1.5l0.6-2.7h1.3v2.7h2.1v1.4h-2.1z"/>
			<path id="D" class="s2" d="m517.9 365.6v-1.9h2v1.9zm0 14.2v-11.7h1.9v11.7z"/>
			<path id="E" class="s2" d="m527.5 367.8c3.8 0 5.2 2.3 5.2 6.2 0.1 3.8-1.7 6.1-5.3 6.1-3.6 0-5.1-2.4-5.2-6.1q0-6.2 5.3-6.2zm-0.1 10.8c2.7 0 3.3-1.9 3.3-4.6 0-2.7-0.5-4.7-3.2-4.7-2.6 0-3.2 2-3.2 4.7 0 2.6 0.6 4.5 3.1 4.6z"/>
			<path id="F" class="s2" d="m540.9 367.8c5.5-0.2 3.2 7.2 3.7 12h-2v-7.4c0-2-0.5-3.1-2.4-3-4.5 0.1-2.7 6.3-3 10.4h-2l-0.1-11.7h1.9c0 0.6-0.1 1.5 0.1 2 0.7-1.4 1.8-2.2 3.8-2.3z"/>
		</g>
		<path class="s3" d="m568.5 590.5c0 30.6-37 55.3-82.7 55.3-45.6 0-82.6-24.7-82.6-55.3 0-30.6 37-55.3 82.6-55.3 45.7 0 82.7 24.7 82.7 55.3z"/>
		<g id="b">
			<path id="G" class="s2" d="m469.1 584.9c0 2.5-1.4 3.9-3.7 4.3l4.3 6.6h-2.3l-4-6.3h-4.8v6.3h-2v-15.3c5.4 0.2 12.7-1.3 12.5 4.4zm-10.5 3c3.7-0.2 8.5 0.8 8.5-2.9 0-3.8-4.9-2.6-8.5-2.8z"/>
			<path id="y" class="s2" d="m476.9 583.8c3.9 0 5.3 2.6 5.2 6.6h-8.3c0 2.5 0.8 4.1 3.2 4.2 1.6 0 2.7-0.8 3.1-1.8l1.7 0.5c-0.7 1.7-2.3 2.8-4.8 2.8-3.5 0-5.4-2.3-5.3-6.2 0-3.8 1.6-6.1 5.2-6.1zm3.2 5c0.4-3.7-4.7-4.7-6-1.7-0.2 0.4-0.3 1.1-0.3 1.7z"/>
			<path id="x" class="s2" d="m491.4 587c-0.2-2.1-5.3-2.4-5.4 0 1 3.3 7.1 0.7 7.4 5.5 0.2 4.9-9.3 4.6-9.7 0.5l1.7-0.3c0.3 2.3 6 2.8 6.1 0-0.6-3.4-7-0.9-7.3-5.5-0.3-3.5 5.1-3.9 7.5-2.6 0.8 0.4 1.3 1.2 1.5 2.1"/>
			<path id="H" class="s2" d="m499.4 596.1c-5.5 0.2-3.4-7.2-3.8-12h2v7.4c0 1.9 0.4 3.1 2.4 3 4.4-0.1 2.8-6.2 3.1-10.4h1.9l0.1 11.7h-1.9c-0.1-0.6 0.1-1.5-0.1-2-0.7 1.3-1.7 2.2-3.7 2.3z"/>
			<path id="I" class="s2" d="m508 595.8v-16.1h2v16.1z"/>
			<path id="C" class="s2" d="m515.1 592.9c-0.2 1.5 1.1 1.8 2.3 1.4v1.5c-2 0.6-4.3 0.3-4.3-2.4v-7.9h-1.4v-1.4h1.5l0.6-2.7h1.3v2.7h2.1v1.4h-2.1z"/>
		</g>
		<path class="s4" d="m486.3 533.8h-1v-40.6h1zm0-62h-1v-41h1z"/>
		<path class="s2" d="m485.8 430.3h0.5v0.6h-1v-0.6z"/>
		<path class="s4" d="m485.8 430.3h0.6v0.6h-1.1v-0.6zm-0.5 0.5h1v-0.5h-0.5-0.5zm0.5 101.9l9.7-16.5 0.9 0.5-10.6 18-10.6-18 0.8-0.5z"/>
		<path class="s3" d="m568.5 75.8c0 30.6-37 55.4-82.7 55.4-45.6 0-82.6-24.8-82.6-55.4 0-30.5 37-55.3 82.6-55.3 45.7 0 82.7 24.8 82.7 55.3z"/>
		<path id="has result" class="s5" aria-label="has result"  d="m453.3 481.4v5.6h-1.5v-5.6q0-1.3-0.5-1.9-0.5-0.7-1.6-0.7-1.2 0-1.9 0.8-0.7 0.8-0.7 2.1v5.3h-1.6v-12.9h1.6v5q0.5-0.8 1.3-1.2 0.7-0.4 1.7-0.4 1.6 0 2.4 1 0.8 1 0.8 2.9zm8.8 0.9h-1.5q-1.8 0-2.6 0.5-0.7 0.4-0.7 1.4 0 0.8 0.6 1.3 0.5 0.5 1.4 0.5 1.3 0 2-0.9 0.8-0.9 0.8-2.4zm1.5-0.7v5.3h-1.5v-1.4q-0.5 0.9-1.3 1.3-0.8 0.4-1.9 0.4-1.4 0-2.3-0.8-0.8-0.8-0.8-2.2 0-1.5 1-2.3 1.1-0.8 3.2-0.8h2.1v-0.2q0-1-0.7-1.6-0.7-0.6-1.9-0.6-0.8 0-1.6 0.2-0.7 0.2-1.4 0.6v-1.4q0.8-0.4 1.6-0.5 0.8-0.2 1.5-0.2 2.1 0 3.1 1.1 0.9 1 0.9 3.1zm9.1-3.7v1.5q-0.6-0.4-1.3-0.5-0.7-0.2-1.5-0.2-1.1 0-1.7 0.3-0.5 0.4-0.5 1.1 0 0.5 0.4 0.8 0.4 0.3 1.6 0.6l0.5 0.1q1.6 0.4 2.3 1 0.7 0.6 0.7 1.8 0 1.3-1 2-1 0.8-2.8 0.8-0.8 0-1.6-0.2-0.8-0.1-1.7-0.4v-1.6q0.9 0.5 1.7 0.7 0.8 0.2 1.6 0.2 1.1 0 1.7-0.4 0.5-0.3 0.5-1 0-0.6-0.4-1-0.4-0.3-1.8-0.6l-0.5-0.1q-1.5-0.3-2.1-0.9-0.6-0.7-0.6-1.7 0-1.4 0.9-2.1 0.9-0.7 2.6-0.7 0.9 0 1.6 0.1 0.8 0.2 1.4 0.4zm13.7-0.4v1.6q-0.2-0.2-0.5-0.2-0.3-0.1-0.7-0.1-1.3 0-2 0.8-0.7 0.9-0.7 2.4v4.9h-1.5v-9.3h1.5v1.5q0.5-0.9 1.3-1.3 0.8-0.4 1.9-0.4 0.1 0 0.3 0 0.2 0.1 0.4 0.1zm9.2 4.4v0.8h-7q0.1 1.5 0.9 2.4 0.9 0.8 2.4 0.8 0.9 0 1.7-0.2 0.9-0.2 1.7-0.7v1.5q-0.9 0.3-1.7 0.5-0.9 0.2-1.8 0.2-2.2 0-3.5-1.3-1.3-1.3-1.3-3.5 0-2.3 1.2-3.6 1.3-1.4 3.4-1.4 1.8 0 2.9 1.2 1.1 1.2 1.1 3.3zm-7-0.4h5.5q0-1.3-0.7-2-0.7-0.8-1.8-0.8-1.3 0-2.1 0.7-0.7 0.8-0.9 2.1zm15.5-3.6v1.5q-0.7-0.4-1.4-0.5-0.7-0.2-1.4-0.2-1.2 0-1.7 0.3-0.6 0.4-0.6 1.1 0 0.5 0.4 0.8 0.4 0.3 1.6 0.6l0.6 0.1q1.6 0.4 2.3 1 0.7 0.6 0.7 1.8 0 1.3-1.1 2-1 0.8-2.8 0.8-0.7 0-1.5-0.2-0.9-0.1-1.8-0.4v-1.6q0.9 0.5 1.7 0.7 0.8 0.2 1.6 0.2 1.1 0 1.7-0.4 0.6-0.3 0.6-1 0-0.6-0.4-1-0.5-0.3-1.9-0.6l-0.5-0.1q-1.4-0.3-2.1-0.9-0.6-0.7-0.6-1.7 0-1.4 0.9-2.1 1-0.7 2.7-0.7 0.8 0 1.6 0.1 0.7 0.2 1.4 0.4zm2.7 5.4v-5.7h1.6v5.6q0 1.3 0.5 2 0.5 0.7 1.5 0.7 1.3 0 2-0.8 0.7-0.8 0.7-2.2v-5.3h1.5v9.3h-1.5v-1.4q-0.6 0.9-1.3 1.3-0.7 0.4-1.7 0.4-1.6 0-2.4-1-0.9-1-0.9-2.9zm3.9-5.9zm7.1 9.5v-12.9h1.5v12.9zm4.7-11.9h1.5v2.6h3.2v1.2h-3.2v5.1q0 1.1 0.3 1.4 0.3 0.4 1.3 0.4h1.6v1.2h-1.6q-1.8 0-2.4-0.6-0.7-0.7-0.7-2.4v-5.1h-1.1v-1.2h1.1z"/>
		<g id="e">
			<path id="v" class="s2" d="m437.6 53c5 0 7.6 2.9 7.6 7.8 0 4.9-2.7 8-7.6 8-5 0-7.6-3-7.6-8 0-4.9 2.6-7.8 7.6-7.8zm0 14c3.9 0 5.5-2.5 5.5-6.2 0-3.7-1.8-6.1-5.5-6.1-3.8 0-5.5 2.4-5.5 6.1 0 3.7 1.7 6.2 5.5 6.2z"/>
			<path id="w" class="s2" d="m453.3 56.6c3.3 0 4.3 2.4 4.3 6 0 4.1-1.4 6.2-4.3 6.2-1.9-0.1-3-0.7-3.6-2.1l-0.1 1.8h-2l0.1-16.1h2v6.3c0.6-1.5 1.7-2.1 3.6-2.1zm-0.5 10.7c2.5 0 2.8-2.1 2.8-4.6 0-2.5-0.3-4.7-2.8-4.6-2.6 0-3.1 2-3.1 4.7 0 2.6 0.6 4.5 3.1 4.5z"/>
			<path id="x" class="s2" d="m466.9 59.7c-0.2-2.1-5.3-2.3-5.4 0 1 3.3 7.1 0.7 7.4 5.6 0.2 4.8-9.3 4.5-9.7 0.4l1.7-0.3c0.3 2.3 6 2.8 6.1 0-0.6-3.4-7-0.9-7.3-5.5-0.3-3.5 5-3.9 7.5-2.6 0.8 0.4 1.3 1.2 1.5 2.2"/>
			<path id="y" class="s2" d="m475.9 56.6c3.8 0 5.3 2.5 5.1 6.5h-8.3c0 2.5 0.9 4.1 3.3 4.2 1.6 0.1 2.6-0.7 3-1.8l1.7 0.5c-0.6 1.7-2.3 2.8-4.7 2.8-3.6 0-5.5-2.3-5.4-6.2 0.1-3.8 1.6-6 5.3-6zm3.2 5c0.3-3.8-4.7-4.8-6-1.8-0.2 0.5-0.4 1.1-0.4 1.8z"/>
			<path id="z" class="s2" d="m489.1 58.5c-4.8-1-3.3 5.6-3.6 10h-1.9l-0.1-11.7h1.9c0 0.7-0.1 1.8 0.1 2.4 0.4-1.7 1.4-3 3.6-2.5z"/>
			<path id="A" class="s2" d="m496 68.5h-2.3l-4.3-11.7h2.1l3.4 10.2 3.4-10.2h2.1"/>
			<path id="B" class="s2" d="m509.2 66.3c-0.9 1.3-1.9 2.5-4.2 2.5-2.2-0.1-3.6-1.3-3.6-3.5 0-4 3.9-3.9 7.7-3.9 0.2-2.2-0.5-3.4-2.5-3.4-1.5 0.1-2.5 0.5-2.6 1.9l-2-0.1c0.3-2.3 2-3.2 4.7-3.2 2.7 0 4.4 1.2 4.4 3.9v5.1c-0.1 1.2 0.4 1.9 1.7 1.6v1.3c-1.9 0.5-3.7-0.2-3.6-2.2zm-5.8-1c0 1.2 0.8 2 2 2 2.6-0.2 3.9-1.8 3.7-4.6-2.6 0.1-5.7-0.3-5.7 2.6z"/>
			<path id="w" class="s2" d="m519.9 56.6c3.3 0 4.3 2.4 4.4 6 0 4.1-1.5 6.2-4.4 6.2-1.9-0.1-3-0.7-3.6-2.1l-0.1 1.8h-1.9v-16.1h2v6.3c0.6-1.5 1.7-2.1 3.6-2.1zm-0.5 10.7c2.5 0 2.8-2.1 2.8-4.6 0-2.5-0.3-4.7-2.8-4.6-2.6 0-3.1 2-3.1 4.7 0 2.6 0.6 4.5 3.1 4.5z"/>
			<path id="I" class="s2" d="m526.7 68.5v-16.1h1.9v16.1z"/>
			<path id="y" class="s2" d="m536.2 56.6c3.9 0 5.3 2.5 5.2 6.5h-8.3c0 2.5 0.8 4.1 3.3 4.2 1.6 0.1 2.6-0.7 3-1.8l1.7 0.5c-0.7 1.7-2.3 2.8-4.7 2.8-3.6 0-5.5-2.3-5.4-6.2 0-3.8 1.6-6 5.2-6zm3.2 5c0.4-3.8-4.7-4.8-6-1.8-0.1 0.5-0.3 1.1-0.3 1.8z"/>
		</g>
		<g id="f">
			<path id="R" class="s2" d="m445.6 79.9c5.4 0 11.8-0.9 11.8 4.6 0 4.8-4.8 5-9.8 4.7v6h-2zm2 7.7c3.6 0 7.7 0.7 7.7-3.1 0-3.6-4.2-2.9-7.7-2.9z"/>
			<path id="z" class="s2" d="m465.6 85.1c-4.8-1-3.3 5.7-3.5 10.1h-2v-11.7h1.8c0.1 0.7-0.1 1.8 0.1 2.4 0.4-1.7 1.4-3.1 3.6-2.6z"/>
			<path id="E" class="s2" d="m472.1 83.2c3.8 0 5.2 2.3 5.2 6.1 0.1 3.9-1.6 6.1-5.3 6.1-3.6 0-5.1-2.4-5.2-6.1q0-6.1 5.3-6.1zm-0.1 10.8c2.7 0 3.3-2 3.3-4.7 0-2.6-0.5-4.6-3.1-4.6-2.7 0-3.3 2-3.3 4.6 0 2.7 0.6 4.6 3.1 4.7z"/>
			<path id="S" class="s2" d="m485.4 83.2c3.4 0.1 4.3 2.6 4.3 6.1 0 3.5-1 6-4.3 6.1-2 0-3.1-0.8-3.7-2.1v6.5h-2v-16.3h1.9l0.1 1.8c0.6-1.3 1.7-2.1 3.7-2.1zm-0.5 10.8c2.4 0 2.7-2.1 2.7-4.7 0-2.5-0.3-4.5-2.7-4.5-2.6 0-3.2 1.9-3.2 4.7 0 2.6 0.6 4.5 3.2 4.5z"/>
			<path id="y" class="s2" d="m496.8 83.2c3.9 0 5.3 2.6 5.2 6.6h-8.4c0 2.4 0.9 4.1 3.3 4.2 1.6 0 2.7-0.8 3-1.8l1.8 0.5c-0.7 1.7-2.3 2.7-4.8 2.7-3.6 0-5.4-2.2-5.4-6.1 0.1-3.8 1.6-6.1 5.3-6.1zm3.2 5c0.4-3.7-4.7-4.7-6-1.7-0.2 0.4-0.4 1-0.4 1.7z"/>
			<path id="z" class="s2" d="m510 85.1c-4.8-1-3.3 5.7-3.5 10.1h-2l-0.1-11.7h1.9c0.1 0.7-0.1 1.8 0.1 2.4 0.4-1.7 1.4-3.1 3.6-2.6z"/>
			<path id="C" class="s2" d="m513.9 92.3c-0.1 1.5 1.2 1.8 2.4 1.4v1.4c-2 0.7-4.3 0.3-4.3-2.4v-7.8h-1.4v-1.4h1.5l0.5-2.7h1.3v2.7h2.2v1.4h-2.2z"/>
			<path id="T" class="s2" d="m527.5 83.5l-5.3 13.6c-0.8 1.7-2.3 3.2-5 2.6v-1.5c2.4 0.4 3.3-1.2 4-3.1l-4.7-11.6h2.1l3.6 9.6 3.3-9.6z"/>
		</g>
		<path class="s4" d="m486.3 318.2h-1v-71.7h1zm0-114.3h-1v-71.3h1z"/>
		<path class="s2" d="m486.3 318.7h-1v-0.5h1z"/>
		<path class="s4" d="m486.4 318.7h-1.1v-0.6h1.1zm-1-0.5v0.5h0.9v-0.5zm11.1-168.6l-0.9 0.6-9.7-16.5-9.8 16.5-0.9-0.5 10.7-18z"/>
		<g id="g">
			<path id="U" class="s6" d="m454.3 208.5c3-0.1 4.2 1.8 4.2 4.9 0 3.1-1.4 4.9-4.3 4.9-2.9 0-4.1-2-4.1-4.9q-0.1-4.9 4.2-4.9zm-0.1 8.6c2.2 0 2.6-1.6 2.6-3.7 0-2.2-0.4-3.7-2.5-3.7-2.1 0-2.6 1.5-2.6 3.7 0 2.1 0.5 3.6 2.5 3.7z"/>
			<path id="V" class="s6" d="m464.9 208.5c2.6 0 3.4 1.9 3.4 4.8 0 3.3-1.1 5-3.4 5-1.6-0.1-2.4-0.6-2.9-1.7l-0.1 1.5h-1.6l0.1-12.9h1.6v5c0.5-1.2 1.3-1.7 2.9-1.7zm-0.4 8.6c2 0 2.2-1.7 2.2-3.7 0-2-0.2-3.7-2.2-3.7-2.1 0-2.5 1.6-2.5 3.8 0 2.1 0.5 3.6 2.5 3.6z"/>
			<path id="L" class="s6" d="m475.7 211c-0.1-1.7-4.2-1.9-4.3 0 0.8 2.6 5.7 0.6 5.9 4.4 0.2 3.9-7.4 3.7-7.7 0.4l1.3-0.2c0.2 1.8 4.8 2.2 4.9 0-0.5-2.8-5.6-0.8-5.8-4.5-0.2-2.8 4-3.1 6-2 0.6 0.3 1 0.9 1.2 1.7"/>
			<path id="N" class="s6" d="m482.9 208.5c3.1 0 4.2 2 4.1 5.2h-6.6c0 2 0.7 3.3 2.6 3.4 1.3 0 2.1-0.6 2.4-1.5l1.4 0.4c-0.5 1.4-1.8 2.3-3.8 2.3-2.9 0-4.3-1.9-4.3-5 0.1-3 1.3-4.8 4.2-4.8zm2.6 4c0.3-3-3.8-3.8-4.8-1.4-0.2 0.3-0.3 0.8-0.3 1.4z"/>
			<path id="W" class="s6" d="m493.5 210c-3.9-0.8-2.6 4.5-2.8 8.1h-1.6l-0.1-9.4h1.5c0.1 0.6 0 1.4 0.1 1.9 0.3-1.3 1.1-2.4 2.9-2z"/>
			<path id="X" class="s6" d="m499 218.1h-1.8l-3.4-9.4h1.6l2.7 8.1 2.8-8.1h1.7"/>
			<path id="N" class="s6" d="m507.5 208.5c3.2 0 4.3 2 4.2 5.2h-6.7c0 2 0.7 3.3 2.6 3.4 1.3 0 2.2-0.6 2.5-1.5l1.3 0.4c-0.5 1.4-1.8 2.3-3.8 2.3-2.8 0-4.3-1.9-4.3-5 0.1-3 1.3-4.8 4.2-4.8zm2.6 4c0.3-3-3.7-3.8-4.8-1.4-0.1 0.3-0.3 0.8-0.3 1.4z"/>
			<path id="Y" class="s6" d="m516.7 208.5c1.5 0 2.3 0.6 2.9 1.6v-4.9h1.6v12.9h-1.5c-0.1-0.5 0-1.2-0.1-1.6-0.5 1.2-1.4 1.8-2.9 1.8-2.6 0-3.4-2-3.5-4.9 0-3.2 1.2-4.9 3.5-4.9zm0.4 1.2c-2 0-2.2 1.6-2.2 3.7 0 1.9 0.2 3.6 2.2 3.6 2 0 2.5-1.6 2.5-3.7 0-2.1-0.5-3.7-2.5-3.6z"/>
		</g>
		<g id="h">
			<path id="M" class="s6" d="m459 229.8c2.7 0.1 3.4 2 3.4 4.8 0 2.9-0.8 4.9-3.4 5-1.6 0-2.4-0.7-3-1.7l0.1 5.2h-1.6l-0.1-13.1h1.6l0.1 1.5c0.5-1.1 1.3-1.7 2.9-1.7zm-0.4 8.6c2 0 2.2-1.7 2.2-3.7 0-2-0.3-3.6-2.2-3.7-2.1 0-2.5 1.6-2.5 3.8 0 2.1 0.5 3.6 2.5 3.6z"/>
			<path id="W" class="s6" d="m468.8 231.3c-3.9-0.8-2.6 4.5-2.8 8.1h-1.6v-9.4h1.4c0.1 0.6 0 1.4 0.1 1.9 0.3-1.3 1.2-2.4 2.9-2z"/>
			<path id="U" class="s6" d="m474 229.8c3 0 4.2 1.8 4.2 4.9 0 3.1-1.3 4.9-4.3 4.9-2.9 0-4.1-1.9-4.1-4.9q0-4.9 4.2-4.9zm-0.1 8.6c2.2 0 2.7-1.5 2.7-3.7 0-2.1-0.4-3.7-2.6-3.7-2.1 0-2.6 1.6-2.6 3.7 0 2.1 0.5 3.7 2.5 3.7z"/>
			<path id="M" class="s6" d="m484.6 229.8c2.7 0.1 3.5 2 3.5 4.8 0 2.9-0.8 4.9-3.5 5-1.5 0-2.4-0.7-3-1.7l0.1 5.2h-1.6v-13.1h1.5l0.1 1.5c0.5-1.1 1.4-1.7 2.9-1.7zm-0.4 8.6c2 0 2.2-1.7 2.2-3.7 0-2-0.3-3.6-2.2-3.7-2.1 0-2.5 1.6-2.5 3.8 0 2.1 0.5 3.6 2.5 3.6z"/>
			<path id="N" class="s6" d="m493.7 229.8c3.2 0 4.3 2.1 4.2 5.2h-6.7c0 2 0.7 3.4 2.6 3.4 1.3 0 2.2-0.6 2.5-1.4l1.3 0.4c-0.5 1.3-1.8 2.2-3.8 2.2-2.8 0-4.3-1.8-4.3-5 0.1-3 1.3-4.8 4.2-4.8zm2.6 4c0.3-3-3.7-3.8-4.8-1.4-0.1 0.4-0.3 0.9-0.3 1.4z"/>
			<path id="W" class="s6" d="m504.3 231.3c-3.8-0.8-2.6 4.5-2.8 8.1h-1.6v-9.4h1.4c0.1 0.6 0 1.4 0.1 1.9 0.3-1.3 1.2-2.4 2.9-2z"/>
			<path id="Q" class="s6" d="m507.5 237.1c-0.1 1.2 0.9 1.4 1.8 1.1v1.1c-1.6 0.5-3.4 0.3-3.4-1.9v-6.3h-1.1v-1.1h1.2l0.4-2.1h1.1v2.1h1.7v1.1h-1.7z"/>
			<path id="Z" class="s6" d="m518.3 230l-4.2 10.9c-0.7 1.4-1.8 2.5-4 2.1v-1.2c1.9 0.3 2.6-1 3.1-2.5l-3.7-9.3h1.7l2.8 7.7 2.7-7.7z"/>
		</g>
		<path class="s3" d="m301.8 75.8c0 30.6-37 55.4-82.6 55.4-45.7 0-82.7-24.8-82.7-55.4 0-30.5 37-55.3 82.7-55.3 45.6 0 82.6 24.8 82.6 55.3z"/>
		<g id="i">
			<path id="R" class="s2" d="m170.2 65.8c5.3 0.1 11.8-0.9 11.8 4.7 0 4.8-4.8 4.9-9.8 4.7v6h-2zm2 7.7c3.5 0 7.7 0.6 7.7-3.1 0-3.7-4.2-2.9-7.7-3z"/>
			<path id="z" class="s2" d="m190.2 71.1c-4.8-1-3.3 5.6-3.5 10.1h-2l-0.1-11.8h1.9c0 0.8-0.1 1.8 0.1 2.4 0.4-1.6 1.4-3 3.6-2.5z"/>
			<path id="E" class="s2" d="m196.7 69.2c3.8-0.1 5.2 2.3 5.2 6.1 0.1 3.9-1.7 6.1-5.3 6.1-3.6 0-5.1-2.4-5.2-6.1q0-6.1 5.3-6.1zm-0.1 10.7c2.7 0.1 3.3-1.9 3.3-4.6 0-2.7-0.5-4.6-3.2-4.6-2.6 0-3.2 1.9-3.2 4.6 0 2.6 0.6 4.6 3.1 4.6z"/>
			<path id="aa" class="s2" d="m208.8 70.7c-2.5 0-3 2.1-3 4.5 0 2.5 0.6 4.7 3 4.7 1.4 0 2.5-0.9 2.6-2.4l2 0.1c-0.4 2.3-1.9 3.8-4.6 3.8-3.6 0-4.7-2.5-5-6.1-0.7-5.8 6.2-8.1 9-4 0.3 0.5 0.3 0.9 0.5 1.4l-2 0.2c-0.3-1.3-1-2.2-2.5-2.2z"/>
			<path id="y" class="s2" d="m220.1 69.2c3.9 0 5.3 2.6 5.2 6.5h-8.3c0 2.5 0.8 4.2 3.2 4.2 1.6 0.1 2.7-0.7 3.1-1.8l1.7 0.5c-0.7 1.8-2.3 2.8-4.8 2.8-3.5 0-5.4-2.3-5.3-6.2 0-3.7 1.6-6 5.2-6zm3.2 5c0.4-3.7-4.7-4.8-6-1.8-0.1 0.5-0.3 1.1-0.3 1.8z"/>
			<path id="ab" class="s2" d="m231.5 69.2c2 0 3 0.8 3.7 2v-6.2h2v16.2h-1.8c-0.2-0.7 0-1.5-0.2-2-0.6 1.5-1.7 2.2-3.7 2.2-3.2 0-4.2-2.4-4.3-6 0-4.1 1.4-6.2 4.3-6.2zm0.6 1.5c-2.5 0-2.8 2.1-2.8 4.6 0 2.5 0.3 4.6 2.7 4.6 2.6 0 3.2-2 3.2-4.7 0-2.6-0.6-4.6-3.1-4.5z"/>
			<path id="H" class="s2" d="m243.8 81.4c-5.5 0.2-3.3-7.2-3.7-12h1.9v7.4c0 1.9 0.5 3.1 2.4 3.1 4.5-0.2 2.8-6.3 3.1-10.5h1.9l0.1 11.8h-1.9c0-0.7 0.1-1.6-0.1-2.1-0.7 1.4-1.7 2.2-3.7 2.3z"/>
			<path id="z" class="s2" d="m258 71.1c-4.8-1-3.3 5.6-3.5 10.1h-2v-11.8h1.8c0.1 0.8 0 1.8 0.1 2.4 0.4-1.6 1.5-3 3.6-2.5z"/>
			<path id="y" class="s2" d="m264.5 69.2c3.9 0 5.3 2.6 5.2 6.5h-8.3c0 2.5 0.8 4.2 3.2 4.2 1.6 0.1 2.7-0.7 3-1.8l1.8 0.5c-0.7 1.8-2.3 2.8-4.8 2.8-3.6 0-5.4-2.3-5.3-6.2 0-3.7 1.6-6 5.2-6zm3.2 5c0.4-3.7-4.7-4.8-6-1.8-0.2 0.5-0.3 1.1-0.3 1.8z"/>
		</g>
		<path class="s4" d="m371.1 259.2l20.3 23.3 14.1 17.5 12.3 16.6 11.1 16.6-0.8 0.6-11.2-16.6-12.2-16.6-14-17.5-20.4-23.3-1.6-1.8h1.3zm-98.2-125.5l8 14.2 8.2 13.4 8.8 13 9.8 13.3 11.8 14.8 31.2 34.4h-1.4l-30.6-33.8-11.9-14.8-9.8-13.3-8.8-13.1-8.2-13.4-7.9-14.3-5.8-11.2 0.9-0.5z"/>
		<path class="s2" d="m429.2 333.6l-0.8 0.6-0.3-0.4 0.8-0.6z"/>
		<path class="s4" d="m429.2 333.6l-0.8 0.6-0.3-0.5 0.8-0.6zm-1.1 0.2l0.3 0.3 0.8-0.5-0.3-0.4zm-144.2-200.8l-0.5 0.9-16.2-10.2-1.2 19.1-1-0.1 1.3-20.8z"/>
		<g id="j">
			<path id="O" class="s6" d="m302.1 251.1c-4.4 0.2-2.6-5.7-3-9.5h1.6v5.9c0 1.5 0.4 2.5 1.9 2.4 3.6-0.1 2.3-5 2.5-8.3h1.5l0.1 9.4h-1.5c0-0.5 0.1-1.3-0.1-1.7-0.5 1.1-1.4 1.8-3 1.8z"/>
			<path id="L" class="s6" d="m314.5 243.9c-0.1-1.7-4.2-1.9-4.3 0 0.8 2.6 5.7 0.6 5.9 4.4 0.2 3.9-7.4 3.7-7.7 0.4l1.3-0.2c0.2 1.8 4.8 2.2 4.9 0-0.5-2.8-5.6-0.8-5.8-4.5-0.2-2.8 4-3.1 6-2 0.6 0.3 1 0.9 1.2 1.7"/>
			<path id="N" class="s6" d="m321.7 241.4c3.1 0 4.2 2 4.1 5.2h-6.6c0 2 0.7 3.3 2.6 3.4 1.3 0 2.1-0.6 2.4-1.5l1.4 0.4c-0.5 1.4-1.8 2.2-3.8 2.2-2.9 0-4.3-1.8-4.3-4.9 0-3 1.3-4.8 4.2-4.8zm2.6 4c0.3-3-3.8-3.8-4.8-1.4-0.2 0.3-0.3 0.8-0.3 1.4z"/>
			<path id="Y" class="s6" d="m330.8 241.4c1.6 0 2.4 0.6 3 1.6l-0.1-4.9h1.6l0.1 12.9h-1.5c-0.1-0.5 0-1.2-0.2-1.6-0.4 1.2-1.3 1.7-2.9 1.7-2.6 0-3.4-1.9-3.4-4.8 0-3.3 1.1-4.9 3.4-4.9zm0.5 1.2c-2 0-2.3 1.6-2.3 3.7 0 1.9 0.3 3.6 2.2 3.6 2.1 0 2.5-1.6 2.5-3.7 0-2.1-0.4-3.7-2.4-3.6z"/>
		</g>
		<g id="k">
			<path id="M" class="s6" d="m347.1 241.4c2.7 0 3.5 2 3.5 4.8 0 2.8-0.8 4.8-3.5 4.9-1.5 0-2.4-0.6-2.9-1.6v5.2h-1.6v-13.1h1.5l0.1 1.4c0.5-1 1.4-1.6 2.9-1.6zm-0.4 8.6c2 0 2.3-1.7 2.3-3.7 0-2.1-0.3-3.6-2.3-3.7-2 0-2.5 1.6-2.5 3.8 0 2.1 0.5 3.6 2.5 3.6z"/>
			<path id="W" class="s6" d="m357 242.9c-3.9-0.8-2.7 4.5-2.9 8.1h-1.5l-0.1-9.4h1.5c0 0.6-0.1 1.4 0.1 1.9 0.3-1.3 1.1-2.4 2.9-2z"/>
			<path id="U" class="s6" d="m362.1 241.4c3.1-0.1 4.2 1.8 4.2 4.9 0.1 3.1-1.3 4.8-4.2 4.8-2.9 0-4.1-1.9-4.2-4.8q0-4.9 4.2-4.9zm0 8.6c2.2 0 2.6-1.6 2.6-3.7 0-2.2-0.4-3.7-2.5-3.7-2.1 0-2.6 1.5-2.6 3.7 0 2.1 0.5 3.6 2.5 3.7z"/>
			<path id="ac" class="s6" d="m371.8 242.6c-2 0-2.3 1.6-2.3 3.6 0 2 0.4 3.7 2.3 3.7 1.2 0 2-0.7 2.1-1.9l1.6 0.1c-0.3 1.9-1.5 3-3.6 3-2.9 0-3.8-2-4.1-4.8-0.5-4.6 5-6.5 7.3-3.2 0.2 0.3 0.2 0.7 0.3 1.1l-1.6 0.1c-0.2-1-0.7-1.7-2-1.7z"/>
			<path id="N" class="s6" d="m380.9 241.4c3.1 0 4.3 2 4.2 5.2h-6.7c0 2 0.7 3.3 2.6 3.4 1.3 0 2.1-0.6 2.4-1.5l1.4 0.4c-0.5 1.4-1.8 2.2-3.8 2.2-2.9 0-4.3-1.8-4.3-4.9 0.1-3 1.3-4.8 4.2-4.8zm2.6 4c0.3-3-3.8-3.8-4.8-1.4-0.2 0.3-0.3 0.8-0.3 1.4z"/>
			<path id="Y" class="s6" d="m390 241.4c1.6 0 2.4 0.6 3 1.6v-4.9h1.5l0.1 12.9h-1.5c-0.1-0.5 0-1.2-0.1-1.6-0.5 1.2-1.4 1.7-3 1.7-2.6 0-3.4-1.9-3.4-4.8 0-3.3 1.1-4.9 3.4-4.9zm0.5 1.2c-2 0-2.3 1.6-2.3 3.7 0 1.9 0.3 3.6 2.2 3.6 2.1 0 2.6-1.6 2.6-3.7 0-2.1-0.5-3.7-2.5-3.6z"/>
			<path id="O" class="s6" d="m399.9 251.1c-4.4 0.2-2.7-5.7-3-9.5h1.5v5.9c0 1.5 0.4 2.5 2 2.4 3.5-0.1 2.2-5 2.4-8.3h1.6v9.4h-1.5c0-0.5 0.1-1.3-0.1-1.7-0.5 1.1-1.3 1.8-2.9 1.8z"/>
			<path id="W" class="s6" d="m411.2 242.9c-3.8-0.8-2.6 4.5-2.8 8.1h-1.6v-9.4h1.5c0 0.6-0.1 1.4 0.1 1.9 0.3-1.3 1.1-2.4 2.8-2z"/>
			<path id="N" class="s6" d="m416.4 241.4c3.1 0 4.3 2 4.2 5.2h-6.7c0 2 0.7 3.3 2.6 3.4 1.3 0 2.1-0.6 2.4-1.5l1.4 0.4c-0.5 1.4-1.8 2.2-3.8 2.2-2.9 0-4.3-1.8-4.3-4.9 0.1-3 1.3-4.8 4.2-4.8zm2.6 4c0.3-3-3.8-3.8-4.8-1.4-0.2 0.3-0.3 0.8-0.3 1.4z"/>
		</g>
		<path class="s3" d="m893.8 201.2c0 30.5-37 55.3-82.6 55.3-45.7 0-82.7-24.8-82.7-55.3 0-30.6 37-55.4 82.7-55.4 45.6 0 82.6 24.8 82.6 55.4z"/>
		<g id="l">
			<path id="ad" class="s2" d="m761.9 180.3v5.7h8.5v1.7h-8.5v6.2h-2.1v-15.3h10.8v1.7z"/>
			<path id="y" class="s2" d="m777.7 181.9c3.9 0 5.3 2.6 5.2 6.5h-8.4c0 2.5 0.9 4.2 3.3 4.2 1.6 0.1 2.6-0.7 3-1.8l1.7 0.5c-0.6 1.8-2.2 2.8-4.7 2.8-3.6 0-5.4-2.3-5.4-6.2 0.1-3.7 1.6-6 5.3-6zm3.2 5c0.4-3.7-4.7-4.8-6-1.7-0.2 0.4-0.4 1-0.4 1.7z"/>
			<path id="B" class="s2" d="m792.5 191.6c-0.9 1.3-1.9 2.6-4.1 2.5-2.3-0.1-3.6-1.3-3.6-3.5-0.1-4 3.9-3.9 7.7-3.9 0.2-2.2-0.6-3.3-2.5-3.3-1.5 0-2.6 0.4-2.6 1.9l-2.1-0.2c0.3-2.3 2.1-3.2 4.7-3.2 2.8 0 4.5 1.2 4.5 3.9v5.1c-0.1 1.2 0.4 2 1.7 1.7v1.2c-1.9 0.6-3.8-0.1-3.7-2.2zm-5.7-1c0 1.2 0.7 2 2 2 2.5-0.2 3.9-1.8 3.7-4.5-2.7 0.1-5.7-0.3-5.7 2.5z"/>
			<path id="C" class="s2" d="m799.8 191c-0.1 1.4 1.1 1.8 2.4 1.3v1.5c-2.1 0.6-4.3 0.3-4.3-2.4v-7.8h-1.4v-1.5h1.5l0.5-2.6h1.3v2.6h2.2v1.5h-2.2z"/>
			<path id="H" class="s2" d="m807.5 194.1c-5.4 0.3-3.3-7.2-3.7-12h2v7.4c0 2 0.4 3.1 2.4 3.1 4.4-0.2 2.7-6.3 3.1-10.5h1.9v11.8h-1.8c-0.1-0.7 0-1.6-0.1-2.1-0.7 1.4-1.8 2.2-3.8 2.3z"/>
			<path id="z" class="s2" d="m821.7 183.8c-4.8-1-3.2 5.6-3.5 10.1h-1.9l-0.1-11.8h1.8c0.1 0.8 0 1.8 0.2 2.4 0.3-1.6 1.4-3 3.5-2.5z"/>
			<path id="y" class="s2" d="m828.2 181.9c3.9 0 5.3 2.6 5.2 6.5h-8.3c0 2.5 0.8 4.2 3.3 4.2 1.6 0.1 2.6-0.7 3-1.8l1.7 0.5c-0.7 1.8-2.3 2.8-4.7 2.8-3.6 0-5.5-2.3-5.4-6.2 0-3.7 1.6-6 5.2-6zm3.2 5c0.4-3.7-4.7-4.8-6-1.7-0.1 0.4-0.3 1-0.3 1.7z"/>
		</g>
		<g id="m">
			<path id="v" class="s2" d="m849.2 178.4c5 0 7.6 2.8 7.6 7.7 0 4.9-2.7 8-7.6 8-5 0-7.6-3-7.6-8 0-4.9 2.6-7.7 7.6-7.7zm0 14c3.9 0 5.5-2.6 5.5-6.3 0-3.7-1.8-6.1-5.5-6.1-3.8 0-5.5 2.4-5.5 6.1 0 3.7 1.7 6.2 5.5 6.3z"/>
			<path id="ae" class="s2" d="m864.1 179.4c-1.9-0.5-2.6 0.6-2.4 2.7h2.4v1.5h-2.4v10.3h-1.9v-10.3h-1.6v-1.5h1.6c-0.4-3.2 1.1-5 4.3-4.2z"/>
		</g>
		<g id="n">
			<path id="af" class="s2" d="m776 220.5v-15.3h2.1v15.3z"/>
			<path id="F" class="s2" d="m787.4 208.6c5.5-0.3 3.3 7.1 3.7 11.9h-2v-7.4c0-2-0.5-3.1-2.4-3-4.4 0.1-2.7 6.3-3 10.4h-2v-11.7h1.8c0.1 0.6-0.1 1.5 0.1 2 0.7-1.4 1.8-2.2 3.8-2.2z"/>
			<path id="C" class="s2" d="m796.2 217.6c-0.2 1.5 1.1 1.8 2.3 1.4v1.5c-2 0.6-4.3 0.3-4.3-2.4v-7.9h-1.4v-1.4h1.5l0.6-2.7h1.3v2.7h2.1v1.4h-2.1z"/>
			<path id="y" class="s2" d="m804.9 208.6c3.9 0 5.3 2.5 5.1 6.5h-8.3c0 2.5 0.9 4.1 3.3 4.2 1.6 0.1 2.6-0.7 3-1.8l1.7 0.5c-0.6 1.7-2.2 2.8-4.7 2.8-3.6 0-5.4-2.3-5.4-6.2 0.1-3.8 1.6-6 5.3-6zm3.2 5c0.3-3.8-4.7-4.8-6-1.8-0.2 0.5-0.4 1.1-0.4 1.8z"/>
			<path id="z" class="s2" d="m818.1 210.5c-4.8-1-3.3 5.6-3.5 10h-2l-0.1-11.7h1.9c0 0.7-0.1 1.8 0.1 2.4 0.4-1.7 1.4-3 3.6-2.5z"/>
			<path id="y" class="s2" d="m824.6 208.6c3.8 0 5.3 2.5 5.1 6.5h-8.3c0 2.5 0.9 4.1 3.3 4.2 1.6 0.1 2.6-0.7 3-1.8l1.7 0.5c-0.6 1.7-2.3 2.8-4.7 2.8-3.6 0-5.5-2.3-5.4-6.2 0.1-3.8 1.6-6 5.3-6zm3.2 5c0.3-3.8-4.7-4.8-6-1.8-0.2 0.5-0.4 1.1-0.4 1.8z"/>
			<path id="x" class="s2" d="m839.1 211.7c-0.2-2.1-5.3-2.3-5.4 0 0.9 3.3 7.1 0.7 7.3 5.6 0.3 4.8-9.2 4.5-9.7 0.5l1.8-0.4c0.2 2.3 6 2.8 6 0-0.6-3.4-7-0.9-7.3-5.5-0.2-3.5 5.1-3.9 7.6-2.6 0.7 0.4 1.3 1.2 1.5 2.2"/>
			<path id="C" class="s2" d="m845.5 217.6c-0.1 1.5 1.1 1.8 2.3 1.4v1.5c-2 0.6-4.3 0.3-4.3-2.4v-7.9h-1.4v-1.4h1.5l0.6-2.7h1.3v2.7h2.1v1.4h-2.1z"/>
		</g>
		<path class="s4" d="m590.7 297.5l-5.1 2.7-4.6 2.9-4.4 2.9-4.2 3-4 3.2-3.9 3.3-3.8 3.5-3.7 3.8-3.6 4.1-3.7 4.4-3.3 4.3-0.8-0.6 3.3-4.4 3.7-4.4 3.7-4.1 3.7-3.8 3.8-3.5 3.9-3.4 4.1-3.2 4.2-3 4.4-3 4.7-2.8 5.1-2.8 2.8-1.4h2.3zm150-65.4l-2.3 2.1-5 4.3-5 4-5.2 3.7-5.4 3.6-5.7 3.4-6 3.3-6.5 3.3-7.3 3.2-8.6 3.4-10.8 3.7-13 3.8h-3.6l16.3-4.7 10.8-3.8 8.5-3.3 7.2-3.2 6.5-3.2 6-3.3 5.7-3.4 5.3-3.6 5.2-3.7 5-4 4.9-4.2 2.3-2.1z"/>
		<path class="s2" d="m546.4 335.6l-0.3 0.4-0.6-0.4-0.2-0.1 0.3-0.5z"/>
		<path class="s4" d="m546.4 335.6l-0.3 0.5-0.6-0.5-0.3-0.1 0.4-0.5zm-1.1-0.2l0.2 0.1 0.6 0.5 0.2-0.4-0.7-0.6zm188.9-84.6l-0.9-0.3 6.2-18.1-18.9 3.3-0.2-1 20.6-3.6z"/>
		<g id="c">
			<path id="J" class="s6" d="m541 279.7c-3.6 0-2.2 5.1-2.4 8.4h-1.6v-12.9h1.6l-0.1 5.1c0.6-1.1 1.4-1.8 3-1.8 4.4 0 2.7 5.7 3 9.6h-1.6v-6c0.1-1.6-0.4-2.4-1.9-2.4z"/>
			<path id="K" class="s6" d="m552.6 286.3c-0.7 1-1.5 2-3.4 2-1.7-0.1-2.8-1.1-2.8-2.8-0.1-3.2 3.1-3.2 6.1-3.2 0.2-1.7-0.4-2.6-2-2.6-1.2 0-2 0.3-2 1.5l-1.7-0.1c0.3-1.9 1.7-2.6 3.8-2.6 2.2 0 3.5 1 3.5 3.2v4c0 1 0.4 1.6 1.4 1.3v1c-1.5 0.5-3-0.1-2.9-1.7zm-4.6-0.8c0 0.9 0.6 1.6 1.6 1.6 2-0.2 3.1-1.4 2.9-3.7-2.1 0.1-4.5-0.2-4.5 2.1z"/>
			<path id="L" class="s6" d="m562.2 281c-0.2-1.7-4.3-1.9-4.3 0 0.7 2.6 5.7 0.6 5.9 4.5 0.2 3.8-7.4 3.6-7.8 0.4l1.4-0.3c0.2 1.8 4.8 2.2 4.8 0-0.5-2.8-5.6-0.7-5.8-4.4-0.2-2.9 4.1-3.2 6-2.1 0.6 0.3 1.1 0.9 1.2 1.7"/>
		</g>
		<g id="o">
			<path id="ag" class="s6" d="m574.3 276.5c-1.5-0.4-2 0.5-1.8 2.2h1.8v1.1h-1.8v8.3h-1.6v-8.3h-1.3v-1.1h1.3c-0.3-2.6 0.9-4.1 3.4-3.4z"/>
			<path id="N" class="s6" d="m579.2 278.5c3.1 0 4.3 2.1 4.2 5.2h-6.7c0 2 0.7 3.3 2.6 3.4 1.3 0 2.1-0.6 2.4-1.4l1.4 0.3c-0.5 1.4-1.8 2.3-3.8 2.3-2.8 0-4.3-1.9-4.3-5 0.1-3 1.3-4.8 4.2-4.8zm2.6 4c0.3-3-3.8-3.8-4.8-1.4-0.2 0.4-0.3 0.8-0.3 1.4z"/>
			<path id="K" class="s6" d="m591.1 286.3c-0.7 1-1.5 2-3.3 2-1.8-0.1-2.9-1.1-2.9-2.8-0.1-3.2 3.1-3.2 6.2-3.2 0.1-1.7-0.5-2.6-2.1-2.6-1.1 0-2 0.3-2 1.5l-1.7-0.1c0.3-1.9 1.7-2.6 3.8-2.6 2.2 0 3.5 1 3.5 3.2v4c0 1 0.4 1.6 1.4 1.3v1c-1.5 0.5-3-0.1-2.9-1.7zm-4.6-0.8c0 0.9 0.6 1.6 1.6 1.6 2-0.2 3.1-1.4 3-3.7-2.2 0.1-4.6-0.2-4.6 2.1z"/>
			<path id="Q" class="s6" d="m596.9 285.8c-0.1 1.1 0.9 1.4 1.9 1v1.2c-1.6 0.5-3.4 0.3-3.4-1.9v-6.3h-1.1v-1.1h1.2l0.4-2.1h1v2.1h1.8v1.1h-1.8z"/>
			<path id="O" class="s6" d="m603.1 288.3c-4.4 0.2-2.6-5.8-3-9.6h1.6v5.9c0 1.5 0.3 2.5 1.9 2.4 3.6-0.1 2.2-5 2.5-8.3h1.5l0.1 9.4h-1.5c-0.1-0.5 0-1.3-0.1-1.7-0.6 1.1-1.4 1.8-3 1.9z"/>
			<path id="W" class="s6" d="m614.5 280c-3.9-0.8-2.6 4.5-2.8 8.1h-1.6l-0.1-9.4h1.5c0.1 0.6 0 1.4 0.1 1.9 0.3-1.3 1.1-2.4 2.9-2z"/>
			<path id="N" class="s6" d="m619.7 278.5c3.1 0 4.2 2.1 4.1 5.2h-6.7c0 2 0.7 3.3 2.7 3.4 1.2 0 2.1-0.6 2.4-1.4l1.4 0.3c-0.6 1.4-1.9 2.3-3.8 2.3-2.9 0-4.4-1.9-4.3-5 0-3 1.2-4.8 4.2-4.8zm2.5 4c0.3-3-3.7-3.8-4.8-1.4-0.1 0.4-0.3 0.8-0.3 1.4z"/>
		</g>
		<g id="p">
			<path id="U" class="s6" d="m634.5 278.5c3-0.1 4.2 1.8 4.2 4.9 0 3.1-1.4 4.9-4.3 4.9-2.9 0-4.1-2-4.1-4.9q0-4.9 4.2-4.9zm-0.1 8.6c2.2 0 2.6-1.5 2.6-3.7 0-2.1-0.4-3.7-2.5-3.7-2.1 0-2.6 1.6-2.6 3.7 0 2.1 0.5 3.6 2.5 3.7z"/>
			<path id="ag" class="s6" d="m644.4 276.5c-1.5-0.4-2.1 0.5-1.9 2.2h1.9v1.1h-1.9v8.3h-1.5v-8.3h-1.3v-1.1h1.3c-0.4-2.6 0.8-4.1 3.4-3.4z"/>
		</g>
		<g id="q">
			<path id="ah" class="s6" d="m650.5 276.7v-1.5h1.6v1.5zm0 11.4v-9.4h1.5v9.4z"/>
			<path id="ai" class="s6" d="m659 278.5c4.4-0.2 2.6 5.7 2.9 9.6h-1.5v-6c0-1.5-0.4-2.4-2-2.4-3.5 0.1-2.1 5.1-2.4 8.4h-1.6v-9.4h1.5c0 0.5-0.1 1.2 0.1 1.6 0.5-1.1 1.4-1.8 3-1.8z"/>
			<path id="Q" class="s6" d="m666 285.8c-0.1 1.1 0.9 1.4 1.9 1v1.2c-1.7 0.5-3.5 0.3-3.5-1.9v-6.3h-1.1v-1.1h1.2l0.4-2.1h1.1v2.1h1.7v1.1h-1.7z"/>
			<path id="N" class="s6" d="m672.9 278.5c3.2 0 4.3 2.1 4.2 5.2h-6.7c0 2 0.7 3.3 2.6 3.4 1.3 0 2.2-0.6 2.5-1.4l1.3 0.3c-0.5 1.4-1.8 2.3-3.8 2.3-2.8 0-4.3-1.9-4.3-5 0.1-3 1.3-4.8 4.2-4.8zm2.6 4c0.3-3-3.7-3.8-4.8-1.4-0.1 0.4-0.3 0.8-0.3 1.4z"/>
			<path id="W" class="s6" d="m683.5 280c-3.8-0.8-2.6 4.5-2.8 8.1h-1.6v-9.4h1.4c0.1 0.6 0 1.4 0.1 1.9 0.3-1.3 1.2-2.4 2.9-2z"/>
			<path id="N" class="s6" d="m688.7 278.5c3.1 0 4.2 2.1 4.1 5.2h-6.6c0 2 0.7 3.3 2.6 3.4 1.3 0 2.1-0.6 2.4-1.4l1.4 0.3c-0.5 1.4-1.8 2.3-3.8 2.3-2.9 0-4.3-1.9-4.3-5 0-3 1.3-4.8 4.2-4.8zm2.6 4c0.3-3-3.8-3.8-4.8-1.4-0.2 0.4-0.3 0.8-0.3 1.4z"/>
			<path id="L" class="s6" d="m700.3 281c-0.1-1.7-4.2-1.9-4.3 0 0.7 2.6 5.7 0.6 5.9 4.5 0.2 3.8-7.4 3.6-7.8 0.4l1.4-0.3c0.2 1.8 4.8 2.2 4.9 0-0.5-2.8-5.6-0.7-5.9-4.4-0.2-2.9 4.1-3.2 6-2.1 0.6 0.3 1.1 0.9 1.2 1.7"/>
			<path id="Q" class="s6" d="m705.4 285.8c-0.1 1.1 0.9 1.4 1.9 1v1.2c-1.6 0.5-3.4 0.3-3.4-1.9v-6.3h-1.1v-1.1h1.2l0.4-2.1h1v2.1h1.8v1.1h-1.8z"/>
		</g>
		<path class="s4" d="m717 109.6l4.5 3.5 4.4 3.7 4.3 3.9 4.2 4.2 4.1 4.5 4.1 4.8 4 5.2 4 5.6 4 6.2 3.7 6.3-0.8 0.5-3.8-6.3-3.9-6.1-4-5.6-4-5.2-4.1-4.8-4.1-4.4-4.1-4.2-4.3-3.9-4.3-3.7-4.5-3.5-4.6-3.2h1.7zm-138.7-34.2l25.3 0.8 17.4 1.2 13.7 1.6 11.3 1.8 9.8 2 8.5 2.1 3.2 0.9h-3.6l-8.4-2.1-9.7-1.9-11.2-1.8-13.6-1.6-17.4-1.2-25.3-0.8h-8.3v-1z"/>
		<path class="s2" d="m758.6 157.9l-0.9 0.5-0.2-0.4 0.8-0.5z"/>
		<path class="s4" d="m758.6 157.9l-0.9 0.6-0.3-0.5 0.9-0.5zm-1.1 0l0.2 0.4 0.8-0.5-0.2-0.4zm-169.9-91.6l-16.6 9.5 16.3 10-0.5 0.9-17.8-10.9 18.1-10.4z"/>
		<g>
			<g id="c">
				<path id="J" class="s6" d="m650.2 91.6c-3.6 0-2.2 5.1-2.4 8.4h-1.6v-12.9h1.6l-0.1 5.1c0.6-1.1 1.4-1.8 3-1.8 4.4 0 2.6 5.7 3 9.6h-1.6v-6c0.1-1.6-0.4-2.4-1.9-2.4z"/>
				<path id="K" class="s6" d="m661.8 98.2c-0.8 1-1.6 2-3.4 2-1.8-0.1-2.8-1.1-2.8-2.9-0.1-3.1 3.1-3.1 6.1-3.1 0.2-1.7-0.4-2.6-2-2.6-1.2 0-2 0.3-2.1 1.5l-1.6-0.1c0.2-1.9 1.6-2.6 3.8-2.6 2.2 0 3.5 1 3.5 3.1v4.1c0 1 0.4 1.6 1.4 1.3v1c-1.5 0.5-3-0.1-2.9-1.7zm-4.6-0.9c0 1 0.6 1.7 1.6 1.7 2-0.2 3.1-1.5 2.9-3.7-2.1 0.1-4.5-0.2-4.5 2z"/>
				<path id="L" class="s6" d="m671.4 92.9c-0.2-1.7-4.3-1.9-4.3 0 0.7 2.6 5.6 0.6 5.8 4.4 0.2 3.9-7.4 3.7-7.7 0.4l1.4-0.2c0.2 1.8 4.8 2.2 4.8 0-0.5-2.8-5.6-0.7-5.8-4.4-0.2-2.9 4-3.2 6-2.1 0.6 0.3 1 0.9 1.2 1.7"/>
			</g>
			<g id="r">
				<path id="M" class="s6" d="m684.2 90.4c2.7 0 3.5 2 3.5 4.8 0 2.8-0.8 4.9-3.5 5-1.5 0-2.4-0.7-3-1.7l0.1 5.2h-1.6v-13.1h1.5l0.1 1.5c0.5-1.1 1.4-1.7 2.9-1.7zm-0.4 8.6c2 0 2.2-1.7 2.2-3.7 0-2-0.3-3.6-2.2-3.7-2.1 0-2.5 1.6-2.5 3.8 0 2.1 0.5 3.6 2.5 3.6z"/>
				<path id="W" class="s6" d="m694 91.9c-3.8-0.8-2.6 4.5-2.8 8.1h-1.6v-9.4h1.5c0 0.6-0.1 1.4 0.1 1.9 0.3-1.3 1.1-2.4 2.8-2z"/>
				<path id="U" class="s6" d="m699.2 90.4c3.1-0.1 4.2 1.8 4.2 4.9 0.1 3.1-1.3 4.9-4.2 4.9-3 0-4.1-2-4.2-4.9q0-4.9 4.2-4.9zm0 8.6c2.1 0 2.6-1.6 2.6-3.7 0-2.1-0.4-3.7-2.5-3.7-2.2 0-2.7 1.6-2.7 3.7 0 2.1 0.5 3.6 2.6 3.7z"/>
				<path id="M" class="s6" d="m709.8 90.4c2.7 0 3.5 2 3.5 4.8 0 2.8-0.8 4.9-3.5 5-1.5 0-2.4-0.7-2.9-1.7v5.2h-1.6v-13.1h1.5l0.1 1.5c0.5-1.1 1.4-1.7 2.9-1.7zm-0.4 8.6c2 0 2.3-1.7 2.3-3.7 0-2-0.3-3.6-2.3-3.7-2 0-2.5 1.6-2.5 3.8 0 2.1 0.5 3.6 2.5 3.6z"/>
				<path id="N" class="s6" d="m719 90.4c3.1 0 4.2 2.1 4.1 5.2h-6.7c0 2 0.7 3.3 2.7 3.4 1.2 0 2.1-0.6 2.4-1.5l1.4 0.4c-0.6 1.4-1.9 2.3-3.8 2.3-2.9 0-4.4-1.9-4.3-5 0-3 1.3-4.8 4.2-4.8zm2.5 4c0.3-3-3.7-3.8-4.8-1.4-0.1 0.3-0.3 0.8-0.3 1.4z"/>
				<path id="W" class="s6" d="m729.5 91.9c-3.8-0.8-2.6 4.5-2.8 8.1h-1.6v-9.4h1.5c0 0.6-0.1 1.4 0.1 1.9 0.3-1.3 1.1-2.4 2.8-2z"/>
				<path id="Q" class="s6" d="m732.7 97.6c-0.1 1.2 0.9 1.5 1.9 1.1v1.2c-1.7 0.5-3.5 0.3-3.5-1.9v-6.3h-1.1v-1.1h1.2l0.5-2.1h1v2.1h1.7v1.1h-1.7z"/>
				<path id="Z" class="s6" d="m743.6 90.6l-4.3 10.9c-0.7 1.4-1.8 2.5-4 2.1v-1.2c1.9 0.3 2.6-1 3.2-2.5l-3.7-9.3h1.6l2.9 7.7 2.6-7.7z"/>
			</g>
		</g>
		<path class="s1" d="m185.8 374.5c0 30.6-37 55.3-82.6 55.3-45.7 0-82.7-24.7-82.7-55.3 0-30.6 37-55.3 82.7-55.3 45.6 0 82.6 24.7 82.6 55.3z"/>
		<g>
			<g id="s">
				<path id="v" class="s2" d="m51.8 351.7c5 0 7.6 2.8 7.6 7.8 0 4.9-2.7 7.9-7.6 7.9-5 0-7.6-3-7.6-7.9 0-5 2.6-7.8 7.6-7.8zm0 14c3.9 0 5.5-2.5 5.5-6.2 0-3.7-1.8-6.1-5.5-6.1-3.7 0-5.5 2.4-5.5 6.1 0 3.7 1.8 6.2 5.5 6.2z"/>
				<path id="w" class="s2" d="m67.6 355.2c3.2 0 4.2 2.4 4.3 6.1 0 4-1.4 6.1-4.3 6.1-1.9 0-3.1-0.6-3.7-2.1l-0.1 1.9h-1.9l0.1-16.1h1.9v6.2c0.6-1.4 1.8-2.1 3.7-2.1zm-0.5 10.8c2.4 0 2.8-2.1 2.8-4.7 0-2.4-0.4-4.6-2.8-4.5-2.6 0-3.2 1.9-3.2 4.7 0 2.6 0.6 4.5 3.2 4.5z"/>
				<path id="x" class="s2" d="m81.2 358.4c-0.2-2.1-5.4-2.4-5.4 0 0.9 3.2 7.1 0.7 7.3 5.5 0.3 4.8-9.2 4.6-9.7 0.5l1.8-0.3c0.2 2.2 6 2.8 6 0-0.6-3.4-7-0.9-7.3-5.5-0.2-3.6 5.1-3.9 7.6-2.6 0.7 0.4 1.3 1.1 1.4 2.1"/>
				<path id="y" class="s2" d="m90.1 355.2c3.9 0 5.3 2.6 5.2 6.6h-8.3c0 2.4 0.8 4.1 3.2 4.2 1.6 0 2.7-0.8 3.1-1.8l1.7 0.5c-0.7 1.7-2.3 2.7-4.8 2.7-3.6 0-5.4-2.2-5.3-6.1 0-3.8 1.6-6.1 5.2-6.1zm3.2 5c0.4-3.7-4.7-4.7-6-1.7-0.2 0.4-0.3 1-0.3 1.7z"/>
				<path id="z" class="s2" d="m103.3 357.1c-4.8-1-3.3 5.7-3.5 10.1h-2v-11.7h1.8c0.1 0.7-0.1 1.8 0.1 2.4 0.4-1.7 1.5-3.1 3.6-2.6z"/>
				<path id="A" class="s2" d="m110.3 367.2h-2.4l-4.2-11.7h2.1l3.3 10.2 3.5-10.2h2.1"/>
				<path id="B" class="s2" d="m123.4 365c-0.9 1.3-1.9 2.5-4.2 2.4-2.2 0-3.5-1.3-3.5-3.5-0.1-3.9 3.8-3.9 7.7-3.9 0.2-2.1-0.6-3.3-2.6-3.3-1.4 0.1-2.5 0.4-2.5 1.9l-2.1-0.2c0.3-2.3 2.1-3.2 4.7-3.2 2.8 0 4.5 1.3 4.5 4v5c-0.1 1.3 0.4 2 1.7 1.7v1.2c-1.9 0.6-3.8-0.1-3.7-2.1zm-5.7-1.1c0 1.3 0.7 2.1 2 2.1 2.5-0.2 3.9-1.8 3.7-4.6-2.7 0.1-5.7-0.3-5.7 2.5z"/>
				<path id="C" class="s2" d="m130.7 364.3c-0.1 1.5 1.1 1.8 2.4 1.4v1.4c-2.1 0.7-4.4 0.3-4.4-2.4v-7.8h-1.3v-1.4h1.5l0.5-2.7h1.3v2.7h2.2v1.4h-2.2z"/>
				<path id="D" class="s2" d="m134.7 352.9v-1.8h2v1.8zm0 14.3v-11.7h2v11.7z"/>
				<path id="E" class="s2" d="m144.3 355.2c3.8 0 5.2 2.3 5.2 6.1 0.1 3.9-1.6 6.1-5.3 6.1-3.6 0-5.1-2.4-5.1-6.1q-0.1-6.1 5.2-6.1zm-0.1 10.8c2.8 0 3.3-2 3.3-4.7 0-2.6-0.5-4.6-3.1-4.6-2.7 0-3.3 2-3.3 4.6 0 2.7 0.6 4.6 3.1 4.7z"/>
				<path id="F" class="s2" d="m157.7 355.2c5.5-0.2 3.3 7.2 3.7 12h-2v-7.5c0-1.9-0.5-3-2.4-2.9-4.4 0.1-2.7 6.3-3 10.4h-2v-11.7h1.8c0.1 0.6-0.1 1.4 0.1 1.9 0.7-1.3 1.8-2.1 3.8-2.2z"/>
			</g>
			<g id="t">
				<path id="aj" class="s2" d="m67.4 382.8c-0.6-1.7-2.1-2.8-4.5-2.8-3.6 0-5.3 2.5-5.3 6.1 0 3.7 1.8 6.3 5.5 6.3 2.6 0 3.8-1.5 4.8-3.2l1.6 0.8c-1.1 2.4-3.1 4.1-6.6 4.1-4.9 0-7.2-3.1-7.4-8-0.4-6.4 6.1-9.4 11.5-6.8 1.2 0.5 1.9 1.6 2.4 2.8"/>
				<path id="E" class="s2" d="m76.5 381.9c3.9-0.1 5.3 2.3 5.3 6.1 0 3.9-1.7 6.1-5.3 6.1-3.7 0-5.2-2.4-5.2-6.1q0-6.1 5.2-6.1zm0 10.7c2.7 0.1 3.2-1.9 3.2-4.6 0-2.7-0.5-4.6-3.1-4.6-2.7 0-3.3 1.9-3.3 4.6 0 2.7 0.6 4.6 3.2 4.6z"/>
				<path id="I" class="s2" d="m84.2 393.9v-16.1h2v16.1z"/>
				<path id="I" class="s2" d="m89.1 393.9v-16.1h1.9v16.1z"/>
				<path id="y" class="s2" d="m98.6 381.9c3.9 0 5.3 2.6 5.2 6.5h-8.3c0 2.5 0.8 4.2 3.2 4.2 1.7 0.1 2.7-0.7 3.1-1.8l1.7 0.5c-0.7 1.8-2.3 2.8-4.8 2.8-3.5 0-5.4-2.3-5.3-6.2 0-3.7 1.6-6 5.2-6zm3.2 5c0.4-3.7-4.7-4.8-6-1.7-0.1 0.4-0.3 1-0.3 1.7z"/>
				<path id="aa" class="s2" d="m110.7 383.4c-2.4 0-2.9 2.1-2.9 4.5 0 2.5 0.5 4.7 2.9 4.7 1.5 0 2.6-0.9 2.7-2.4l2 0.1c-0.4 2.3-2 3.8-4.6 3.8-3.7 0-4.7-2.5-5.1-6.1-0.6-5.7 6.3-8.1 9.1-4 0.2 0.5 0.3 0.9 0.4 1.4l-1.9 0.2c-0.3-1.3-1-2.2-2.6-2.2z"/>
				<path id="C" class="s2" d="m119.5 391c-0.1 1.4 1.2 1.8 2.4 1.3v1.5c-2 0.6-4.3 0.3-4.3-2.4v-7.8h-1.4v-1.5h1.5l0.6-2.6h1.2v2.6h2.2v1.5h-2.2z"/>
				<path id="D" class="s2" d="m123.6 379.6v-1.8h1.9v1.8zm0 14.3v-11.8h2v11.8z"/>
				<path id="E" class="s2" d="m133.1 381.9c3.9-0.1 5.3 2.3 5.3 6.1 0 3.9-1.7 6.1-5.3 6.1-3.7 0-5.2-2.4-5.2-6.1q0-6.1 5.2-6.1zm0 10.7c2.7 0.1 3.2-1.9 3.2-4.6 0-2.7-0.5-4.6-3.1-4.6-2.7 0-3.3 1.9-3.3 4.6 0 2.7 0.6 4.6 3.2 4.6z"/>
				<path id="F" class="s2" d="m146.5 381.9c5.5-0.3 3.3 7.1 3.7 12h-1.9v-7.5c0-1.9-0.5-3-2.5-3-4.4 0.2-2.7 6.3-3 10.5h-2v-11.8h1.8c0.1 0.7 0 1.5 0.2 2 0.6-1.3 1.7-2.2 3.7-2.2z"/>
			</g>
		</g>
		<path class="s4" d="m245.2 375h-58.4v-1h58.4zm156.6 0h-58v-1h58z"/>
		<path class="s2" d="m186.8 375h-0.5v-0.5-0.5h0.5z"/>
		<path class="s4" d="m186.9 375h-0.6v-1h0.6zm-0.5-1v0.9h0.4v-0.9zm216.4 0.5l-18 10.6-0.5-0.9 16.5-9.7-16.5-9.8 0.5-0.8z"/>
		<g>
			<g id="c">
				<path id="J" class="s6" d="m250.4 369.7c-3.5 0-2.1 5-2.4 8.4h-1.6v-12.9h1.6v5.1c0.5-1.1 1.3-1.8 3-1.8 4.4 0 2.6 5.7 2.9 9.6h-1.5v-6c0.1-1.6-0.4-2.4-2-2.4z"/>
				<path id="K" class="s6" d="m262 376.3c-0.7 1-1.5 2-3.3 2-1.8-0.1-2.9-1.1-2.9-2.9 0-3.1 3.1-3.1 6.2-3.1 0.1-1.7-0.5-2.6-2-2.6-1.2 0-2.1 0.3-2.1 1.5l-1.6-0.2c0.2-1.8 1.6-2.5 3.7-2.5 2.2 0 3.6 1 3.6 3.1v4.1c-0.1 1 0.3 1.6 1.3 1.3v1c-1.5 0.5-3-0.1-2.9-1.7zm-4.6-0.9c0 1 0.6 1.7 1.6 1.7 2-0.2 3.1-1.5 3-3.7-2.1 0.1-4.6-0.2-4.6 2z"/>
				<path id="L" class="s6" d="m271.6 371c-0.1-1.7-4.2-1.9-4.3 0 0.8 2.6 5.7 0.6 5.9 4.4 0.2 3.9-7.4 3.7-7.8 0.4l1.4-0.2c0.2 1.8 4.8 2.2 4.9 0-0.5-2.8-5.6-0.8-5.9-4.5-0.2-2.8 4.1-3.1 6.1-2 0.6 0.3 1 0.9 1.1 1.7"/>
			</g>
			<g id="u">
				<path id="ak" class="s6" d="m289.1 369.7c-3.3 0.2-1.8 5.2-2.1 8.4h-1.6v-6c0-1.5-0.2-2.5-1.7-2.4-3.2 0.2-1.9 5.1-2.2 8.4h-1.5v-9.4h1.4c0.1 0.5 0 1.2 0.1 1.6 0.5-2.2 4.9-2.5 5.3 0 0.6-1.1 1.4-1.8 2.9-1.8 4.2-0.1 2.3 5.9 2.7 9.6h-1.5v-6c0-1.5-0.3-2.4-1.8-2.4z"/>
				<path id="N" class="s6" d="m298.5 368.5c3.1 0 4.2 2 4.1 5.2h-6.6c0 2 0.6 3.3 2.6 3.4 1.3 0 2.1-0.6 2.4-1.5l1.4 0.4c-0.6 1.4-1.9 2.3-3.8 2.3-2.9 0-4.4-1.9-4.3-5 0-3 1.3-4.8 4.2-4.8zm2.5 4c0.3-3-3.7-3.8-4.7-1.4-0.2 0.3-0.3 0.8-0.3 1.4z"/>
				<path id="ak" class="s6" d="m313.8 369.7c-3.3 0.2-1.9 5.2-2.2 8.4h-1.5v-6c0-1.5-0.3-2.5-1.7-2.4-3.3 0.2-1.9 5.1-2.2 8.4h-1.6v-9.4h1.5c0 0.5-0.1 1.2 0.1 1.6 0.5-2.2 4.9-2.5 5.3 0 0.5-1.1 1.3-1.8 2.8-1.8 4.2-0.1 2.3 5.9 2.7 9.6h-1.5v-6c0-1.5-0.2-2.4-1.7-2.4z"/>
				<path id="V" class="s6" d="m323.9 368.5c2.6 0 3.4 1.9 3.4 4.8 0 3.3-1.1 5-3.4 5-1.6-0.1-2.5-0.6-3-1.7l-0.1 1.5h-1.5l0.1-12.9h1.5v5c0.5-1.2 1.4-1.7 3-1.7zm-0.4 8.6c1.9 0 2.2-1.7 2.2-3.7 0-2-0.3-3.7-2.2-3.7-2.1 0-2.6 1.6-2.6 3.8 0 2.1 0.5 3.6 2.6 3.6z"/>
				<path id="N" class="s6" d="m333 368.5c3.1 0 4.2 2 4.1 5.2h-6.6c0 2 0.7 3.3 2.6 3.4 1.3 0 2.1-0.6 2.4-1.5l1.4 0.4c-0.5 1.4-1.8 2.3-3.8 2.3-2.9 0-4.4-1.9-4.3-5 0-3 1.3-4.8 4.2-4.8zm2.6 4c0.3-3-3.8-3.8-4.8-1.4-0.2 0.3-0.3 0.8-0.3 1.4z"/>
				<path id="W" class="s6" d="m343.6 370c-3.9-0.8-2.7 4.5-2.9 8.1h-1.5l-0.1-9.4h1.5c0 0.6-0.1 1.4 0.1 1.9 0.3-1.3 1.1-2.4 2.9-2z"/>
			</g>
		</g>
	</g>
</svg>