<svg version="1.2" xmlns="http://www.w3.org/2000/svg" viewBox="0 0 822.81 346.33" width="823" height="347">
	<title>spatiality-basic</title>
	<style>
		.s0 { fill: #ffffff } 
		.s1 { fill: #343b42 } 
		.s2 { fill: #ffffff;stroke: #3a414a } 
		.s3 { fill: #3a414a } 
		.s4 { fill: #3a414a;stroke: #3a414a;stroke-width: .4 } 
		.s5 { fill: #333333 } 
	</style>
	<g>
		<path class="s0" d="m-278.8-378.5h1500v1000h-1500z"/>
		<path id="schema:  spatial" class="s1" aria-label="schema:
 spatial"  d="m224.5 257v1.4q-0.6-0.3-1.3-0.5-0.7-0.1-1.5-0.1-1.1 0-1.7 0.3-0.5 0.4-0.5 1.1 0 0.5 0.4 0.8 0.4 0.3 1.6 0.6l0.5 0.1q1.7 0.3 2.3 1 0.7 0.6 0.7 1.7 0 1.3-1 2.1-1 0.7-2.8 0.7-0.8 0-1.6-0.1-0.8-0.1-1.7-0.4v-1.6q0.9 0.4 1.7 0.6 0.8 0.3 1.6 0.3 1.1 0 1.7-0.4 0.6-0.4 0.6-1 0-0.7-0.5-1-0.4-0.3-1.8-0.6l-0.5-0.2q-1.5-0.3-2.1-0.9-0.6-0.6-0.6-1.7 0-1.3 0.9-2 0.9-0.7 2.7-0.7 0.8 0 1.6 0.1 0.7 0.1 1.3 0.4zm9.6 0.1v1.4q-0.6-0.4-1.3-0.5-0.6-0.2-1.3-0.2-1.5 0-2.3 0.9-0.8 1-0.8 2.7 0 1.7 0.8 2.6 0.8 0.9 2.3 0.9 0.7 0 1.3-0.1 0.7-0.2 1.3-0.6v1.4q-0.6 0.3-1.3 0.5-0.7 0.1-1.4 0.1-2.1 0-3.4-1.3-1.2-1.3-1.2-3.5 0-2.3 1.2-3.6 1.3-1.3 3.5-1.3 0.7 0 1.3 0.1 0.7 0.2 1.3 0.5zm10.4 3.3v5.6h-1.5v-5.6q0-1.3-0.5-1.9-0.5-0.7-1.6-0.7-1.2 0-1.9 0.8-0.7 0.8-0.7 2.1v5.3h-1.6v-12.9h1.6v5q0.5-0.8 1.3-1.2 0.7-0.4 1.7-0.4 1.6 0 2.4 1 0.8 1 0.8 2.9zm11 0.6v0.7h-7q0.1 1.6 1 2.4 0.8 0.8 2.3 0.8 0.9 0 1.7-0.2 0.9-0.2 1.7-0.6v1.4q-0.8 0.4-1.7 0.6-0.9 0.1-1.8 0.1-2.2 0-3.5-1.3-1.3-1.2-1.3-3.5 0-2.2 1.2-3.6 1.3-1.3 3.4-1.3 1.8 0 2.9 1.2 1.1 1.2 1.1 3.3zm-6.9-0.5h5.4q0-1.2-0.7-2-0.7-0.7-1.8-0.7-1.3 0-2.1 0.7-0.7 0.7-0.8 2zm16.7-2q0.6-1 1.3-1.5 0.8-0.5 1.9-0.5 1.5 0 2.3 1 0.8 1 0.8 2.9v5.6h-1.6v-5.6q0-1.3-0.5-1.9-0.4-0.7-1.4-0.7-1.2 0-1.9 0.8-0.7 0.8-0.7 2.1v5.3h-1.5v-5.6q0-1.3-0.5-1.9-0.4-0.7-1.4-0.7-1.2 0-1.9 0.8-0.7 0.8-0.7 2.1v5.3h-1.5v-9.3h1.5v1.4q0.5-0.8 1.3-1.2 0.7-0.4 1.7-0.4 1 0 1.7 0.5 0.7 0.5 1.1 1.5zm15 2.8h-1.5q-1.8 0-2.5 0.5-0.8 0.4-0.8 1.4 0 0.8 0.6 1.3 0.5 0.5 1.4 0.5 1.3 0 2.1-0.9 0.7-0.9 0.7-2.4zm1.6-0.7v5.3h-1.6v-1.4q-0.5 0.9-1.3 1.3-0.7 0.4-1.9 0.4-1.4 0-2.2-0.8-0.9-0.8-0.9-2.2 0-1.5 1.1-2.3 1-0.8 3.1-0.8h2.1v-0.2q0-1-0.7-1.6-0.6-0.6-1.9-0.6-0.8 0-1.5 0.2-0.8 0.2-1.5 0.6v-1.4q0.8-0.4 1.6-0.5 0.8-0.2 1.6-0.2 2 0 3 1.1 1 1 1 3.1zm3.5 5.3v-2.1h1.8v2.1zm0-6.6v-2.2h1.7v2.2zm-55.5 17.6v1.5q-0.6-0.4-1.3-0.5-0.7-0.2-1.5-0.2-1.1 0-1.7 0.3-0.5 0.4-0.5 1.1 0 0.5 0.4 0.8 0.4 0.3 1.6 0.6l0.5 0.1q1.7 0.4 2.3 1 0.7 0.6 0.7 1.8 0 1.3-1 2-1 0.8-2.8 0.8-0.8 0-1.6-0.2-0.8-0.1-1.7-0.4v-1.6q0.9 0.5 1.7 0.7 0.8 0.2 1.6 0.2 1.1 0 1.7-0.4 0.6-0.3 0.6-1 0-0.6-0.5-1-0.4-0.3-1.8-0.6l-0.5-0.1q-1.4-0.3-2.1-0.9-0.6-0.7-0.6-1.7 0-1.4 0.9-2.1 1-0.7 2.7-0.7 0.8 0 1.6 0.1 0.7 0.2 1.3 0.4zm4.4 7.6v5h-1.5v-12.9h1.5v1.5q0.5-0.9 1.3-1.3 0.7-0.4 1.7-0.4 1.7 0 2.8 1.4 1 1.3 1 3.5 0 2.2-1 3.5-1.1 1.4-2.8 1.4-1 0-1.7-0.4-0.8-0.4-1.3-1.3zm5.2-3.2q0-1.7-0.7-2.6-0.6-1-1.9-1-1.2 0-1.9 1-0.7 0.9-0.7 2.6 0 1.7 0.7 2.6 0.7 1 1.9 1 1.3 0 1.9-1 0.7-0.9 0.7-2.6zm9.9 0h-1.5q-1.9 0-2.6 0.4-0.7 0.4-0.7 1.4 0 0.8 0.5 1.3 0.6 0.5 1.5 0.5 1.3 0 2-0.9 0.8-0.9 0.8-2.4zm1.5-0.6v5.3h-1.5v-1.4q-0.5 0.8-1.3 1.2-0.8 0.4-1.9 0.4-1.4 0-2.3-0.8-0.8-0.8-0.8-2.1 0-1.6 1-2.4 1.1-0.8 3.2-0.8h2.1v-0.1q0-1.1-0.7-1.7-0.7-0.5-1.9-0.5-0.8 0-1.6 0.1-0.7 0.2-1.4 0.6v-1.4q0.8-0.3 1.6-0.5 0.8-0.1 1.5-0.1 2 0 3 1 1 1.1 1 3.2zm3.1-6.7h1.6v2.7h3.1v1.2h-3.1v5q0 1.2 0.3 1.5 0.3 0.3 1.3 0.3h1.5v1.3h-1.5q-1.8 0-2.5-0.7-0.7-0.6-0.7-2.4v-5h-1.1v-1.2h1.1zm6.7 11.9v-9.3h1.6v9.3zm0-11v-1.9h1.5v1.9zm10.5 6.3h-1.6q-1.8 0-2.5 0.5-0.7 0.4-0.7 1.4 0 0.8 0.5 1.3 0.5 0.5 1.5 0.5 1.2 0 2-0.9 0.8-0.9 0.8-2.4zm1.5-0.6v5.3h-1.5v-1.5q-0.6 0.9-1.3 1.3-0.8 0.4-2 0.4-1.4 0-2.2-0.8-0.9-0.8-0.9-2.1 0-1.6 1.1-2.4 1-0.8 3.1-0.8h2.2v-0.2q0-1-0.7-1.6-0.7-0.6-2-0.6-0.8 0-1.5 0.2-0.8 0.2-1.5 0.6v-1.4q0.9-0.3 1.6-0.5 0.8-0.2 1.6-0.2 2 0 3 1.1 1 1 1 3.2zm3.1 5.3v-13h1.6v13z"/>
		<path class="s2" d="m636.9 252.7q0-1.2 0.4-2.3 0.5-1.1 1.3-2 0.9-0.8 2-1.3 1.1-0.4 2.3-0.4h153.4q1.2 0 2.3 0.4 1.1 0.5 2 1.3 0.8 0.9 1.3 2 0.4 1.1 0.4 2.3v35.6q0 1.2-0.4 2.3-0.5 1.1-1.3 2-0.9 0.8-2 1.3-1.1 0.4-2.3 0.4h-153.4q-1.2 0-2.3-0.4-1.1-0.5-2-1.3-0.8-0.9-1.3-2-0.4-1.1-0.4-2.3z"/>
		<g id="a">
			<path id="n" class="s3" d="m678.6 274.2h-2.5l-3.4-13-3.4 13h-2.5l-4.5-15.3h2.2l3.6 13.4 1-3.9 2.6-9.5h2l3.6 13.4 3.7-13.4h2.1"/>
			<path id="o" class="s3" d="m695.1 274.2l-6.1-7.4-2 1.5v5.9h-2v-15.3h2v7.6l7.4-7.6h2.4l-6.5 6.7 7.4 8.6z"/>
			<path id="p" class="s3" d="m705.8 260.6v13.6h-2.1v-13.6h-5.3v-1.7h12.6v1.7z"/>
		</g>
		<g id="b">
			<path id="q" class="s3" d="m719.1 274.2v-15.3h2v13.6h7.7v1.7z"/>
			<path id="r" class="s3" d="m731 259.9v-1.8h2v1.8zm0 14.3v-11.7h2v11.7z"/>
			<path id="s" class="s3" d="m738.1 271.3c-0.2 1.5 1.1 1.8 2.3 1.4v1.4c-2 0.7-4.3 0.3-4.3-2.4v-7.8h-1.4v-1.4h1.5l0.6-2.7h1.3v2.7h2.1v1.4h-2.1z"/>
			<path id="t" class="s3" d="m746.8 262.2c3.9 0 5.3 2.6 5.2 6.6h-8.4c0 2.4 0.9 4.1 3.3 4.2 1.6 0 2.6-0.8 3-1.8l1.7 0.5c-0.6 1.7-2.2 2.7-4.7 2.7-3.6 0-5.4-2.2-5.4-6.1 0.1-3.8 1.6-6.1 5.3-6.1zm3.2 5c0.3-3.7-4.7-4.7-6-1.7-0.2 0.4-0.4 1-0.4 1.7z"/>
			<path id="u" class="s3" d="m760 264.1c-4.8-0.9-3.3 5.7-3.5 10.1h-2l-0.1-11.7h1.9c0 0.7-0.1 1.8 0.1 2.4 0.4-1.7 1.4-3 3.6-2.6z"/>
			<path id="v" class="s3" d="m769 272c-0.9 1.3-1.9 2.5-4.2 2.4-2.2 0-3.6-1.2-3.6-3.5-0.1-3.9 3.9-3.9 7.7-3.9 0.2-2.1-0.5-3.3-2.5-3.3-1.5 0.1-2.5 0.4-2.6 1.9l-2-0.2c0.3-2.2 2-3.2 4.7-3.2 2.7 0 4.4 1.3 4.4 4v5c-0.1 1.3 0.4 2 1.7 1.7v1.2c-1.9 0.6-3.7-0.1-3.6-2.1zm-5.8-1.1c0 1.3 0.8 2.1 2 2.1 2.6-0.2 3.9-1.8 3.7-4.6-2.6 0.1-5.7-0.3-5.7 2.5z"/>
			<path id="w" class="s3" d="m774.1 274.2v-16.1h2v16.1z"/>
		</g>
		<path class="s2" d="m185.8 270.5c0 30.6-37 55.3-82.6 55.3-45.7 0-82.7-24.7-82.7-55.3 0-30.6 37-55.3 82.7-55.3 45.6 0 82.6 24.7 82.6 55.3z"/>
		<g id="c">
			<path id="x" class="s3" d="m85.3 264.2c-0.3-3-7.6-3.4-7.6 0.1 0.8 4.6 9.7 0.8 10 7.3 0.2 4.8-7.4 5.4-10.8 3.4-1-0.6-1.7-1.6-2-2.8l2-0.5c0.3 3.5 8.7 3.9 8.7 0 0-4.8-9.5-0.9-10-7.3-0.3-5.1 9-5.2 11.1-2.1 0.3 0.4 0.5 1 0.7 1.5"/>
			<path id="r" class="s3" d="m90.2 261.6v-1.9h2v1.9zm0 14.2v-11.7h1.9v11.7z"/>
			<path id="s" class="s3" d="m97.2 272.9c-0.1 1.5 1.1 1.8 2.4 1.4v1.5c-2.1 0.6-4.3 0.3-4.3-2.4v-7.9h-1.4v-1.4h1.5l0.5-2.7h1.3v2.7h2.2v1.4h-2.2z"/>
			<path id="t" class="s3" d="m105.9 263.8c3.9 0 5.3 2.6 5.2 6.6h-8.3c0 2.5 0.9 4.1 3.3 4.2 1.6 0 2.6-0.8 3-1.8l1.7 0.5c-0.7 1.7-2.3 2.8-4.7 2.8-3.6 0-5.5-2.3-5.4-6.2 0.1-3.8 1.6-6.1 5.2-6.1zm3.2 5c0.4-3.7-4.6-4.7-5.9-1.7-0.2 0.4-0.4 1.1-0.4 1.7z"/>
		</g>
		<path id="y" class="s3" d="m130.3 275.8l-4.5-6.6-4.7 6.6h-2.3l5.8-7.9-5.4-7.4h2.3l4.3 6.1 4.1-6.1h2.3l-5.2 7.3 5.7 8z"/>
		<path class="s4" d="m200.5 271h-13.7v-1h13.7zm146.5 0h-39.9v-1h39.9z"/>
		<path class="s3" d="m186.8 271h-0.5v-0.5-0.5h0.5z"/>
		<path class="s4" d="m186.9 271h-0.6v-1h0.6zm-0.6-1v0.9h0.5v-0.9zm161.6 0.5l-17.9 10.6-0.5-0.9 16.5-9.7-16.5-9.8 0.5-0.8z"/>
		<path class="s2" d="m513.8 270.5c0 30.6-37 55.3-82.7 55.3-45.6 0-82.6-24.7-82.6-55.3 0-30.6 37-55.3 82.6-55.3 45.7 0 82.7 24.7 82.7 55.3z"/>
		<g id="g">
			<path id="L" class="s3" d="m374.9 276.1c-5 0-7.5-3-7.7-8-0.3-6.6 6.2-9.5 11.9-6.8 1.1 0.4 1.8 1.5 2.3 2.6l-2 0.6c-0.8-1.6-2.3-2.5-4.7-2.5-3.7 0-5.4 2.4-5.4 6.1 0 3.8 1.8 6.2 5.6 6.2 2.2 0 3.8-0.6 4.9-1.6v-2.8h-4.6v-1.7h6.5v5.3c-1.5 1.5-3.8 2.6-6.8 2.6z"/>
			<path id="t" class="s3" d="m389.5 263.8c3.9 0 5.4 2.6 5.2 6.6h-8.3c0 2.5 0.9 4.1 3.3 4.2 1.6 0 2.6-0.8 3-1.8l1.7 0.5c-0.7 1.7-2.3 2.8-4.7 2.8-3.6 0-5.5-2.3-5.4-6.2 0.1-3.8 1.6-6.1 5.2-6.1zm3.3 5c0.3-3.7-4.7-4.7-6-1.7-0.2 0.4-0.4 1.1-0.4 1.7z"/>
			<path id="M" class="s3" d="m401.9 263.8c3.8 0 5.2 2.3 5.2 6.2 0.1 3.8-1.6 6.1-5.3 6.1-3.6 0-5.1-2.4-5.2-6.1q0-6.2 5.3-6.2zm-0.1 10.8c2.7 0 3.3-1.9 3.3-4.6 0-2.7-0.5-4.7-3.1-4.7-2.7 0-3.3 2-3.3 4.7 0 2.6 0.6 4.5 3.1 4.6z"/>
			<path id="N" class="s3" d="m421 265.4c-4.1 0.2-2.3 6.5-2.7 10.4h-1.9v-7.4c0-1.8-0.3-3.1-2.2-3-4 0.2-2.3 6.4-2.7 10.4h-1.9l-0.1-11.7h1.9c0.1 0.6-0.1 1.5 0.1 2 0.6-2.7 6.1-3.1 6.6 0 0.7-1.3 1.7-2.2 3.6-2.3 5.3-0.1 2.9 7.4 3.4 12h-1.9v-7.4c0-1.8-0.3-3.1-2.2-3z"/>
			<path id="t" class="s3" d="m432.7 263.8c3.9 0 5.3 2.6 5.2 6.6h-8.4c0 2.5 0.9 4.1 3.3 4.2 1.6 0 2.7-0.8 3-1.8l1.8 0.5c-0.7 1.7-2.3 2.8-4.8 2.8-3.6 0-5.4-2.3-5.4-6.2 0.1-3.8 1.7-6.1 5.3-6.1zm3.2 5c0.4-3.7-4.7-4.7-6-1.7-0.2 0.4-0.4 1.1-0.4 1.7z"/>
			<path id="s" class="s3" d="m442.5 272.9c-0.1 1.5 1.1 1.8 2.4 1.4v1.5c-2.1 0.6-4.4 0.3-4.4-2.4v-7.9h-1.3v-1.4h1.5l0.5-2.7h1.3v2.7h2.2v1.4h-2.2z"/>
			<path id="u" class="s3" d="m452.1 265.8c-4.8-1-3.3 5.6-3.5 10h-2l-0.1-11.7h1.9c0 0.7-0.1 1.8 0.1 2.4 0.4-1.7 1.4-3 3.6-2.5z"/>
			<path id="O" class="s3" d="m463.4 264.1l-5.3 13.6c-0.8 1.8-2.3 3.2-5 2.6v-1.5c2.4 0.4 3.3-1.2 4-3l-4.7-11.7h2.1l3.6 9.6 3.3-9.6z"/>
		</g>
		<g id="h">
			<path id="y" class="s3" d="m481.7 275.8l-4.6-6.6-4.7 6.6h-2.2l5.8-7.9-5.4-7.4h2.3l4.2 6.1 4.2-6.1h2.3l-5.2 7.3 5.7 8z"/>
			<path id="P" class="s3" d="m486.2 275.8v-1.6h3.9v-11.8l-3.5 2.4v-1.8l3.6-2.5h1.8v13.7h3.8v1.6z"/>
		</g>
		<path class="s4" d="m534.1 271h-19.3v-1h19.3zm101.4 0h-43.2v-1h43.2z"/>
		<path class="s3" d="m514.8 271h-0.5v-0.5-0.5h0.5z"/>
		<path class="s4" d="m514.8 271h-0.5v-1h0.5zm-0.5-1v0.9h0.5v-0.9zm122 0.5l-17.9 10.6-0.5-0.9 16.4-9.7-16.5-9.8 0.6-0.8z"/>
		<g id="e">
			<path id="z" class="s5" d="m554.6 254c-0.5 6.2 2.1 14.5-5.4 12.9-1.1-0.3-1.9-1-2.2-2.1l1.6-0.3c0.7 2.3 4.9 1.6 4.4-1.4v-1.4c-0.5 1-1.4 1.7-3 1.7-2.7 0-3.4-2-3.4-4.7 0-2.8 0.8-4.8 3.5-4.8 1.5-0.1 2.4 0.7 2.9 1.7 0.1-0.5 0-1.1 0.1-1.6zm-4.1 8.3c1.8 0 2.5-1.6 2.5-3.6 0-2.1-0.7-3.7-2.5-3.7-1.9 0-2.2 1.7-2.2 3.7 0 2 0.3 3.6 2.2 3.6z"/>
			<path id="A" class="s5" d="m560.7 253.8c3.1 0 4.2 2.1 4.2 5.2h-6.7c0 2 0.7 3.4 2.6 3.4 1.3 0.1 2.1-0.6 2.4-1.4l1.4 0.4c-0.5 1.3-1.8 2.2-3.8 2.2-2.9 0-4.3-1.8-4.3-5 0.1-3 1.3-4.8 4.2-4.8zm2.6 4c0.3-3-3.8-3.8-4.8-1.4-0.2 0.4-0.3 0.9-0.3 1.4z"/>
			<path id="B" class="s5" d="m570.6 253.8c3 0 4.2 1.8 4.2 4.9 0 3.1-1.4 4.9-4.3 4.9-2.9 0-4.1-1.9-4.1-4.9q0-4.9 4.2-4.9zm-0.1 8.6c2.2 0.1 2.6-1.5 2.6-3.7 0-2.1-0.3-3.7-2.5-3.7-2.1 0-2.6 1.6-2.6 3.7 0 2.1 0.5 3.7 2.5 3.7z"/>
			<path id="C" class="s5" d="m577.1 255.8v-1.8h1.7v1.8zm0 7.6v-1.8h1.7v1.8z"/>
		</g>
		<g id="i">
			<path id="E" class="s5" d="m541 282.9c-0.7 1.1-1.5 2.1-3.3 2-1.8 0-2.9-1-2.9-2.8 0-3.2 3.1-3.1 6.2-3.1 0.1-1.7-0.4-2.7-2-2.7-1.2 0.1-2.1 0.4-2.1 1.6l-1.6-0.2c0.2-1.8 1.6-2.6 3.7-2.6 2.2 0 3.6 1 3.6 3.2v4.1c-0.1 0.9 0.3 1.5 1.4 1.3v1c-1.6 0.4-3.1-0.1-3-1.8zm-4.5-0.8c0 1 0.5 1.6 1.5 1.6 2.1-0.1 3.1-1.4 3-3.6-2.1 0.1-4.5-0.3-4.5 2z"/>
			<path id="F" class="s5" d="m550.6 277.7c-0.1-1.7-4.2-1.9-4.3 0 0.8 2.6 5.7 0.6 5.9 4.4 0.2 3.9-7.4 3.7-7.7 0.4l1.3-0.2c0.2 1.7 4.8 2.2 4.9 0-0.5-2.8-5.6-0.8-5.8-4.5-0.2-2.8 4-3.1 6-2.1 0.6 0.4 1 1 1.2 1.8"/>
			<path id="Q" class="s5" d="m566 284.7h-2l-2.8-10.3-2.7 10.3h-1.9l-3.7-12.2h1.8l2.9 10.7 0.7-3.1 2.2-7.6h1.5l2.9 10.7 3-10.7h1.7"/>
			<path id="R" class="s5" d="m579.2 284.7l-4.9-5.9-1.6 1.2v4.7h-1.6v-12.2h1.6v6.1l5.9-6.1h2l-5.2 5.3 5.8 6.9z"/>
			<path id="S" class="s5" d="m587.7 273.9v10.8h-1.7v-10.8h-4.2v-1.4h10.1v1.4z"/>
		</g>
		<path class="s2" d="m185.8 75.8c0 30.6-37 55.4-82.6 55.4-45.7 0-82.7-24.8-82.7-55.4 0-30.5 37-55.3 82.7-55.3 45.6 0 82.6 24.8 82.6 55.3z"/>
		<g id="j">
			<path id="L" class="s3" d="m46.6 68.8c-5 0-7.4-3-7.7-8-0.3-6.6 6.2-9.5 11.9-6.8 1.1 0.5 1.8 1.5 2.3 2.6l-1.9 0.6c-0.8-1.6-2.3-2.5-4.7-2.5-3.8 0-5.5 2.4-5.5 6.1 0 3.8 1.8 6.2 5.6 6.2 2.2 0 3.9-0.6 4.9-1.6v-2.8h-4.5v-1.7h6.4v5.3c-1.5 1.5-3.7 2.6-6.8 2.6z"/>
			<path id="t" class="s3" d="m61.3 56.6c3.9 0 5.3 2.5 5.2 6.5h-8.4c0 2.5 0.9 4.1 3.3 4.2 1.6 0.1 2.7-0.7 3-1.8l1.8 0.5c-0.7 1.7-2.3 2.8-4.8 2.8-3.6 0-5.4-2.3-5.4-6.2 0.1-3.8 1.6-6 5.3-6zm3.2 5c0.4-3.8-4.7-4.8-6-1.8-0.2 0.5-0.4 1.1-0.4 1.8z"/>
			<path id="M" class="s3" d="m73.6 56.6c3.8-0.1 5.3 2.2 5.3 6.1 0 3.9-1.7 6.1-5.3 6.1-3.7 0-5.2-2.4-5.2-6.1q0-6.1 5.2-6.1zm0 10.7c2.7 0.1 3.2-1.9 3.2-4.6 0-2.7-0.5-4.7-3.1-4.7-2.7 0-3.3 2-3.3 4.7 0 2.6 0.6 4.5 3.2 4.6z"/>
			<path id="x" class="s3" d="m91.2 56.9c-0.3-3-7.6-3.4-7.6 0.1 0.8 4.6 9.7 0.8 10 7.3 0.2 4.8-7.4 5.4-10.8 3.4-1-0.6-1.7-1.6-2-2.8l2-0.4c0.3 3.4 8.7 3.8 8.7-0.1 0-4.8-9.5-0.9-10-7.3-0.3-5.1 9-5.2 11.1-2.1 0.3 0.4 0.5 1 0.7 1.6"/>
			<path id="T" class="s3" d="m96.5 53.2c5.3 0.1 11.8-0.9 11.8 4.6 0 4.9-4.8 5-9.8 4.7v6h-2zm2 7.7c3.5 0 7.7 0.7 7.7-3 0-3.7-4.2-2.9-7.7-3z"/>
			<path id="U" class="s3" d="m120.4 68.5l-1.7-4.4h-7l-1.7 4.4h-2.2l6.3-15.3h2.3l6.1 15.3zm-2.3-6.1l-2.9-7.6c-0.8 2.8-1.9 5.1-2.9 7.6z"/>
			<path id="V" class="s3" d="m137 57.6c-0.1 2.5-1.5 4-3.7 4.3l4.3 6.6h-2.4l-4-6.3h-4.7v6.3h-2.1v-15.3c5.5 0.2 12.7-1.3 12.6 4.4zm-10.5 3c3.7-0.2 8.4 0.8 8.4-2.9 0-3.8-4.9-2.6-8.4-2.8z"/>
			<path id="W" class="s3" d="m147.2 53c5 0 7.6 2.9 7.6 7.8 0 4.5-2.2 7.2-6.2 7.8 0.5 1.8 1.9 3 4.3 2.5v1.4c-3.4 1-5.9-0.9-6.4-3.8-4.5-0.4-6.9-3.1-6.9-7.9 0-4.9 2.6-7.8 7.6-7.8zm0 14c3.9 0 5.5-2.5 5.5-6.2 0-3.7-1.8-6.1-5.5-6.1-3.8 0-5.5 2.4-5.5 6.1 0 3.7 1.7 6.2 5.5 6.2z"/>
			<path id="q" class="s3" d="m157.7 68.5v-15.3h2v13.7h7.7v1.6z"/>
		</g>
		<g id="k">
			<path id="X" class="s3" d="m68.7 81.6v5.7h8.5v1.7h-8.5v6.2h-2.1v-15.3h10.8v1.7z"/>
			<path id="t" class="s3" d="m84.5 83.2c3.9 0 5.3 2.6 5.2 6.6h-8.4c0 2.4 0.9 4.1 3.3 4.2 1.6 0 2.7-0.8 3-1.8l1.8 0.5c-0.7 1.7-2.3 2.7-4.8 2.7-3.6 0-5.4-2.2-5.4-6.1 0.1-3.8 1.6-6.1 5.3-6.1zm3.2 5c0.4-3.7-4.7-4.7-6-1.7-0.2 0.4-0.4 1-0.4 1.7z"/>
			<path id="v" class="s3" d="m99.4 93c-1 1.3-2 2.5-4.2 2.4-2.3 0-3.6-1.3-3.6-3.5-0.1-3.9 3.9-3.9 7.7-3.9 0.2-2.1-0.6-3.3-2.5-3.3-1.5 0.1-2.6 0.4-2.6 1.9l-2.1-0.2c0.3-2.3 2.1-3.2 4.7-3.2 2.8 0 4.5 1.3 4.5 4v5c-0.1 1.3 0.4 2 1.7 1.7v1.2c-1.9 0.6-3.8-0.1-3.6-2.1zm-5.8-1.1c0 1.3 0.8 2.1 2 2.1 2.5-0.2 3.9-1.8 3.7-4.6-2.7 0.1-5.7-0.3-5.7 2.5z"/>
			<path id="s" class="s3" d="m106.6 92.3c-0.1 1.5 1.2 1.8 2.4 1.4v1.4c-2 0.7-4.3 0.3-4.3-2.4v-7.8h-1.4v-1.4h1.5l0.6-2.7h1.2v2.7h2.2v1.4h-2.2z"/>
			<path id="Y" class="s3" d="m114.4 95.4c-5.5 0.3-3.4-7.1-3.8-11.9h2v7.4c0 1.9 0.4 3.1 2.4 3 4.4-0.1 2.8-6.2 3.1-10.4h1.9v11.7h-1.8c-0.1-0.6 0.1-1.5-0.1-2-0.7 1.3-1.8 2.2-3.7 2.2z"/>
			<path id="u" class="s3" d="m128.6 85.1c-4.9-1-3.3 5.7-3.6 10.1h-1.9l-0.1-11.7h1.9c0 0.7-0.1 1.8 0.1 2.4 0.4-1.7 1.4-3.1 3.6-2.6z"/>
			<path id="t" class="s3" d="m135 83.2c3.9 0 5.4 2.6 5.2 6.6h-8.3c0 2.4 0.9 4.1 3.3 4.2 1.6 0 2.6-0.8 3-1.8l1.7 0.5c-0.7 1.7-2.3 2.7-4.7 2.7-3.6 0-5.5-2.2-5.4-6.1 0.1-3.8 1.6-6.1 5.2-6.1zm3.3 5c0.3-3.7-4.7-4.7-6-1.7-0.2 0.4-0.4 1-0.4 1.7z"/>
		</g>
		<path class="s4" d="m103.7 214.2h-1v-5.5h1zm0-10.9h-1v-10.8h1zm0-16.4h-1v-3.1h1zm0-24.5h-1v-2.7h1zm0-8.2h-1v-10.9h1zm0-16.3h-1v-5.4h1z"/>
		<path class="s3" d="m103.7 214.7h-1v-0.5h1z"/>
		<path class="s4" d="m103.7 214.7h-1.1v-0.6h1.1zm-1-0.5v0.5h0.5 0.4v-0.5zm11.1-64.6l-0.8 0.6-9.8-16.5-9.7 16.5-0.9-0.5 10.6-18z"/>
		<g>
			<g id="l">
				<path id="Z" class="s5" d="m90.5 165.3v-1.5h1.6v1.5zm0 11.4v-9.4h1.6v9.4z"/>
				<path id="F" class="s5" d="m99.9 169.7c-0.1-1.7-4.2-1.9-4.3 0 0.8 2.6 5.7 0.6 5.9 4.4 0.2 3.9-7.4 3.7-7.7 0.4l1.3-0.2c0.2 1.7 4.8 2.2 4.9 0-0.5-2.8-5.6-0.8-5.8-4.5-0.2-2.8 4-3.1 6-2.1 0.6 0.4 1 1 1.2 1.8"/>
			</g>
			<path id="E" class="s5" d="m114.1 174.9c-0.8 1.1-1.6 2.1-3.4 2-1.8 0-2.9-1-2.9-2.8 0-3.2 3.1-3.1 6.2-3.1 0.2-1.7-0.4-2.7-2-2.7-1.2 0.1-2 0.4-2.1 1.6l-1.6-0.2c0.2-1.8 1.6-2.6 3.7-2.6 2.3 0 3.6 1 3.6 3.2v4.1c-0.1 0.9 0.3 1.5 1.4 1.3v1c-1.6 0.4-3-0.1-2.9-1.8zm-4.6-0.8c0 1 0.6 1.6 1.5 1.6 2.1-0.1 3.2-1.4 3-3.6-2.1 0.1-4.5-0.3-4.5 2z"/>
		</g>
	</g>
</svg>