<svg xmlns="http://www.w3.org/2000/svg" xmlns:xlink="http://www.w3.org/1999/xlink" xmlns:lucid="lucid" width="1064.94" height="631.67"><g transform="translate(10.929197918932402 -168.36465490407687)" lucid:page-tab-id="erRPGw1Bda5c"><path d="M0 0h1500v1000H0z" fill="#fff"/><path d="M665.57 484.2c0 30.56-37 55.33-82.67 55.33-45.65 0-82.66-24.77-82.66-55.33s37-55.33 82.66-55.33 82.67 24.77 82.67 55.33z" stroke="#3a414a" fill="#dedeff"/><use xlink:href="#a" transform="matrix(1,0,0,1,505.2374687477341,433.8646549040769) translate(58.40006172839506 43.02777777777778)"/><use xlink:href="#b" transform="matrix(1,0,0,1,505.2374687477341,433.8646549040769) translate(35.005 69.69444444444446)"/><path d="M523.9 444.08l-.55.83-32.6-21.27v-1.2zm-152.5-99.56v1.2l-58.1-37.94.53-.84z" stroke="#3a414a" stroke-width=".05" fill="#3a414a"/><path d="M524.5 444.47l-.92.6-.24-.16.55-.83z" fill="#3a414a"/><path d="M524.55 444.47l-.97.63-.28-.2.58-.86zm-1.18.43l.2.14.9-.57-.58-.37zM333.63 307.8l-.05 1-19.13-.86 8.47 17.18-.9.44-9.22-18.7z" stroke="#3a414a" stroke-width=".05" fill="#3a414a"/><use xlink:href="#c" transform="matrix(1,0,0,1,371.3955500045298,309.4102585646961) translate(20.69635802469137 14.222222222222223)"/><use xlink:href="#d" transform="matrix(1,0,0,1,371.3955500045298,309.4102585646961) translate(59.68401234567903 35.55555555555556)"/><use xlink:href="#e" transform="matrix(1,0,0,1,371.3955500045298,309.4102585646961) translate(0.005000000000002558 56.88888888888889)"/><use xlink:href="#d" transform="matrix(1,0,0,1,371.3955500045298,309.4102585646961) translate(59.68401234567903 78.22222222222223)"/><use xlink:href="#f" transform="matrix(1,0,0,1,371.3955500045298,309.4102585646961) translate(12.325987654321004 99.55555555555557)"/><use xlink:href="#d" transform="matrix(1,0,0,1,371.3955500045298,309.4102585646961) translate(59.68401234567903 120.88888888888891)"/><use xlink:href="#g" transform="matrix(1,0,0,1,371.3955500045298,309.4102585646961) translate(5.4124074074074215 142.22222222222226)"/><path d="M146.84 289.04a6 6 0 0 1 6-6H306.3a6 6 0 0 1 6 6v35.65a6 6 0 0 1-6 6H152.84a6 6 0 0 1-6-6z" stroke="#3a414a" fill="#fff"/><use xlink:href="#h" transform="matrix(1,0,0,1,151.8408156495882,288.03697512117327) translate(30.53086419753086 22.52777777777778)"/><path d="M917.5 268.2c0 30.56-37 55.33-82.66 55.33s-82.67-24.77-82.67-55.33 37-55.33 82.67-55.33c45.66 0 82.67 24.77 82.67 55.33z" stroke="#3a414a" fill="#fff"/><use xlink:href="#i" transform="matrix(1,0,0,1,757.1741489829217,217.86465490407687) translate(53.992654320987654 39.87152777777778)"/><use xlink:href="#j" transform="matrix(1,0,0,1,757.1741489829217,217.86465490407687) translate(4.702530864197536 66.53819444444446)"/><path d="M658.7 460.06l-.83-.53 35.9-56.75h1.17zm103.47-163.6l-53.74 85h-1.18l54.08-85.53z" stroke="#3a414a" stroke-width=".05" fill="#3a414a"/><path d="M658.72 460.05l-.38.6-.64-.86.17-.28z" fill="#3a414a"/><path d="M658.75 460.05l-.4.65-.68-.9.2-.3zm-1.02-.26l.6.8.35-.54-.8-.5zM761.62 316.26l-1-.03.57-19.14-17.06 8.7-.46-.88 18.56-9.5z" stroke="#3a414a" stroke-width=".05" fill="#3a414a"/><use xlink:href="#k" transform="matrix(1,0,0,1,648.2049411162163,381.4460971735597) translate(0.005000000000002558 14.222222222222223)"/><path d="M582.9 427.86v-116.2" stroke="#3a414a" fill="none"/><path d="M583.4 428.38l-.5-.02-.5.02v-.53h1z" stroke="#3a414a" stroke-width=".05" fill="#3a414a"/><path d="M582.9 301l7.64 12.93h-15.27z" stroke="#3a414a" fill="#fff"/><path d="M665.57 244.2c0 30.56-37 55.33-82.67 55.33-45.65 0-82.66-24.77-82.66-55.33s37-55.33 82.66-55.33 82.67 24.77 82.67 55.33z" stroke="#3a414a" fill="#dedeff"/><use xlink:href="#l" transform="matrix(1,0,0,1,505.2374687477341,193.86465490407687) translate(52.8445061728395 43.02777777777778)"/><use xlink:href="#m" transform="matrix(1,0,0,1,505.2374687477341,193.86465490407687) translate(42.38154320987654 69.69444444444446)"/><path d="M1033.5 437.53c0 30.56-37 55.34-82.66 55.34s-82.67-24.78-82.67-55.34c0-30.56 37-55.33 82.67-55.33 45.66 0 82.67 24.77 82.67 55.33z" stroke="#3a414a" fill="#fff"/><use xlink:href="#n" transform="matrix(1,0,0,1,873.1741489829217,387.19798823741013) translate(55.90006172839506 43.02777777777778)"/><use xlink:href="#o" transform="matrix(1,0,0,1,873.1741489829217,387.19798823741013) translate(28.801296296296293 69.69444444444446)"/><path d="M698.4 480.13l-31.76 4.5-.14-1 31.9-4.5zm172.67-24.4l-31.52 4.45v-1l31.38-4.44z" stroke="#3a414a" stroke-width=".05" fill="#3a414a"/><path d="M666.65 484.62l-.6.08.02-.5v-.5l.44-.07z" fill="#3a414a"/><path d="M666.68 484.64l-.65.1.02-.54-.02-.53.5-.07zm-.6-.92l.02.48-.02.48.54-.08-.13-.94zM871.9 455.1l-16.3 13.03-.6-.78 14.95-11.97-17.7-7.34.4-.93z" stroke="#3a414a" stroke-width=".05" fill="#3a414a"/><use xlink:href="#p" transform="matrix(1,0,0,1,698.4150255122045,458.98626022292206) translate(0.0049999999999954525 14.222222222222223)"/><path d="M590.9 724.2c0 30.56-37 55.33-82.66 55.33s-82.67-24.77-82.67-55.33 37-55.34 82.67-55.34c45.65 0 82.66 24.78 82.66 55.34z" stroke="#3a414a" fill="#dedeff"/><use xlink:href="#a" transform="matrix(1,0,0,1,430.57080208106737,673.8646549040768) translate(58.40006172839506 43.02777777777778)"/><use xlink:href="#b" transform="matrix(1,0,0,1,430.57080208106737,673.8646549040768) translate(35.005 69.69444444444446)"/><path d="M509.03 667.7l-.93-.36 15.68-40.64h1.07zM559 538.23l-25.92 67.14H532l26.06-67.5z" stroke="#3a414a" stroke-width=".05" fill="#3a414a"/><path d="M559.2 537.7l-.2.54-.95-.36.16-.4z" fill="#3a414a"/><path d="M559.23 537.67l-.23.6-.98-.37.17-.45zm-1.14.2l.87.34.2-.5-.94-.2zM508.94 666.53L524 654.66l.62.8-16.36 12.9-3.44-20.56.98-.16z" stroke="#3a414a" stroke-width=".05" fill="#3a414a"/><use xlink:href="#q" transform="matrix(1,0,0,1,481.0485587572769,605.367962747191) translate(0.005000000000002558 14.222222222222223)"/><path d="M196.17 562.3a6 6 0 0 1 6-6h28.13a6 6 0 0 1 6 6v30.32a6 6 0 0 1-6 6h-28.13a6 6 0 0 1-6-6z" stroke="#3a414a" fill="#fff"/><path d="M342.65 553.8L237.8 577.75l-.22-.97 105.07-24zM512.6 515l-64.47 14.73v-1.03l64.25-14.67z" stroke="#3a414a" stroke-width=".05" fill="#3a414a"/><path d="M513.37 514.83l-.78.18-.24-.96.22-.05z" fill="#3a414a"/><path d="M513.42 514.85l-.85.2-.24-1.03.25-.06zm-1.03-.8l.2.93.72-.16-.75-.8zM252.62 563.84l-13.9 13.18 18.24 5.84-.3.95-19.86-6.34 15.13-14.34z" stroke="#3a414a" stroke-width=".05" fill="#3a414a"/><use xlink:href="#r" transform="matrix(1,0,0,1,342.6474034842109,519.9203935750262) translate(0.005000000000002558 14.222222222222223)"/><use xlink:href="#s" transform="matrix(1,0,0,1,342.6474034842109,519.9203935750262) translate(12.819814814814833 35.55555555555556)"/><path d="M174.9 724.2c0 30.56-37 55.33-82.66 55.33S9.57 754.76 9.57 724.2s37-55.34 82.67-55.34c45.65 0 82.66 24.78 82.66 55.34z" stroke="#3a414a" fill="#fff3d9"/><use xlink:href="#l" transform="matrix(1,0,0,1,14.570802081067598,673.8646549040768) translate(52.8445061728395 43.02777777777778)"/><use xlink:href="#t" transform="matrix(1,0,0,1,14.570802081067598,673.8646549040768) translate(48.492654320987654 69.69444444444446)"/><path d="M390.24 724.2c0 30.56-37 55.33-82.67 55.33-45.65 0-82.67-24.77-82.67-55.33s37.02-55.34 82.67-55.34c45.66 0 82.67 24.78 82.67 55.34z" stroke="#3a414a" fill="#fff"/><g><use xlink:href="#l" transform="matrix(1,0,0,1,229.90413541440086,673.8646549040768) translate(52.8445061728395 43.02777777777778)"/><use xlink:href="#u" transform="matrix(1,0,0,1,229.90413541440086,673.8646549040768) translate(54.727222222222224 69.69444444444446)"/></g><path d="M138.48 676.96l-.8-.6 33.06-44.15H172zm59.2-79.05l-9.7 12.98h-1.26l10.16-13.56z" stroke="#3a414a" stroke-width=".05" fill="#3a414a"/><path d="M197.58 597.2l.38.34-.3.38-.8-.6.38-.5z" fill="#3a414a"/><path d="M197.6 597.2l.4.34-.32.42-.85-.63.4-.55zm-.7.12l.76.57.26-.36-.36-.3-.3-.38zM140.8 656.77l-2.1 19.05 17.7-7.36.38.93-19.25 8 2.27-20.74z" stroke="#3a414a" stroke-width=".05" fill="#3a414a"/><g><use xlink:href="#v" transform="matrix(1,0,0,1,137.40697724163073,610.8752917278092) translate(0.005000000000002558 14.222222222222223)"/></g><path d="M266.3 674.74l-.93.38-8.94-21.73h1.08zm-17.57-42.68h-1.08l-13.8-33.53.93-.38z" stroke="#3a414a" stroke-width=".05" fill="#3a414a"/><path d="M234.78 598.16l-.93.38-.16-.4.42-.26.4-.35z" fill="#3a414a"/><path d="M234.8 598.17l-.96.4-.18-.44.45-.27.43-.37zm-.66-.27l-.42.25.15.36.88-.35-.24-.57zM269.16 655.14l-2.98 20.63-16.64-12.55.6-.8 15.3 11.54 2.73-18.96z" stroke="#3a414a" stroke-width=".05" fill="#3a414a"/><g><use xlink:href="#w" transform="matrix(1,0,0,1,218.08477668116535,632.057599586457) translate(0.005000000000002558 14.222222222222223)"/></g><defs><path fill="#3a414a" d="M115-194c53 0 69 39 70 98 0 66-23 100-70 100C84 3 66-7 56-30L54 0H23l1-261h32v101c10-23 28-34 59-34zm-8 174c40 0 45-34 45-75 0-40-5-75-45-74-42 0-51 32-51 76 0 43 10 73 51 73" id="x"/><path fill="#3a414a" d="M85-194c31 0 48 13 60 33l-1-100h32l1 261h-30c-2-10 0-23-3-31C134-8 116 4 85 4 32 4 16-35 15-94c0-66 23-100 70-100zm9 24c-40 0-46 34-46 75 0 40 6 74 45 74 42 0 51-32 51-76 0-42-9-74-50-73" id="y"/><path fill="#3a414a" d="M114-163C36-179 61-72 57 0H25l-1-190h30c1 12-1 29 2 39 6-27 23-49 58-41v29" id="z"/><path fill="#3a414a" d="M33-154v-36h34v36H33zM33 0v-36h34V0H33" id="A"/><g id="a"><use transform="matrix(0.06172839506172839,0,0,0.06172839506172839,0,0)" xlink:href="#x"/><use transform="matrix(0.06172839506172839,0,0,0.06172839506172839,12.345679012345679,0)" xlink:href="#y"/><use transform="matrix(0.06172839506172839,0,0,0.06172839506172839,24.691358024691358,0)" xlink:href="#z"/><use transform="matrix(0.06172839506172839,0,0,0.06172839506172839,32.03703703703704,0)" xlink:href="#A"/></g><path fill="#3a414a" d="M30-248c87 1 191-15 191 75 0 78-77 80-158 76V0H30v-248zm33 125c57 0 124 11 124-50 0-59-68-47-124-48v98" id="B"/><path fill="#3a414a" d="M100-194c62-1 85 37 85 99 1 63-27 99-86 99S16-35 15-95c0-66 28-99 85-99zM99-20c44 1 53-31 53-75 0-43-8-75-51-75s-53 32-53 75 10 74 51 75" id="C"/><path fill="#3a414a" d="M177-190C167-65 218 103 67 71c-23-6-38-20-44-43l32-5c15 47 100 32 89-28v-30C133-14 115 1 83 1 29 1 15-40 15-95c0-56 16-97 71-98 29-1 48 16 59 35 1-10 0-23 2-32h30zM94-22c36 0 50-32 50-73 0-42-14-75-50-75-39 0-46 34-46 75s6 73 46 73" id="D"/><path fill="#3a414a" d="M141-36C126-15 110 5 73 4 37 3 15-17 15-53c-1-64 63-63 125-63 3-35-9-54-41-54-24 1-41 7-42 31l-33-3c5-37 33-52 76-52 45 0 72 20 72 64v82c-1 20 7 32 28 27v20c-31 9-61-2-59-35zM48-53c0 20 12 33 32 33 41-3 63-29 60-74-43 2-92-5-92 41" id="E"/><path fill="#3a414a" d="M210-169c-67 3-38 105-44 169h-31v-121c0-29-5-50-35-48C34-165 62-65 56 0H25l-1-190h30c1 10-1 24 2 32 10-44 99-50 107 0 11-21 27-35 58-36 85-2 47 119 55 194h-31v-121c0-29-5-49-35-48" id="F"/><g id="b"><use transform="matrix(0.06172839506172839,0,0,0.06172839506172839,0,0)" xlink:href="#B"/><use transform="matrix(0.06172839506172839,0,0,0.06172839506172839,14.814814814814813,0)" xlink:href="#z"/><use transform="matrix(0.06172839506172839,0,0,0.06172839506172839,22.160493827160494,0)" xlink:href="#C"/><use transform="matrix(0.06172839506172839,0,0,0.06172839506172839,34.50617283950617,0)" xlink:href="#D"/><use transform="matrix(0.06172839506172839,0,0,0.06172839506172839,46.85185185185185,0)" xlink:href="#z"/><use transform="matrix(0.06172839506172839,0,0,0.06172839506172839,54.197530864197525,0)" xlink:href="#E"/><use transform="matrix(0.06172839506172839,0,0,0.06172839506172839,66.5432098765432,0)" xlink:href="#F"/></g><path fill="#333" d="M135-143c-3-34-86-38-87 0 15 53 115 12 119 90S17 21 10-45l28-5c4 36 97 45 98 0-10-56-113-15-118-90-4-57 82-63 122-42 12 7 21 19 24 35" id="G"/><path fill="#333" d="M85-194c31 0 48 13 60 33l-1-100h32l1 261h-30c-2-10 0-23-3-31C134-8 116 4 85 4 32 4 16-35 15-94c0-66 23-100 70-100zm9 24c-40 0-46 34-46 75 0 40 6 74 45 74 42 0 51-32 51-76 0-42-9-74-50-73" id="H"/><path fill="#333" d="M100-194c62-1 85 37 85 99 1 63-27 99-86 99S16-35 15-95c0-66 28-99 85-99zM99-20c44 1 53-31 53-75 0-43-8-75-51-75s-53 32-53 75 10 74 51 75" id="I"/><path fill="#333" d="M33-154v-36h34v36H33zM33 0v-36h34V0H33" id="J"/><path fill="#333" d="M117-194c89-4 53 116 60 194h-32v-121c0-31-8-49-39-48C34-167 62-67 57 0H25l-1-190h30c1 10-1 24 2 32 11-22 29-35 61-36" id="K"/><path fill="#333" d="M141-36C126-15 110 5 73 4 37 3 15-17 15-53c-1-64 63-63 125-63 3-35-9-54-41-54-24 1-41 7-42 31l-33-3c5-37 33-52 76-52 45 0 72 20 72 64v82c-1 20 7 32 28 27v20c-31 9-61-2-59-35zM48-53c0 20 12 33 32 33 41-3 63-29 60-74-43 2-92-5-92 41" id="L"/><path fill="#333" d="M210-169c-67 3-38 105-44 169h-31v-121c0-29-5-50-35-48C34-165 62-65 56 0H25l-1-190h30c1 10-1 24 2 32 10-44 99-50 107 0 11-21 27-35 58-36 85-2 47 119 55 194h-31v-121c0-29-5-49-35-48" id="M"/><path fill="#333" d="M100-194c63 0 86 42 84 106H49c0 40 14 67 53 68 26 1 43-12 49-29l28 8c-11 28-37 45-77 45C44 4 14-33 15-96c1-61 26-98 85-98zm52 81c6-60-76-77-97-28-3 7-6 17-6 28h103" id="N"/><g id="c"><use transform="matrix(0.04938271604938272,0,0,0.04938271604938272,0,0)" xlink:href="#G"/><use transform="matrix(0.04938271604938272,0,0,0.04938271604938272,8.88888888888889,0)" xlink:href="#H"/><use transform="matrix(0.04938271604938272,0,0,0.04938271604938272,18.765432098765434,0)" xlink:href="#I"/><use transform="matrix(0.04938271604938272,0,0,0.04938271604938272,28.641975308641978,0)" xlink:href="#J"/><use transform="matrix(0.04938271604938272,0,0,0.04938271604938272,33.580246913580254,0)" xlink:href="#K"/><use transform="matrix(0.04938271604938272,0,0,0.04938271604938272,43.4567901234568,0)" xlink:href="#L"/><use transform="matrix(0.04938271604938272,0,0,0.04938271604938272,53.333333333333336,0)" xlink:href="#M"/><use transform="matrix(0.04938271604938272,0,0,0.04938271604938272,68.09876543209877,0)" xlink:href="#N"/></g><path fill="#333" d="M96-169c-40 0-48 33-48 73s9 75 48 75c24 0 41-14 43-38l32 2c-6 37-31 61-74 61-59 0-76-41-82-99-10-93 101-131 147-64 4 7 5 14 7 22l-32 3c-4-21-16-35-41-35" id="O"/><path fill="#333" d="M114-163C36-179 61-72 57 0H25l-1-190h30c1 12-1 29 2 39 6-27 23-49 58-41v29" id="P"/><path fill="#333" d="M24-231v-30h32v30H24zM24 0v-190h32V0H24" id="Q"/><path fill="#333" d="M115-194c55 1 70 41 70 98S169 2 115 4C84 4 66-9 55-30l1 105H24l-1-265h31l2 30c10-21 28-34 59-34zm-8 174c40 0 45-34 45-75s-6-73-45-74c-42 0-51 32-51 76 0 43 10 73 51 73" id="R"/><path fill="#333" d="M59-47c-2 24 18 29 38 22v24C64 9 27 4 27-40v-127H5v-23h24l9-43h21v43h35v23H59v120" id="S"/><g id="e"><use transform="matrix(0.04938271604938272,0,0,0.04938271604938272,0,0)" xlink:href="#G"/><use transform="matrix(0.04938271604938272,0,0,0.04938271604938272,8.88888888888889,0)" xlink:href="#H"/><use transform="matrix(0.04938271604938272,0,0,0.04938271604938272,18.765432098765434,0)" xlink:href="#I"/><use transform="matrix(0.04938271604938272,0,0,0.04938271604938272,28.641975308641978,0)" xlink:href="#J"/><use transform="matrix(0.04938271604938272,0,0,0.04938271604938272,33.580246913580254,0)" xlink:href="#H"/><use transform="matrix(0.04938271604938272,0,0,0.04938271604938272,43.4567901234568,0)" xlink:href="#N"/><use transform="matrix(0.04938271604938272,0,0,0.04938271604938272,53.333333333333336,0)" xlink:href="#G"/><use transform="matrix(0.04938271604938272,0,0,0.04938271604938272,62.22222222222223,0)" xlink:href="#O"/><use transform="matrix(0.04938271604938272,0,0,0.04938271604938272,71.11111111111111,0)" xlink:href="#P"/><use transform="matrix(0.04938271604938272,0,0,0.04938271604938272,76.98765432098766,0)" xlink:href="#Q"/><use transform="matrix(0.04938271604938272,0,0,0.04938271604938272,80.8888888888889,0)" xlink:href="#R"/><use transform="matrix(0.04938271604938272,0,0,0.04938271604938272,90.76543209876544,0)" xlink:href="#S"/><use transform="matrix(0.04938271604938272,0,0,0.04938271604938272,95.70370370370372,0)" xlink:href="#Q"/><use transform="matrix(0.04938271604938272,0,0,0.04938271604938272,99.60493827160496,0)" xlink:href="#I"/><use transform="matrix(0.04938271604938272,0,0,0.04938271604938272,109.48148148148151,0)" xlink:href="#K"/></g><path fill="#333" d="M115-194c53 0 69 39 70 98 0 66-23 100-70 100C84 3 66-7 56-30L54 0H23l1-261h32v101c10-23 28-34 59-34zm-8 174c40 0 45-34 45-75 0-40-5-75-45-74-42 0-51 32-51 76 0 43 10 73 51 73" id="T"/><path fill="#333" d="M84 4C-5 8 30-112 23-190h32v120c0 31 7 50 39 49 72-2 45-101 50-169h31l1 190h-30c-1-10 1-25-2-33-11 22-28 36-60 37" id="U"/><g id="f"><use transform="matrix(0.04938271604938272,0,0,0.04938271604938272,0,0)" xlink:href="#T"/><use transform="matrix(0.04938271604938272,0,0,0.04938271604938272,9.876543209876544,0)" xlink:href="#H"/><use transform="matrix(0.04938271604938272,0,0,0.04938271604938272,19.75308641975309,0)" xlink:href="#P"/><use transform="matrix(0.04938271604938272,0,0,0.04938271604938272,25.629629629629633,0)" xlink:href="#J"/><use transform="matrix(0.04938271604938272,0,0,0.04938271604938272,30.567901234567906,0)" xlink:href="#R"/><use transform="matrix(0.04938271604938272,0,0,0.04938271604938272,40.44444444444445,0)" xlink:href="#U"/><use transform="matrix(0.04938271604938272,0,0,0.04938271604938272,50.320987654320994,0)" xlink:href="#P"/><use transform="matrix(0.04938271604938272,0,0,0.04938271604938272,56.19753086419754,0)" xlink:href="#R"/><use transform="matrix(0.04938271604938272,0,0,0.04938271604938272,66.07407407407408,0)" xlink:href="#I"/><use transform="matrix(0.04938271604938272,0,0,0.04938271604938272,75.95061728395062,0)" xlink:href="#G"/><use transform="matrix(0.04938271604938272,0,0,0.04938271604938272,84.8395061728395,0)" xlink:href="#N"/></g><path fill="#333" d="M143 0L79-87 56-68V0H24v-261h32v163l83-92h37l-77 82L181 0h-38" id="V"/><path fill="#333" d="M179-190L93 31C79 59 56 82 12 73V49c39 6 53-20 64-50L1-190h34L92-34l54-156h33" id="W"/><path fill="#333" d="M206 0h-36l-40-164L89 0H53L-1-190h32L70-26l43-164h34l41 164 42-164h31" id="X"/><g id="g"><use transform="matrix(0.04938271604938272,0,0,0.04938271604938272,0,0)" xlink:href="#G"/><use transform="matrix(0.04938271604938272,0,0,0.04938271604938272,8.88888888888889,0)" xlink:href="#H"/><use transform="matrix(0.04938271604938272,0,0,0.04938271604938272,18.765432098765434,0)" xlink:href="#I"/><use transform="matrix(0.04938271604938272,0,0,0.04938271604938272,28.641975308641978,0)" xlink:href="#J"/><use transform="matrix(0.04938271604938272,0,0,0.04938271604938272,33.580246913580254,0)" xlink:href="#V"/><use transform="matrix(0.04938271604938272,0,0,0.04938271604938272,42.46913580246914,0)" xlink:href="#N"/><use transform="matrix(0.04938271604938272,0,0,0.04938271604938272,52.345679012345684,0)" xlink:href="#W"/><use transform="matrix(0.04938271604938272,0,0,0.04938271604938272,61.23456790123457,0)" xlink:href="#X"/><use transform="matrix(0.04938271604938272,0,0,0.04938271604938272,74.0246913580247,0)" xlink:href="#I"/><use transform="matrix(0.04938271604938272,0,0,0.04938271604938272,83.90123456790124,0)" xlink:href="#P"/><use transform="matrix(0.04938271604938272,0,0,0.04938271604938272,89.77777777777779,0)" xlink:href="#H"/><use transform="matrix(0.04938271604938272,0,0,0.04938271604938272,99.65432098765433,0)" xlink:href="#G"/></g><path fill="#3a414a" d="M141 0L90-78 38 0H4l68-98-65-92h35l48 74 47-74h35l-64 92 68 98h-35" id="Y"/><path fill="#3a414a" d="M135-143c-3-34-86-38-87 0 15 53 115 12 119 90S17 21 10-45l28-5c4 36 97 45 98 0-10-56-113-15-118-90-4-57 82-63 122-42 12 7 21 19 24 35" id="Z"/><path fill="#3a414a" d="M59-47c-2 24 18 29 38 22v24C64 9 27 4 27-40v-127H5v-23h24l9-43h21v43h35v23H59v120" id="aa"/><path fill="#3a414a" d="M24-231v-30h32v30H24zM24 0v-190h32V0H24" id="ab"/><path fill="#3a414a" d="M117-194c89-4 53 116 60 194h-32v-121c0-31-8-49-39-48C34-167 62-67 57 0H25l-1-190h30c1 10-1 24 2 32 11-22 29-35 61-36" id="ac"/><g id="h"><use transform="matrix(0.06172839506172839,0,0,0.06172839506172839,0,0)" xlink:href="#Y"/><use transform="matrix(0.06172839506172839,0,0,0.06172839506172839,11.11111111111111,0)" xlink:href="#Z"/><use transform="matrix(0.06172839506172839,0,0,0.06172839506172839,22.22222222222222,0)" xlink:href="#y"/><use transform="matrix(0.06172839506172839,0,0,0.06172839506172839,34.5679012345679,0)" xlink:href="#A"/><use transform="matrix(0.06172839506172839,0,0,0.06172839506172839,40.74074074074074,0)" xlink:href="#Z"/><use transform="matrix(0.06172839506172839,0,0,0.06172839506172839,51.85185185185185,0)" xlink:href="#aa"/><use transform="matrix(0.06172839506172839,0,0,0.06172839506172839,58.02469135802469,0)" xlink:href="#z"/><use transform="matrix(0.06172839506172839,0,0,0.06172839506172839,65.37037037037037,0)" xlink:href="#ab"/><use transform="matrix(0.06172839506172839,0,0,0.06172839506172839,70.24691358024691,0)" xlink:href="#ac"/><use transform="matrix(0.06172839506172839,0,0,0.06172839506172839,82.5925925925926,0)" xlink:href="#D"/></g><path fill="#3a414a" d="M100-194c63 0 86 42 84 106H49c0 40 14 67 53 68 26 1 43-12 49-29l28 8c-11 28-37 45-77 45C44 4 14-33 15-96c1-61 26-98 85-98zm52 81c6-60-76-77-97-28-3 7-6 17-6 28h103" id="ad"/><g id="i"><use transform="matrix(0.06172839506172839,0,0,0.06172839506172839,0,0)" xlink:href="#aa"/><use transform="matrix(0.06172839506172839,0,0,0.06172839506172839,6.172839506172839,0)" xlink:href="#ab"/><use transform="matrix(0.06172839506172839,0,0,0.06172839506172839,11.049382716049383,0)" xlink:href="#F"/><use transform="matrix(0.06172839506172839,0,0,0.06172839506172839,29.50617283950617,0)" xlink:href="#ad"/><use transform="matrix(0.06172839506172839,0,0,0.06172839506172839,41.85185185185185,0)" xlink:href="#A"/></g><path fill="#3a414a" d="M127-220V0H93v-220H8v-28h204v28h-85" id="ae"/><path fill="#3a414a" d="M115-194c55 1 70 41 70 98S169 2 115 4C84 4 66-9 55-30l1 105H24l-1-265h31l2 30c10-21 28-34 59-34zm-8 174c40 0 45-34 45-75s-6-73-45-74c-42 0-51 32-51 76 0 43 10 73 51 73" id="af"/><path fill="#3a414a" d="M24 0v-261h32V0H24" id="ag"/><path fill="#3a414a" d="M30 0v-248h187v28H63v79h144v27H63v87h162V0H30" id="ah"/><path fill="#3a414a" d="M179-190L93 31C79 59 56 82 12 73V49c39 6 53-20 64-50L1-190h34L92-34l54-156h33" id="ai"/><g id="j"><use transform="matrix(0.06172839506172839,0,0,0.06172839506172839,0,0)" xlink:href="#ae"/><use transform="matrix(0.06172839506172839,0,0,0.06172839506172839,11.049382716049381,0)" xlink:href="#ad"/><use transform="matrix(0.06172839506172839,0,0,0.06172839506172839,23.39506172839506,0)" xlink:href="#F"/><use transform="matrix(0.06172839506172839,0,0,0.06172839506172839,41.85185185185185,0)" xlink:href="#af"/><use transform="matrix(0.06172839506172839,0,0,0.06172839506172839,54.197530864197525,0)" xlink:href="#C"/><use transform="matrix(0.06172839506172839,0,0,0.06172839506172839,66.5432098765432,0)" xlink:href="#z"/><use transform="matrix(0.06172839506172839,0,0,0.06172839506172839,73.88888888888889,0)" xlink:href="#E"/><use transform="matrix(0.06172839506172839,0,0,0.06172839506172839,86.23456790123457,0)" xlink:href="#ag"/><use transform="matrix(0.06172839506172839,0,0,0.06172839506172839,91.11111111111111,0)" xlink:href="#ah"/><use transform="matrix(0.06172839506172839,0,0,0.06172839506172839,105.92592592592592,0)" xlink:href="#ac"/><use transform="matrix(0.06172839506172839,0,0,0.06172839506172839,118.27160493827161,0)" xlink:href="#aa"/><use transform="matrix(0.06172839506172839,0,0,0.06172839506172839,124.44444444444444,0)" xlink:href="#ab"/><use transform="matrix(0.06172839506172839,0,0,0.06172839506172839,129.320987654321,0)" xlink:href="#aa"/><use transform="matrix(0.06172839506172839,0,0,0.06172839506172839,135.49382716049382,0)" xlink:href="#ai"/></g><path fill="#333" d="M106-169C34-169 62-67 57 0H25v-261h32l-1 103c12-21 28-36 61-36 89 0 53 116 60 194h-32v-121c2-32-8-49-39-48" id="aj"/><path fill="#333" d="M127-220V0H93v-220H8v-28h204v28h-85" id="ak"/><g id="k"><use transform="matrix(0.04938271604938272,0,0,0.04938271604938272,0,0)" xlink:href="#S"/><use transform="matrix(0.04938271604938272,0,0,0.04938271604938272,4.938271604938272,0)" xlink:href="#Q"/><use transform="matrix(0.04938271604938272,0,0,0.04938271604938272,8.839506172839506,0)" xlink:href="#M"/><use transform="matrix(0.04938271604938272,0,0,0.04938271604938272,23.60493827160494,0)" xlink:href="#N"/><use transform="matrix(0.04938271604938272,0,0,0.04938271604938272,33.48148148148148,0)" xlink:href="#J"/><use transform="matrix(0.04938271604938272,0,0,0.04938271604938272,38.41975308641975,0)" xlink:href="#aj"/><use transform="matrix(0.04938271604938272,0,0,0.04938271604938272,48.2962962962963,0)" xlink:href="#L"/><use transform="matrix(0.04938271604938272,0,0,0.04938271604938272,58.17283950617284,0)" xlink:href="#G"/><use transform="matrix(0.04938271604938272,0,0,0.04938271604938272,67.06172839506173,0)" xlink:href="#ak"/><use transform="matrix(0.04938271604938272,0,0,0.04938271604938272,77.23456790123457,0)" xlink:href="#Q"/><use transform="matrix(0.04938271604938272,0,0,0.04938271604938272,81.13580246913581,0)" xlink:href="#M"/><use transform="matrix(0.04938271604938272,0,0,0.04938271604938272,95.90123456790124,0)" xlink:href="#N"/></g><path fill="#3a414a" d="M108 0H70L1-190h34L89-25l56-165h34" id="al"/><g id="l"><use transform="matrix(0.06172839506172839,0,0,0.06172839506172839,0,0)" xlink:href="#af"/><use transform="matrix(0.06172839506172839,0,0,0.06172839506172839,12.345679012345679,0)" xlink:href="#z"/><use transform="matrix(0.06172839506172839,0,0,0.06172839506172839,19.691358024691358,0)" xlink:href="#C"/><use transform="matrix(0.06172839506172839,0,0,0.06172839506172839,32.03703703703704,0)" xlink:href="#al"/><use transform="matrix(0.06172839506172839,0,0,0.06172839506172839,43.14814814814815,0)" xlink:href="#A"/></g><path fill="#3a414a" d="M205 0l-28-72H64L36 0H1l101-248h38L239 0h-34zm-38-99l-47-123c-12 45-31 82-46 123h93" id="am"/><path fill="#3a414a" d="M96-169c-40 0-48 33-48 73s9 75 48 75c24 0 41-14 43-38l32 2c-6 37-31 61-74 61-59 0-76-41-82-99-10-93 101-131 147-64 4 7 5 14 7 22l-32 3c-4-21-16-35-41-35" id="an"/><g id="m"><use transform="matrix(0.06172839506172839,0,0,0.06172839506172839,0,0)" xlink:href="#am"/><use transform="matrix(0.06172839506172839,0,0,0.06172839506172839,14.814814814814813,0)" xlink:href="#an"/><use transform="matrix(0.06172839506172839,0,0,0.06172839506172839,25.925925925925924,0)" xlink:href="#aa"/><use transform="matrix(0.06172839506172839,0,0,0.06172839506172839,32.098765432098766,0)" xlink:href="#ab"/><use transform="matrix(0.06172839506172839,0,0,0.06172839506172839,36.97530864197531,0)" xlink:href="#al"/><use transform="matrix(0.06172839506172839,0,0,0.06172839506172839,48.08641975308642,0)" xlink:href="#ab"/><use transform="matrix(0.06172839506172839,0,0,0.06172839506172839,52.96296296296296,0)" xlink:href="#aa"/><use transform="matrix(0.06172839506172839,0,0,0.06172839506172839,59.135802469135804,0)" xlink:href="#ai"/></g><g id="n"><use transform="matrix(0.06172839506172839,0,0,0.06172839506172839,0,0)" xlink:href="#D"/><use transform="matrix(0.06172839506172839,0,0,0.06172839506172839,12.345679012345679,0)" xlink:href="#ad"/><use transform="matrix(0.06172839506172839,0,0,0.06172839506172839,24.691358024691358,0)" xlink:href="#C"/><use transform="matrix(0.06172839506172839,0,0,0.06172839506172839,37.03703703703704,0)" xlink:href="#A"/></g><path fill="#3a414a" d="M143 4C61 4 22-44 18-125c-5-107 100-154 193-111 17 8 29 25 37 43l-32 9c-13-25-37-40-76-40-61 0-88 39-88 99 0 61 29 100 91 101 35 0 62-11 79-27v-45h-74v-28h105v86C228-13 192 4 143 4" id="ao"/><g id="o"><use transform="matrix(0.06172839506172839,0,0,0.06172839506172839,0,0)" xlink:href="#ao"/><use transform="matrix(0.06172839506172839,0,0,0.06172839506172839,17.28395061728395,0)" xlink:href="#ad"/><use transform="matrix(0.06172839506172839,0,0,0.06172839506172839,29.629629629629626,0)" xlink:href="#C"/><use transform="matrix(0.06172839506172839,0,0,0.06172839506172839,41.9753086419753,0)" xlink:href="#F"/><use transform="matrix(0.06172839506172839,0,0,0.06172839506172839,60.43209876543209,0)" xlink:href="#ad"/><use transform="matrix(0.06172839506172839,0,0,0.06172839506172839,72.77777777777777,0)" xlink:href="#aa"/><use transform="matrix(0.06172839506172839,0,0,0.06172839506172839,78.9506172839506,0)" xlink:href="#z"/><use transform="matrix(0.06172839506172839,0,0,0.06172839506172839,86.29629629629629,0)" xlink:href="#ai"/></g><path fill="#333" d="M177-190C167-65 218 103 67 71c-23-6-38-20-44-43l32-5c15 47 100 32 89-28v-30C133-14 115 1 83 1 29 1 15-40 15-95c0-56 16-97 71-98 29-1 48 16 59 35 1-10 0-23 2-32h30zM94-22c36 0 50-32 50-73 0-42-14-75-50-75-39 0-46 34-46 75s6 73 46 73" id="ap"/><path fill="#333" d="M143 4C61 4 22-44 18-125c-5-107 100-154 193-111 17 8 29 25 37 43l-32 9c-13-25-37-40-76-40-61 0-88 39-88 99 0 61 29 100 91 101 35 0 62-11 79-27v-45h-74v-28h105v86C228-13 192 4 143 4" id="aq"/><g id="p"><use transform="matrix(0.04938271604938272,0,0,0.04938271604938272,0,0)" xlink:href="#ap"/><use transform="matrix(0.04938271604938272,0,0,0.04938271604938272,9.876543209876544,0)" xlink:href="#N"/><use transform="matrix(0.04938271604938272,0,0,0.04938271604938272,19.75308641975309,0)" xlink:href="#I"/><use transform="matrix(0.04938271604938272,0,0,0.04938271604938272,29.629629629629633,0)" xlink:href="#J"/><use transform="matrix(0.04938271604938272,0,0,0.04938271604938272,34.567901234567906,0)" xlink:href="#aj"/><use transform="matrix(0.04938271604938272,0,0,0.04938271604938272,44.44444444444445,0)" xlink:href="#L"/><use transform="matrix(0.04938271604938272,0,0,0.04938271604938272,54.320987654320994,0)" xlink:href="#G"/><use transform="matrix(0.04938271604938272,0,0,0.04938271604938272,63.20987654320988,0)" xlink:href="#aq"/><use transform="matrix(0.04938271604938272,0,0,0.04938271604938272,77.03703703703705,0)" xlink:href="#N"/><use transform="matrix(0.04938271604938272,0,0,0.04938271604938272,86.9135802469136,0)" xlink:href="#I"/><use transform="matrix(0.04938271604938272,0,0,0.04938271604938272,96.79012345679014,0)" xlink:href="#M"/><use transform="matrix(0.04938271604938272,0,0,0.04938271604938272,111.55555555555557,0)" xlink:href="#N"/><use transform="matrix(0.04938271604938272,0,0,0.04938271604938272,121.43209876543212,0)" xlink:href="#S"/><use transform="matrix(0.04938271604938272,0,0,0.04938271604938272,126.37037037037038,0)" xlink:href="#P"/><use transform="matrix(0.04938271604938272,0,0,0.04938271604938272,132.2469135802469,0)" xlink:href="#W"/></g><path fill="#333" d="M30-248c87 1 191-15 191 75 0 78-77 80-158 76V0H30v-248zm33 125c57 0 124 11 124-50 0-59-68-47-124-48v98" id="ar"/><g id="q"><use transform="matrix(0.04938271604938272,0,0,0.04938271604938272,0,0)" xlink:href="#G"/><use transform="matrix(0.04938271604938272,0,0,0.04938271604938272,8.88888888888889,0)" xlink:href="#H"/><use transform="matrix(0.04938271604938272,0,0,0.04938271604938272,18.765432098765434,0)" xlink:href="#I"/><use transform="matrix(0.04938271604938272,0,0,0.04938271604938272,28.641975308641978,0)" xlink:href="#J"/><use transform="matrix(0.04938271604938272,0,0,0.04938271604938272,33.580246913580254,0)" xlink:href="#aj"/><use transform="matrix(0.04938271604938272,0,0,0.04938271604938272,43.4567901234568,0)" xlink:href="#L"/><use transform="matrix(0.04938271604938272,0,0,0.04938271604938272,53.333333333333336,0)" xlink:href="#G"/><use transform="matrix(0.04938271604938272,0,0,0.04938271604938272,62.22222222222223,0)" xlink:href="#ar"/><use transform="matrix(0.04938271604938272,0,0,0.04938271604938272,74.07407407407408,0)" xlink:href="#L"/><use transform="matrix(0.04938271604938272,0,0,0.04938271604938272,83.95061728395062,0)" xlink:href="#P"/><use transform="matrix(0.04938271604938272,0,0,0.04938271604938272,89.82716049382717,0)" xlink:href="#S"/></g><path fill="#333" d="M108 0H70L1-190h34L89-25l56-165h34" id="as"/><path fill="#333" d="M145-31C134-9 116 4 85 4 32 4 16-35 15-94c0-59 17-99 70-100 32-1 48 14 60 33 0-11-1-24 2-32h30l-1 268h-32zM93-21c41 0 51-33 51-76s-8-73-50-73c-40 0-46 35-46 75s5 74 45 74" id="at"/><path fill="#333" d="M24 0v-261h32V0H24" id="au"/><path fill="#333" d="M101-234c-31-9-42 10-38 44h38v23H63V0H32v-167H5v-23h27c-7-52 17-82 69-68v24" id="av"/><g id="r"><use transform="matrix(0.04938271604938272,0,0,0.04938271604938272,0,0)" xlink:href="#R"/><use transform="matrix(0.04938271604938272,0,0,0.04938271604938272,9.876543209876544,0)" xlink:href="#P"/><use transform="matrix(0.04938271604938272,0,0,0.04938271604938272,15.753086419753087,0)" xlink:href="#I"/><use transform="matrix(0.04938271604938272,0,0,0.04938271604938272,25.629629629629633,0)" xlink:href="#as"/><use transform="matrix(0.04938271604938272,0,0,0.04938271604938272,34.51851851851852,0)" xlink:href="#J"/><use transform="matrix(0.04938271604938272,0,0,0.04938271604938272,39.45679012345679,0)" xlink:href="#at"/><use transform="matrix(0.04938271604938272,0,0,0.04938271604938272,49.333333333333336,0)" xlink:href="#U"/><use transform="matrix(0.04938271604938272,0,0,0.04938271604938272,59.20987654320988,0)" xlink:href="#L"/><use transform="matrix(0.04938271604938272,0,0,0.04938271604938272,69.08641975308643,0)" xlink:href="#au"/><use transform="matrix(0.04938271604938272,0,0,0.04938271604938272,72.98765432098767,0)" xlink:href="#Q"/><use transform="matrix(0.04938271604938272,0,0,0.04938271604938272,76.88888888888891,0)" xlink:href="#av"/><use transform="matrix(0.04938271604938272,0,0,0.04938271604938272,81.8271604938272,0)" xlink:href="#Q"/><use transform="matrix(0.04938271604938272,0,0,0.04938271604938272,85.72839506172843,0)" xlink:href="#N"/><use transform="matrix(0.04938271604938272,0,0,0.04938271604938272,95.60493827160498,0)" xlink:href="#H"/></g><path fill="#333" d="M205 0l-28-72H64L36 0H1l101-248h38L239 0h-34zm-38-99l-47-123c-12 45-31 82-46 123h93" id="aw"/><g id="s"><use transform="matrix(0.04938271604938272,0,0,0.04938271604938272,0,0)" xlink:href="#aw"/><use transform="matrix(0.04938271604938272,0,0,0.04938271604938272,11.851851851851853,0)" xlink:href="#S"/><use transform="matrix(0.04938271604938272,0,0,0.04938271604938272,16.790123456790127,0)" xlink:href="#S"/><use transform="matrix(0.04938271604938272,0,0,0.04938271604938272,21.7283950617284,0)" xlink:href="#P"/><use transform="matrix(0.04938271604938272,0,0,0.04938271604938272,27.604938271604947,0)" xlink:href="#Q"/><use transform="matrix(0.04938271604938272,0,0,0.04938271604938272,31.506172839506174,0)" xlink:href="#T"/><use transform="matrix(0.04938271604938272,0,0,0.04938271604938272,41.38271604938272,0)" xlink:href="#U"/><use transform="matrix(0.04938271604938272,0,0,0.04938271604938272,51.25925925925927,0)" xlink:href="#S"/><use transform="matrix(0.04938271604938272,0,0,0.04938271604938272,56.19753086419754,0)" xlink:href="#Q"/><use transform="matrix(0.04938271604938272,0,0,0.04938271604938272,60.09876543209877,0)" xlink:href="#I"/><use transform="matrix(0.04938271604938272,0,0,0.04938271604938272,69.97530864197532,0)" xlink:href="#K"/></g><g id="t"><use transform="matrix(0.06172839506172839,0,0,0.06172839506172839,0,0)" xlink:href="#am"/><use transform="matrix(0.06172839506172839,0,0,0.06172839506172839,14.814814814814813,0)" xlink:href="#D"/><use transform="matrix(0.06172839506172839,0,0,0.06172839506172839,27.160493827160494,0)" xlink:href="#ad"/><use transform="matrix(0.06172839506172839,0,0,0.06172839506172839,39.50617283950617,0)" xlink:href="#ac"/><use transform="matrix(0.06172839506172839,0,0,0.06172839506172839,51.85185185185185,0)" xlink:href="#aa"/></g><path fill="#3a414a" d="M233-177c-1 41-23 64-60 70L243 0h-38l-65-103H63V0H30v-248c88 3 205-21 203 71zM63-129c60-2 137 13 137-47 0-61-80-42-137-45v92" id="ax"/><g id="u"><use transform="matrix(0.06172839506172839,0,0,0.06172839506172839,0,0)" xlink:href="#ax"/><use transform="matrix(0.06172839506172839,0,0,0.06172839506172839,15.987654320987653,0)" xlink:href="#C"/><use transform="matrix(0.06172839506172839,0,0,0.06172839506172839,28.333333333333332,0)" xlink:href="#ag"/><use transform="matrix(0.06172839506172839,0,0,0.06172839506172839,33.20987654320987,0)" xlink:href="#ad"/></g><g id="v"><use transform="matrix(0.04938271604938272,0,0,0.04938271604938272,0,0)" xlink:href="#R"/><use transform="matrix(0.04938271604938272,0,0,0.04938271604938272,9.876543209876544,0)" xlink:href="#P"/><use transform="matrix(0.04938271604938272,0,0,0.04938271604938272,15.753086419753087,0)" xlink:href="#I"/><use transform="matrix(0.04938271604938272,0,0,0.04938271604938272,25.629629629629633,0)" xlink:href="#as"/><use transform="matrix(0.04938271604938272,0,0,0.04938271604938272,34.51851851851852,0)" xlink:href="#J"/><use transform="matrix(0.04938271604938272,0,0,0.04938271604938272,39.45679012345679,0)" xlink:href="#L"/><use transform="matrix(0.04938271604938272,0,0,0.04938271604938272,49.333333333333336,0)" xlink:href="#ap"/><use transform="matrix(0.04938271604938272,0,0,0.04938271604938272,59.20987654320988,0)" xlink:href="#N"/><use transform="matrix(0.04938271604938272,0,0,0.04938271604938272,69.08641975308643,0)" xlink:href="#K"/><use transform="matrix(0.04938271604938272,0,0,0.04938271604938272,78.96296296296298,0)" xlink:href="#S"/></g><g id="w"><use transform="matrix(0.04938271604938272,0,0,0.04938271604938272,0,0)" xlink:href="#R"/><use transform="matrix(0.04938271604938272,0,0,0.04938271604938272,9.876543209876544,0)" xlink:href="#P"/><use transform="matrix(0.04938271604938272,0,0,0.04938271604938272,15.753086419753087,0)" xlink:href="#I"/><use transform="matrix(0.04938271604938272,0,0,0.04938271604938272,25.629629629629633,0)" xlink:href="#as"/><use transform="matrix(0.04938271604938272,0,0,0.04938271604938272,34.51851851851852,0)" xlink:href="#J"/><use transform="matrix(0.04938271604938272,0,0,0.04938271604938272,39.45679012345679,0)" xlink:href="#P"/><use transform="matrix(0.04938271604938272,0,0,0.04938271604938272,45.333333333333336,0)" xlink:href="#I"/><use transform="matrix(0.04938271604938272,0,0,0.04938271604938272,55.20987654320988,0)" xlink:href="#au"/><use transform="matrix(0.04938271604938272,0,0,0.04938271604938272,59.111111111111114,0)" xlink:href="#N"/></g></defs></g></svg>