<svg xmlns="http://www.w3.org/2000/svg" xmlns:xlink="http://www.w3.org/1999/xlink" xmlns:lucid="lucid" width="1137.48" height="1588.67"><g transform="translate(-334.20589346830593 -164.16666666666674)" lucid:page-tab-id="9d26knS8uT8S"><path d="M0 0h1500v2000H0z" fill="#fff"/><path d="M1285.73 670.66a6 6 0 0 1 6-6h153.46a6 6 0 0 1 6 6v35.66a6 6 0 0 1-6 6h-153.47a6 6 0 0 1-6-6z" stroke="#3a414a" fill="#fff"/><use xlink:href="#a" transform="matrix(1,0,0,1,1290.7261998826957,669.6621670897359) translate(20.345679012345684 22.52777777777778)"/><use xlink:href="#b" transform="matrix(1,0,0,1,1290.7261998826957,669.6621670897359) translate(75.34567901234567 22.52777777777778)"/><path d="M520.04 755.16c0 30.56-37 55.33-82.67 55.33-45.65 0-82.66-24.78-82.66-55.34 0-30.56 37.02-55.34 82.67-55.34 45.66 0 82.67 24.78 82.67 55.34z" stroke="#3a414a" fill="#fff"/><use xlink:href="#c" transform="matrix(1,0,0,1,359.70589346830593,704.8231802059731) translate(36.708703703703705 27.24652777777778)"/><use xlink:href="#d" transform="matrix(1,0,0,1,359.70589346830593,704.8231802059731) translate(14.512345679012341 53.91319444444445)"/><use xlink:href="#e" transform="matrix(1,0,0,1,359.70589346830593,704.8231802059731) translate(71.24074074074073 53.91319444444445)"/><use xlink:href="#f" transform="matrix(1,0,0,1,359.70589346830593,704.8231802059731) translate(48.40623456790124 80.57986111111111)"/><path d="M598.86 734.4l-77.7 21.1-.27-.96 77.96-21.17zm176.2-47.86l-77.58 21.08v-1.04l77.3-21z" stroke="#3a414a" stroke-width=".05" fill="#3a414a"/><path d="M521.16 755.5l-.64.18.02-.52-.02-.52.38-.1z" fill="#3a414a"/><path d="M521.2 755.52l-.7.2v-1.1l.42-.1zm-.65-.86v1l.6-.17-.26-.93zM775.8 685.82l-14.53 14.95-.72-.7 13.36-13.73-18.46-5.1.26-.95z" stroke="#3a414a" stroke-width=".05" fill="#3a414a"/><use xlink:href="#g" transform="matrix(1,0,0,1,598.8619404728062,688.4898468726396) translate(32.02969135802471 14.222222222222223)"/><use xlink:href="#h" transform="matrix(1,0,0,1,598.8619404728062,688.4898468726396) translate(0.005000000000002558 35.55555555555556)"/><use xlink:href="#i" transform="matrix(1,0,0,1,598.8619404728062,688.4898468726396) translate(10.3506790123457 56.88888888888889)"/><path d="M520.04 1396.6c0 30.55-37 55.32-82.67 55.32-45.65 0-82.66-24.78-82.66-55.34 0-30.55 37.02-55.33 82.67-55.33 45.66 0 82.67 24.78 82.67 55.34z" stroke="#3a414a" fill="#fff"/><use xlink:href="#c" transform="matrix(1,0,0,1,359.70589346830593,1346.2516728017144) translate(36.2087037037037 43.02777777777778)"/><use xlink:href="#j" transform="matrix(1,0,0,1,359.70589346830593,1346.2516728017144) translate(13.616111111111119 69.69444444444446)"/><use xlink:href="#k" transform="matrix(1,0,0,1,359.70589346830593,1346.2516728017144) translate(99.91240740740741 69.69444444444446)"/><path d="M1145.33 688.5c0 30.55-37 55.32-82.66 55.32S980 719.05 980 688.5c0-30.57 37-55.34 82.67-55.34 45.65 0 82.66 24.77 82.66 55.33z" stroke="#3a414a" fill="#fff"/><use xlink:href="#l" transform="matrix(1,0,0,1,984.9999999999998,638.1565135393062) translate(20.037037037037038 55.65277777777778)"/><use xlink:href="#m" transform="matrix(1,0,0,1,984.9999999999998,638.1565135393062) translate(123.61728395061728 55.65277777777778)"/><path d="M1145.33 838.67c0 30.56-37 55.33-82.66 55.33S980 869.23 980 838.67s37-55.34 82.67-55.34c45.65 0 82.66 24.78 82.66 55.34z" stroke="#3a414a" fill="#fff"/><use xlink:href="#l" transform="matrix(1,0,0,1,984.9999999999998,788.333333333333) translate(20.037037037037038 55.65277777777778)"/><use xlink:href="#n" transform="matrix(1,0,0,1,984.9999999999998,788.333333333333) translate(123.61728395061728 55.65277777777778)"/><path d="M775.1 837.9l-.32.96-77.3-25.3v-1.04zm-176.24-57.65v1.06l-78-25.5.3-.96z" stroke="#3a414a" stroke-width=".05" fill="#3a414a"/><path d="M521.18 754.84l-.3.95-.36-.12.02-.52-.02-.53z" fill="#3a414a"/><path d="M521.2 754.83l-.3 1-.4-.13V754.6zm-.64.33v.5l.3.1.3-.9-.6-.2zM775.8 838.67l-20.35 4.5-.22-.97 18.7-4.14-12.63-14.4.75-.66z" stroke="#3a414a" stroke-width=".05" fill="#3a414a"/><use xlink:href="#g" transform="matrix(1,0,0,1,598.8619404728062,764.9115901029863) translate(32.02969135802471 14.222222222222223)"/><use xlink:href="#h" transform="matrix(1,0,0,1,598.8619404728062,764.9115901029863) translate(0.005000000000002558 35.55555555555556)"/><use xlink:href="#i" transform="matrix(1,0,0,1,598.8619404728062,764.9115901029863) translate(10.3506790123457 56.88888888888889)"/><path d="M1186.44 689h-40.1v-1h40.1zm97.88 0h-39.7v-1h39.7z" stroke="#3a414a" stroke-width=".05" fill="#3a414a"/><path d="M1146.35 689h-.53v-1h.53z" fill="#3a414a"/><path d="M1146.37 689h-.58V688h.57zm-.52-1v.97h.47V688zM1285.23 688.5l-17.95 10.6-.5-.86 16.48-9.75-16.48-9.76.5-.86z" stroke="#3a414a" stroke-width=".05" fill="#3a414a"/><use xlink:href="#o" transform="matrix(1,0,0,1,1186.4434791767594,667.1565135393062) translate(11.80746913580247 14.222222222222223)"/><use xlink:href="#p" transform="matrix(1,0,0,1,1186.4434791767594,667.1565135393062) translate(0.004999999999999005 35.55555555555556)"/><path d="M1285.73 820.84a6 6 0 0 1 6-6h153.46a6 6 0 0 1 6 6v35.65a6 6 0 0 1-6 6h-153.47a6 6 0 0 1-6-6z" stroke="#3a414a" fill="#fff"/><use xlink:href="#a" transform="matrix(1,0,0,1,1290.7261998826957,819.838986883763) translate(20.345679012345684 22.52777777777778)"/><use xlink:href="#b" transform="matrix(1,0,0,1,1290.7261998826957,819.838986883763) translate(75.34567901234567 22.52777777777778)"/><path d="M1186.44 839.17h-40.1v-1h40.1zm97.88 0h-39.7v-1h39.7z" stroke="#3a414a" stroke-width=".05" fill="#3a414a"/><path d="M1146.35 839.17h-.53v-1h.53z" fill="#3a414a"/><path d="M1146.37 839.2h-.58v-1.06h.57zm-.52-1v.94h.47v-.95zM1285.23 838.67l-17.95 10.6-.5-.85 16.48-9.75-16.48-9.75.5-.87z" stroke="#3a414a" stroke-width=".05" fill="#3a414a"/><use xlink:href="#o" transform="matrix(1,0,0,1,1186.4434791767594,817.3333333333331) translate(11.80746913580247 14.222222222222223)"/><use xlink:href="#p" transform="matrix(1,0,0,1,1186.4434791767594,817.3333333333331) translate(0.004999999999999005 35.55555555555556)"/><path d="M521.24 1396.65l-.63-.77 87.87-72.25h1.57zm254.18-209.02l-87.55 72h-1.57l88.48-72.77z" stroke="#3a414a" stroke-width=".05" fill="#3a414a"/><path d="M521.25 1396.64l-.73.6.02-.65-.02-.65z" fill="#3a414a"/><path d="M521.3 1396.65l-.8.65v-1.4zm-.74-.07v.62l.66-.56-.67-.63zM768.68 1206.26l-.94-.34 6.54-18-18.92 2.94-.16-1 20.6-3.2z" stroke="#3a414a" stroke-width=".05" fill="#3a414a"/><use xlink:href="#g" transform="matrix(1,0,0,1,598.8619404728062,1259.6280861893222) translate(32.02969135802471 14.222222222222223)"/><use xlink:href="#h" transform="matrix(1,0,0,1,598.8619404728062,1259.6280861893222) translate(0.005000000000002558 35.55555555555556)"/><use xlink:href="#i" transform="matrix(1,0,0,1,598.8619404728062,1259.6280861893222) translate(10.3506790123457 56.88888888888889)"/><path d="M1121.8 1260.84c0 30.56-37 55.34-82.65 55.34-45.66 0-82.67-24.78-82.67-55.34 0-30.56 37-55.33 82.67-55.33 45.65 0 82.66 24.78 82.66 55.34z" stroke="#3a414a" fill="#fff"/><use xlink:href="#l" transform="matrix(1,0,0,1,961.4802792773473,1210.5101531273592) translate(20.037037037037038 55.65277777777778)"/><use xlink:href="#m" transform="matrix(1,0,0,1,961.4802792773473,1210.5101531273592) translate(123.61728395061728 55.65277777777778)"/><path d="M709.38 1397.1H521.04v-1h188.34zm286.54 0H808v-1H995.9z" stroke="#3a414a" stroke-width=".05" fill="#3a414a"/><path d="M521.05 1397.1h-.53l.02-.5v-.5h.5z" fill="#3a414a"/><path d="M521.08 1397.1h-.58v-1.04h.58zm-.53-1v.96h.48v-.95zM996.83 1396.6l-17.94 10.6-.52-.86 16.5-9.75-16.5-9.76.5-.87z" stroke="#3a414a" stroke-width=".05" fill="#3a414a"/><use xlink:href="#g" transform="matrix(1,0,0,1,709.3777704140092,1364.5850061350477) translate(32.02969135802471 14.222222222222223)"/><use xlink:href="#h" transform="matrix(1,0,0,1,709.3777704140092,1364.5850061350477) translate(0.005000000000002558 35.55555555555556)"/><use xlink:href="#i" transform="matrix(1,0,0,1,709.3777704140092,1364.5850061350477) translate(10.3506790123457 56.88888888888889)"/><path d="M775.4 1601.87l-.62.78-87.8-70.94h1.6zM609.37 1467.7h-1.6l-87.15-70.4.64-.8z" stroke="#3a414a" stroke-width=".05" fill="#3a414a"/><path d="M521.25 1396.52l-.63.78-.1-.1.02-.62-.02-.65z" fill="#3a414a"/><path d="M521.3 1396.52l-.67.8-.13-.1V1395.86zm-.74.07v.6l.06.06.6-.74-.67-.54zM775.8 1602.83l-20.62-3.02.14-.98 18.95 2.78-6.7-17.95.94-.35z" stroke="#3a414a" stroke-width=".05" fill="#3a414a"/><use xlink:href="#g" transform="matrix(1,0,0,1,598.8619404728062,1467.7074678532078) translate(32.02969135802471 14.222222222222223)"/><use xlink:href="#h" transform="matrix(1,0,0,1,598.8619404728062,1467.7074678532078) translate(0.005000000000002558 35.55555555555556)"/><use xlink:href="#i" transform="matrix(1,0,0,1,598.8619404728062,1467.7074678532078) translate(10.3506790123457 56.88888888888889)"/><path d="M354.7 505.33a6 6 0 0 1 6-6h36.05a6 6 0 0 1 6 6V548a6 6 0 0 1-6 6H360.7a6 6 0 0 1-6-6z" stroke="#000" stroke-opacity="0" fill="#fff" fill-opacity="0"/><use xlink:href="#q" transform="matrix(1,0,0,1,359.70589346830593,504.33333333333337) translate(0 26.21527777777778)"/><path d="M354.7 1081.6a6 6 0 0 1 6-6h36.05a6 6 0 0 1 6 6v42.66a6 6 0 0 1-6 6H360.7a6 6 0 0 1-6-6z" stroke="#000" stroke-opacity="0" fill="#fff" fill-opacity="0"/><use xlink:href="#r" transform="matrix(1,0,0,1,359.70589346830593,1080.5963132359082) translate(0 26.21527777777778)"/><path d="M776.3 670.66a6 6 0 0 1 6-6h28.13a6 6 0 0 1 6 6v30.32a6 6 0 0 1-6 6H782.3a6 6 0 0 1-6-6z" stroke="#3a414a" fill="#fff"/><path d="M817.6 670.26l-.62-.78 52.53-40.8h1.64zm115.55-89.74l-34.54 26.82H897l35.55-27.6z" stroke="#3a414a" stroke-width=".05" fill="#3a414a"/><path d="M817.6 670.26l-.67.52v-.14l-.08-1 .14-.17z" fill="#3a414a"/><path d="M817.64 670.26l-.74.57v-.2l-.08-1 .17-.2zm-.76-.6l.07.98v.1l.62-.5-.58-.73zM925.9 598.95l-.93-.37 7.04-17.8-19 2.4-.12-1 20.68-2.62z" stroke="#3a414a" stroke-width=".05" fill="#3a414a"/><use xlink:href="#s" transform="matrix(1,0,0,1,834.2326475740856,607.3412023958167) translate(0.005000000000002558 14.222222222222223)"/><path d="M776.3 823.5a6 6 0 0 1 6-6h28.13a6 6 0 0 1 6 6v30.33a6 6 0 0 1-6 6H782.3a6 6 0 0 1-6-6z" stroke="#3a414a" fill="#fff"/><path d="M844.93 689h-27.5v-1h27.5zm133.66 0h-27.1v-1h27.1z" stroke="#3a414a" stroke-width=".05" fill="#3a414a"/><path d="M817.44 689h-.5v-1h.5z" fill="#3a414a"/><path d="M817.47 689h-.57V688h.57zm-.52-1v.97h.47V688zM979.5 688.5l-17.94 10.6-.5-.86 16.48-9.75-16.5-9.76.52-.86z" stroke="#3a414a" stroke-width=".05" fill="#3a414a"/><use xlink:href="#o" transform="matrix(1,0,0,1,844.9300780267008,667.156513539306) translate(36.00500000000001 14.222222222222223)"/><use xlink:href="#t" transform="matrix(1,0,0,1,844.9300780267008,667.156513539306) translate(0.005000000000002558 35.55555555555556)"/><path d="M844.93 839.17h-27.5v-1h27.5zm133.66 0h-27.1v-1h27.1z" stroke="#3a414a" stroke-width=".05" fill="#3a414a"/><path d="M817.44 839.17h-.5v-1h.5z" fill="#3a414a"/><path d="M817.47 839.2h-.57v-1.06h.57zm-.52-1v.94h.47v-.95zM979.5 838.67l-17.94 10.6-.5-.85 16.48-9.75-16.5-9.75.52-.87z" stroke="#3a414a" stroke-width=".05" fill="#3a414a"/><use xlink:href="#o" transform="matrix(1,0,0,1,844.9300736294573,817.3333333333329) translate(36.00500000000001 14.222222222222223)"/><use xlink:href="#t" transform="matrix(1,0,0,1,844.9300736294573,817.3333333333329) translate(0.005000000000002558 35.55555555555556)"/><path d="M1090.67 554.67c0 30.56-37 55.33-82.67 55.33-45.66 0-82.67-24.77-82.67-55.33s37-55.34 82.67-55.34c45.66 0 82.67 24.78 82.67 55.34z" stroke="#3a414a" fill="#fff"/><use xlink:href="#u" transform="matrix(1,0,0,1,930.3333333333333,504.33333333333337) translate(52.14080246913581 27.24652777777778)"/><use xlink:href="#v" transform="matrix(1,0,0,1,930.3333333333333,504.33333333333337) translate(30.993827160493836 53.91319444444445)"/><use xlink:href="#w" transform="matrix(1,0,0,1,930.3333333333333,504.33333333333337) translate(82.72222222222223 53.91319444444445)"/><use xlink:href="#x" transform="matrix(1,0,0,1,930.3333333333333,504.33333333333337) translate(30.504999999999992 80.57986111111111)"/><path d="M934.6 933.24l-.55.83-34.12-22.9h1.8zm-64.68-43.4h-1.8L817 855.54l.54-.83z" stroke="#3a414a" stroke-width=".05" fill="#3a414a"/><path d="M817.55 854.7l-.55.85-.27-.2.12-.5.04-.58z" fill="#3a414a"/><path d="M817.6 854.7l-.6.88-.3-.2.13-.54.04-.6zm-.73.15l-.12.5.24.16.52-.78-.6-.4zM935.1 934.16l-20.82-1.2.05-.98 19.13 1.08-8.26-17.28.9-.43z" stroke="#3a414a" stroke-width=".05" fill="#3a414a"/><use xlink:href="#s" transform="matrix(1,0,0,1,835.0964885333585,889.8406729771973) translate(0.005000000000002558 14.222222222222223)"/><path d="M1090.67 961.02c0 30.56-37 55.33-82.67 55.33-45.66 0-82.67-24.77-82.67-55.33s37-55.34 82.67-55.34c45.66 0 82.67 24.78 82.67 55.34z" stroke="#3a414a" fill="#fff"/><use xlink:href="#u" transform="matrix(1,0,0,1,930.3333333333333,910.6824733444569) translate(52.14080246913581 27.24652777777778)"/><use xlink:href="#y" transform="matrix(1,0,0,1,930.3333333333333,910.6824733444569) translate(33.4320987654321 53.91319444444445)"/><use xlink:href="#w" transform="matrix(1,0,0,1,930.3333333333333,910.6824733444569) translate(80.28395061728395 53.91319444444445)"/><use xlink:href="#x" transform="matrix(1,0,0,1,930.3333333333333,910.6824733444569) translate(30.504999999999992 80.57986111111111)"/><path d="M776.3 1171.5a6 6 0 0 1 6-6h28.13a6 6 0 0 1 6 6v30.33a6 6 0 0 1-6 6H782.3a6 6 0 0 1-6-6zM1114.67 1130.93c0 30.56-37 55.33-82.67 55.33-45.66 0-82.67-24.77-82.67-55.33s37-55.33 82.67-55.33c45.66 0 82.67 24.77 82.67 55.33z" stroke="#3a414a" fill="#fff"/><use xlink:href="#z" transform="matrix(1,0,0,1,954.3333333333333,1080.5963132359082) translate(31.949444444444442 24.09027777777778)"/><use xlink:href="#A" transform="matrix(1,0,0,1,954.3333333333333,1080.5963132359082) translate(50.25308641975308 50.75694444444445)"/><use xlink:href="#B" transform="matrix(1,0,0,1,954.3333333333333,1080.5963132359082) translate(12.143888888888904 75.64583333333334)"/><use xlink:href="#C" transform="matrix(1,0,0,1,954.3333333333333,1080.5963132359082) translate(56.58833333333334 75.64583333333334)"/><use xlink:href="#D" transform="matrix(1,0,0,1,954.3333333333333,1080.5963132359082) translate(99.92166666666667 75.64583333333334)"/><path d="M849.2 1173.58l-31.62 13.36-.4-.92 32.02-13.53zm99-41.84l-31.64 13.37v-1.07l31.24-13.2z" stroke="#3a414a" stroke-width=".05" fill="#3a414a"/><path d="M817.6 1186.93l-.67.28v-1.07l.28-.12z" fill="#3a414a"/><path d="M817.63 1186.94l-.73.3v-1.13l.32-.12zm-.68-.8v1.04l.6-.26-.36-.88zM948.83 1130.93l-12.4 16.76-.8-.6 11.4-15.4-19-2.57.14-1z" stroke="#3a414a" stroke-width=".05" fill="#3a414a"/><use xlink:href="#E" transform="matrix(1,0,0,1,849.201678567729,1137.4670730730857) translate(14.474135802469139 14.222222222222223)"/><use xlink:href="#F" transform="matrix(1,0,0,1,849.201678567729,1137.4670730730857) translate(0.005000000000002558 35.55555555555556)"/><path d="M955.43 1260.46l-.47.88-29.82-16h2.1zm-107.65-57.8h-2.1l-28.55-15.3.48-.9z" stroke="#3a414a" stroke-width=".05" fill="#3a414a"/><path d="M817.62 1186.47l-.48.88-.2-.1v-1.15z" fill="#3a414a"/><path d="M817.65 1186.46l-.5.93-.25-.15v-1.2zm-.7.76l.18.1.45-.84-.63-.34zM956 1261.33l-20.83.87-.04-1 19.13-.8-9.9-16.38.85-.52z" stroke="#3a414a" stroke-width=".05" fill="#3a414a"/><use xlink:href="#o" transform="matrix(1,0,0,1,833.1773960576062,1202.6689164551315) translate(36.00500000000001 14.222222222222223)"/><use xlink:href="#t" transform="matrix(1,0,0,1,833.1773960576062,1202.6689164551315) translate(0.005000000000002558 35.55555555555556)"/><path d="M1342.85 1470.76c0 30.56-37.02 55.33-82.67 55.33-45.66 0-82.67-24.78-82.67-55.34 0-30.56 37.02-55.34 82.68-55.34 45.65 0 82.66 24.78 82.66 55.34z" stroke="#3a414a" fill="#fff"/><use xlink:href="#l" transform="matrix(1,0,0,1,1182.5119391597534,1420.4239930188105) translate(20.037037037037038 55.65277777777778)"/><use xlink:href="#n" transform="matrix(1,0,0,1,1182.5119391597534,1420.4239930188105) translate(123.61728395061728 55.65277777777778)"/><path d="M997.33 1381.42a6 6 0 0 1 6-6h28.13a6 6 0 0 1 6 6v30.33a6 6 0 0 1-6 6h-28.13a6 6 0 0 1-6-6zM1335.7 1340.84c0 30.56-37 55.34-82.67 55.34-45.65 0-82.66-24.78-82.66-55.34 0-30.56 37-55.33 82.66-55.33s82.67 24.78 82.67 55.34z" stroke="#3a414a" fill="#fff"/><use xlink:href="#z" transform="matrix(1,0,0,1,1175.3649932157393,1290.5101531273594) translate(31.949444444444442 24.09027777777778)"/><use xlink:href="#A" transform="matrix(1,0,0,1,1175.3649932157393,1290.5101531273594) translate(50.25308641975308 50.75694444444445)"/><use xlink:href="#G" transform="matrix(1,0,0,1,1175.3649932157393,1290.5101531273594) translate(12.143888888888904 75.64583333333334)"/><use xlink:href="#C" transform="matrix(1,0,0,1,1175.3649932157393,1290.5101531273594) translate(56.58833333333334 75.64583333333334)"/><use xlink:href="#D" transform="matrix(1,0,0,1,1175.3649932157393,1290.5101531273594) translate(99.92166666666667 75.64583333333334)"/><path d="M1070.23 1383.5l-31.62 13.35-.37-.92 32-13.53zm99-41.84l-31.64 13.37v-1.1l31.23-13.2z" stroke="#3a414a" stroke-width=".05" fill="#3a414a"/><path d="M1038.63 1396.85l-.67.28v-1.1l.28-.1z" fill="#3a414a"/><path d="M1038.66 1396.86l-.73.3v-1.13l.32-.14zm-.68-.8v1.03l.6-.27-.36-.87zM1169.87 1340.84l-12.4 16.76-.8-.6 11.38-15.4-18.98-2.56.14-1z" stroke="#3a414a" stroke-width=".05" fill="#3a414a"/><use xlink:href="#E" transform="matrix(1,0,0,1,1070.2333384501349,1347.380912964537) translate(14.474135802469139 14.222222222222223)"/><use xlink:href="#F" transform="matrix(1,0,0,1,1070.2333384501349,1347.380912964537) translate(0.005000000000002558 35.55555555555556)"/><path d="M1176.46 1470.38l-.47.88-29.83-16h2.12zm-107.65-57.8h-2.1l-28.54-15.32.48-.88z" stroke="#3a414a" stroke-width=".05" fill="#3a414a"/><path d="M1038.65 1396.4l-.48.87-.2-.12v-1.13z" fill="#3a414a"/><path d="M1038.68 1396.38l-.5.92-.25-.13v-1.2zm-.7.76l.18.1.45-.84-.62-.34zM1177.03 1471.25l-20.83.86-.04-1 19.13-.78-9.92-16.4.86-.5z" stroke="#3a414a" stroke-width=".05" fill="#3a414a"/><use xlink:href="#o" transform="matrix(1,0,0,1,1054.2090559400121,1412.582756346583) translate(36.00500000000001 14.222222222222223)"/><use xlink:href="#t" transform="matrix(1,0,0,1,1054.2090559400121,1412.582756346583) translate(0.005000000000002558 35.55555555555556)"/><path d="M1121.8 1677c0 30.56-37 55.34-82.65 55.34-45.66 0-82.67-24.78-82.67-55.34 0-30.56 37-55.33 82.67-55.33 45.65 0 82.66 24.77 82.66 55.33z" stroke="#3a414a" fill="#fff"/><use xlink:href="#l" transform="matrix(1,0,0,1,961.4802792773473,1626.6689164551308) translate(20.037037037037038 55.65277777777778)"/><use xlink:href="#H" transform="matrix(1,0,0,1,961.4802792773473,1626.6689164551308) translate(123.61728395061728 55.65277777777778)"/><path d="M776.3 1587.67a6 6 0 0 1 6-6h28.13a6 6 0 0 1 6 6V1618a6 6 0 0 1-6 6H782.3a6 6 0 0 1-6-6zM1114.67 1547.1c0 30.55-37 55.32-82.67 55.32-45.66 0-82.67-24.77-82.67-55.33 0-30.57 37-55.34 82.67-55.34 45.66 0 82.67 24.77 82.67 55.33z" stroke="#3a414a" fill="#fff"/><g><use xlink:href="#z" transform="matrix(1,0,0,1,954.3333333333333,1496.7550765636797) translate(31.949444444444442 24.09027777777778)"/><use xlink:href="#A" transform="matrix(1,0,0,1,954.3333333333333,1496.7550765636797) translate(50.25308641975308 50.75694444444445)"/><use xlink:href="#I" transform="matrix(1,0,0,1,954.3333333333333,1496.7550765636797) translate(12.143888888888904 75.64583333333334)"/><use xlink:href="#C" transform="matrix(1,0,0,1,954.3333333333333,1496.7550765636797) translate(56.58833333333334 75.64583333333334)"/><use xlink:href="#D" transform="matrix(1,0,0,1,954.3333333333333,1496.7550765636797) translate(99.92166666666667 75.64583333333334)"/></g><path d="M849.2 1589.73l-31.62 13.37-.4-.92 32.02-13.53zm99-41.83l-31.64 13.37v-1.1l31.24-13.2z" stroke="#3a414a" stroke-width=".05" fill="#3a414a"/><path d="M817.6 1603.1l-.67.27v-1.08l.28-.13z" fill="#3a414a"/><path d="M817.63 1603.1l-.73.3v-1.13l.32-.13zm-.68-.8v1.04l.6-.26-.36-.88zM948.83 1547.1l-12.4 16.75-.8-.6 11.4-15.4-19-2.56.14-1z" stroke="#3a414a" stroke-width=".05" fill="#3a414a"/><g><use xlink:href="#E" transform="matrix(1,0,0,1,849.201678567729,1553.6258364008572) translate(14.474135802469139 14.222222222222223)"/><use xlink:href="#F" transform="matrix(1,0,0,1,849.201678567729,1553.6258364008572) translate(0.005000000000002558 35.55555555555556)"/></g><path d="M955.43 1676.62l-.47.88-29.82-16h2.1zm-107.65-57.8h-2.1l-28.55-15.3.48-.9z" stroke="#3a414a" stroke-width=".05" fill="#3a414a"/><path d="M817.62 1602.63l-.48.88-.2-.1v-1.14z" fill="#3a414a"/><path d="M817.65 1602.62l-.5.93-.25-.14v-1.18zm-.7.76l.18.1.45-.84-.63-.34zM956 1677.5l-20.83.85-.04-1 19.13-.8-9.9-16.38.85-.5z" stroke="#3a414a" stroke-width=".05" fill="#3a414a"/><g><use xlink:href="#o" transform="matrix(1,0,0,1,833.1773960576062,1618.8276797829033) translate(36.00500000000001 14.222222222222223)"/><use xlink:href="#t" transform="matrix(1,0,0,1,833.1773960576062,1618.8276797829033) translate(0.005000000000002558 35.55555555555556)"/></g><path d="M520.04 334.67c0 30.56-37 55.33-82.67 55.33-45.65 0-82.66-24.77-82.66-55.33s37.02-55.34 82.67-55.34c45.66 0 82.67 24.78 82.67 55.34z" stroke="#3a414a" fill="#fff"/><g><use xlink:href="#c" transform="matrix(1,0,0,1,359.70589346830593,284.3338383693075) translate(36.2087037037037 43.02777777777778)"/><use xlink:href="#J" transform="matrix(1,0,0,1,359.70589346830593,284.3338383693075) translate(47.90623456790124 69.69444444444446)"/><use xlink:href="#K" transform="matrix(1,0,0,1,359.70589346830593,284.3338383693075) translate(92.28895061728394 69.69444444444446)"/></g><path d="M581.1 317.7L521.17 335l-.28-.95 60.23-17.4zm166.42-48.06l-59.84 17.28v-1.04l59.56-17.2z" stroke="#3a414a" stroke-width=".05" fill="#3a414a"/><path d="M521.17 335l-.65.2.02-.53-.02-.52.37-.1z" fill="#3a414a"/><path d="M521.2 335.02l-.7.2v-1.09l.4-.12zm-.65-.85v1l.6-.18-.27-.93zM748.25 268.9l-14.3 15.18-.72-.68 13.13-13.94-18.54-4.8.25-.97z" stroke="#3a414a" stroke-width=".05" fill="#3a414a"/><g><use xlink:href="#o" transform="matrix(1,0,0,1,581.1118093476913,280.45604756948023) translate(36.00500000000001 14.222222222222223)"/><use xlink:href="#t" transform="matrix(1,0,0,1,581.1118093476913,280.45604756948023) translate(0.005000000000002558 35.55555555555556)"/></g><path d="M914.1 268.9c0 30.57-37.03 55.35-82.68 55.35-45.66 0-82.67-24.78-82.67-55.34 0-30.55 37-55.32 82.67-55.32 45.65 0 82.67 24.77 82.67 55.33z" stroke="#3a414a" fill="#fff"/><g><use xlink:href="#l" transform="matrix(1,0,0,1,753.7522934420933,218.57825676965308) translate(20.037037037037038 55.65277777777778)"/><use xlink:href="#m" transform="matrix(1,0,0,1,753.7522934420933,218.57825676965308) translate(123.61728395061728 55.65277777777778)"/></g><path d="M914.1 419.1c0 30.55-37.03 55.32-82.68 55.32-45.66 0-82.67-24.77-82.67-55.33 0-30.57 37-55.35 82.67-55.35 45.65 0 82.67 24.78 82.67 55.34z" stroke="#3a414a" fill="#fff"/><g><use xlink:href="#l" transform="matrix(1,0,0,1,753.7522934420933,368.75507656367995) translate(20.037037037037038 55.65277777777778)"/><use xlink:href="#n" transform="matrix(1,0,0,1,753.7522934420933,368.75507656367995) translate(123.61728395061728 55.65277777777778)"/></g><path d="M747.57 418.3l-.34.94-59.55-22.07v-1.07zM581.1 356.6v1.06l-60.27-22.35.35-.93z" stroke="#3a414a" stroke-width=".05" fill="#3a414a"/><path d="M521.2 334.38l-.35.93-.33-.1.02-.53-.02-.54z" fill="#3a414a"/><path d="M521.23 334.36l-.37 1-.36-.15V334.1zm-.67.3v.52l.27.1.33-.9-.6-.22zM748.25 419.1l-20.5 3.7-.2-.98 18.86-3.4-12.06-14.9.78-.62z" stroke="#3a414a" stroke-width=".05" fill="#3a414a"/><g><use xlink:href="#o" transform="matrix(1,0,0,1,581.1118093476913,355.5444574664937) translate(36.00500000000001 14.222222222222223)"/><use xlink:href="#t" transform="matrix(1,0,0,1,581.1118093476913,355.5444574664937) translate(0.005000000000002558 35.55555555555556)"/></g><path d="M1054.48 253.66a6 6 0 0 1 6-6h162.8a6 6 0 0 1 6 6v35.66a6 6 0 0 1-6 6h-162.8a6 6 0 0 1-6-6z" stroke="#3a414a" fill="#fff"/><g><use xlink:href="#a" transform="matrix(1,0,0,1,1059.4784933247888,252.66267212571006) translate(21.111111111111114 22.52777777777778)"/><use xlink:href="#L" transform="matrix(1,0,0,1,1059.4784933247888,252.66267212571006) translate(76.11111111111111 22.52777777777778)"/></g><path d="M955.15 272H915v-1h40.15zm97.92 0h-39.75v-1h39.75z" stroke="#3a414a" stroke-width=".05" fill="#3a414a"/><path d="M915 272h-.55l.07-.78V271h.48z" fill="#3a414a"/><path d="M915.03 272h-.6l.06-.78v-.26h.53zm-.48-1v.23l-.08.73h.5v-.94zM1053.98 271.5l-17.94 10.6-.5-.86 16.47-9.75-16.47-9.76.5-.86z" stroke="#3a414a" stroke-width=".05" fill="#3a414a"/><g><use xlink:href="#o" transform="matrix(1,0,0,1,955.148670419265,250.15701857528026) translate(11.80746913580247 14.222222222222223)"/><use xlink:href="#p" transform="matrix(1,0,0,1,955.148670419265,250.15701857528026) translate(0.004999999999999005 35.55555555555556)"/></g><path d="M1054.48 396a6 6 0 0 1 6-6h162.8a6 6 0 0 1 6 6v50a6 6 0 0 1-6 6h-162.8a6 6 0 0 1-6-6z" stroke="#3a414a" fill="#fff"/><g><use xlink:href="#a" transform="matrix(1,0,0,1,1059.4784933247888,395.00050503597413) translate(0.925925925925938 31.02777777777778)"/><use xlink:href="#M" transform="matrix(1,0,0,1,1059.4784933247888,395.00050503597413) translate(55.92592592592593 31.02777777777778)"/></g><path d="M955.15 421.97l-40.16.2v-1l40.15-.2zm97.92-.47l-39.75.2v-1l39.75-.2z" stroke="#3a414a" stroke-width=".05" fill="#3a414a"/><path d="M915 422.17h-.55l.07-.77v-.23h.48z" fill="#3a414a"/><path d="M915.03 422.2h-.6l.06-.8v-.26h.53zm-.48-1v.2l-.08.74h.5v-.95zM1053.98 421l-17.9 10.7-.5-.86L1052 421l-16.52-9.66.5-.86z" stroke="#3a414a" stroke-width=".05" fill="#3a414a"/><g><use xlink:href="#o" transform="matrix(1,0,0,1,955.1486704192658,400.0005050359742) translate(11.80746913580247 14.222222222222223)"/><use xlink:href="#p" transform="matrix(1,0,0,1,955.1486704192658,400.0005050359742) translate(0.004999999999999005 35.55555555555556)"/></g><path d="M354.7 190.67a6 6 0 0 1 6-6h36.05a6 6 0 0 1 6 6v42.66a6 6 0 0 1-6 6H360.7a6 6 0 0 1-6-6z" stroke="#000" stroke-opacity="0" fill="#fff" fill-opacity="0"/><g><use xlink:href="#N" transform="matrix(1,0,0,1,359.70589346830593,189.66666666666674) translate(0 26.21527777777778)"/></g><defs><path fill="#3a414a" d="M266 0h-40l-56-210L115 0H75L2-248h35L96-30l15-64 43-154h32l59 218 59-218h35" id="O"/><path fill="#3a414a" d="M194 0L95-120 63-95V0H30v-248h33v124l119-124h40L117-140 236 0h-42" id="P"/><path fill="#3a414a" d="M127-220V0H93v-220H8v-28h204v28h-85" id="Q"/><g id="a"><use transform="matrix(0.06172839506172839,0,0,0.06172839506172839,0,0)" xlink:href="#O"/><use transform="matrix(0.06172839506172839,0,0,0.06172839506172839,20.925925925925924,0)" xlink:href="#P"/><use transform="matrix(0.06172839506172839,0,0,0.06172839506172839,35.74074074074073,0)" xlink:href="#Q"/></g><path fill="#3a414a" d="M30 0v-248h33v221h125V0H30" id="R"/><path fill="#3a414a" d="M24-231v-30h32v30H24zM24 0v-190h32V0H24" id="S"/><path fill="#3a414a" d="M59-47c-2 24 18 29 38 22v24C64 9 27 4 27-40v-127H5v-23h24l9-43h21v43h35v23H59v120" id="T"/><path fill="#3a414a" d="M100-194c63 0 86 42 84 106H49c0 40 14 67 53 68 26 1 43-12 49-29l28 8c-11 28-37 45-77 45C44 4 14-33 15-96c1-61 26-98 85-98zm52 81c6-60-76-77-97-28-3 7-6 17-6 28h103" id="U"/><path fill="#3a414a" d="M114-163C36-179 61-72 57 0H25l-1-190h30c1 12-1 29 2 39 6-27 23-49 58-41v29" id="V"/><path fill="#3a414a" d="M141-36C126-15 110 5 73 4 37 3 15-17 15-53c-1-64 63-63 125-63 3-35-9-54-41-54-24 1-41 7-42 31l-33-3c5-37 33-52 76-52 45 0 72 20 72 64v82c-1 20 7 32 28 27v20c-31 9-61-2-59-35zM48-53c0 20 12 33 32 33 41-3 63-29 60-74-43 2-92-5-92 41" id="W"/><path fill="#3a414a" d="M24 0v-261h32V0H24" id="X"/><g id="b"><use transform="matrix(0.06172839506172839,0,0,0.06172839506172839,0,0)" xlink:href="#R"/><use transform="matrix(0.06172839506172839,0,0,0.06172839506172839,12.345679012345679,0)" xlink:href="#S"/><use transform="matrix(0.06172839506172839,0,0,0.06172839506172839,17.22222222222222,0)" xlink:href="#T"/><use transform="matrix(0.06172839506172839,0,0,0.06172839506172839,23.39506172839506,0)" xlink:href="#U"/><use transform="matrix(0.06172839506172839,0,0,0.06172839506172839,35.74074074074074,0)" xlink:href="#V"/><use transform="matrix(0.06172839506172839,0,0,0.06172839506172839,43.08641975308642,0)" xlink:href="#W"/><use transform="matrix(0.06172839506172839,0,0,0.06172839506172839,55.432098765432094,0)" xlink:href="#X"/></g><path fill="#3a414a" d="M63-220v92h138v28H63V0H30v-248h175v28H63" id="Y"/><path fill="#3a414a" d="M84 4C-5 8 30-112 23-190h32v120c0 31 7 50 39 49 72-2 45-101 50-169h31l1 190h-30c-1-10 1-25-2-33-11 22-28 36-60 37" id="Z"/><path fill="#3a414a" d="M33-154v-36h34v36H33zM33 0v-36h34V0H33" id="aa"/><g id="c"><use transform="matrix(0.06172839506172839,0,0,0.06172839506172839,0,0)" xlink:href="#Y"/><use transform="matrix(0.06172839506172839,0,0,0.06172839506172839,13.518518518518517,0)" xlink:href="#U"/><use transform="matrix(0.06172839506172839,0,0,0.06172839506172839,25.864197530864196,0)" xlink:href="#W"/><use transform="matrix(0.06172839506172839,0,0,0.06172839506172839,38.20987654320987,0)" xlink:href="#T"/><use transform="matrix(0.06172839506172839,0,0,0.06172839506172839,44.382716049382715,0)" xlink:href="#Z"/><use transform="matrix(0.06172839506172839,0,0,0.06172839506172839,56.72839506172839,0)" xlink:href="#V"/><use transform="matrix(0.06172839506172839,0,0,0.06172839506172839,64.07407407407408,0)" xlink:href="#U"/><use transform="matrix(0.06172839506172839,0,0,0.06172839506172839,76.41975308641976,0)" xlink:href="#aa"/></g><path fill="#3a414a" d="M185-189c-5-48-123-54-124 2 14 75 158 14 163 119 3 78-121 87-175 55-17-10-28-26-33-46l33-7c5 56 141 63 141-1 0-78-155-14-162-118-5-82 145-84 179-34 5 7 8 16 11 25" id="ab"/><path fill="#3a414a" d="M117-194c89-4 53 116 60 194h-32v-121c0-31-8-49-39-48C34-167 62-67 57 0H25l-1-190h30c1 10-1 24 2 32 11-22 29-35 61-36" id="ac"/><g id="d"><use transform="matrix(0.06172839506172839,0,0,0.06172839506172839,0,0)" xlink:href="#ab"/><use transform="matrix(0.06172839506172839,0,0,0.06172839506172839,14.814814814814813,0)" xlink:href="#W"/><use transform="matrix(0.06172839506172839,0,0,0.06172839506172839,27.160493827160494,0)" xlink:href="#S"/><use transform="matrix(0.06172839506172839,0,0,0.06172839506172839,32.03703703703704,0)" xlink:href="#ac"/><use transform="matrix(0.06172839506172839,0,0,0.06172839506172839,44.382716049382715,0)" xlink:href="#T"/></g><path fill="#3a414a" d="M197 0v-115H63V0H30v-248h33v105h134v-105h34V0h-34" id="ad"/><g id="e"><use transform="matrix(0.06172839506172839,0,0,0.06172839506172839,0,0)" xlink:href="#ad"/><use transform="matrix(0.06172839506172839,0,0,0.06172839506172839,15.987654320987653,0)" xlink:href="#U"/><use transform="matrix(0.06172839506172839,0,0,0.06172839506172839,28.333333333333332,0)" xlink:href="#X"/><use transform="matrix(0.06172839506172839,0,0,0.06172839506172839,33.20987654320987,0)" xlink:href="#U"/><use transform="matrix(0.06172839506172839,0,0,0.06172839506172839,45.55555555555555,0)" xlink:href="#ac"/><use transform="matrix(0.06172839506172839,0,0,0.06172839506172839,57.90123456790123,0)" xlink:href="#W"/></g><path fill="#3a414a" d="M33 0v-248h34V0H33" id="ae"/><path fill="#3a414a" d="M135-143c-3-34-86-38-87 0 15 53 115 12 119 90S17 21 10-45l28-5c4 36 97 45 98 0-10-56-113-15-118-90-4-57 82-63 122-42 12 7 21 19 24 35" id="af"/><path fill="#3a414a" d="M85-194c31 0 48 13 60 33l-1-100h32l1 261h-30c-2-10 0-23-3-31C134-8 116 4 85 4 32 4 16-35 15-94c0-66 23-100 70-100zm9 24c-40 0-46 34-46 75 0 40 6 74 45 74 42 0 51-32 51-76 0-42-9-74-50-73" id="ag"/><g id="f"><use transform="matrix(0.06172839506172839,0,0,0.06172839506172839,0,0)" xlink:href="#ae"/><use transform="matrix(0.06172839506172839,0,0,0.06172839506172839,6.172839506172839,0)" xlink:href="#af"/><use transform="matrix(0.06172839506172839,0,0,0.06172839506172839,17.28395061728395,0)" xlink:href="#X"/><use transform="matrix(0.06172839506172839,0,0,0.06172839506172839,22.160493827160494,0)" xlink:href="#W"/><use transform="matrix(0.06172839506172839,0,0,0.06172839506172839,34.50617283950617,0)" xlink:href="#ac"/><use transform="matrix(0.06172839506172839,0,0,0.06172839506172839,46.85185185185185,0)" xlink:href="#ag"/></g><path fill="#333" d="M100-194c63 0 86 42 84 106H49c0 40 14 67 53 68 26 1 43-12 49-29l28 8c-11 28-37 45-77 45C44 4 14-33 15-96c1-61 26-98 85-98zm52 81c6-60-76-77-97-28-3 7-6 17-6 28h103" id="ah"/><path fill="#333" d="M177-190C167-65 218 103 67 71c-23-6-38-20-44-43l32-5c15 47 100 32 89-28v-30C133-14 115 1 83 1 29 1 15-40 15-95c0-56 16-97 71-98 29-1 48 16 59 35 1-10 0-23 2-32h30zM94-22c36 0 50-32 50-73 0-42-14-75-50-75-39 0-46 34-46 75s6 73 46 73" id="ai"/><path fill="#333" d="M100-194c62-1 85 37 85 99 1 63-27 99-86 99S16-35 15-95c0-66 28-99 85-99zM99-20c44 1 53-31 53-75 0-43-8-75-51-75s-53 32-53 75 10 74 51 75" id="aj"/><path fill="#333" d="M33-154v-36h34v36H33zM33 0v-36h34V0H33" id="ak"/><g id="g"><use transform="matrix(0.04938271604938272,0,0,0.04938271604938272,0,0)" xlink:href="#ah"/><use transform="matrix(0.04938271604938272,0,0,0.04938271604938272,9.876543209876544,0)" xlink:href="#ai"/><use transform="matrix(0.04938271604938272,0,0,0.04938271604938272,19.75308641975309,0)" xlink:href="#aj"/><use transform="matrix(0.04938271604938272,0,0,0.04938271604938272,29.629629629629633,0)" xlink:href="#ak"/></g><path fill="#333" d="M106-169C34-169 62-67 57 0H25v-261h32l-1 103c12-21 28-36 61-36 89 0 53 116 60 194h-32v-121c2-32-8-49-39-48" id="al"/><path fill="#333" d="M141-36C126-15 110 5 73 4 37 3 15-17 15-53c-1-64 63-63 125-63 3-35-9-54-41-54-24 1-41 7-42 31l-33-3c5-37 33-52 76-52 45 0 72 20 72 64v82c-1 20 7 32 28 27v20c-31 9-61-2-59-35zM48-53c0 20 12 33 32 33 41-3 63-29 60-74-43 2-92-5-92 41" id="am"/><path fill="#333" d="M135-143c-3-34-86-38-87 0 15 53 115 12 119 90S17 21 10-45l28-5c4 36 97 45 98 0-10-56-113-15-118-90-4-57 82-63 122-42 12 7 21 19 24 35" id="an"/><path fill="#333" d="M140-251c81 0 123 46 123 126C263-53 228-8 163 1c7 30 30 48 69 40v23c-55 16-95-15-103-61C56-3 17-48 17-125c0-80 42-126 123-126zm0 227c63 0 89-41 89-101s-29-99-89-99c-61 0-89 39-89 99S79-25 140-24" id="ao"/><path fill="#333" d="M84 4C-5 8 30-112 23-190h32v120c0 31 7 50 39 49 72-2 45-101 50-169h31l1 190h-30c-1-10 1-25-2-33-11 22-28 36-60 37" id="ap"/><path fill="#333" d="M24 0v-261h32V0H24" id="aq"/><path fill="#333" d="M24-231v-30h32v30H24zM24 0v-190h32V0H24" id="ar"/><path fill="#333" d="M101-234c-31-9-42 10-38 44h38v23H63V0H32v-167H5v-23h27c-7-52 17-82 69-68v24" id="as"/><path fill="#333" d="M85-194c31 0 48 13 60 33l-1-100h32l1 261h-30c-2-10 0-23-3-31C134-8 116 4 85 4 32 4 16-35 15-94c0-66 23-100 70-100zm9 24c-40 0-46 34-46 75 0 40 6 74 45 74 42 0 51-32 51-76 0-42-9-74-50-73" id="at"/><g id="h"><use transform="matrix(0.04938271604938272,0,0,0.04938271604938272,0,0)" xlink:href="#al"/><use transform="matrix(0.04938271604938272,0,0,0.04938271604938272,9.876543209876544,0)" xlink:href="#am"/><use transform="matrix(0.04938271604938272,0,0,0.04938271604938272,19.75308641975309,0)" xlink:href="#an"/><use transform="matrix(0.04938271604938272,0,0,0.04938271604938272,28.641975308641978,0)" xlink:href="#ao"/><use transform="matrix(0.04938271604938272,0,0,0.04938271604938272,42.46913580246914,0)" xlink:href="#ap"/><use transform="matrix(0.04938271604938272,0,0,0.04938271604938272,52.345679012345684,0)" xlink:href="#am"/><use transform="matrix(0.04938271604938272,0,0,0.04938271604938272,62.22222222222223,0)" xlink:href="#aq"/><use transform="matrix(0.04938271604938272,0,0,0.04938271604938272,66.12345679012347,0)" xlink:href="#ar"/><use transform="matrix(0.04938271604938272,0,0,0.04938271604938272,70.02469135802471,0)" xlink:href="#as"/><use transform="matrix(0.04938271604938272,0,0,0.04938271604938272,74.96296296296299,0)" xlink:href="#ar"/><use transform="matrix(0.04938271604938272,0,0,0.04938271604938272,78.86419753086423,0)" xlink:href="#ah"/><use transform="matrix(0.04938271604938272,0,0,0.04938271604938272,88.74074074074078,0)" xlink:href="#at"/></g><path fill="#333" d="M143 4C61 4 22-44 18-125c-5-107 100-154 193-111 17 8 29 25 37 43l-32 9c-13-25-37-40-76-40-61 0-88 39-88 99 0 61 29 100 91 101 35 0 62-11 79-27v-45h-74v-28h105v86C228-13 192 4 143 4" id="au"/><path fill="#333" d="M210-169c-67 3-38 105-44 169h-31v-121c0-29-5-50-35-48C34-165 62-65 56 0H25l-1-190h30c1 10-1 24 2 32 10-44 99-50 107 0 11-21 27-35 58-36 85-2 47 119 55 194h-31v-121c0-29-5-49-35-48" id="av"/><path fill="#333" d="M59-47c-2 24 18 29 38 22v24C64 9 27 4 27-40v-127H5v-23h24l9-43h21v43h35v23H59v120" id="aw"/><path fill="#333" d="M114-163C36-179 61-72 57 0H25l-1-190h30c1 12-1 29 2 39 6-27 23-49 58-41v29" id="ax"/><path fill="#333" d="M179-190L93 31C79 59 56 82 12 73V49c39 6 53-20 64-50L1-190h34L92-34l54-156h33" id="ay"/><g id="i"><use transform="matrix(0.04938271604938272,0,0,0.04938271604938272,0,0)" xlink:href="#au"/><use transform="matrix(0.04938271604938272,0,0,0.04938271604938272,13.827160493827162,0)" xlink:href="#ah"/><use transform="matrix(0.04938271604938272,0,0,0.04938271604938272,23.703703703703706,0)" xlink:href="#aj"/><use transform="matrix(0.04938271604938272,0,0,0.04938271604938272,33.580246913580254,0)" xlink:href="#av"/><use transform="matrix(0.04938271604938272,0,0,0.04938271604938272,48.345679012345684,0)" xlink:href="#ah"/><use transform="matrix(0.04938271604938272,0,0,0.04938271604938272,58.22222222222223,0)" xlink:href="#aw"/><use transform="matrix(0.04938271604938272,0,0,0.04938271604938272,63.1604938271605,0)" xlink:href="#ax"/><use transform="matrix(0.04938271604938272,0,0,0.04938271604938272,69.03703703703704,0)" xlink:href="#ay"/></g><path fill="#3a414a" d="M212-179c-10-28-35-45-73-45-59 0-87 40-87 99 0 60 29 101 89 101 43 0 62-24 78-52l27 14C228-24 195 4 139 4 59 4 22-46 18-125c-6-104 99-153 187-111 19 9 31 26 39 46" id="az"/><path fill="#3a414a" d="M179-190L93 31C79 59 56 82 12 73V49c39 6 53-20 64-50L1-190h34L92-34l54-156h33" id="aA"/><path fill="#3a414a" d="M96-169c-40 0-48 33-48 73s9 75 48 75c24 0 41-14 43-38l32 2c-6 37-31 61-74 61-59 0-76-41-82-99-10-93 101-131 147-64 4 7 5 14 7 22l-32 3c-4-21-16-35-41-35" id="aB"/><path fill="#3a414a" d="M100-194c62-1 85 37 85 99 1 63-27 99-86 99S16-35 15-95c0-66 28-99 85-99zM99-20c44 1 53-31 53-75 0-43-8-75-51-75s-53 32-53 75 10 74 51 75" id="aC"/><g id="j"><use transform="matrix(0.06172839506172839,0,0,0.06172839506172839,0,0)" xlink:href="#az"/><use transform="matrix(0.06172839506172839,0,0,0.06172839506172839,15.987654320987653,0)" xlink:href="#aA"/><use transform="matrix(0.06172839506172839,0,0,0.06172839506172839,27.098765432098766,0)" xlink:href="#aB"/><use transform="matrix(0.06172839506172839,0,0,0.06172839506172839,38.20987654320987,0)" xlink:href="#X"/><use transform="matrix(0.06172839506172839,0,0,0.06172839506172839,43.08641975308642,0)" xlink:href="#aC"/><use transform="matrix(0.06172839506172839,0,0,0.06172839506172839,55.432098765432094,0)" xlink:href="#ac"/><use transform="matrix(0.06172839506172839,0,0,0.06172839506172839,67.77777777777777,0)" xlink:href="#U"/></g><path fill="#3a414a" d="M137-103V0h-34v-103L8-248h37l75 118 75-118h37" id="aD"/><g id="k"><use transform="matrix(0.06172839506172839,0,0,0.06172839506172839,0,0)" xlink:href="#aD"/><use transform="matrix(0.06172839506172839,0,0,0.06172839506172839,13.148148148148147,0)" xlink:href="#W"/><use transform="matrix(0.06172839506172839,0,0,0.06172839506172839,25.493827160493826,0)" xlink:href="#af"/><use transform="matrix(0.06172839506172839,0,0,0.06172839506172839,36.60493827160494,0)" xlink:href="#S"/></g><path fill="#3a414a" d="M143 4C61 4 22-44 18-125c-5-107 100-154 193-111 17 8 29 25 37 43l-32 9c-13-25-37-40-76-40-61 0-88 39-88 99 0 61 29 100 91 101 35 0 62-11 79-27v-45h-74v-28h105v86C228-13 192 4 143 4" id="aE"/><path fill="#3a414a" d="M210-169c-67 3-38 105-44 169h-31v-121c0-29-5-50-35-48C34-165 62-65 56 0H25l-1-190h30c1 10-1 24 2 32 10-44 99-50 107 0 11-21 27-35 58-36 85-2 47 119 55 194h-31v-121c0-29-5-49-35-48" id="aF"/><g id="l"><use transform="matrix(0.06172839506172839,0,0,0.06172839506172839,0,0)" xlink:href="#aE"/><use transform="matrix(0.06172839506172839,0,0,0.06172839506172839,17.28395061728395,0)" xlink:href="#U"/><use transform="matrix(0.06172839506172839,0,0,0.06172839506172839,29.629629629629626,0)" xlink:href="#aC"/><use transform="matrix(0.06172839506172839,0,0,0.06172839506172839,41.9753086419753,0)" xlink:href="#aF"/><use transform="matrix(0.06172839506172839,0,0,0.06172839506172839,60.43209876543209,0)" xlink:href="#U"/><use transform="matrix(0.06172839506172839,0,0,0.06172839506172839,72.77777777777777,0)" xlink:href="#T"/><use transform="matrix(0.06172839506172839,0,0,0.06172839506172839,78.9506172839506,0)" xlink:href="#V"/><use transform="matrix(0.06172839506172839,0,0,0.06172839506172839,86.29629629629629,0)" xlink:href="#aA"/></g><path fill="#3a414a" d="M27 0v-27h64v-190l-56 39v-29l58-41h29v221h61V0H27" id="aG"/><use transform="matrix(0.06172839506172839,0,0,0.06172839506172839,0,0)" xlink:href="#aG" id="m"/><path fill="#3a414a" d="M101-251c82-7 93 87 43 132L82-64C71-53 59-42 53-27h129V0H18c2-99 128-94 128-182 0-28-16-43-45-43s-46 15-49 41l-32-3c6-41 34-60 81-64" id="aH"/><use transform="matrix(0.06172839506172839,0,0,0.06172839506172839,0,0)" xlink:href="#aH" id="n"/><g id="o"><use transform="matrix(0.04938271604938272,0,0,0.04938271604938272,0,0)" xlink:href="#ai"/><use transform="matrix(0.04938271604938272,0,0,0.04938271604938272,9.876543209876544,0)" xlink:href="#ah"/><use transform="matrix(0.04938271604938272,0,0,0.04938271604938272,19.75308641975309,0)" xlink:href="#aj"/><use transform="matrix(0.04938271604938272,0,0,0.04938271604938272,29.629629629629633,0)" xlink:href="#ak"/></g><path fill="#333" d="M266 0h-40l-56-210L115 0H75L2-248h35L96-30l15-64 43-154h32l59 218 59-218h35" id="aI"/><path fill="#333" d="M194 0L95-120 63-95V0H30v-248h33v124l119-124h40L117-140 236 0h-42" id="aJ"/><path fill="#333" d="M127-220V0H93v-220H8v-28h204v28h-85" id="aK"/><g id="p"><use transform="matrix(0.04938271604938272,0,0,0.04938271604938272,0,0)" xlink:href="#am"/><use transform="matrix(0.04938271604938272,0,0,0.04938271604938272,9.876543209876544,0)" xlink:href="#an"/><use transform="matrix(0.04938271604938272,0,0,0.04938271604938272,18.765432098765434,0)" xlink:href="#aI"/><use transform="matrix(0.04938271604938272,0,0,0.04938271604938272,35.50617283950618,0)" xlink:href="#aJ"/><use transform="matrix(0.04938271604938272,0,0,0.04938271604938272,47.35802469135803,0)" xlink:href="#aK"/></g><path fill="#3a414a" d="M182-130c37 4 62 22 62 59C244 23 116-4 24 0v-248c84 5 203-23 205 63 0 31-19 50-47 55zM76-148c40-3 101 13 101-30 0-44-60-28-101-31v61zm0 110c48-3 116 14 116-37 0-48-69-32-116-35v72" id="aL"/><path fill="#3a414a" d="M24 0v-54h51V0H24" id="aM"/><g id="q"><use transform="matrix(0.06172839506172839,0,0,0.06172839506172839,0,0)" xlink:href="#aL"/><use transform="matrix(0.06172839506172839,0,0,0.06172839506172839,15.987654320987653,0)" xlink:href="#aM"/></g><path fill="#3a414a" d="M67-125c0 53 21 87 73 88 37 1 54-22 65-47l45 17C233-25 199 4 140 4 58 4 20-42 15-125 8-235 124-281 211-232c18 10 29 29 36 50l-46 12c-8-25-30-41-62-41-52 0-71 34-72 86" id="aN"/><g id="r"><use transform="matrix(0.06172839506172839,0,0,0.06172839506172839,0,0)" xlink:href="#aN"/><use transform="matrix(0.06172839506172839,0,0,0.06172839506172839,15.987654320987653,0)" xlink:href="#aM"/></g><path fill="#333" d="M233-177c-1 41-23 64-60 70L243 0h-38l-65-103H63V0H30v-248c88 3 205-21 203 71zM63-129c60-2 137 13 137-47 0-61-80-42-137-45v92" id="aO"/><g id="s"><use transform="matrix(0.04938271604938272,0,0,0.04938271604938272,0,0)" xlink:href="#ah"/><use transform="matrix(0.04938271604938272,0,0,0.04938271604938272,9.876543209876544,0)" xlink:href="#ai"/><use transform="matrix(0.04938271604938272,0,0,0.04938271604938272,19.75308641975309,0)" xlink:href="#aj"/><use transform="matrix(0.04938271604938272,0,0,0.04938271604938272,29.629629629629633,0)" xlink:href="#ak"/><use transform="matrix(0.04938271604938272,0,0,0.04938271604938272,34.567901234567906,0)" xlink:href="#al"/><use transform="matrix(0.04938271604938272,0,0,0.04938271604938272,44.44444444444445,0)" xlink:href="#am"/><use transform="matrix(0.04938271604938272,0,0,0.04938271604938272,54.320987654320994,0)" xlink:href="#an"/><use transform="matrix(0.04938271604938272,0,0,0.04938271604938272,63.20987654320988,0)" xlink:href="#aO"/><use transform="matrix(0.04938271604938272,0,0,0.04938271604938272,76.00000000000001,0)" xlink:href="#aj"/><use transform="matrix(0.04938271604938272,0,0,0.04938271604938272,85.87654320987656,0)" xlink:href="#aq"/><use transform="matrix(0.04938271604938272,0,0,0.04938271604938272,89.7777777777778,0)" xlink:href="#ah"/></g><g id="t"><use transform="matrix(0.04938271604938272,0,0,0.04938271604938272,0,0)" xlink:href="#al"/><use transform="matrix(0.04938271604938272,0,0,0.04938271604938272,9.876543209876544,0)" xlink:href="#am"/><use transform="matrix(0.04938271604938272,0,0,0.04938271604938272,19.75308641975309,0)" xlink:href="#an"/><use transform="matrix(0.04938271604938272,0,0,0.04938271604938272,28.641975308641978,0)" xlink:href="#au"/><use transform="matrix(0.04938271604938272,0,0,0.04938271604938272,42.46913580246914,0)" xlink:href="#ah"/><use transform="matrix(0.04938271604938272,0,0,0.04938271604938272,52.345679012345684,0)" xlink:href="#aj"/><use transform="matrix(0.04938271604938272,0,0,0.04938271604938272,62.22222222222223,0)" xlink:href="#av"/><use transform="matrix(0.04938271604938272,0,0,0.04938271604938272,76.98765432098766,0)" xlink:href="#ah"/><use transform="matrix(0.04938271604938272,0,0,0.04938271604938272,86.8641975308642,0)" xlink:href="#aw"/><use transform="matrix(0.04938271604938272,0,0,0.04938271604938272,91.80246913580248,0)" xlink:href="#ax"/><use transform="matrix(0.04938271604938272,0,0,0.04938271604938272,97.67901234567903,0)" xlink:href="#ay"/></g><path fill="#3a414a" d="M233-177c-1 41-23 64-60 70L243 0h-38l-65-103H63V0H30v-248c88 3 205-21 203 71zM63-129c60-2 137 13 137-47 0-61-80-42-137-45v92" id="aP"/><g id="u"><use transform="matrix(0.06172839506172839,0,0,0.06172839506172839,0,0)" xlink:href="#aP"/><use transform="matrix(0.06172839506172839,0,0,0.06172839506172839,15.987654320987653,0)" xlink:href="#aC"/><use transform="matrix(0.06172839506172839,0,0,0.06172839506172839,28.333333333333332,0)" xlink:href="#X"/><use transform="matrix(0.06172839506172839,0,0,0.06172839506172839,33.20987654320987,0)" xlink:href="#U"/><use transform="matrix(0.06172839506172839,0,0,0.06172839506172839,45.55555555555555,0)" xlink:href="#aa"/></g><path fill="#3a414a" d="M177-190C167-65 218 103 67 71c-23-6-38-20-44-43l32-5c15 47 100 32 89-28v-30C133-14 115 1 83 1 29 1 15-40 15-95c0-56 16-97 71-98 29-1 48 16 59 35 1-10 0-23 2-32h30zM94-22c36 0 50-32 50-73 0-42-14-75-50-75-39 0-46 34-46 75s6 73 46 73" id="aQ"/><path fill="#3a414a" d="M106-169C34-169 62-67 57 0H25v-261h32l-1 103c12-21 28-36 61-36 89 0 53 116 60 194h-32v-121c2-32-8-49-39-48" id="aR"/><g id="v"><use transform="matrix(0.06172839506172839,0,0,0.06172839506172839,0,0)" xlink:href="#ad"/><use transform="matrix(0.06172839506172839,0,0,0.06172839506172839,15.987654320987653,0)" xlink:href="#S"/><use transform="matrix(0.06172839506172839,0,0,0.06172839506172839,20.864197530864196,0)" xlink:href="#aQ"/><use transform="matrix(0.06172839506172839,0,0,0.06172839506172839,33.20987654320987,0)" xlink:href="#aR"/></g><g id="w"><use transform="matrix(0.06172839506172839,0,0,0.06172839506172839,0,0)" xlink:href="#Q"/><use transform="matrix(0.06172839506172839,0,0,0.06172839506172839,12.716049382716047,0)" xlink:href="#S"/><use transform="matrix(0.06172839506172839,0,0,0.06172839506172839,17.592592592592588,0)" xlink:href="#ag"/><use transform="matrix(0.06172839506172839,0,0,0.06172839506172839,29.938271604938265,0)" xlink:href="#U"/></g><path fill="#3a414a" d="M160-131c35 5 61 23 61 61C221 17 115-2 30 0v-248c76 3 177-17 177 60 0 33-19 50-47 57zm-97-11c50-1 110 9 110-42 0-47-63-36-110-37v79zm0 115c55-2 124 14 124-45 0-56-70-42-124-44v89" id="aS"/><g id="x"><use transform="matrix(0.06172839506172839,0,0,0.06172839506172839,0,0)" xlink:href="#aS"/><use transform="matrix(0.06172839506172839,0,0,0.06172839506172839,14.814814814814813,0)" xlink:href="#aC"/><use transform="matrix(0.06172839506172839,0,0,0.06172839506172839,27.160493827160494,0)" xlink:href="#Z"/><use transform="matrix(0.06172839506172839,0,0,0.06172839506172839,39.50617283950617,0)" xlink:href="#ac"/><use transform="matrix(0.06172839506172839,0,0,0.06172839506172839,51.85185185185185,0)" xlink:href="#ag"/><use transform="matrix(0.06172839506172839,0,0,0.06172839506172839,64.19753086419753,0)" xlink:href="#W"/><use transform="matrix(0.06172839506172839,0,0,0.06172839506172839,76.54320987654322,0)" xlink:href="#V"/><use transform="matrix(0.06172839506172839,0,0,0.06172839506172839,83.8888888888889,0)" xlink:href="#aA"/></g><path fill="#3a414a" d="M206 0h-36l-40-164L89 0H53L-1-190h32L70-26l43-164h34l41 164 42-164h31" id="aT"/><g id="y"><use transform="matrix(0.06172839506172839,0,0,0.06172839506172839,0,0)" xlink:href="#R"/><use transform="matrix(0.06172839506172839,0,0,0.06172839506172839,12.345679012345679,0)" xlink:href="#aC"/><use transform="matrix(0.06172839506172839,0,0,0.06172839506172839,24.691358024691358,0)" xlink:href="#aT"/></g><path fill="#3a414a" d="M115-194c55 1 70 41 70 98S169 2 115 4C84 4 66-9 55-30l1 105H24l-1-265h31l2 30c10-21 28-34 59-34zm-8 174c40 0 45-34 45-75s-6-73-45-74c-42 0-51 32-51 76 0 43 10 73 51 73" id="aU"/><g id="z"><use transform="matrix(0.06172839506172839,0,0,0.06172839506172839,0,0)" xlink:href="#Q"/><use transform="matrix(0.06172839506172839,0,0,0.06172839506172839,11.049382716049381,0)" xlink:href="#U"/><use transform="matrix(0.06172839506172839,0,0,0.06172839506172839,23.39506172839506,0)" xlink:href="#aF"/><use transform="matrix(0.06172839506172839,0,0,0.06172839506172839,41.85185185185185,0)" xlink:href="#aU"/><use transform="matrix(0.06172839506172839,0,0,0.06172839506172839,54.197530864197525,0)" xlink:href="#aC"/><use transform="matrix(0.06172839506172839,0,0,0.06172839506172839,66.5432098765432,0)" xlink:href="#V"/><use transform="matrix(0.06172839506172839,0,0,0.06172839506172839,73.88888888888889,0)" xlink:href="#W"/><use transform="matrix(0.06172839506172839,0,0,0.06172839506172839,86.23456790123457,0)" xlink:href="#X"/></g><path fill="#3a414a" d="M30 0v-248h187v28H63v79h144v27H63v87h162V0H30" id="aV"/><g id="A"><use transform="matrix(0.06172839506172839,0,0,0.06172839506172839,0,0)" xlink:href="#aV"/><use transform="matrix(0.06172839506172839,0,0,0.06172839506172839,14.814814814814813,0)" xlink:href="#ac"/><use transform="matrix(0.06172839506172839,0,0,0.06172839506172839,27.160493827160494,0)" xlink:href="#T"/><use transform="matrix(0.06172839506172839,0,0,0.06172839506172839,33.333333333333336,0)" xlink:href="#S"/><use transform="matrix(0.06172839506172839,0,0,0.06172839506172839,38.20987654320988,0)" xlink:href="#T"/><use transform="matrix(0.06172839506172839,0,0,0.06172839506172839,44.38271604938272,0)" xlink:href="#aA"/></g><path fill="#3a414a" d="M123-251c66 0 92 69 53 113C138-94 73-75 39-27h128l-5 27H-2c17-92 123-93 159-163 14-28-1-64-36-62-29 2-46 17-54 41l-30-6c13-36 37-61 86-61" id="aW"/><path fill="#3a414a" d="M184-94c-4 58-33 98-90 98-50 0-74-35-74-86 0-94 36-181 136-167 24 3 39 21 44 47l-29 6c-8-40-68-34-87-5-13 20-24 43-30 73 28-51 135-39 130 34zm-73-42c-35 2-61 22-60 62 1 30 14 52 44 52 38 0 55-31 56-70 1-26-14-46-40-44" id="aX"/><path fill="#3a414a" d="M51-54c-9 22 5 41 31 30L79-1C43 14 10-4 19-52l22-115H19l5-23h22l19-43h21l-9 43h35l-4 23H73" id="aY"/><path fill="#3a414a" d="M67-158c15-20 31-36 64-36 94 0 33 127 27 194h-32l25-140c3-38-53-32-70-12C52-117 51-51 37 0H6l51-261h31" id="aZ"/><g id="B"><use transform="matrix(0.055555555555555546,0,0,0.055555555555555546,0,0)" xlink:href="#aW"/><use transform="matrix(0.055555555555555546,0,0,0.055555555555555546,11.111111111111109,0)" xlink:href="#aX"/><use transform="matrix(0.055555555555555546,0,0,0.055555555555555546,22.222222222222218,0)" xlink:href="#aY"/><use transform="matrix(0.055555555555555546,0,0,0.055555555555555546,27.77777777777777,0)" xlink:href="#aZ"/></g><path fill="#3a414a" d="M29-66c0 49 71 55 82 11 13-52 22-111 33-165H93l5-28h85L149-74C151 11 7 37-1-60" id="ba"/><path fill="#3a414a" d="M165-48c-4 18 1 34 23 27l-3 20c-29 8-62 0-52-35h-2C116-14 99 4 63 4 30 4 8-16 8-49c0-68 71-67 138-67 10-26 0-56-31-54-26 1-42 9-47 31l-32-5c8-67 160-71 144 15-5 28-9 54-15 81zM42-50c3 52 80 24 89-6 7-12 7-24 11-38-47 1-103-4-100 44" id="bb"/><path fill="#3a414a" d="M67-158c22-48 132-52 116 29L158 0h-32l25-140c3-38-53-32-70-12C52-117 51-52 38 0H6l36-190h30" id="bc"/><path fill="#3a414a" d="M58-38C53-5 46 26 28 46H7C19 32 27 18 32 0H17l7-38h34" id="bd"/><g id="C"><use transform="matrix(0.055555555555555546,0,0,0.055555555555555546,0,0)" xlink:href="#ba"/><use transform="matrix(0.055555555555555546,0,0,0.055555555555555546,9.999999999999998,0)" xlink:href="#bb"/><use transform="matrix(0.055555555555555546,0,0,0.055555555555555546,21.111111111111107,0)" xlink:href="#bc"/><use transform="matrix(0.055555555555555546,0,0,0.055555555555555546,32.222222222222214,0)" xlink:href="#bd"/></g><path fill="#3a414a" d="M16-82c0-90 25-169 113-169 48 0 68 33 68 82C197-79 170 4 84 4 37 4 16-31 16-82zm30 5c0 32 11 55 40 55 69 0 76-79 80-149 2-32-10-55-39-55-69 0-81 81-81 149" id="be"/><path fill="#3a414a" d="M9 0l6-27h63l36-188-63 39 6-31 66-41h29L110-27h60l-5 27H9" id="bf"/><g id="D"><use transform="matrix(0.055555555555555546,0,0,0.055555555555555546,0,0)" xlink:href="#aW"/><use transform="matrix(0.055555555555555546,0,0,0.055555555555555546,11.111111111111109,0)" xlink:href="#be"/><use transform="matrix(0.055555555555555546,0,0,0.055555555555555546,22.222222222222218,0)" xlink:href="#bf"/><use transform="matrix(0.055555555555555546,0,0,0.055555555555555546,31.83333333333333,0)" xlink:href="#bf"/></g><g id="E"><use transform="matrix(0.04938271604938272,0,0,0.04938271604938272,0,0)" xlink:href="#aw"/><use transform="matrix(0.04938271604938272,0,0,0.04938271604938272,4.938271604938272,0)" xlink:href="#ar"/><use transform="matrix(0.04938271604938272,0,0,0.04938271604938272,8.839506172839506,0)" xlink:href="#av"/><use transform="matrix(0.04938271604938272,0,0,0.04938271604938272,23.60493827160494,0)" xlink:href="#ah"/><use transform="matrix(0.04938271604938272,0,0,0.04938271604938272,33.48148148148148,0)" xlink:href="#ak"/></g><g id="F"><use transform="matrix(0.04938271604938272,0,0,0.04938271604938272,0,0)" xlink:href="#al"/><use transform="matrix(0.04938271604938272,0,0,0.04938271604938272,9.876543209876544,0)" xlink:href="#am"/><use transform="matrix(0.04938271604938272,0,0,0.04938271604938272,19.75308641975309,0)" xlink:href="#an"/><use transform="matrix(0.04938271604938272,0,0,0.04938271604938272,28.641975308641978,0)" xlink:href="#aK"/><use transform="matrix(0.04938271604938272,0,0,0.04938271604938272,38.81481481481482,0)" xlink:href="#ar"/><use transform="matrix(0.04938271604938272,0,0,0.04938271604938272,42.71604938271605,0)" xlink:href="#av"/><use transform="matrix(0.04938271604938272,0,0,0.04938271604938272,57.48148148148149,0)" xlink:href="#ah"/></g><path fill="#3a414a" d="M206-222l-58 71C115-108 89-62 76 0H43c20-96 77-159 130-221H37l5-27h169" id="bg"/><g id="G"><use transform="matrix(0.055555555555555546,0,0,0.055555555555555546,0,0)" xlink:href="#aW"/><use transform="matrix(0.055555555555555546,0,0,0.055555555555555546,11.111111111111109,0)" xlink:href="#bg"/><use transform="matrix(0.055555555555555546,0,0,0.055555555555555546,22.222222222222218,0)" xlink:href="#aY"/><use transform="matrix(0.055555555555555546,0,0,0.055555555555555546,27.77777777777777,0)" xlink:href="#aZ"/></g><path fill="#3a414a" d="M126-127c33 6 58 20 58 59 0 88-139 92-164 29-3-8-5-16-6-25l32-3c6 27 21 44 54 44 32 0 52-15 52-46 0-38-36-46-79-43v-28c39 1 72-4 72-42 0-27-17-43-46-43-28 0-47 15-49 41l-32-3c6-42 35-63 81-64 48-1 79 21 79 65 0 36-21 52-52 59" id="bh"/><use transform="matrix(0.06172839506172839,0,0,0.06172839506172839,0,0)" xlink:href="#bh" id="H"/><path fill="#3a414a" d="M39-185c1-48 36-66 85-66 42 0 74 18 74 59 0 38-25 57-56 64 23 7 40 22 40 52 0 55-39 80-94 80C40 4 10-17 9-63c-1-44 31-60 63-71-20-7-33-25-33-51zm31 3c0 26 17 39 46 39 34 0 48-18 49-48 0-25-18-36-45-36-32 0-50 15-50 45zm79 105c0-29-19-41-50-41-37 0-57 20-57 55 0 29 19 42 49 42 36 0 58-19 58-56" id="bi"/><g id="I"><use transform="matrix(0.055555555555555546,0,0,0.055555555555555546,0,0)" xlink:href="#aW"/><use transform="matrix(0.055555555555555546,0,0,0.055555555555555546,11.111111111111109,0)" xlink:href="#bi"/><use transform="matrix(0.055555555555555546,0,0,0.055555555555555546,22.222222222222218,0)" xlink:href="#aY"/><use transform="matrix(0.055555555555555546,0,0,0.055555555555555546,27.77777777777777,0)" xlink:href="#aZ"/></g><g id="J"><use transform="matrix(0.06172839506172839,0,0,0.06172839506172839,0,0)" xlink:href="#ab"/><use transform="matrix(0.06172839506172839,0,0,0.06172839506172839,14.814814814814813,0)" xlink:href="#S"/><use transform="matrix(0.06172839506172839,0,0,0.06172839506172839,19.691358024691354,0)" xlink:href="#T"/><use transform="matrix(0.06172839506172839,0,0,0.06172839506172839,25.864197530864192,0)" xlink:href="#U"/></g><path fill="#3a414a" d="M195 0l-74-108L45 0H8l94-129-87-119h37l69 98 67-98h37l-84 118L233 0h-38" id="bj"/><use transform="matrix(0.06172839506172839,0,0,0.06172839506172839,0,0)" xlink:href="#bj" id="K"/><path fill="#3a414a" d="M30-248c87 1 191-15 191 75 0 78-77 80-158 76V0H30v-248zm33 125c57 0 124 11 124-50 0-59-68-47-124-48v98" id="bk"/><path fill="#3a414a" d="M140-251c81 0 123 46 123 126C263-46 219 4 140 4 59 4 17-45 17-125s42-126 123-126zm0 227c63 0 89-41 89-101s-29-99-89-99c-61 0-89 39-89 99S79-25 140-24" id="bl"/><path fill="#3a414a" d="M190 0L58-211 59 0H30v-248h39L202-35l-2-213h31V0h-41" id="bm"/><g id="L"><use transform="matrix(0.06172839506172839,0,0,0.06172839506172839,0,0)" xlink:href="#bk"/><use transform="matrix(0.06172839506172839,0,0,0.06172839506172839,14.814814814814813,0)" xlink:href="#bl"/><use transform="matrix(0.06172839506172839,0,0,0.06172839506172839,32.09876543209876,0)" xlink:href="#ae"/><use transform="matrix(0.06172839506172839,0,0,0.06172839506172839,38.2716049382716,0)" xlink:href="#bm"/><use transform="matrix(0.06172839506172839,0,0,0.06172839506172839,54.25925925925925,0)" xlink:href="#Q"/></g><g id="M"><use transform="matrix(0.06172839506172839,0,0,0.06172839506172839,0,0)" xlink:href="#bk"/><use transform="matrix(0.06172839506172839,0,0,0.06172839506172839,14.814814814814813,0)" xlink:href="#bl"/><use transform="matrix(0.06172839506172839,0,0,0.06172839506172839,32.09876543209876,0)" xlink:href="#R"/><use transform="matrix(0.06172839506172839,0,0,0.06172839506172839,42.77777777777777,0)" xlink:href="#aD"/><use transform="matrix(0.06172839506172839,0,0,0.06172839506172839,57.59259259259258,0)" xlink:href="#aE"/><use transform="matrix(0.06172839506172839,0,0,0.06172839506172839,74.87654320987653,0)" xlink:href="#bl"/><use transform="matrix(0.06172839506172839,0,0,0.06172839506172839,92.16049382716048,0)" xlink:href="#bm"/></g><path fill="#3a414a" d="M199 0l-22-63H83L61 0H9l90-248h61L250 0h-51zm-33-102l-36-108c-10 38-24 72-36 108h72" id="bn"/><g id="N"><use transform="matrix(0.06172839506172839,0,0,0.06172839506172839,0,0)" xlink:href="#bn"/><use transform="matrix(0.06172839506172839,0,0,0.06172839506172839,15.987654320987653,0)" xlink:href="#aM"/></g></defs></g></svg>