<svg xmlns="http://www.w3.org/2000/svg" xmlns:xlink="http://www.w3.org/1999/xlink" xmlns:lucid="lucid" width="665" height="435.87"><g transform="translate(-136 -628.0664614306264)" lucid:page-tab-id="nYn0UFlwWFiq"><path d="M0 500h1000v1000H0z" fill="#fff"/><path d="M321.83 963.9c0 30.56-37 55.33-82.66 55.33s-82.67-24.77-82.67-55.33 37-55.33 82.67-55.33c45.65 0 82.66 24.77 82.66 55.33z" stroke="#3a414a" fill="#dedeff"/><use xlink:href="#a" transform="matrix(1,0,0,1,161.5,913.5664614306265) translate(42.876543209876544 55.65277777777778)"/><path d="M780.5 963.9c0 30.56-37 55.33-82.67 55.33-45.65 0-82.66-24.77-82.66-55.33s37-55.33 82.66-55.33 82.67 24.77 82.67 55.33z" stroke="#3a414a" fill="#fcfcca"/><use xlink:href="#b" transform="matrix(1,0,0,1,620.1666666666666,913.5664614306265) translate(50.25308641975308 55.65277777777778)"/><path d="M546.5 703.9c0 30.56-37 55.33-82.67 55.33-45.65 0-82.66-24.77-82.66-55.33s37-55.33 82.66-55.33 82.67 24.77 82.67 55.33z" stroke="#3a414a" fill="#ffdda6"/><use xlink:href="#c" transform="matrix(1,0,0,1,386.1666666666667,653.5664614306264) translate(48.98765432098766 55.65277777777778)"/><path d="M283.6 825.53l-6.02 4.77-4.86 4.2-4.1 3.83-3.5 3.58-3.1 3.44-2.72 3.3-2.45 3.23-2.22 3.18-2 3.17-1.83 3.16-1.67 3.2-1.52 3.22-1.38 3.3-1.26 3.4-1.13 3.5-1.02 3.6-.88 3.8-.75 4-.63 4.2-.47 4.48-.3 4.8-.1 4.7-1-.03.1-4.7.3-4.86.48-4.53.63-4.25.77-4.02.9-3.84 1.02-3.66 1.15-3.54 1.27-3.42 1.4-3.34 1.53-3.27 1.7-3.23 1.84-3.2 2.03-3.2 2.24-3.22 2.47-3.26 2.78-3.34 3.1-3.45 3.55-3.62 4.12-3.85 4.9-4.22 6.05-4.8 3.14-2.27h1.7zM399.1 740.1l-1.53 1.82-5.08 5.64-5.6 5.7-6.2 5.84-7.1 6.12-8.33 6.6-10.47 7.58-34.35 21.73h-1.87l35.66-22.56 10.43-7.55 8.3-6.58 7.06-6.08 6.18-5.8 5.56-5.68 5.05-5.62 1.52-1.8z" stroke="#3a414a" stroke-width=".05" fill="#3a414a"/><path d="M239.68 907.56v.52h-1v-.54z" fill="#3a414a"/><path d="M239.7 907.54v.57h-1.06v-.6zm-1 .5h.47l.47.02v-.47l-.94-.03zM395.07 759.5l-.98-.2 3.87-18.76-18.3 5.64-.3-.96 19.92-6.13z" stroke="#3a414a" stroke-width=".05" fill="#3a414a"/><use xlink:href="#d" transform="matrix(1,0,0,1,223.790536260712,801.1290647289584) translate(0 14.222222222222223)"/><use xlink:href="#e" transform="matrix(1,0,0,1,223.790536260712,801.1290647289584) translate(36.49382716049384 14.222222222222223)"/><use xlink:href="#f" transform="matrix(1,0,0,1,223.790536260712,801.1290647289584) translate(126.320987654321 14.222222222222223)"/><path d="M616.22 843.55l6.75 7.1 5.57 6.37 4.84 6.02 4.33 5.9 3.97 5.87 3.66 5.97 3.42 6.15 3.22 6.4 3.06 6.75 2.9 7.2 2.26 6.34-.95.35-2.26-6.33-2.9-7.16-3.03-6.7-3.2-6.38-3.4-6.1-3.64-5.93-3.94-5.84-4.3-5.85-4.83-6-5.54-6.33-6.7-7.06-24.14-21.62h1.5zm-90.87-90.14l5.87 8 6.35 7.9 7.05 8.07 8.2 8.62 10.54 10.17 5.73 5.13h-1.5l-4.92-4.4-10.57-10.2-8.22-8.66-7.08-8.1-6.37-7.94-5.9-8.02-5.04-7.5.82-.55z" stroke="#3a414a" stroke-width=".05" fill="#3a414a"/><path d="M538.34 754.15l-.4.9-17.42-7.98 1.38 19.1-1 .08-1.5-20.8z" stroke="#3a414a" stroke-width=".05" fill="#3a414a"/><path d="M660.36 914.1l-.95.3-.16-.47.95-.33z" fill="#3a414a"/><path d="M660.4 914.1l-1 .34-.2-.52 1-.35zm-1.12-.15l.15.43.9-.3-.16-.45z" stroke="#3a414a" stroke-width=".05" fill="#3a414a"/><use xlink:href="#d" transform="matrix(1,0,0,1,515.1292285960285,801.3044817594426) translate(0 14.222222222222223)"/><use xlink:href="#g" transform="matrix(1,0,0,1,515.1292285960285,801.3044817594426) translate(36.49382716049384 14.222222222222223)"/><use xlink:href="#h" transform="matrix(1,0,0,1,515.1292285960285,801.3044817594426) translate(115.40740740740743 14.222222222222223)"/><path d="M449.24 892.96l-6.75.6-10 1.33-10.16 1.76-10.34 2.27-10.57 2.78-10.87 3.36-11.2 3.98-11.63 4.68-12.1 5.48-12.68 6.4-13.34 7.43-13.7 8.42-.52-.86 13.72-8.43 13.38-7.46 12.7-6.4 12.16-5.5 11.66-4.7 11.25-4 10.9-3.35 10.62-2.8 10.38-2.27 10.2-1.78 10.03-1.33 6.86-.62zm42.6-.68l10 1.2 10.15 1.66 10.32 2.13 10.54 2.64 10.82 3.2 11.15 3.82 11.53 4.5 12 5.26 12.55 6.14 13.2 7.15L618 938.3l3.27 2.07-.55.85-3.26-2.07-13.9-8.3-13.15-7.14-12.5-6.1-11.97-5.26-11.5-4.48-11.1-3.8-10.78-3.18-10.5-2.64-10.3-2.12-10.1-1.65-9.96-1.2-3.98-.3v-1z" stroke="#3a414a" stroke-width=".05" fill="#3a414a"/><path d="M315.9 941.44l-.42.26-.54-.84.45-.27z" fill="#3a414a"/><path d="M315.95 941.45l-.47.3-.57-.9.5-.3zm-.97-.58l.5.8.4-.24-.5-.8zM621.8 941.28l-20.85-.27v-1l19.16.26-9-16.9.9-.48z" stroke="#3a414a" stroke-width=".05" fill="#3a414a"/><use xlink:href="#i" transform="matrix(1,0,0,1,449.2434585569539,880.9987258641231) translate(0 14.222222222222223)"/><path d="M313.17 991.64l9.85 7.77 9.8 7.1 9.72 6.42 9.66 5.83 9.6 5.25 9.55 4.7 9.48 4.2 9.44 3.72 9.38 3.25 2.45.73h-3.38l-8.8-3.04-9.47-3.73-9.53-4.2-9.58-4.74-9.64-5.28-9.7-5.85-9.76-6.45-9.82-7.1-9.88-7.8-.4-.33.65-.78zm311.98.2l-9.5 7.55-9.82 7.17-9.76 6.52-9.7 5.9-9.66 5.34-9.58 4.78-9.52 4.28-9.48 3.77-9.43 3.3-.4.13h-3.43l3.5-1.07 9.4-3.3 9.44-3.76 9.5-4.25 9.55-4.77 9.6-5.3 9.68-5.9 9.73-6.5 9.8-7.15 9.47-7.55z" stroke="#3a414a" stroke-width=".05" fill="#3a414a"/><path d="M625.55 991.5l-.4.34-.63-.78.4-.3z" fill="#3a414a"/><path d="M625.6 991.52l-.47.36-.65-.82.43-.35zm-1.05-.46l.6.75.37-.3-.6-.72zM332.43 993.9l-.13 1-19-2.55 6.93 17.86-.94.37-7.53-19.44z" stroke="#3a414a" stroke-width=".05" fill="#3a414a"/><use xlink:href="#d" transform="matrix(1,0,0,1,398.4238893779272,1040.6002052360402) translate(0 14.222222222222223)"/><use xlink:href="#j" transform="matrix(1,0,0,1,398.4238893779272,1040.6002052360402) translate(36.49382716049384 14.222222222222223)"/><use xlink:href="#k" transform="matrix(1,0,0,1,398.4238893779272,1040.6002052360402) translate(121.38271604938272 14.222222222222223)"/><path d="M428.23 936.02L416 937.5l-13 2.12-13.37 2.76-14.05 3.53-15.2 4.5-17.15 5.88-20.25 7.9-.36-.93 20.26-7.9 17.2-5.9 15.24-4.5 14.1-3.54 13.4-2.76 13.04-2.13 12.37-1.48zm87.27 1.8l18.37 3.24 20.56 4.5 23.5 6.2 27.55 8.5 8.5 2.88-.34.94-8.46-2.86-27.5-8.5-23.48-6.2-20.53-4.48-18.32-3.22-7.17-.95v-1z" stroke="#3a414a" stroke-width=".05" fill="#3a414a"/><path d="M323 964.18l-.68.26v-1.07l.3-.12z" fill="#3a414a"/><path d="M323.03 964.2l-.74.28v-1.13l.35-.14zm-.7-.8l.03.5-.02.5.62-.24-.34-.88zM614.67 963.9l-20.36 4.5-.2-1 18.7-4.1-12.62-14.42.75-.66z" stroke="#3a414a" stroke-width=".05" fill="#3a414a"/><g><use xlink:href="#l" transform="matrix(1,0,0,1,428.2312565259439,923.3653950900094) translate(0 14.222222222222223)"/></g><defs><path fill="#3a414a" d="M205 0l-28-72H64L36 0H1l101-248h38L239 0h-34zm-38-99l-47-123c-12 45-31 82-46 123h93" id="m"/><path fill="#3a414a" d="M96-169c-40 0-48 33-48 73s9 75 48 75c24 0 41-14 43-38l32 2c-6 37-31 61-74 61-59 0-76-41-82-99-10-93 101-131 147-64 4 7 5 14 7 22l-32 3c-4-21-16-35-41-35" id="n"/><path fill="#3a414a" d="M59-47c-2 24 18 29 38 22v24C64 9 27 4 27-40v-127H5v-23h24l9-43h21v43h35v23H59v120" id="o"/><path fill="#3a414a" d="M24-231v-30h32v30H24zM24 0v-190h32V0H24" id="p"/><path fill="#3a414a" d="M108 0H70L1-190h34L89-25l56-165h34" id="q"/><path fill="#3a414a" d="M179-190L93 31C79 59 56 82 12 73V49c39 6 53-20 64-50L1-190h34L92-34l54-156h33" id="r"/><g id="a"><use transform="matrix(0.06172839506172839,0,0,0.06172839506172839,0,0)" xlink:href="#m"/><use transform="matrix(0.06172839506172839,0,0,0.06172839506172839,14.814814814814813,0)" xlink:href="#n"/><use transform="matrix(0.06172839506172839,0,0,0.06172839506172839,25.925925925925924,0)" xlink:href="#o"/><use transform="matrix(0.06172839506172839,0,0,0.06172839506172839,32.098765432098766,0)" xlink:href="#p"/><use transform="matrix(0.06172839506172839,0,0,0.06172839506172839,36.97530864197531,0)" xlink:href="#q"/><use transform="matrix(0.06172839506172839,0,0,0.06172839506172839,48.08641975308642,0)" xlink:href="#p"/><use transform="matrix(0.06172839506172839,0,0,0.06172839506172839,52.96296296296296,0)" xlink:href="#o"/><use transform="matrix(0.06172839506172839,0,0,0.06172839506172839,59.135802469135804,0)" xlink:href="#r"/></g><path fill="#3a414a" d="M30 0v-248h187v28H63v79h144v27H63v87h162V0H30" id="s"/><path fill="#3a414a" d="M117-194c89-4 53 116 60 194h-32v-121c0-31-8-49-39-48C34-167 62-67 57 0H25l-1-190h30c1 10-1 24 2 32 11-22 29-35 61-36" id="t"/><g id="b"><use transform="matrix(0.06172839506172839,0,0,0.06172839506172839,0,0)" xlink:href="#s"/><use transform="matrix(0.06172839506172839,0,0,0.06172839506172839,14.814814814814813,0)" xlink:href="#t"/><use transform="matrix(0.06172839506172839,0,0,0.06172839506172839,27.160493827160494,0)" xlink:href="#o"/><use transform="matrix(0.06172839506172839,0,0,0.06172839506172839,33.333333333333336,0)" xlink:href="#p"/><use transform="matrix(0.06172839506172839,0,0,0.06172839506172839,38.20987654320988,0)" xlink:href="#o"/><use transform="matrix(0.06172839506172839,0,0,0.06172839506172839,44.38271604938272,0)" xlink:href="#r"/></g><path fill="#3a414a" d="M177-190C167-65 218 103 67 71c-23-6-38-20-44-43l32-5c15 47 100 32 89-28v-30C133-14 115 1 83 1 29 1 15-40 15-95c0-56 16-97 71-98 29-1 48 16 59 35 1-10 0-23 2-32h30zM94-22c36 0 50-32 50-73 0-42-14-75-50-75-39 0-46 34-46 75s6 73 46 73" id="u"/><path fill="#3a414a" d="M100-194c63 0 86 42 84 106H49c0 40 14 67 53 68 26 1 43-12 49-29l28 8c-11 28-37 45-77 45C44 4 14-33 15-96c1-61 26-98 85-98zm52 81c6-60-76-77-97-28-3 7-6 17-6 28h103" id="v"/><g id="c"><use transform="matrix(0.06172839506172839,0,0,0.06172839506172839,0,0)" xlink:href="#m"/><use transform="matrix(0.06172839506172839,0,0,0.06172839506172839,14.814814814814813,0)" xlink:href="#u"/><use transform="matrix(0.06172839506172839,0,0,0.06172839506172839,27.160493827160494,0)" xlink:href="#v"/><use transform="matrix(0.06172839506172839,0,0,0.06172839506172839,39.50617283950617,0)" xlink:href="#t"/><use transform="matrix(0.06172839506172839,0,0,0.06172839506172839,51.85185185185185,0)" xlink:href="#o"/></g><path fill="#333" d="M206 0h-36l-40-164L89 0H53L-1-190h32L70-26l43-164h34l41 164 42-164h31" id="w"/><path fill="#333" d="M141-36C126-15 110 5 73 4 37 3 15-17 15-53c-1-64 63-63 125-63 3-35-9-54-41-54-24 1-41 7-42 31l-33-3c5-37 33-52 76-52 45 0 72 20 72 64v82c-1 20 7 32 28 27v20c-31 9-61-2-59-35zM48-53c0 20 12 33 32 33 41-3 63-29 60-74-43 2-92-5-92 41" id="x"/><path fill="#333" d="M135-143c-3-34-86-38-87 0 15 53 115 12 119 90S17 21 10-45l28-5c4 36 97 45 98 0-10-56-113-15-118-90-4-57 82-63 122-42 12 7 21 19 24 35" id="y"/><g id="d"><use transform="matrix(0.04938271604938272,0,0,0.04938271604938272,0,0)" xlink:href="#w"/><use transform="matrix(0.04938271604938272,0,0,0.04938271604938272,12.790123456790125,0)" xlink:href="#x"/><use transform="matrix(0.04938271604938272,0,0,0.04938271604938272,22.66666666666667,0)" xlink:href="#y"/></g><path fill="#333" d="M100-194c62-1 85 37 85 99 1 63-27 99-86 99S16-35 15-95c0-66 28-99 85-99zM99-20c44 1 53-31 53-75 0-43-8-75-51-75s-53 32-53 75 10 74 51 75" id="z"/><path fill="#333" d="M96-169c-40 0-48 33-48 73s9 75 48 75c24 0 41-14 43-38l32 2c-6 37-31 61-74 61-59 0-76-41-82-99-10-93 101-131 147-64 4 7 5 14 7 22l-32 3c-4-21-16-35-41-35" id="A"/><path fill="#333" d="M24-231v-30h32v30H24zM24 0v-190h32V0H24" id="B"/><path fill="#333" d="M59-47c-2 24 18 29 38 22v24C64 9 27 4 27-40v-127H5v-23h24l9-43h21v43h35v23H59v120" id="C"/><path fill="#333" d="M100-194c63 0 86 42 84 106H49c0 40 14 67 53 68 26 1 43-12 49-29l28 8c-11 28-37 45-77 45C44 4 14-33 15-96c1-61 26-98 85-98zm52 81c6-60-76-77-97-28-3 7-6 17-6 28h103" id="D"/><path fill="#333" d="M85-194c31 0 48 13 60 33l-1-100h32l1 261h-30c-2-10 0-23-3-31C134-8 116 4 85 4 32 4 16-35 15-94c0-66 23-100 70-100zm9 24c-40 0-46 34-46 75 0 40 6 74 45 74 42 0 51-32 51-76 0-42-9-74-50-73" id="E"/><g id="e"><use transform="matrix(0.04938271604938272,0,0,0.04938271604938272,0,0)" xlink:href="#x"/><use transform="matrix(0.04938271604938272,0,0,0.04938271604938272,9.876543209876544,0)" xlink:href="#y"/><use transform="matrix(0.04938271604938272,0,0,0.04938271604938272,18.765432098765434,0)" xlink:href="#y"/><use transform="matrix(0.04938271604938272,0,0,0.04938271604938272,27.654320987654323,0)" xlink:href="#z"/><use transform="matrix(0.04938271604938272,0,0,0.04938271604938272,37.53086419753087,0)" xlink:href="#A"/><use transform="matrix(0.04938271604938272,0,0,0.04938271604938272,46.41975308641976,0)" xlink:href="#B"/><use transform="matrix(0.04938271604938272,0,0,0.04938271604938272,50.320987654320994,0)" xlink:href="#x"/><use transform="matrix(0.04938271604938272,0,0,0.04938271604938272,60.19753086419754,0)" xlink:href="#C"/><use transform="matrix(0.04938271604938272,0,0,0.04938271604938272,65.13580246913581,0)" xlink:href="#D"/><use transform="matrix(0.04938271604938272,0,0,0.04938271604938272,75.01234567901236,0)" xlink:href="#E"/></g><path fill="#333" d="M106-169C34-169 62-67 57 0H25v-261h32l-1 103c12-21 28-36 61-36 89 0 53 116 60 194h-32v-121c2-32-8-49-39-48" id="F"/><g id="f"><use transform="matrix(0.04938271604938272,0,0,0.04938271604938272,0,0)" xlink:href="#w"/><use transform="matrix(0.04938271604938272,0,0,0.04938271604938272,12.790123456790125,0)" xlink:href="#B"/><use transform="matrix(0.04938271604938272,0,0,0.04938271604938272,16.69135802469136,0)" xlink:href="#C"/><use transform="matrix(0.04938271604938272,0,0,0.04938271604938272,21.629629629629633,0)" xlink:href="#F"/></g><path fill="#333" d="M114-163C36-179 61-72 57 0H25l-1-190h30c1 12-1 29 2 39 6-27 23-49 58-41v29" id="G"/><path fill="#333" d="M115-194c53 0 69 39 70 98 0 66-23 100-70 100C84 3 66-7 56-30L54 0H23l1-261h32v101c10-23 28-34 59-34zm-8 174c40 0 45-34 45-75 0-40-5-75-45-74-42 0-51 32-51 76 0 43 10 73 51 73" id="H"/><path fill="#333" d="M84 4C-5 8 30-112 23-190h32v120c0 31 7 50 39 49 72-2 45-101 50-169h31l1 190h-30c-1-10 1-25-2-33-11 22-28 36-60 37" id="I"/><g id="g"><use transform="matrix(0.04938271604938272,0,0,0.04938271604938272,0,0)" xlink:href="#x"/><use transform="matrix(0.04938271604938272,0,0,0.04938271604938272,9.876543209876544,0)" xlink:href="#C"/><use transform="matrix(0.04938271604938272,0,0,0.04938271604938272,14.814814814814817,0)" xlink:href="#C"/><use transform="matrix(0.04938271604938272,0,0,0.04938271604938272,19.75308641975309,0)" xlink:href="#G"/><use transform="matrix(0.04938271604938272,0,0,0.04938271604938272,25.629629629629633,0)" xlink:href="#B"/><use transform="matrix(0.04938271604938272,0,0,0.04938271604938272,29.530864197530867,0)" xlink:href="#H"/><use transform="matrix(0.04938271604938272,0,0,0.04938271604938272,39.40740740740741,0)" xlink:href="#I"/><use transform="matrix(0.04938271604938272,0,0,0.04938271604938272,49.283950617283956,0)" xlink:href="#C"/><use transform="matrix(0.04938271604938272,0,0,0.04938271604938272,54.22222222222223,0)" xlink:href="#D"/><use transform="matrix(0.04938271604938272,0,0,0.04938271604938272,64.09876543209877,0)" xlink:href="#E"/></g><g id="h"><use transform="matrix(0.04938271604938272,0,0,0.04938271604938272,0,0)" xlink:href="#C"/><use transform="matrix(0.04938271604938272,0,0,0.04938271604938272,4.938271604938272,0)" xlink:href="#z"/></g><g id="i"><use transform="matrix(0.04938271604938272,0,0,0.04938271604938272,0,0)" xlink:href="#I"/><use transform="matrix(0.04938271604938272,0,0,0.04938271604938272,9.876543209876544,0)" xlink:href="#y"/><use transform="matrix(0.04938271604938272,0,0,0.04938271604938272,18.765432098765434,0)" xlink:href="#D"/><use transform="matrix(0.04938271604938272,0,0,0.04938271604938272,28.641975308641978,0)" xlink:href="#E"/></g><path fill="#333" d="M177-190C167-65 218 103 67 71c-23-6-38-20-44-43l32-5c15 47 100 32 89-28v-30C133-14 115 1 83 1 29 1 15-40 15-95c0-56 16-97 71-98 29-1 48 16 59 35 1-10 0-23 2-32h30zM94-22c36 0 50-32 50-73 0-42-14-75-50-75-39 0-46 34-46 75s6 73 46 73" id="J"/><path fill="#333" d="M117-194c89-4 53 116 60 194h-32v-121c0-31-8-49-39-48C34-167 62-67 57 0H25l-1-190h30c1 10-1 24 2 32 11-22 29-35 61-36" id="K"/><g id="j"><use transform="matrix(0.04938271604938272,0,0,0.04938271604938272,0,0)" xlink:href="#J"/><use transform="matrix(0.04938271604938272,0,0,0.04938271604938272,9.876543209876544,0)" xlink:href="#D"/><use transform="matrix(0.04938271604938272,0,0,0.04938271604938272,19.75308641975309,0)" xlink:href="#K"/><use transform="matrix(0.04938271604938272,0,0,0.04938271604938272,29.629629629629633,0)" xlink:href="#D"/><use transform="matrix(0.04938271604938272,0,0,0.04938271604938272,39.50617283950618,0)" xlink:href="#G"/><use transform="matrix(0.04938271604938272,0,0,0.04938271604938272,45.38271604938272,0)" xlink:href="#x"/><use transform="matrix(0.04938271604938272,0,0,0.04938271604938272,55.25925925925927,0)" xlink:href="#C"/><use transform="matrix(0.04938271604938272,0,0,0.04938271604938272,60.19753086419754,0)" xlink:href="#D"/><use transform="matrix(0.04938271604938272,0,0,0.04938271604938272,70.07407407407408,0)" xlink:href="#E"/></g><path fill="#333" d="M179-190L93 31C79 59 56 82 12 73V49c39 6 53-20 64-50L1-190h34L92-34l54-156h33" id="L"/><g id="k"><use transform="matrix(0.04938271604938272,0,0,0.04938271604938272,0,0)" xlink:href="#H"/><use transform="matrix(0.04938271604938272,0,0,0.04938271604938272,9.876543209876544,0)" xlink:href="#L"/></g><g id="l"><use transform="matrix(0.04938271604938272,0,0,0.04938271604938272,0,0)" xlink:href="#J"/><use transform="matrix(0.04938271604938272,0,0,0.04938271604938272,9.876543209876544,0)" xlink:href="#D"/><use transform="matrix(0.04938271604938272,0,0,0.04938271604938272,19.75308641975309,0)" xlink:href="#K"/><use transform="matrix(0.04938271604938272,0,0,0.04938271604938272,29.629629629629633,0)" xlink:href="#D"/><use transform="matrix(0.04938271604938272,0,0,0.04938271604938272,39.50617283950618,0)" xlink:href="#G"/><use transform="matrix(0.04938271604938272,0,0,0.04938271604938272,45.38271604938272,0)" xlink:href="#x"/><use transform="matrix(0.04938271604938272,0,0,0.04938271604938272,55.25925925925927,0)" xlink:href="#C"/><use transform="matrix(0.04938271604938272,0,0,0.04938271604938272,60.19753086419754,0)" xlink:href="#D"/><use transform="matrix(0.04938271604938272,0,0,0.04938271604938272,70.07407407407408,0)" xlink:href="#E"/></g></defs></g></svg>