<svg xmlns="http://www.w3.org/2000/svg" xmlns:xlink="http://www.w3.org/1999/xlink" xmlns:lucid="lucid" width="765.9" height="666.33"><g transform="translate(-381.0524010417123 -184.16666666666663)" lucid:page-tab-id="Z7k0mXI8_CY7"><path d="M0 0h1500v1000H0z" fill="#fff"/><path d="M830.45 558.67c0 30.56-37 55.33-82.67 55.33-45.65 0-82.67-24.77-82.67-55.33s37.02-55.34 82.68-55.34c45.66 0 82.67 24.78 82.67 55.34z" stroke="#3a414a" fill="#dedeff"/><use xlink:href="#a" transform="matrix(1,0,0,1,670.1142656249538,508.3333333333332) translate(42.876543209876544 55.65277777777778)"/><path d="M830.45 774.67c0 30.56-37 55.33-82.67 55.33-45.65 0-82.67-24.77-82.67-55.33s37.02-55.34 82.68-55.34c45.66 0 82.67 24.78 82.67 55.34z" stroke="#3a414a" fill="#fcfcca"/><use xlink:href="#b" transform="matrix(1,0,0,1,670.1142656249538,724.3333333333335) translate(50.25308641975308 55.65277777777778)"/><path d="M748.28 717.92h-1v-40.6h1zm0-61.92h-1v-41h1z" stroke="#3a414a" stroke-width=".05" fill="#3a414a"/><path d="M747.78 614.5h.5v.5h-1v-.5z" fill="#3a414a"/><path d="M747.78 614.48l.53-.02v.58h-1.04v-.58zm-.47.5h.96v-.47l-.48.02h-.47zM758.4 700.9l-10.62 17.93-10.6-17.94.85-.52 9.75 16.5 9.75-16.5z" stroke="#3a414a" stroke-width=".05" fill="#3a414a"/><use xlink:href="#c" transform="matrix(1,0,0,1,707.8056236496452,656.0007826654092) translate(0 14.222222222222223)"/><path d="M830.45 260c0 30.56-37 55.33-82.67 55.33-45.65 0-82.67-24.77-82.67-55.33s37.02-55.33 82.68-55.33c45.66 0 82.67 24.77 82.67 55.33z" stroke="#3a414a" fill="#fcfcca"/><use xlink:href="#b" transform="matrix(1,0,0,1,670.1142656249538,209.66666666666663) translate(50.25308641975308 55.65277777777778)"/><path d="M748.28 502.33h-1V420h1zm0-103.66h-1v-81.93h1z" stroke="#3a414a" stroke-width=".05" fill="#3a414a"/><path d="M748.28 502.85l-.5-.02-.5.02v-.53h1z" fill="#3a414a"/><path d="M748.3 502.87h-1.04v-.58h1.05zm-1-.53v.48h.96v-.48zM758.4 333.78l-.87.5-9.75-16.48-9.75 16.5-.86-.52 10.6-17.95z" stroke="#3a414a" stroke-width=".05" fill="#3a414a"/><use xlink:href="#d" transform="matrix(1,0,0,1,728.5216730323613,398.6652643603399) translate(0 14.222222222222223)"/><path d="M566.9 260c0 30.56-37.02 55.33-82.68 55.33-45.66 0-82.67-24.77-82.67-55.33s37-55.33 82.67-55.33c45.65 0 82.67 24.77 82.67 55.33z" stroke="#3a414a" fill="#fcfcca"/><use xlink:href="#e" transform="matrix(1,0,0,1,406.5524010417123,209.66666666666669) translate(55.808641975308646 55.65277777777778)"/><path d="M682.8 523.2l-.78.63-65.4-80.12h1.3zM544.94 331.7l16.03 29.04 14.88 24.46 15.58 23.3 10.14 13.87h-1.24l-9.72-13.28-15.6-23.36-14.9-24.5-16.04-29.1-12.73-25.12.9-.45z" stroke="#3a414a" stroke-width=".05" fill="#3a414a"/><path d="M683.1 523.58l-.76.64-.33-.4.8-.63z" fill="#3a414a"/><path d="M683.15 523.6l-.8.66-.37-.44.8-.67zm-1.1.22l.3.37.73-.62-.3-.36zM548.93 317.2l-.53.84-16.15-10.3-1.25 19.1-1-.06 1.36-20.8z" stroke="#3a414a" stroke-width=".05" fill="#3a414a"/><use xlink:href="#f" transform="matrix(1,0,0,1,574.6995548691797,422.37348171330166) translate(0.005000000000002558 14.222222222222223)"/><use xlink:href="#g" transform="matrix(1,0,0,1,574.6995548691797,422.37348171330166) translate(34.57290123456791 14.222222222222223)"/><path d="M567.9 260h80.33" stroke="#3a414a" fill="none"/><path d="M567.9 260.5h-.53l.02-.5-.03-.5h.53z" stroke="#3a414a" stroke-width=".05" fill="#3a414a"/><path d="M663 260l-14.27 4.63v-9.26z" stroke="#3a414a" fill="#fff"/><path d="M731.4 432.47l-53.54.1H642.8v-1h35.06l53.54-.1z" stroke="#3a414a" stroke-width=".05" fill="#3a414a"/><path stroke="#3a414a" stroke-width=".05" fill="#3a414a"/><path d="M746.16 431.97l-14.26 4.64v-9.26z" fill="#fff"/><path d="M747.78 431.97l-16.38 5.33v-10.65zm-15.38 3.95l12.14-3.95-12.14-3.95z" stroke="#3a414a" stroke-width=".05" fill="#3a414a"/><path d="M1126.45 393.33c0 30.56-37 55.34-82.67 55.34-45.65 0-82.67-24.78-82.67-55.34 0-30.56 37.02-55.33 82.68-55.33 45.66 0 82.67 24.77 82.67 55.33z" stroke="#3a414a" fill="#fcfcca"/><use xlink:href="#b" transform="matrix(1,0,0,1,966.114265624954,342.99999999999994) translate(50.25308641975308 55.65277777777778)"/><path d="M883.64 486.82l-.34.07-10.86 2.5-7.6 2.08-6.12 1.97-5.26 1.94-4.67 1.94-4.24 1.98-3.9 2.02-3.63 2.1-3.43 2.15-3.25 2.24-3.12 2.35-3 2.46-2.9 2.6-2.82 2.76-2.75 2.92-2.4 2.76-.75-.66 2.4-2.77 2.8-2.95 2.85-2.8 2.94-2.62 3-2.5 3.16-2.37 3.3-2.27 3.45-2.2 3.68-2.1 3.94-2.04 4.27-2 4.7-1.96 5.3-1.95 6.17-1.98 7.62-2.1 10.9-2.5.54-.12zm104.53-50.92l-.18.3-2.04 3.34-2.06 3.1-2.1 2.87-2.15 2.7-2.2 2.53-2.24 2.4-2.32 2.26-2.4 2.15-2.5 2.06-2.64 2-2.77 1.9-2.94 1.87-3.15 1.8-3.4 1.78-3.75 1.74-4.16 1.73-4.75 1.75-5.62 1.8-7.05 1.95-5.6 1.13v-1.02l5.36-1.08 7.02-1.93 5.57-1.8 4.7-1.73 4.13-1.72 3.7-1.73 3.37-1.75 3.1-1.8 2.92-1.82 2.73-1.9 2.6-1.95 2.47-2.04 2.38-2.14 2.3-2.24 2.22-2.36 2.16-2.5 2.12-2.65 2.08-2.84 2.04-3.05 2-3.3.18-.3z" stroke="#3a414a" stroke-width=".05" fill="#3a414a"/><path d="M813.37 523.7l-.33.37-.77-.64.34-.4z" fill="#3a414a"/><path d="M813.4 523.7l-.36.4-.8-.67.37-.43zm-1.1-.27l.73.6.3-.34-.72-.63zM986.88 455.67l-1-.06 1.2-19.1-17.33 8.15-.42-.9 18.85-8.88z" stroke="#3a414a" stroke-width=".05" fill="#3a414a"/><use xlink:href="#d" transform="matrix(1,0,0,1,883.6357140245884,471.76284235235687) translate(0 14.222222222222223)"/><path d="M954.4 303.56l4.9 4.9 4.93 5.36 4.97 5.88 5.03 6.5 5.14 7.24 5.26 8.1 5.17 8.76-.86.5-5.16-8.72-5.24-8.08-5.1-7.2-5.02-6.47-4.94-5.85-4.9-5.32-4.87-4.88-1.53-1.42h1.48zm-120.36-44.04l11.26.35 10.1.74 9.16 1.07 8.4 1.32 7.75 1.56 7.25 1.78 5.56 1.6V269l-5.8-1.7-7.2-1.76-7.72-1.56-8.36-1.32-9.1-1.06-10.07-.73-11.23-.35h-2.17v-1z" stroke="#3a414a" stroke-width=".05" fill="#3a414a"/><path d="M990.06 350.74l-.87.5-.27-.44.86-.5z" fill="#3a414a"/><path d="M990.1 350.75l-.92.52-.28-.48.9-.55zm-1.13.06l.23.4.83-.47-.25-.4zM849.66 250.76l-16.75 9.3 16.22 10.2-.53.85-17.65-11.1 18.23-10.1z" stroke="#3a414a" stroke-width=".05" fill="#3a414a"/><use xlink:href="#h" transform="matrix(1,0,0,1,893.510046145203,260.1963190370878) translate(13.807469135802467 14.222222222222223)"/><use xlink:href="#i" transform="matrix(1,0,0,1,893.510046145203,260.1963190370878) translate(0.004999999999999005 35.55555555555556)"/><defs><path fill="#3a414a" d="M205 0l-28-72H64L36 0H1l101-248h38L239 0h-34zm-38-99l-47-123c-12 45-31 82-46 123h93" id="j"/><path fill="#3a414a" d="M96-169c-40 0-48 33-48 73s9 75 48 75c24 0 41-14 43-38l32 2c-6 37-31 61-74 61-59 0-76-41-82-99-10-93 101-131 147-64 4 7 5 14 7 22l-32 3c-4-21-16-35-41-35" id="k"/><path fill="#3a414a" d="M59-47c-2 24 18 29 38 22v24C64 9 27 4 27-40v-127H5v-23h24l9-43h21v43h35v23H59v120" id="l"/><path fill="#3a414a" d="M24-231v-30h32v30H24zM24 0v-190h32V0H24" id="m"/><path fill="#3a414a" d="M108 0H70L1-190h34L89-25l56-165h34" id="n"/><path fill="#3a414a" d="M179-190L93 31C79 59 56 82 12 73V49c39 6 53-20 64-50L1-190h34L92-34l54-156h33" id="o"/><g id="a"><use transform="matrix(0.06172839506172839,0,0,0.06172839506172839,0,0)" xlink:href="#j"/><use transform="matrix(0.06172839506172839,0,0,0.06172839506172839,14.814814814814813,0)" xlink:href="#k"/><use transform="matrix(0.06172839506172839,0,0,0.06172839506172839,25.925925925925924,0)" xlink:href="#l"/><use transform="matrix(0.06172839506172839,0,0,0.06172839506172839,32.098765432098766,0)" xlink:href="#m"/><use transform="matrix(0.06172839506172839,0,0,0.06172839506172839,36.97530864197531,0)" xlink:href="#n"/><use transform="matrix(0.06172839506172839,0,0,0.06172839506172839,48.08641975308642,0)" xlink:href="#m"/><use transform="matrix(0.06172839506172839,0,0,0.06172839506172839,52.96296296296296,0)" xlink:href="#l"/><use transform="matrix(0.06172839506172839,0,0,0.06172839506172839,59.135802469135804,0)" xlink:href="#o"/></g><path fill="#3a414a" d="M30 0v-248h187v28H63v79h144v27H63v87h162V0H30" id="p"/><path fill="#3a414a" d="M117-194c89-4 53 116 60 194h-32v-121c0-31-8-49-39-48C34-167 62-67 57 0H25l-1-190h30c1 10-1 24 2 32 11-22 29-35 61-36" id="q"/><g id="b"><use transform="matrix(0.06172839506172839,0,0,0.06172839506172839,0,0)" xlink:href="#p"/><use transform="matrix(0.06172839506172839,0,0,0.06172839506172839,14.814814814814813,0)" xlink:href="#q"/><use transform="matrix(0.06172839506172839,0,0,0.06172839506172839,27.160493827160494,0)" xlink:href="#l"/><use transform="matrix(0.06172839506172839,0,0,0.06172839506172839,33.333333333333336,0)" xlink:href="#m"/><use transform="matrix(0.06172839506172839,0,0,0.06172839506172839,38.20987654320988,0)" xlink:href="#l"/><use transform="matrix(0.06172839506172839,0,0,0.06172839506172839,44.38271604938272,0)" xlink:href="#o"/></g><path fill="#333" d="M177-190C167-65 218 103 67 71c-23-6-38-20-44-43l32-5c15 47 100 32 89-28v-30C133-14 115 1 83 1 29 1 15-40 15-95c0-56 16-97 71-98 29-1 48 16 59 35 1-10 0-23 2-32h30zM94-22c36 0 50-32 50-73 0-42-14-75-50-75-39 0-46 34-46 75s6 73 46 73" id="r"/><path fill="#333" d="M100-194c63 0 86 42 84 106H49c0 40 14 67 53 68 26 1 43-12 49-29l28 8c-11 28-37 45-77 45C44 4 14-33 15-96c1-61 26-98 85-98zm52 81c6-60-76-77-97-28-3 7-6 17-6 28h103" id="s"/><path fill="#333" d="M117-194c89-4 53 116 60 194h-32v-121c0-31-8-49-39-48C34-167 62-67 57 0H25l-1-190h30c1 10-1 24 2 32 11-22 29-35 61-36" id="t"/><path fill="#333" d="M114-163C36-179 61-72 57 0H25l-1-190h30c1 12-1 29 2 39 6-27 23-49 58-41v29" id="u"/><path fill="#333" d="M141-36C126-15 110 5 73 4 37 3 15-17 15-53c-1-64 63-63 125-63 3-35-9-54-41-54-24 1-41 7-42 31l-33-3c5-37 33-52 76-52 45 0 72 20 72 64v82c-1 20 7 32 28 27v20c-31 9-61-2-59-35zM48-53c0 20 12 33 32 33 41-3 63-29 60-74-43 2-92-5-92 41" id="v"/><path fill="#333" d="M59-47c-2 24 18 29 38 22v24C64 9 27 4 27-40v-127H5v-23h24l9-43h21v43h35v23H59v120" id="w"/><path fill="#333" d="M85-194c31 0 48 13 60 33l-1-100h32l1 261h-30c-2-10 0-23-3-31C134-8 116 4 85 4 32 4 16-35 15-94c0-66 23-100 70-100zm9 24c-40 0-46 34-46 75 0 40 6 74 45 74 42 0 51-32 51-76 0-42-9-74-50-73" id="x"/><g id="c"><use transform="matrix(0.04938271604938272,0,0,0.04938271604938272,0,0)" xlink:href="#r"/><use transform="matrix(0.04938271604938272,0,0,0.04938271604938272,9.876543209876544,0)" xlink:href="#s"/><use transform="matrix(0.04938271604938272,0,0,0.04938271604938272,19.75308641975309,0)" xlink:href="#t"/><use transform="matrix(0.04938271604938272,0,0,0.04938271604938272,29.629629629629633,0)" xlink:href="#s"/><use transform="matrix(0.04938271604938272,0,0,0.04938271604938272,39.50617283950618,0)" xlink:href="#u"/><use transform="matrix(0.04938271604938272,0,0,0.04938271604938272,45.38271604938272,0)" xlink:href="#v"/><use transform="matrix(0.04938271604938272,0,0,0.04938271604938272,55.25925925925927,0)" xlink:href="#w"/><use transform="matrix(0.04938271604938272,0,0,0.04938271604938272,60.19753086419754,0)" xlink:href="#s"/><use transform="matrix(0.04938271604938272,0,0,0.04938271604938272,70.07407407407408,0)" xlink:href="#x"/></g><path fill="#333" d="M84 4C-5 8 30-112 23-190h32v120c0 31 7 50 39 49 72-2 45-101 50-169h31l1 190h-30c-1-10 1-25-2-33-11 22-28 36-60 37" id="y"/><path fill="#333" d="M135-143c-3-34-86-38-87 0 15 53 115 12 119 90S17 21 10-45l28-5c4 36 97 45 98 0-10-56-113-15-118-90-4-57 82-63 122-42 12 7 21 19 24 35" id="z"/><g id="d"><use transform="matrix(0.04938271604938272,0,0,0.04938271604938272,0,0)" xlink:href="#y"/><use transform="matrix(0.04938271604938272,0,0,0.04938271604938272,9.876543209876544,0)" xlink:href="#z"/><use transform="matrix(0.04938271604938272,0,0,0.04938271604938272,18.765432098765434,0)" xlink:href="#s"/><use transform="matrix(0.04938271604938272,0,0,0.04938271604938272,28.641975308641978,0)" xlink:href="#x"/></g><path fill="#3a414a" d="M30-248c87 1 191-15 191 75 0 78-77 80-158 76V0H30v-248zm33 125c57 0 124 11 124-50 0-59-68-47-124-48v98" id="A"/><path fill="#3a414a" d="M24 0v-261h32V0H24" id="B"/><path fill="#3a414a" d="M141-36C126-15 110 5 73 4 37 3 15-17 15-53c-1-64 63-63 125-63 3-35-9-54-41-54-24 1-41 7-42 31l-33-3c5-37 33-52 76-52 45 0 72 20 72 64v82c-1 20 7 32 28 27v20c-31 9-61-2-59-35zM48-53c0 20 12 33 32 33 41-3 63-29 60-74-43 2-92-5-92 41" id="C"/><g id="e"><use transform="matrix(0.06172839506172839,0,0,0.06172839506172839,0,0)" xlink:href="#A"/><use transform="matrix(0.06172839506172839,0,0,0.06172839506172839,14.814814814814813,0)" xlink:href="#B"/><use transform="matrix(0.06172839506172839,0,0,0.06172839506172839,19.691358024691354,0)" xlink:href="#C"/><use transform="matrix(0.06172839506172839,0,0,0.06172839506172839,32.03703703703703,0)" xlink:href="#q"/></g><path fill="#333" d="M106-169C34-169 62-67 57 0H25v-261h32l-1 103c12-21 28-36 61-36 89 0 53 116 60 194h-32v-121c2-32-8-49-39-48" id="D"/><g id="f"><use transform="matrix(0.04938271604938272,0,0,0.04938271604938272,0,0)" xlink:href="#D"/><use transform="matrix(0.04938271604938272,0,0,0.04938271604938272,9.876543209876544,0)" xlink:href="#v"/><use transform="matrix(0.04938271604938272,0,0,0.04938271604938272,19.75308641975309,0)" xlink:href="#x"/></g><path fill="#333" d="M115-194c55 1 70 41 70 98S169 2 115 4C84 4 66-9 55-30l1 105H24l-1-265h31l2 30c10-21 28-34 59-34zm-8 174c40 0 45-34 45-75s-6-73-45-74c-42 0-51 32-51 76 0 43 10 73 51 73" id="E"/><path fill="#333" d="M24 0v-261h32V0H24" id="F"/><g id="g"><use transform="matrix(0.04938271604938272,0,0,0.04938271604938272,0,0)" xlink:href="#E"/><use transform="matrix(0.04938271604938272,0,0,0.04938271604938272,9.876543209876544,0)" xlink:href="#F"/><use transform="matrix(0.04938271604938272,0,0,0.04938271604938272,13.777777777777779,0)" xlink:href="#v"/><use transform="matrix(0.04938271604938272,0,0,0.04938271604938272,23.654320987654323,0)" xlink:href="#t"/></g><path fill="#333" d="M100-194c62-1 85 37 85 99 1 63-27 99-86 99S16-35 15-95c0-66 28-99 85-99zM99-20c44 1 53-31 53-75 0-43-8-75-51-75s-53 32-53 75 10 74 51 75" id="G"/><path fill="#333" d="M33-154v-36h34v36H33zM33 0v-36h34V0H33" id="H"/><g id="h"><use transform="matrix(0.04938271604938272,0,0,0.04938271604938272,0,0)" xlink:href="#z"/><use transform="matrix(0.04938271604938272,0,0,0.04938271604938272,8.88888888888889,0)" xlink:href="#x"/><use transform="matrix(0.04938271604938272,0,0,0.04938271604938272,18.765432098765434,0)" xlink:href="#G"/><use transform="matrix(0.04938271604938272,0,0,0.04938271604938272,28.641975308641978,0)" xlink:href="#H"/></g><path fill="#333" d="M30-248c87 1 191-15 191 75 0 78-77 80-158 76V0H30v-248zm33 125c57 0 124 11 124-50 0-59-68-47-124-48v98" id="I"/><g id="i"><use transform="matrix(0.04938271604938272,0,0,0.04938271604938272,0,0)" xlink:href="#D"/><use transform="matrix(0.04938271604938272,0,0,0.04938271604938272,9.876543209876544,0)" xlink:href="#v"/><use transform="matrix(0.04938271604938272,0,0,0.04938271604938272,19.75308641975309,0)" xlink:href="#z"/><use transform="matrix(0.04938271604938272,0,0,0.04938271604938272,28.641975308641978,0)" xlink:href="#I"/><use transform="matrix(0.04938271604938272,0,0,0.04938271604938272,40.49382716049383,0)" xlink:href="#v"/><use transform="matrix(0.04938271604938272,0,0,0.04938271604938272,50.370370370370374,0)" xlink:href="#u"/><use transform="matrix(0.04938271604938272,0,0,0.04938271604938272,56.24691358024692,0)" xlink:href="#w"/></g></defs></g></svg>